#N canvas 282 228 605 460 12;
#X obj 67 43 inlet;
#X obj 64 155 b;
#X obj 71 272 random 1e+06;
#X obj 169 404 outlet;
#N canvas 0 22 901 719 scale 0;
#X obj 329 625 outlet;
#X obj 322 504 *;
#X text 431 56 max output;
#X text 297 54 min output;
#X text 375 533 min output;
#X obj 330 74 inlet;
#X obj 440 74 inlet;
#X obj 145 62 inlet;
#X obj 382 383 f \$2;
#X obj 420 436 - \$1;
#X obj 324 532 + \$1;
#X obj 442 319 t b f;
#X obj 352 240 t f f;
#X connect 1 0 10 0;
#X connect 5 0 12 0;
#X connect 6 0 8 0;
#X connect 7 0 1 0;
#X connect 8 0 9 0;
#X connect 9 0 1 1;
#X connect 10 0 0 0;
#X connect 11 0 8 0;
#X connect 11 1 9 1;
#X connect 12 0 10 1;
#X connect 12 1 11 0;
#X restore 231 366 pd scale;
#X obj 290 54 inlet;
#X obj 380 49 inlet;
#X text 286 28 min;
#X text 374 27 max;
#X obj 71 305 * 1e-06;
#X obj 259 225 ==;
#X obj 69 217 demultiplex 0 1;
#X obj 195 266 f;
#X obj 267 164 t f f f;
#X obj 371 175 t b f f;
#X obj 436 52 loadbang;
#X obj 320 121 f \$2;
#X obj 392 144 f \$1;
#X obj 437 86 t b b;
#X connect 0 0 1 0;
#X connect 1 0 11 0;
#X connect 2 0 9 0;
#X connect 4 0 3 0;
#X connect 5 0 16 0;
#X connect 6 0 17 0;
#X connect 9 0 4 0;
#X connect 10 0 11 1;
#X connect 11 0 2 0;
#X connect 11 1 12 0;
#X connect 12 0 3 0;
#X connect 13 0 12 1;
#X connect 13 1 10 0;
#X connect 13 2 4 1;
#X connect 14 0 10 0;
#X connect 14 1 10 1;
#X connect 14 2 4 2;
#X connect 15 0 18 0;
#X connect 16 0 13 0;
#X connect 17 0 14 0;
#X connect 18 0 16 0;
#X connect 18 1 17 0;
