#N canvas 0 0 450 300 10;
#X obj 78 68 inlet~;
#X obj 76 148 +~;
#X obj 209 69 inlet~;
#X obj 214 96 osc~;
#X obj 216 139 *~;
#X obj 305 69 inlet~;
#X obj 83 176 osc~;
#X text 37 28 carrier freq;
#X text 210 33 mod freq;
#X text 300 39 mod index;
#X obj 75 243 outlet~;
#X text 52 270 See doc/3.audio.examples/A07.frequency.mod.pd;
#X connect 0 0 1 0;
#X connect 1 0 6 0;
#X connect 2 0 3 0;
#X connect 3 0 4 0;
#X connect 4 0 1 1;
#X connect 5 0 4 1;
#X connect 6 0 10 0;
