#N canvas 0 0 1066 540 10;
#X obj 179 27 notein;
#X obj 179 53 pack f f;
#X obj 229 385 *~ 0.2;
#X obj 596 328 vsl 15 50 0 1 0 0 empty empty empty 0 -8 0 8 -258699
-1 -1 400 1;
#X obj 224 442 dac~;
#X obj 179 99 pack f f f;
#X obj 179 122 route 1 2 3 4;
#X obj 179 76 poly 4 1;
#X text 272 22 Description: Midi instrument using a simple osc~;
#X obj 478 163 synth/simpleosc~;
#X obj 548 52 input/piano_ 1;
#X obj 342 156 synth/simpleosc~;
#X obj 49 156 synth/simpleosc~;
#X obj 195 156 synth/simpleosc~;
#X connect 0 0 1 0;
#X connect 0 1 1 1;
#X connect 1 0 7 0;
#X connect 2 0 4 0;
#X connect 2 0 4 1;
#X connect 3 0 2 1;
#X connect 5 0 6 0;
#X connect 6 0 12 0;
#X connect 6 1 13 0;
#X connect 6 2 11 0;
#X connect 6 3 9 0;
#X connect 7 0 5 0;
#X connect 7 1 5 1;
#X connect 7 2 5 2;
#X connect 9 0 2 0;
#X connect 10 0 1 0;
#X connect 11 0 2 0;
#X connect 12 0 2 0;
#X connect 13 0 2 0;
