#N canvas 581 288 454 304 10;
#X obj 81 23 inlet;
#X obj 72 256 outlet;
#X obj 273 254 outlet;
#X obj 80 209 spigot;
#X obj 240 203 spigot;
#X obj 79 69 trigger anything bang;
#X obj 117 164 abs;
#X obj 277 159 abs;
#X msg 216 89 1;
#X obj 117 185 float;
#X obj 276 180 float;
#X obj 117 145 - 0;
#X obj 277 140 - 1;
#X connect 0 0 5 0;
#X connect 3 0 1 0;
#X connect 4 0 2 0;
#X connect 5 0 3 0;
#X connect 5 0 4 0;
#X connect 5 1 8 0;
#X connect 6 0 9 0;
#X connect 7 0 10 0;
#X connect 8 0 11 0;
#X connect 8 0 12 0;
#X connect 9 0 3 1;
#X connect 9 0 11 1;
#X connect 10 0 4 1;
#X connect 10 0 12 1;
#X connect 11 0 6 0;
#X connect 12 0 7 0;
