#N canvas 581 288 458 308 10;
#X obj 87 8 inlet;
#X obj 151 244 outlet;
#X obj 319 247 outlet;
#X obj 159 197 spigot;
#X obj 319 191 spigot;
#X obj 158 57 trigger anything bang;
#X obj 196 152 abs;
#X floatatom 212 198 5 0 0 0 - - -;
#X obj 356 147 abs;
#X msg 295 77 1;
#X obj 196 173 float;
#X obj 355 168 float;
#X obj 86 34 route reset;
#X msg 103 82 1;
#X obj 356 128 -;
#X msg 73 82 0;
#X obj 196 133 -;
#X obj 15 35 loadbang;
#X obj 86 54 bang;
#X connect 0 0 12 0;
#X connect 3 0 1 0;
#X connect 4 0 2 0;
#X connect 5 0 3 0;
#X connect 5 0 4 0;
#X connect 5 1 9 0;
#X connect 6 0 10 0;
#X connect 8 0 11 0;
#X connect 9 0 14 0;
#X connect 9 0 16 0;
#X connect 10 0 3 1;
#X connect 10 0 7 0;
#X connect 10 0 16 1;
#X connect 11 0 4 1;
#X connect 11 0 14 1;
#X connect 12 0 18 0;
#X connect 12 1 5 0;
#X connect 13 0 14 1;
#X connect 14 0 8 0;
#X connect 15 0 16 1;
#X connect 16 0 6 0;
#X connect 17 0 13 0;
#X connect 17 0 15 0;
#X connect 18 0 13 0;
#X connect 18 0 15 0;
