#N canvas 193 125 504 359 10;
#X obj 24 13 inlet;
#X obj 204 10 inlet;
#X obj 358 14 inlet;
#X text 177 10 min;
#X text 329 13 max;
#X obj 24 306 outlet;
#X obj 25 257 min;
#X obj 25 226 max;
#X obj 358 156 float_argument \$2;
#X obj 299 75 loadbang;
#X obj 24 85 unpack float float float;
#X obj 203 156 float_argument \$1;
#X connect 0 0 10 0;
#X connect 1 0 11 0;
#X connect 2 0 8 0;
#X connect 6 0 5 0;
#X connect 7 0 6 0;
#X connect 8 0 6 1;
#X connect 9 0 11 0;
#X connect 9 0 8 0;
#X connect 10 0 7 0;
#X connect 10 1 11 0;
#X connect 10 2 8 0;
#X connect 11 0 7 1;
