#N canvas 193 125 504 359 10;
#X obj 24 13 inlet;
#X obj 204 10 inlet;
#X obj 358 14 inlet;
#X text 177 10 min;
#X text 329 13 max;
#X obj 24 306 outlet;
#X obj 24 257 min;
#X obj 24 226 max;
#X obj 358 156 float_argument \$2;
#X obj 24 85 unpack float float float;
#X obj 204 156 float_argument \$1;
#X obj 24 55 t a b;
#X obj 309 86 once;
#X connect 0 0 11 0;
#X connect 1 0 10 0;
#X connect 2 0 8 0;
#X connect 6 0 5 0;
#X connect 7 0 6 0;
#X connect 8 0 6 1;
#X connect 9 0 7 0;
#X connect 9 1 10 0;
#X connect 9 2 8 0;
#X connect 10 0 7 1;
#X connect 11 0 9 0;
#X connect 11 1 12 0;
#X connect 12 0 10 0;
#X connect 12 0 8 0;
