#N canvas 63 319 466 316 10;
#X obj 37 48 trigger bang bang;
#X obj 151 68 symbol;
#X obj 37 94 select symbol;
#X obj 37 68 symbol \$1;
#X obj 201 274 outlet;
#X obj 226 11 inlet;
#X text 264 12 convenience inlet;
#X obj 38 13 inlet;
#X text 275 56 keep things consistent;
#X obj 226 57 list;
#X obj 226 78 route symbol;
#X obj 228 108 bang;
#X msg 228 130 wrong data type on right inlet;
#X obj 229 154 purepd_error symbol_argument;
#X obj 17 158 trigger bang bang;
#X obj 131 178 symbol;
#X obj 17 204 select symbol;
#X obj 17 178 symbol \$2;
#X connect 0 0 3 0;
#X connect 0 1 1 0;
#X connect 1 0 2 1;
#X connect 2 0 14 0;
#X connect 2 1 4 0;
#X connect 3 0 2 0;
#X connect 5 0 9 0;
#X connect 7 0 0 0;
#X connect 9 0 10 0;
#X connect 10 0 4 0;
#X connect 10 1 11 0;
#X connect 11 0 12 0;
#X connect 12 0 13 0;
#X connect 14 0 17 0;
#X connect 14 1 15 0;
#X connect 15 0 16 1;
#X connect 16 1 4 0;
#X connect 17 0 16 0;
