#N canvas 0 22 454 304 10;
#X obj 142 28 loadbang;
#X obj 141 63 trigger bang bang;
#X obj 256 92 symbol;
#X obj 141 129 select symbol;
#X obj 141 91 symbol \$1;
#X obj 227 261 outlet;
#X connect 0 0 1 0;
#X connect 1 0 4 0;
#X connect 1 1 2 0;
#X connect 2 0 3 1;
#X connect 3 1 5 0;
#X connect 4 0 3 0;
