#N canvas 0 0 454 304 12;
#X obj 257 75 block~ 1;
#X obj 136 74 inlet~;
#X obj 136 119 pack~;
#X obj 136 150 int;
#X obj 136 181 sig~;
#X obj 136 223 outlet~;
#X text 14 9 int~ -- get rid of the fractions...;
#X connect 1 0 2 0;
#X connect 2 0 3 0;
#X connect 3 0 4 0;
#X connect 4 0 5 0;
