#N struct 1031preview float x float y float p float h;
#N canvas 436 120 738 542 10;
#X text 62 61 Description: Displays a "sample".;
#X text 65 111 Version: 2006-01-11;
#X obj 72 271 sample/display_;
#X text 380 269 sample/display_;
#X text 65 84 Flags: gui sample_id;
#X obj 72 192 file/parentfolder;
#X obj 72 230 sample/filer 1;
#X msg 72 170 ../examples/media/sounds/loop0.wav;
#X text 323 169 <- Click here;
#X text 357 82 Inlet_1: sample_id signal;
#X text 358 102 Outlet_1: sample_id signal;
#X text 93 411 For examples \, check the pdmtl/examples/sample_id folder!
;
#X connect 5 0 6 0;
#X connect 6 0 2 0;
#X connect 7 0 5 0;
