#N canvas 52 264 1222 714 10;
#X obj 343 -177 inlet;
#X obj 569 149 ../convert/smp2time;
#X obj 508 179 pack s s;
#X obj 267 -100 outlet;
#X obj 888 328 s \$0label;
#X obj 507 -31 t f f;
#X msg 847 267 label \$1;
#X obj 814 229 makesymbol %s(%s);
#X obj 658 -179 t b b;
#X msg 992 -75 const 0;
#X obj 654 -204 sel 1 -1;
#X obj 340 -140 t f f;
#X msg 924 -19 label -no_sample-;
#X obj 761 19 route bang;
#X obj 1060 -183 bng 15 250 50 0 empty empty CLEAR 0 -6 0 8 -262144
-1 -1;
#X obj 630 113 t f f;
#N canvas 33 112 1247 912 boundaries_vis 0;
#X obj 791 27 inlet reset;
#X obj 340 709 s \$0selected;
#X msg 433 626 vis_size \$1 65;
#X obj 437 523 * 300;
#X obj 123 475 * 300;
#X msg 357 560 1;
#X msg 307 551 0;
#X obj 377 32 inlet frames;
#X obj 46 34 inlet start;
#X obj 155 34 inlet length;
#X obj 435 498 / 1;
#X obj 123 450 / 1;
#X obj 137 102 +;
#X obj 56 93 t l l;
#X obj 29 201 demultiplex 0 1;
#X obj 192 555 + 100;
#X obj 793 680 s \$0selected2;
#X obj 253 233 t l l;
#X obj 47 265 t l b;
#X obj 291 340 -;
#X obj 138 125 -;
#X obj 170 173 > 0;
#X obj 141 146 t f f;
#X obj 53 67 pack f f f;
#X obj 138 77 unpack f f f;
#X obj 59 318 unpack f f f;
#X obj 312 388 abs;
#X text 242 582 start;
#X text 479 596 length;
#X obj 231 294 t f f;
#X obj 305 364 min 0;
#X floatatom 45 661 5 0 0 0 - - -;
#X msg 800 630 vis_size \$1 65;
#X obj 716 590 + 100;
#X obj 330 523 t b b;
#X msg 711 539 0;
#X obj 785 459 t b b;
#X obj 28 166 pack f f f f;
#X obj 274 266 unpack f f f f;
#X obj 547 465 / 1;
#X obj 500 403 swap;
#X obj 564 489 * 300;
#X msg 817 532 0;
#X obj 143 758 s \$0start;
#X msg 116 599 pos \$1 116;
#X msg 714 629 pos \$1 116;
#X obj 124 521 clip 0 299;
#X obj 415 559 clip 0 299;
#X obj 711 561 clip 0 299;
#X obj 814 568 clip 0 299;
#X connect 0 0 34 0;
#X connect 0 0 36 0;
#X connect 2 0 1 0;
#X connect 3 0 47 0;
#X connect 4 0 46 0;
#X connect 5 0 2 0;
#X connect 6 0 15 0;
#X connect 7 0 23 2;
#X connect 8 0 23 0;
#X connect 9 0 23 1;
#X connect 10 0 3 0;
#X connect 11 0 4 0;
#X connect 12 0 20 0;
#X connect 13 0 37 0;
#X connect 13 1 24 0;
#X connect 14 0 18 0;
#X connect 14 1 17 0;
#X connect 15 0 44 0;
#X connect 17 0 38 0;
#X connect 18 0 25 0;
#X connect 18 1 42 0;
#X connect 19 0 30 0;
#X connect 20 0 22 0;
#X connect 21 0 14 1;
#X connect 22 0 37 3;
#X connect 22 1 21 0;
#X connect 23 0 13 0;
#X connect 24 0 12 0;
#X connect 24 1 12 1;
#X connect 24 2 20 1;
#X connect 25 0 11 0;
#X connect 25 1 10 0;
#X connect 25 2 11 1;
#X connect 25 2 10 1;
#X connect 26 0 10 0;
#X connect 29 0 11 0;
#X connect 29 1 19 0;
#X connect 30 0 26 0;
#X connect 31 0 44 0;
#X connect 32 0 16 0;
#X connect 33 0 45 0;
#X connect 34 0 6 0;
#X connect 34 1 5 0;
#X connect 35 0 48 0;
#X connect 36 0 35 0;
#X connect 36 1 42 0;
#X connect 37 0 14 0;
#X connect 38 0 29 0;
#X connect 38 2 19 1;
#X connect 38 2 10 1;
#X connect 38 2 11 1;
#X connect 38 2 40 0;
#X connect 38 3 40 1;
#X connect 39 0 41 0;
#X connect 40 0 39 0;
#X connect 40 1 39 1;
#X connect 41 0 49 0;
#X connect 42 0 49 0;
#X connect 44 0 1 0;
#X connect 44 0 43 0;
#X connect 45 0 16 0;
#X connect 46 0 15 0;
#X connect 47 0 2 0;
#X connect 48 0 33 0;
#X connect 49 0 32 0;
#X restore 506 89 pd boundaries_vis;
#X obj 879 -162 t b b b;
#N canvas 0 0 516 362 dumptables 0;
#X obj 110 35 inlet;
#X obj 151 225 tabdump;
#X obj 246 226 tabdump;
#X msg 160 199 set \$1p0;
#X msg 245 201 set \$1p1;
#X obj 88 327 outlet;
#X obj 303 327 outlet;
#X obj 455 322 outlet;
#X obj 115 89 t b a b;
#X connect 0 0 8 0;
#X connect 1 0 5 0;
#X connect 2 0 6 0;
#X connect 3 0 1 0;
#X connect 4 0 2 0;
#X connect 8 0 1 0;
#X connect 8 0 2 0;
#X connect 8 1 3 0;
#X connect 8 1 4 0;
#X connect 8 2 7 0;
#X restore 428 208 pd dumptables;
#X obj 401 40 route preview_id name start length frames gain;
#X msg 745 128 1 \$1;
#X obj 751 154 /;
#X obj 698 76 sel 0 -1;
#X msg 718 149 1;
#X obj 323 52 sel -1;
#X obj 232 356 cnv 15 300 64 empty empty empty 20 12 0 14 -262144 -66577
0;
#X obj 100 116 cnv 1 1 65 empty \$0selected empty 20 12 0 14 -233017
-66577 0;
#X obj 100 116 cnv 1 1 65 empty \$0selected2 empty 20 12 0 14 -233017
-66577 0;
#N canvas 52 568 399 343 1114data 0;
#X coords 0 1.3 300 -1 300 82 1;
#X restore 100 100 pd \$0data;
#N canvas 455 32 674 475 traversal 0;
#X text 196 -199 click to get pointer;
#X obj 169 -178 f \$0;
#X obj 170 -157 makesymbol pd-%sdata;
#X obj 166 -204 bng 15 250 50 0 empty empty empty 17 7 0 10 -262144
-1 -1;
#X msg 176 -116 traverse \$1 \, bang;
#X obj 178 -77 pointer;
#X msg 489 -160 \; \$1 clear;
#X obj 494 -196 makesymbol pd-%sdata;
#X obj 501 -222 f \$0;
#X obj 501 -263 bng 15 250 50 0 empty empty empty 0 -6 0 8 -262144
-1 -1;
#X obj 51 -298 inlet;
#X obj 55 52 append \$0preview x y h;
#X obj 10 -172 drip;
#X obj 12 -203 t l b;
#X msg 17 -4 \$1 0 \$2;
#X obj 0 -53 pack f f;
#X obj 38 -146 f 0;
#X obj 37 -122 t f f;
#X obj 77 -98 + 1;
#X msg 74 -162 0;
#X obj -10 -146 t b f;
#X obj 543 -304 inlet;
#X obj 414 -277 t b b;
#X obj 206 -292 inlet;
#X obj 88 -35 * 1;
#X obj 115 -84 r \$0gain;
#X obj 110 1 clip -1 1;
#X connect 1 0 2 0;
#X connect 2 0 4 0;
#X connect 3 0 1 0;
#X connect 4 0 5 0;
#X connect 5 0 11 3;
#X connect 7 0 6 0;
#X connect 8 0 7 0;
#X connect 9 0 8 0;
#X connect 10 0 13 0;
#X connect 12 0 20 0;
#X connect 13 0 12 0;
#X connect 13 1 19 0;
#X connect 14 0 11 0;
#X connect 15 0 14 0;
#X connect 16 0 17 0;
#X connect 17 0 15 0;
#X connect 17 1 18 0;
#X connect 18 0 16 1;
#X connect 19 0 16 1;
#X connect 20 0 16 0;
#X connect 20 1 24 0;
#X connect 21 0 22 0;
#X connect 22 0 3 0;
#X connect 22 1 9 0;
#X connect 23 0 13 0;
#X connect 24 0 26 0;
#X connect 25 0 24 1;
#X connect 26 0 15 1;
#X restore 445 271 pd traversal;
#N canvas 141 378 450 300 1114preview 0;
#X obj 11 155 struct \$0preview float x float y float p float h;
#X obj 15 93 drawpolygon \$1 1 0 0 0 h;
#X restore 47 -100 pd \$0preview;
#X obj 572 236 r \$0clear;
#X obj 994 -111 s \$0clear;
#X obj 747 245 s \$0gain;
#X msg 608 -113 gain preview_id frames length start name;
#X obj 482 -75 ../sample/handle;
#X obj 100 116 cnv 1 1 65 empty \$0start empty 20 12 0 14 -99865 -66577
0;
#X obj 101 101 cnv 1 1 1 empty \$0rec empty 20 12 0 14 -258699 -66577
0;
#X obj 100 100 cnv 15 300 15 empty \$0label -no_sample- 3 9 0 8 -1
-262144 0;
#X obj 581 -33 route %;
#X msg 891 183 list Filling...;
#X obj 1167 259 s \$0rec;
#X obj 1160 57 * 3;
#X obj 1163 79 int;
#X obj 1165 101 change;
#X obj 1192 124 + 100;
#X msg 1167 146 pos \$1 116;
#X msg 1007 114 1;
#X obj 1016 141 change -1;
#X obj 974 68 r \$0clear;
#X obj 800 202 t l b;
#X obj 1042 165 sel 0 1;
#X msg 958 137 0;
#X msg 1115 206 vis_size 1 65;
#X msg 937 223 vis_size 1 1 \, pos 101 101;
#X obj 286 75 t b b;
#X obj 20 53 print sample/display!;
#X msg 20 30 Warning... this sample does not have a preview.;
#X connect 0 0 11 0;
#X connect 1 0 2 1;
#X connect 2 0 50 0;
#X connect 5 0 10 0;
#X connect 6 0 4 0;
#X connect 7 0 6 0;
#X connect 8 1 34 0;
#X connect 10 0 8 0;
#X connect 10 1 17 0;
#X connect 11 0 3 0;
#X connect 11 1 35 0;
#X connect 12 0 4 0;
#X connect 13 1 42 0;
#X connect 13 1 47 0;
#X connect 14 0 17 0;
#X connect 15 0 16 2;
#X connect 15 1 1 0;
#X connect 17 0 12 0;
#X connect 17 1 9 0;
#X connect 17 1 32 0;
#X connect 17 2 16 3;
#X connect 18 0 29 0;
#X connect 18 1 29 1;
#X connect 18 2 29 2;
#X connect 19 0 24 0;
#X connect 19 1 2 0;
#X connect 19 2 16 0;
#X connect 19 3 16 1;
#X connect 19 4 15 0;
#X connect 19 5 22 0;
#X connect 20 0 21 0;
#X connect 22 0 23 0;
#X connect 22 1 23 0;
#X connect 22 2 20 0;
#X connect 22 2 33 0;
#X connect 23 0 33 0;
#X connect 24 0 55 0;
#X connect 24 1 18 0;
#X connect 31 0 29 2;
#X connect 34 0 35 1;
#X connect 35 0 19 0;
#X connect 35 1 5 0;
#X connect 35 2 39 0;
#X connect 39 0 13 0;
#X connect 40 0 6 0;
#X connect 42 0 43 0;
#X connect 43 0 44 0;
#X connect 44 0 45 0;
#X connect 45 0 46 0;
#X connect 46 0 41 0;
#X connect 47 0 48 0;
#X connect 48 0 51 0;
#X connect 49 0 52 0;
#X connect 50 0 7 0;
#X connect 50 1 52 0;
#X connect 51 0 54 0;
#X connect 51 1 53 0;
#X connect 51 1 40 0;
#X connect 52 0 48 0;
#X connect 53 0 41 0;
#X connect 54 0 41 0;
#X connect 55 0 57 0;
#X connect 55 1 29 2;
#X connect 57 0 56 0;
#X coords 0 -1 1 1 300 82 1 100 100;
