#N canvas 434 91 821 644 10;
#N canvas 0 0 450 300 2280filers 0;
#X restore 170 266 pd \$0filers;
#X obj 469 228 makesymbol pd-%sfilers;
#X obj 475 199 f \$0;
#X msg 522 327 \; \$1 clear;
#X obj 470 160 loadbang;
#X obj 201 496 makesymbol %s_%sr;
#X obj 325 496 makesymbol %s_%ss;
#X msg 245 422 list \$2 \$1;
#X obj 293 266 f \$2;
#X obj 285 392 pack f s;
#X obj 392 405 symbol \$1;
#X obj 444 281 t b b s s;
#X obj 293 294 until;
#X obj 358 295 t b b;
#X obj 293 322 f;
#X obj 332 340 + 1;
#X msg 383 317 0;
#X obj 285 356 t f f;
#X obj 646 292 makesymbol pd-%sfilers;
#X obj 652 263 f \$0;
#X obj 649 236 bng 15 250 50 0 empty empty empty 0 -6 0 8 -262144 -1
-1;
#X obj 91 -26 inlet;
#X obj 50 274 flow/send;
#X obj 118 240 makesymbol %s_%sr;
#X obj 120 166 symbol \$1;
#X obj 139 199 pack s f;
#X msg 25 216 load \$1;
#X obj 42 175 symbol;
#X obj 598 -5 inlet;
#X msg 389 587 \; \$3 obj 10 10 ./filers/filerw \$1 \$2 \$4;
#X obj 385 551 pack s s s s;
#X obj 235 451 t l l b;
#X obj 483 466 f \$0;
#X msg 486 493 symbol \$1all;
#X obj 618 114 s \$0all;
#X msg 603 62 preview \$1;
#X obj 193 28 list;
#X obj 194 59 list2symbol;
#X obj 91 -1 niagara 1;
#X obj 70 86 t b b f;
#X obj 56 37 route float;
#X obj 229 132 print sample/filers;
#X msg 231 99 Warning... wrong arguments. Missing load index... cancelling!
;
#X connect 1 0 11 0;
#X connect 2 0 1 0;
#X connect 4 0 2 0;
#X connect 5 0 30 0;
#X connect 6 0 30 1;
#X connect 7 0 31 0;
#X connect 8 0 12 0;
#X connect 9 0 7 0;
#X connect 10 0 9 1;
#X connect 11 0 13 0;
#X connect 11 1 10 0;
#X connect 11 2 30 2;
#X connect 11 3 3 0;
#X connect 12 0 14 0;
#X connect 13 0 8 0;
#X connect 13 1 16 0;
#X connect 14 0 17 0;
#X connect 15 0 14 1;
#X connect 16 0 14 1;
#X connect 17 0 9 0;
#X connect 17 1 15 0;
#X connect 18 0 3 0;
#X connect 19 0 18 0;
#X connect 20 0 19 0;
#X connect 21 0 38 0;
#X connect 23 0 22 1;
#X connect 24 0 25 0;
#X connect 25 0 23 0;
#X connect 26 0 22 0;
#X connect 27 0 26 0;
#X connect 28 0 35 0;
#X connect 30 0 29 0;
#X connect 31 0 5 0;
#X connect 31 1 6 0;
#X connect 31 2 32 0;
#X connect 32 0 33 0;
#X connect 33 0 30 3;
#X connect 35 0 34 0;
#X connect 36 0 37 0;
#X connect 37 0 27 1;
#X connect 38 0 40 0;
#X connect 38 1 36 0;
#X connect 39 0 27 0;
#X connect 39 1 24 0;
#X connect 39 2 25 1;
#X connect 40 0 39 0;
#X connect 40 1 42 0;
#X connect 42 0 41 0;
