#N canvas 1328 164 866 759 10;
#X text 37 -4 Description: load many samples and ditribute them dynamically.
;
#X msg 111 479 none;
#X obj 19 504 sample/receive;
#X obj 44 658 sample/looper~;
#X msg 115 634 autoplay 1;
#X obj 127 611 loadbang;
#X obj 57 710 dac~;
#X text 36 31 WARNING: LOADING A BUNCH OF FILES TAKES A LOT OF RESSOURCES.
PRELOAD THE FILES BEFORE PERFORMING.;
#X obj 225 256 tgl 15 0 empty empty empty 0 -6 0 8 -262144 -1 -1 0
1;
#X msg 19 400 group_name 0;
#X msg 77 454 group_name 2;
#X msg 56 426 group_name 1;
#X obj 48 279 sample/filers group_name 3;
#X text 243 253 Toggle preview generation (uses even more ressources!)
;
#X obj 48 100 file/parentfolder;
#X msg 48 132 0 \$1;
#X msg 48 73 ../examples/media/sounds/loop0.wav;
#X obj 110 151 file/parentfolder;
#X msg 110 124 ../examples/media/sounds/loop1.wav;
#X msg 110 183 1 \$1;
#X obj 171 202 file/parentfolder;
#X msg 171 234 2 \$1;
#X msg 171 175 ../examples/media/sounds/loop2.wav;
#X text 312 75 <- Click on the the three messages to load the files.
;
#X text 38 350 Once the files are loaded you can access them with sample/receive
;
#X text 242 278 <- The samples stored inside share a common name (sample/filers
first argument). The second argument is the number of samples that
can be loaded.;
#X obj 20 524 sample/display_;
#X obj 225 228 loadbang;
#X connect 1 0 2 0;
#X connect 2 0 26 0;
#X connect 3 0 6 0;
#X connect 3 1 6 1;
#X connect 4 0 3 1;
#X connect 5 0 4 0;
#X connect 8 0 12 1;
#X connect 9 0 2 0;
#X connect 10 0 2 0;
#X connect 11 0 2 0;
#X connect 14 0 15 0;
#X connect 15 0 12 0;
#X connect 16 0 14 0;
#X connect 17 0 19 0;
#X connect 18 0 17 0;
#X connect 19 0 12 0;
#X connect 20 0 21 0;
#X connect 21 0 12 0;
#X connect 22 0 20 0;
#X connect 26 0 3 0;
#X connect 27 0 8 0;
