#N struct 1516preview float x float y float p float h;
#N canvas 1334 58 1006 867 10;
#X obj 31 92 cnv 1 430 1 empty empty empty 0 -10 0 16 -66577 -66577
0;
#X obj 29 8 cnv 15 430 22 empty empty empty 20 12 0 14 -241404 -66577
0;
#X text 42 54 Author: Thomas Ouellet Fredericks;
#X text 42 39 Description: [soundfiler] adapted for the "sample" format.
;
#X obj 29 29 cnv 6 430 1 empty empty ::sample/filer:: 0 -10 0 12 -66577
-66577 0;
#X text 385 12 Version: 1;
#X obj 29 8 cnv 1 430 1 empty empty empty 0 -10 0 16 -66577 -66577
0;
#X obj 183 623 tgl 15 0 empty empty empty 0 -6 0 8 -262144 -1 -1 0
1;
#X msg 118 583 autogain \$1;
#X obj 118 559 tgl 15 0 empty empty empty 0 -6 0 8 -262144 -1 -1 0
1;
#X text 146 558 autogain is on by default.;
#X text 41 71 Flags: sample_id;
#X text 52 102 For more examples \, check the pdmtl/examples/sample_id
folder!;
#X obj 40 285 file/parentfolder;
#X obj 183 299 bng 15 250 50 0 empty empty empty 0 -6 0 8 -262144 -1
-1;
#X text 206 298 <- Try with one of your own sound files!;
#X msg 169 331 0;
#X obj 40 326 sample/filer 1;
#X msg 169 376 1;
#X text 200 377 Send 1 to turn the preview generation on.;
#X text 38 241 Click below to watch the sample load in the sample/table.
;
#X text 352 433 <- Note that the file was loaded "as fast as possible"
\, and probably made a sound glitch as Pure Data is chugging away.
;
#X text 38 142 This method can load any file Pure Data's soundfiler
object can read BUT it will not be capable of extracting information
(number of channels \, samplerate \, etc) if the file is not a 16 bit
WAV file. sample/filer does not support all of the sample_id features.
It will also load a file of any length.;
#X obj 40 410 sample/display_;
#X text 151 512 -- OTHER MESSAGES --;
#X obj 113 677 sample/filer 1;
#X text 203 623 turn on/off the sample_id signal.;
#X msg 299 262 ../examples/media/sounds/loop1.wav;
#X msg 40 261 ../examples/media/sounds/loop0.wav;
#X text 200 323 You can disable the preview generation to speed things
up (but you will not be able to preview the sample with sample/display_).
;
#X connect 7 0 25 0;
#X connect 8 0 25 0;
#X connect 9 0 8 0;
#X connect 13 0 17 0;
#X connect 14 0 17 0;
#X connect 16 0 17 1;
#X connect 17 0 23 0;
#X connect 18 0 17 1;
#X connect 27 0 13 0;
#X connect 28 0 13 0;
