#N canvas 33 93 1247 912 10;
#X obj 158 742 sample/gen;
#X obj 39 11 inlet file;
#X obj 158 775 outlet sample_id;
#X obj 140 295 soundfiler;
#X obj 192 102 list;
#X obj 182 127 list2symbol;
#X obj 91 143 openpanel;
#X obj 167 197 pack s \$0;
#X msg 190 598 1;
#X obj 324 347 strippath;
#X msg 480 339 0;
#X obj 286 296 t s s;
#X obj 88 73 route bang float;
#X obj 3 289 s \$0s0;
#X msg 9 263 normalize 1;
#X obj 20 310 s \$0s1;
#X obj 711 280 sf/info;
#X obj 590 404 sel 1;
#X msg 590 432 2;
#X msg 620 431 1;
#X obj 591 456 f;
#X text 622 456 nb channels;
#X obj 173 160 t b s s b s;
#X obj 589 357 f 1;
#X obj 312 376 ../convert/spaces2 /;
#X msg 139 233 read -resize -maxsize 1.058e+07 \$1 \$2s0 \$2s1;
#X obj 590 381 >= 2;
#X obj 19 41 route autogain;
#X obj 21 232 spigot 1;
#X obj 179 372 t b f f;
#X obj 484 727 s_table/preview \$0;
#X obj 255 544 t l b;
#X msg 276 654 preview_id -1;
#X obj 474 696 spigot;
#X obj 567 685 spigot;
#X obj 669 -4 inlet preview;
#X obj 313 627 demultiplex 0 1;
#X obj 392 656 f \$0;
#X msg 328 689 preview_id \$1;
#X obj 636 37 != 0;
#X obj 592 -75 loadbang;
#X obj 601 -44 f \$1;
#X msg 694 250 channels \, samplerate;
#X obj 719 308 route channels samplerate;
#X obj 242 519 pack f \$0 s s f f;
#X msg 233 576 frames \$1 \, table_id \$2 \, channels \$5 \, gain 1
\, start 0 \, length \$1 \, filename \$3 \, name \$4 \, samplerate
\$6;
#X obj 728 451 demultiplex 0 1;
#X msg 733 490 1;
#X msg 788 533 -1;
#X obj 828 484 t b b b;
#X obj 930 586 print sound/filer;
#X msg 901 543 Warning... could not read sound file info... generating
default values.;
#X obj 826 377 == 0;
#X obj 657 209 t b b s;
#X obj 657 81 table \$0p0 300;
#X obj 656 109 table \$0p1 300;
#X obj 505 105 table \$0s1 3;
#X obj 506 77 table \$0s0 3;
#X obj 170 331 sel 0;
#X obj 9 455 print sample/filer;
#X msg 10 422 Could not read file.;
#X connect 0 0 2 0;
#X connect 1 0 27 0;
#X connect 3 0 58 0;
#X connect 4 0 5 0;
#X connect 5 0 22 0;
#X connect 6 0 4 0;
#X connect 7 0 25 0;
#X connect 8 0 0 2;
#X connect 9 0 24 0;
#X connect 10 0 0 2;
#X connect 11 0 44 2;
#X connect 11 1 9 0;
#X connect 12 0 6 0;
#X connect 12 1 0 0;
#X connect 12 2 4 0;
#X connect 14 0 13 0;
#X connect 14 0 15 0;
#X connect 16 0 43 0;
#X connect 16 1 52 0;
#X connect 17 0 18 0;
#X connect 17 1 19 0;
#X connect 18 0 20 0;
#X connect 19 0 20 0;
#X connect 20 0 34 0;
#X connect 20 0 44 4;
#X connect 22 0 28 0;
#X connect 22 1 7 0;
#X connect 22 2 11 0;
#X connect 22 3 10 0;
#X connect 22 4 53 0;
#X connect 23 0 26 0;
#X connect 24 0 44 3;
#X connect 25 0 3 0;
#X connect 26 0 17 0;
#X connect 27 0 28 1;
#X connect 27 1 12 0;
#X connect 28 0 14 0;
#X connect 29 0 8 0;
#X connect 29 1 44 0;
#X connect 29 2 33 0;
#X connect 31 0 45 0;
#X connect 31 1 36 0;
#X connect 32 0 0 1;
#X connect 33 0 30 0;
#X connect 34 0 30 1;
#X connect 35 0 39 0;
#X connect 36 0 32 0;
#X connect 36 1 37 0;
#X connect 37 0 38 0;
#X connect 38 0 0 1;
#X connect 39 0 34 1;
#X connect 39 0 33 1;
#X connect 39 0 36 1;
#X connect 40 0 41 0;
#X connect 41 0 39 0;
#X connect 42 0 16 0;
#X connect 43 0 23 1;
#X connect 43 1 44 5;
#X connect 44 0 31 0;
#X connect 45 0 0 1;
#X connect 46 0 23 0;
#X connect 46 1 49 0;
#X connect 47 0 44 4;
#X connect 48 0 44 5;
#X connect 49 0 47 0;
#X connect 49 1 48 0;
#X connect 49 2 51 0;
#X connect 51 0 50 0;
#X connect 52 0 46 1;
#X connect 53 0 46 0;
#X connect 53 1 42 0;
#X connect 53 2 16 1;
#X connect 58 0 60 0;
#X connect 58 1 29 0;
#X connect 60 0 59 0;
