#N canvas 1400 303 593 507 10;
#X obj 63 375 sample/gen;
#X floatatom 63 426 5 0 0 1 sample_id - -;
#X msg 85 198 (set property);
#X msg 168 229 -1;
#X msg 200 229 0;
#X msg 239 230 1;
#X msg 189 295 (loading/recording progress);
#X text 268 229 Status;
#X msg 221 352 bang;
#X text 261 354 Clear;
#X msg 198 320 bang;
#X text 234 320 Force a reload of the preview.;
#X text 40 12 Description: Generates a sample_id. It is to be used
inside sample generator abstractions. Works with sample/handle.;
#X msg 229 385 autogain 1;
#X msg 229 412 autogain 0;
#X text 312 385 autogain is on by default;
#X text 44 80 Version: 2007-01-11;
#X obj 37 169 tgl 15 0 empty empty empty 0 -6 0 8 -262144 -1 -1 0 1
;
#X text 65 165 on/off (on by default);
#X text 40 59 Flags: internal sample_id;
#X text 34 105 WARNING: This is an abstraction to help the development
of sample_id abstractions. It will be further documented in pdmtls
next release).;
#X connect 0 0 1 0;
#X connect 2 0 0 1;
#X connect 3 0 0 2;
#X connect 4 0 0 2;
#X connect 5 0 0 2;
#X connect 6 0 0 3;
#X connect 8 0 0 4;
#X connect 10 0 0 3;
#X connect 13 0 0 4;
#X connect 14 0 0 4;
#X connect 17 0 0 0;
