#N canvas 40 321 1173 703 10;
#X obj 182 437 coll;
#C restore;
#X obj 43 579 outlet;
#X obj 207 172 list prepend store;
#X obj 207 198 list trim;
#X obj 777 596 ../flow/send;
#X msg 283 230 clear;
#X obj 399 317 f -1;
#X obj 690 114 r \$0sr;
#X obj 492 444 s \$0ss;
#X msg 401 352 status \$1;
#X obj 749 352 f -1;
#X obj 721 321 b;
#X obj 41 289 f \$0;
#X obj 862 518 list prepend;
#X obj 862 544 list trim;
#X msg 749 490 status \$1;
#X obj 827 206 t a a;
#X obj 315 323 symbol;
#X obj 210 5 inlet set_properties;
#X obj 624 39 inlet %;
#X msg 611 349 % \$1;
#X obj 124 45 loadbang;
#X obj 119 100 delay 5;
#X obj 31 203 metro 5;
#X obj 120 71 random 200;
#X obj 500 82 t f f;
#X obj 467 38 inlet status;
#X obj 548 273 route bang;
#X msg 536 342 % bang;
#X obj 763 179 route dump;
#X obj 732 41 inlet clear(bang)/autogain;
#X obj 719 71 route bang clear autogain;
#X obj 245 38 route gain;
#X obj 725 202 s \$0set;
#X obj 368 24 r \$0set;
#N canvas 507 599 450 300 autogain 0;
#X obj 224 73 demultiplex 0 1;
#X msg 323 94 gain 1;
#X msg 195 95 gain \$1;
#X obj 245 38 inlet;
#X obj 207 172 outlet;
#X obj 365 26 inlet;
#X obj 372 64 == 0;
#X connect 0 0 2 0;
#X connect 0 1 1 0;
#X connect 1 0 4 0;
#X connect 2 0 4 0;
#X connect 3 0 0 0;
#X connect 5 0 6 0;
#X connect 6 0 0 1;
#X restore 213 74 pd autogain;
#X text 802 630 Send to a specific sample/handle;
#X text 477 463 Send to all sample/handles;
#N canvas 668 544 450 300 bounds 0;
#X obj 58 40 route bounds;
#X obj 166 83 print ERROR;
#X obj 46 8 inlet;
#X obj 272 281 outlet;
#X msg 272 194 start \$1 \, length \$2;
#X obj 141 280 outlet;
#X msg 212 194 bounds;
#X msg 69 199 length \$2 \, start \$1;
#X obj 12 267 outlet;
#X obj 77 90 t l l l l;
#X msg 5 177 length \$2 \, start \$1;
#X connect 0 0 9 0;
#X connect 0 1 1 0;
#X connect 2 0 0 0;
#X connect 4 0 3 0;
#X connect 6 0 5 0;
#X connect 7 0 5 0;
#X connect 9 0 10 0;
#X connect 9 1 7 0;
#X connect 9 2 6 0;
#X connect 9 3 4 0;
#X connect 10 0 8 0;
#X restore 354 87 pd bounds;
#X obj 659 146 route f status setp;
#X obj 316 616 outlet from_handles;
#X obj 21 20 inlet on/off;
#X obj 20 117 t f b;
#X msg 46 143 stop;
#X obj 7 144 != 0;
#X obj 26 48 f 1;
#X obj 15 89 change -1;
#X msg 850 143 name \, filename \, frames \, channels \, start \, length
\, gain \, table_id \, preview_id \, samplerate;
#X connect 0 0 13 0;
#X connect 2 0 3 0;
#X connect 3 0 0 0;
#X connect 5 0 0 0;
#X connect 6 0 9 0;
#X connect 7 0 39 0;
#X connect 9 0 8 0;
#X connect 10 0 15 0;
#X connect 11 0 10 0;
#X connect 12 0 1 0;
#X connect 13 0 14 0;
#X connect 14 0 4 0;
#X connect 15 0 4 0;
#X connect 16 0 17 0;
#X connect 16 1 13 1;
#X connect 17 0 0 0;
#X connect 18 0 32 0;
#X connect 19 0 27 0;
#X connect 20 0 8 0;
#X connect 21 0 24 0;
#X connect 22 0 45 0;
#X connect 23 0 12 0;
#X connect 24 0 22 0;
#X connect 25 0 6 0;
#X connect 25 1 10 1;
#X connect 26 0 25 0;
#X connect 27 0 28 0;
#X connect 27 1 20 0;
#X connect 28 0 8 0;
#X connect 29 0 47 0;
#X connect 29 1 16 0;
#X connect 30 0 31 0;
#X connect 31 0 5 0;
#X connect 31 1 5 0;
#X connect 31 2 35 1;
#X connect 32 0 35 0;
#X connect 32 1 2 0;
#X connect 34 0 38 0;
#X connect 35 0 2 0;
#X connect 38 0 40 0;
#X connect 38 1 8 0;
#X connect 38 2 2 0;
#X connect 39 0 4 1;
#X connect 39 1 11 0;
#X connect 39 2 33 0;
#X connect 39 3 29 0;
#X connect 41 0 45 0;
#X connect 42 0 44 0;
#X connect 42 1 43 0;
#X connect 43 0 22 0;
#X connect 44 0 23 0;
#X connect 45 0 46 0;
#X connect 46 0 42 0;
#X connect 47 0 16 0;
