#N canvas 37 114 1243 910 10;
#X msg 282 501 set \$1;
#X msg 793 629 set \$1;
#X obj 274 476 r \$0tableL;
#X obj 734 588 r \$0tableR;
#X obj 300 848 outlet~ l~;
#X obj 523 848 outlet~ r~;
#X obj 789 840 outlet~ loop_progress~;
#N canvas 460 146 820 641 sample_parse 0;
#X obj 213 2 inlet;
#N canvas 0 0 1247 910 set_tables 0;
#X obj 243 39 > 1;
#X obj 132 70 demultiplex 0 1;
#X msg 128 95 symbol \$1s0;
#X msg 227 96 symbol \$1s0;
#X msg 346 99 symbol \$1s1;
#X obj 131 3 inlet;
#X obj 236 8 inlet;
#X obj 83 222 outlet;
#X obj 244 224 outlet;
#X connect 0 0 1 1;
#X connect 1 0 2 0;
#X connect 1 1 3 0;
#X connect 1 1 4 0;
#X connect 2 0 7 0;
#X connect 2 0 8 0;
#X connect 3 0 7 0;
#X connect 4 0 8 0;
#X connect 5 0 1 0;
#X connect 6 0 0 0;
#X restore 182 395 pd set_tables;
#X obj 368 63 table \$0dummy 44100;
#X obj 222 210 sel 1;
#X obj 225 453 s \$0tableR;
#X obj 123 456 s \$0tableL;
#X obj 80 328 f \$0;
#X msg 89 356 symbol \$1dummy;
#X obj 117 323 s \$0ready;
#X msg 116 294 0;
#X obj 134 86 t b b;
#X msg 70 163 1;
#X obj 70 188 s \$0ready;
#X obj 156 300 s \$0kill;
#X obj 76 268 t b b b;
#X obj 241 312 route table_id channels start length frames gain;
#X obj 577 368 s \$0file_gain;
#X obj 179 166 sample/handle;
#X obj 479 534 s \$0length;
#X obj 679 484 s \$0frames;
#X obj 305 511 s \$0start;
#X msg 315 121 frames table_id length start channels gain;
#X connect 0 0 17 0;
#X connect 1 0 5 0;
#X connect 1 1 4 0;
#X connect 3 0 10 0;
#X connect 3 1 14 0;
#X connect 6 0 7 0;
#X connect 7 0 5 0;
#X connect 7 0 4 0;
#X connect 9 0 8 0;
#X connect 10 0 11 0;
#X connect 10 1 21 0;
#X connect 11 0 12 0;
#X connect 14 0 6 0;
#X connect 14 1 9 0;
#X connect 14 2 13 0;
#X connect 15 0 1 0;
#X connect 15 1 1 1;
#X connect 15 2 20 0;
#X connect 15 3 18 0;
#X connect 15 4 19 0;
#X connect 15 5 16 0;
#X connect 17 0 15 0;
#X connect 17 1 3 0;
#X connect 21 0 17 1;
#X restore -162 108 pd sample_parse;
#X obj 174 335 r \$0trig;
#X obj 441 357 r \$0speed;
#X obj -169 36 inlet sample;
#X obj 99 266 spigot;
#X obj 568 115 r \$0ready;
#X obj 629 160 tgl 15 0 empty empty empty 0 -6 0 8 -262144 -1 -1 1
1;
#X obj 132 139 s \$0autogain;
#X obj 550 162 t b f;
#X text 74 4 This needs to be simplified!;
#X obj 78 437 s \$0fade;
#N canvas 398 265 739 517 trigger 0;
#X obj 104 442 s \$0trig;
#X obj 207 437 s \$0speed;
#X obj 411 493 s \$0loop_in;
#X obj 71 50 inlet;
#X obj 582 459 s \$0loop_length;
#X msg 175 363 1;
#X msg 104 344 0;
#X obj 104 250 sel 0;
#X obj 403 365 < 0;
#X obj 298 359 f;
#X obj 422 432 -;
#X obj 307 402 demultiplex 0 1;
#X obj 175 309 t b f b f;
#X obj 287 248 r \$0start;
#X obj 492 212 r \$0length;
#X obj 583 214 r \$0frames;
#X obj 532 260 / 1;
#X obj 374 251 r \$0frames;
#X obj 323 297 / 1;
#X obj 578 321 t f f;
#X connect 3 0 7 0;
#X connect 5 0 0 0;
#X connect 6 0 0 0;
#X connect 7 0 6 0;
#X connect 7 1 12 0;
#X connect 8 0 11 1;
#X connect 9 0 11 0;
#X connect 10 0 2 0;
#X connect 11 0 2 0;
#X connect 11 1 10 0;
#X connect 12 0 5 0;
#X connect 12 1 1 0;
#X connect 12 2 9 0;
#X connect 12 3 8 0;
#X connect 13 0 18 0;
#X connect 14 0 16 0;
#X connect 15 0 16 1;
#X connect 16 0 19 0;
#X connect 17 0 18 1;
#X connect 18 0 9 1;
#X connect 19 0 4 0;
#X connect 19 1 10 1;
#X restore 99 296 pd trigger;
#X obj 340 711 xgroove~ \$0dummy;
#X obj 558 498 r \$0start;
#X obj 648 559 r \$0length;
#X obj 627 579 swap;
#X obj 130 521 loadbang;
#X obj 414 489 sel 1;
#X msg 410 558 pos 0 \, bang;
#X obj 554 692 xgroove~ \$0dummy;
#X obj 575 531 t b f f;
#X obj 630 602 +;
#X obj 167 579 t b b b;
#X msg 162 617 units 0 \, sclmode 2;
#X obj 263 380 sel 0;
#X obj 177 373 t f f f;
#X msg 334 417 0;
#X msg 313 618 units 0 \, sclmode 3;
#X obj 664 614 r \$0frames;
#X obj 648 639 min;
#X obj 329 369 r \$0kill;
#X obj 114 209 f;
#X obj 721 64 inlet~;
#X obj 497 452 sig~;
#X obj 515 484 +~;
#N canvas 0 0 1247 912 gaincontrol 0;
#X obj 294 376 outlet;
#X obj 259 101 r \$0file_gain;
#X obj 346 135 r \$0autogain;
#X msg 375 267 1;
#X obj 259 187 spigot 1;
#X obj 260 142 f 1;
#X obj 359 158 t f f;
#X obj 362 190 sel 1 0;
#X connect 1 0 5 0;
#X connect 2 0 6 0;
#X connect 3 0 0 0;
#X connect 4 0 0 0;
#X connect 5 0 4 0;
#X connect 6 0 7 0;
#X connect 6 1 4 1;
#X connect 7 0 5 0;
#X connect 7 1 3 0;
#X restore 401 743 pd gaincontrol;
#X obj 335 771 *~ 1;
#X obj 486 781 *~ 1;
#X obj 67 43 inlet;
#X obj -22 166 s \$0speed;
#X msg 4 723 loop \$1;
#X obj 115 551 t b b;
#X msg 91 656 xzone 0 \, xfade 3;
#X obj 223 160 s \$0mode;
#X obj -2 676 r \$0mode;
#X obj 27 114 route speed autoplay autogain mode crossfade;
#X obj 290 138 clip 0 2000;
#X obj 147 751 r \$0xzone;
#X obj 304 162 s \$0xzone;
#X msg 156 779 xzone \$1;
#X obj 39 69 route float bang;
#X msg 84 91 1;
#X connect 0 0 19 0;
#X connect 1 0 26 0;
#X connect 2 0 0 0;
#X connect 3 0 1 0;
#X connect 8 0 32 0;
#X connect 9 0 40 0;
#X connect 10 0 7 0;
#X connect 11 0 18 0;
#X connect 12 0 13 0;
#X connect 12 0 15 0;
#X connect 15 0 38 0;
#X connect 15 1 11 1;
#X connect 19 0 43 0;
#X connect 20 0 27 0;
#X connect 21 0 22 1;
#X connect 22 0 28 0;
#X connect 22 1 28 1;
#X connect 23 0 48 0;
#X connect 24 0 25 0;
#X connect 25 0 19 0;
#X connect 25 0 26 0;
#X connect 26 0 44 0;
#X connect 26 1 6 0;
#X connect 27 0 29 0;
#X connect 27 1 26 1;
#X connect 27 1 19 1;
#X connect 27 2 22 0;
#X connect 28 0 36 0;
#X connect 29 1 30 0;
#X connect 29 2 34 0;
#X connect 30 0 19 0;
#X connect 31 0 33 0;
#X connect 31 1 29 0;
#X connect 32 0 17 0;
#X connect 32 1 24 0;
#X connect 32 2 31 0;
#X connect 33 0 40 0;
#X connect 34 0 26 0;
#X connect 35 0 36 1;
#X connect 36 0 26 2;
#X connect 36 0 19 2;
#X connect 37 0 33 0;
#X connect 38 0 11 0;
#X connect 39 0 41 1;
#X connect 40 0 41 0;
#X connect 41 0 19 0;
#X connect 41 0 26 0;
#X connect 42 0 43 1;
#X connect 42 0 44 1;
#X connect 43 0 4 0;
#X connect 44 0 5 0;
#X connect 45 0 57 0;
#X connect 47 0 19 0;
#X connect 47 0 26 0;
#X connect 48 0 49 0;
#X connect 48 1 29 0;
#X connect 49 0 19 0;
#X connect 49 0 26 0;
#X connect 51 0 47 0;
#X connect 52 0 46 0;
#X connect 52 1 38 1;
#X connect 52 2 14 0;
#X connect 52 3 50 0;
#X connect 52 4 53 0;
#X connect 53 0 55 0;
#X connect 54 0 56 0;
#X connect 56 0 19 0;
#X connect 56 0 26 0;
#X connect 57 0 11 0;
#X connect 57 1 58 0;
#X connect 57 2 52 0;
#X connect 58 0 11 0;
