#N canvas 37 29 1243 910 10;
#X text 667 84 speed signal;
#X text 851 72 sync signal;
#X obj 436 970 outlet~ loop_progress~;
#X obj 671 105 inlet~;
#X obj 839 93 inlet~;
#N canvas 460 146 820 641 sample_parse 0;
#X obj 213 2 inlet;
#N canvas 0 0 1247 910 set_tables 0;
#X obj 243 39 > 1;
#X obj 132 70 demultiplex 0 1;
#X msg 128 95 symbol \$1s0;
#X msg 227 96 symbol \$1s0;
#X msg 346 99 symbol \$1s1;
#X obj 131 3 inlet;
#X obj 236 8 inlet;
#X obj 83 222 outlet;
#X obj 244 224 outlet;
#X connect 0 0 1 1;
#X connect 1 0 2 0;
#X connect 1 1 3 0;
#X connect 1 1 4 0;
#X connect 2 0 7 0;
#X connect 2 0 8 0;
#X connect 3 0 7 0;
#X connect 4 0 8 0;
#X connect 5 0 1 0;
#X connect 6 0 0 0;
#X restore 182 395 pd set_tables;
#X obj 368 63 table \$0dummy 44100;
#X obj 222 210 sel 1;
#X obj 225 453 s \$0tableR;
#X obj 123 456 s \$0tableL;
#X obj 80 328 f \$0;
#X msg 89 356 symbol \$1dummy;
#X obj 117 323 s \$0ready;
#X msg 116 294 0;
#X obj 134 86 t b b;
#X msg 70 163 1;
#X obj 70 188 s \$0ready;
#X obj 156 300 s \$0kill;
#X obj 76 268 t b b b;
#X msg 315 121 frames length start channels table_id gain;
#X obj 241 312 route table_id channels start length frames gain;
#X obj 577 368 s \$0file_gain;
#X obj 179 166 sample/handle;
#X obj 479 534 s \$0length;
#X obj 679 484 s \$0frames;
#X obj 305 511 s \$0start;
#X connect 0 0 18 0;
#X connect 1 0 5 0;
#X connect 1 1 4 0;
#X connect 3 0 10 0;
#X connect 3 1 14 0;
#X connect 6 0 7 0;
#X connect 7 0 5 0;
#X connect 7 0 4 0;
#X connect 9 0 8 0;
#X connect 10 0 11 0;
#X connect 10 1 15 0;
#X connect 11 0 12 0;
#X connect 14 0 6 0;
#X connect 14 1 9 0;
#X connect 14 2 13 0;
#X connect 15 0 18 1;
#X connect 16 0 1 0;
#X connect 16 1 1 1;
#X connect 16 2 21 0;
#X connect 16 3 19 0;
#X connect 16 4 20 0;
#X connect 16 5 17 0;
#X connect 18 0 16 0;
#X connect 18 1 3 0;
#X restore -162 108 pd sample_parse;
#X obj -13 142 s \$0sync;
#X obj -169 36 inlet sample;
#X obj 67 43 inlet speed|speed&loopStart&loopLength|sync;
#X obj 99 266 spigot;
#X obj 268 98 r \$0ready;
#X obj 329 143 tgl 15 0 empty empty empty 0 -6 0 8 -262144 -1 -1 1
1;
#X obj 84 146 s \$0autogain;
#X obj 34 203 lister;
#X obj 250 145 t b f;
#X obj 34 227 route bang;
#X text 74 4 This needs to be simplified!;
#X obj 14 108 route sync autoplay autogain;
#N canvas 377 178 804 617 trigger 0;
#X obj 104 442 s \$0trig;
#X obj 227 495 s \$0speed;
#X obj 411 493 s \$0loop_in;
#X obj 71 50 inlet;
#X obj 582 459 s \$0loop_length;
#X msg 175 363 1;
#X msg 104 344 0;
#X obj 104 250 sel 0;
#X obj 403 365 < 0;
#X obj 295 371 f;
#X obj 422 432 -;
#X obj 307 402 demultiplex 0 1;
#X obj 175 309 t b f b f;
#X obj 281 216 r \$0start;
#X obj 492 212 r \$0length;
#X obj 583 214 r \$0frames;
#X obj 532 260 / 1;
#X obj 374 251 r \$0frames;
#X obj 323 297 / 1;
#X obj 578 321 t f f;
#X obj 115 192 f;
#X obj 220 460 f;
#X obj 422 331 s \$0getoffset;
#X obj 306 323 t b b f b;
#X obj 266 462 s \$0offset;
#X msg 265 431 0;
#X connect 3 0 20 0;
#X connect 5 0 0 0;
#X connect 6 0 0 0;
#X connect 6 0 21 0;
#X connect 7 0 6 0;
#X connect 7 1 12 0;
#X connect 8 0 11 1;
#X connect 9 0 11 0;
#X connect 10 0 2 0;
#X connect 11 0 2 0;
#X connect 11 1 10 0;
#X connect 12 0 5 0;
#X connect 12 1 21 0;
#X connect 12 2 9 0;
#X connect 12 2 25 0;
#X connect 12 3 8 0;
#X connect 13 0 18 0;
#X connect 14 0 16 0;
#X connect 15 0 16 1;
#X connect 16 0 19 0;
#X connect 17 0 18 1;
#X connect 18 0 23 0;
#X connect 19 0 4 0;
#X connect 19 1 10 1;
#X connect 20 0 7 0;
#X connect 21 0 1 0;
#X connect 23 0 21 0;
#X connect 23 1 9 0;
#X connect 23 2 9 1;
#X connect 23 3 22 0;
#X connect 25 0 24 0;
#X restore 99 296 pd trigger;
#X obj 609 969 outlet~ sample_progress~;
#X obj 122 669 ./looper/player~;
#X obj 83 371 t b f b;
#X obj -46 330 r \$0speed;
#X obj 201 335 r \$0offset;
#X obj -40 359 t f b;
#X msg 2 380 0;
#X obj 18 430 f 1;
#X obj 157 599 r \$0kill;
#X obj 176 987 outlet~;
#X obj 255 987 outlet~;
#X obj 251 382 r \$0frames;
#X obj 85 342 r \$0loop_in;
#X obj 224 302 r \$0loop_length;
#X obj 269 419 r \$0length;
#N canvas 0 0 1247 912 switch_player 0;
#X obj 132 197 demultiplex 0 1;
#X obj 135 221 t l b b;
#X obj 261 148 tgl 15 0 empty empty empty 0 -6 0 8 -262144 -1 -1 1
1;
#X obj 368 233 t l b b;
#X obj 228 224 s \$0player;
#X obj 109 77 inlet;
#X obj 121 321 outlet;
#X obj 566 318 outlet;
#X msg 161 270 0;
#X msg 509 269 0;
#X obj 169 133 f;
#X obj 111 105 t a b;
#X connect 0 0 1 0;
#X connect 0 1 3 0;
#X connect 1 0 6 0;
#X connect 1 1 9 0;
#X connect 1 2 2 0;
#X connect 2 0 0 1;
#X connect 2 0 10 1;
#X connect 3 0 7 0;
#X connect 3 1 8 0;
#X connect 3 2 2 0;
#X connect 5 0 11 0;
#X connect 8 0 6 0;
#X connect 9 0 7 0;
#X connect 10 0 4 0;
#X connect 11 0 0 0;
#X connect 11 1 10 0;
#X restore 156 553 pd switch_player;
#N canvas 0 0 450 300 getoffset 0;
#X obj 76 140 snapshot~;
#X obj 76 47 r \$0getoffset;
#X obj 76 165 s \$0offset;
#X obj 147 79 r \$0player;
#X obj 21 28 inlet~;
#X obj 156 108 == 0;
#X obj 76 86 spigot 1;
#X connect 0 0 2 0;
#X connect 1 0 6 0;
#X connect 3 0 5 0;
#X connect 4 0 0 0;
#X connect 5 0 6 1;
#X connect 6 0 0 0;
#X restore 229 726 pd getoffset;
#N canvas 0 0 450 300 mixplayers 0;
#X obj 93 392 *~;
#X obj 176 396 *~;
#X obj 224 395 *~;
#X obj 307 399 *~;
#X obj 161 251 r \$0player;
#X obj 153 286 == 0;
#X obj 154 334 line~;
#X obj 239 348 line~;
#X obj 97 116 inlet~;
#X obj 166 118 inlet~;
#X obj 308 129 inlet~;
#X obj 377 131 inlet~;
#X obj 92 523 outlet~;
#X obj 177 528 outlet~;
#X obj 153 310 pack 0 10;
#X obj 242 313 pack 0 10;
#X connect 0 0 12 0;
#X connect 1 0 13 0;
#X connect 2 0 12 0;
#X connect 3 0 13 0;
#X connect 4 0 5 0;
#X connect 4 0 15 0;
#X connect 5 0 14 0;
#X connect 6 0 0 1;
#X connect 6 0 1 1;
#X connect 7 0 2 0;
#X connect 7 0 3 0;
#X connect 8 0 0 0;
#X connect 9 0 1 0;
#X connect 10 0 2 1;
#X connect 11 0 3 1;
#X connect 14 0 6 0;
#X connect 15 0 7 0;
#X restore 213 841 pd mixplayers;
#X obj 587 594 r \$0kill;
#X obj 132 482 pack f f f f f f;
#X obj 291 618 r \$0tableR;
#X obj 217 598 r \$0tableL;
#X obj 625 635 r \$0tableR;
#X obj 603 615 r \$0tableL;
#X obj 413 567 print tab1;
#X obj 32 598 print tab0;
#X obj 508 509 r \$0player;
#X obj 523 548 print player;
#X obj 295 501 print OFFSET;
#N canvas 0 0 450 300 getoffset 0;
#X obj 76 140 snapshot~;
#X obj 76 47 r \$0getoffset;
#X obj 76 165 s \$0offset;
#X obj 147 79 r \$0player;
#X obj 21 28 inlet~;
#X obj 76 86 spigot;
#X connect 0 0 2 0;
#X connect 1 0 5 0;
#X connect 3 0 5 1;
#X connect 4 0 0 0;
#X connect 5 0 0 0;
#X restore 632 739 pd getoffset;
#X obj 572 663 ./looper/player~;
#X connect 3 0 20 4;
#X connect 3 0 49 4;
#X connect 4 0 20 5;
#X connect 4 0 49 5;
#X connect 7 0 5 0;
#X connect 8 0 17 0;
#X connect 9 0 18 0;
#X connect 10 0 11 0;
#X connect 10 0 14 0;
#X connect 13 0 15 0;
#X connect 14 0 13 0;
#X connect 14 1 9 1;
#X connect 17 0 6 0;
#X connect 17 1 13 1;
#X connect 17 2 12 0;
#X connect 17 3 9 0;
#X connect 20 0 36 0;
#X connect 20 1 36 1;
#X connect 20 3 35 0;
#X connect 21 1 38 1;
#X connect 22 0 24 0;
#X connect 23 0 38 2;
#X connect 23 0 47 0;
#X connect 24 0 26 0;
#X connect 24 1 25 0;
#X connect 26 0 38 0;
#X connect 27 0 20 1;
#X connect 30 0 38 4;
#X connect 31 0 21 0;
#X connect 32 0 38 3;
#X connect 33 0 38 5;
#X connect 34 0 20 0;
#X connect 34 0 44 0;
#X connect 34 1 43 0;
#X connect 34 1 49 0;
#X connect 36 0 28 0;
#X connect 36 1 29 0;
#X connect 37 0 49 1;
#X connect 38 0 34 0;
#X connect 39 0 20 3;
#X connect 40 0 20 2;
#X connect 41 0 49 3;
#X connect 42 0 49 2;
#X connect 45 0 46 0;
#X connect 49 0 36 2;
#X connect 49 1 36 3;
#X connect 49 3 48 0;
