#N canvas 37 29 1243 910 10;
#X text 667 84 speed signal;
#X text 851 72 sync signal;
#N canvas 460 146 820 641 sample_parse 0;
#X obj 213 2 inlet;
#N canvas 0 0 1247 910 set_tables 0;
#X obj 243 39 > 1;
#X obj 132 70 demultiplex 0 1;
#X msg 128 95 symbol \$1s0;
#X msg 227 96 symbol \$1s0;
#X msg 346 99 symbol \$1s1;
#X obj 131 3 inlet;
#X obj 236 8 inlet;
#X obj 83 222 outlet;
#X obj 244 224 outlet;
#X connect 0 0 1 1;
#X connect 1 0 2 0;
#X connect 1 1 3 0;
#X connect 1 1 4 0;
#X connect 2 0 7 0;
#X connect 2 0 8 0;
#X connect 3 0 7 0;
#X connect 4 0 8 0;
#X connect 5 0 1 0;
#X connect 6 0 0 0;
#X restore 182 395 pd set_tables;
#X obj 368 63 table \$0dummy 44100;
#X obj 222 210 sel 1;
#X obj 225 453 s \$0tableR;
#X obj 123 456 s \$0tableL;
#X obj 80 328 f \$0;
#X msg 89 356 symbol \$1dummy;
#X obj 117 323 s \$0ready;
#X msg 116 294 0;
#X obj 134 86 t b b;
#X msg 70 163 1;
#X obj 70 188 s \$0ready;
#X obj 156 300 s \$0kill;
#X obj 76 268 t b b b;
#X msg 315 121 frames length start channels table_id gain;
#X obj 241 312 route table_id channels start length frames gain;
#X obj 577 368 s \$0file_gain;
#X obj 179 166 sample/handle;
#X obj 479 534 s \$0length;
#X obj 679 484 s \$0frames;
#X obj 305 511 s \$0start;
#X connect 0 0 18 0;
#X connect 1 0 5 0;
#X connect 1 1 4 0;
#X connect 3 0 10 0;
#X connect 3 1 14 0;
#X connect 6 0 7 0;
#X connect 7 0 5 0;
#X connect 7 0 4 0;
#X connect 9 0 8 0;
#X connect 10 0 11 0;
#X connect 10 1 15 0;
#X connect 11 0 12 0;
#X connect 14 0 6 0;
#X connect 14 1 9 0;
#X connect 14 2 13 0;
#X connect 15 0 18 1;
#X connect 16 0 1 0;
#X connect 16 1 1 1;
#X connect 16 2 21 0;
#X connect 16 3 19 0;
#X connect 16 4 20 0;
#X connect 16 5 17 0;
#X connect 18 0 16 0;
#X connect 18 1 3 0;
#X restore -169 79 pd sample_parse;
#X obj -13 142 s \$0sync;
#X obj -169 36 inlet sample;
#X obj 67 43 inlet speed|speed&loopStart&loopLength|sync;
#X obj 99 266 spigot;
#X obj 268 98 r \$0ready;
#X obj 84 146 s \$0autogain;
#X obj 250 145 t b f;
#X text 74 4 This needs to be simplified!;
#X obj 14 108 route sync autoplay autogain;
#N canvas 398 265 797 674 trigger 0;
#X obj 71 50 inlet;
#X obj 104 250 sel 0;
#X obj 403 365 < 0;
#X obj 298 359 f;
#X obj 422 432 -;
#X obj 307 402 demultiplex 0 1;
#X obj 175 309 t b f b f;
#X obj 287 248 r \$0start;
#X obj 492 212 r \$0length;
#X obj 583 214 r \$0frames;
#X obj 532 260 / 1;
#X obj 374 251 r \$0frames;
#X obj 323 297 / 1;
#X obj 518 459 t f f;
#X obj 211 660 outlet;
#X obj 290 515 r \$0start;
#X obj 366 523 r \$0length;
#X obj 382 543 r \$0frames;
#X obj 211 622 pack f f f f f f s s;
#X obj 378 571 r \$0tableL;
#X obj 481 568 r \$0tableR;
#X text 324 640 speed \, loop_in \, loop_length \, start \, length
\, frames \, table \, table;
#X msg 104 523 stop;
#X connect 0 0 1 0;
#X connect 1 0 22 0;
#X connect 1 1 6 0;
#X connect 2 0 5 1;
#X connect 3 0 5 0;
#X connect 4 0 18 1;
#X connect 5 0 18 1;
#X connect 5 1 4 0;
#X connect 6 1 18 0;
#X connect 6 2 3 0;
#X connect 6 3 2 0;
#X connect 7 0 12 0;
#X connect 8 0 10 0;
#X connect 9 0 10 1;
#X connect 10 0 13 0;
#X connect 11 0 12 1;
#X connect 12 0 3 1;
#X connect 13 0 18 2;
#X connect 13 1 4 1;
#X connect 15 0 18 3;
#X connect 16 0 18 4;
#X connect 17 0 18 5;
#X connect 18 0 14 0;
#X connect 19 0 18 6;
#X connect 20 0 18 7;
#X connect 22 0 14 0;
#X restore 99 296 pd trigger;
#N canvas 0 0 450 300 auto_demux 0;
#X obj 129 124 demultiplex 0 1;
#X obj 96 23 inlet;
#X obj 105 264 outlet;
#X obj 335 272 outlet;
#X msg 209 228 stop;
#X msg 158 243 stop;
#X obj 129 95 t b a;
#X obj 124 168 t a b;
#X obj 245 163 t a b;
#X obj 231 81 tgl 15 0 empty empty empty 0 -6 0 8 -262144 -1 -1 0 1
;
#X obj 66 64 relay stop;
#X obj 431 265 outlet;
#X obj 334 149 == 0;
#X connect 0 0 7 0;
#X connect 0 1 8 0;
#X connect 1 0 10 0;
#X connect 4 0 3 0;
#X connect 5 0 2 0;
#X connect 6 0 9 0;
#X connect 6 1 0 0;
#X connect 7 0 2 0;
#X connect 7 1 4 0;
#X connect 8 0 3 0;
#X connect 8 1 5 0;
#X connect 9 0 0 1;
#X connect 9 0 12 0;
#X connect 10 0 0 0;
#X connect 10 1 6 0;
#X connect 12 0 11 0;
#X restore 217 404 pd auto_demux;
#X obj 173 777 outlet~;
#X obj 272 780 outlet~;
#X obj 84 460 r \$0kill;
#X msg 84 482 stop;
#X obj 294 448 r \$0kill;
#X msg 294 470 stop;
#X obj 671 105 inlet~;
#X obj 839 93 inlet~;
#X obj 236 478 r \$0sync;
#X obj 382 465 r \$0sync;
#X obj 401 781 outlet~ loop_progress;
#X obj 397 655 multiplex~;
#X obj 34 203 f;
#X obj 347 530 looper/player~;
#X obj 217 530 looper/player~;
#X connect 4 0 2 0;
#X connect 5 0 11 0;
#X connect 6 0 12 0;
#X connect 7 0 9 0;
#X connect 9 0 26 0;
#X connect 9 1 6 1;
#X connect 11 0 3 0;
#X connect 11 1 26 1;
#X connect 11 2 8 0;
#X connect 11 3 6 0;
#X connect 12 0 13 0;
#X connect 13 0 28 0;
#X connect 13 1 27 0;
#X connect 13 2 25 0;
#X connect 16 0 17 0;
#X connect 17 0 28 0;
#X connect 18 0 19 0;
#X connect 19 0 27 0;
#X connect 20 0 27 2;
#X connect 20 0 28 2;
#X connect 21 0 27 3;
#X connect 21 0 28 3;
#X connect 22 0 28 1;
#X connect 23 0 27 1;
#X connect 25 0 24 0;
#X connect 26 0 6 0;
#X connect 27 0 14 0;
#X connect 27 1 15 0;
#X connect 27 2 25 1;
#X connect 28 0 14 0;
#X connect 28 1 15 0;
#X connect 28 2 25 0;
