#N canvas 4 172 1107 687 10;
#X text 120 48 interonset timer;
#N canvas 0 0 450 300 linear_sequence_of_32_floats 0;
#X obj 171 141 - 32;
#X obj 169 168 abs;
#X obj 170 64 loadbang;
#N canvas 0 0 458 308 gun.guts 0;
#X obj 66 157 until;
#X obj 68 353 outlet;
#X obj 66 32 inlet;
#X obj 66 103 t f f;
#X obj 66 136 t f b;
#X obj 68 218 + 1;
#X obj 66 193 f;
#X msg 117 158 0;
#X obj 110 295 sel;
#X obj 158 350 outlet;
#X obj 68 246 t f f f;
#X obj 66 61 f \$1;
#X obj 225 33 inlet;
#X connect 0 0 6 0;
#X connect 2 0 11 0;
#X connect 3 0 4 0;
#X connect 3 1 8 1;
#X connect 4 0 0 0;
#X connect 4 1 7 0;
#X connect 5 0 10 0;
#X connect 6 0 5 0;
#X connect 7 0 6 1;
#X connect 8 0 9 0;
#X connect 10 0 8 0;
#X connect 10 1 1 0;
#X connect 10 2 6 1;
#X connect 11 0 3 0;
#X connect 12 0 11 1;
#X restore 171 117 pd gun.guts;
#X msg 170 88 32;
#X obj 168 207 outlet;
#X obj 121 40 inlet;
#X connect 0 0 1 0;
#X connect 1 0 5 0;
#X connect 2 0 4 0;
#X connect 3 0 0 0;
#X connect 4 0 3 0;
#X connect 6 0 4 0;
#X restore 207 194 pd linear_sequence_of_32_floats;
#X text 163 258 request a grain voice;
#X obj -39 201 r \$0grain_done;
#N canvas 0 0 450 300 new_interonset 0;
#X obj 101 47 inlet;
#X obj 101 258 outlet;
#N canvas 0 0 450 300 float|list 0;
#X obj 273 90 route list;
#X obj 273 118 unpack f f;
#X obj 349 115 t f f;
#X obj 284 54 inlet;
#X obj 268 181 outlet;
#X obj 359 188 outlet;
#X connect 0 0 1 0;
#X connect 0 1 2 0;
#X connect 1 0 4 0;
#X connect 1 1 5 0;
#X connect 2 0 4 0;
#X connect 2 1 5 0;
#X connect 3 0 0 0;
#X restore 207 121 pd float|list;
#X obj 262 51 r \$0interonset;
#X obj 101 155 random/float 1000 1000;
#X connect 0 0 4 0;
#X connect 2 0 4 1;
#X connect 2 1 4 2;
#X connect 3 0 2 0;
#X connect 4 0 1 0;
#X restore -83 17 pd new_interonset;
#X obj 38 78 t b b;
#X obj 0 350 r \$0grains;
#X obj 412 4 inlet;
#X obj 34 46 delay 100;
#X obj 550 327 s \$0interonset;
#X obj -42 302 count/accum;
#X msg 74 276 1;
#X msg -32 250 -1;
#X obj 607 299 s \$0length;
#X obj 662 276 s \$0speed;
#X obj 719 248 s \$0attack;
#X obj 775 225 s \$0sustain;
#X obj 829 206 s \$0gain;
#X obj 1097 440 s \$0on/off;
#X obj 86 -38 r \$0on/off;
#X obj 83 -14 sel 1 0;
#X msg 103 18 stop;
#X obj 625 594 outlet;
#X obj 855 170 s \$0onset;
#X obj 762 595 outlet;
#X text 621 621 voices;
#X obj 119 288 t f b;
#X obj -31 222 t f b;
#X obj 892 213 s \$0peek;
#X text 761 619 peek;
#X obj 1022 337 s \$0grains;
#X msg 1146 402 \$1 pos \$2 \$3;
#X obj 116 260 fifop;
#N canvas 0 25 991 658 boids 0;
#X obj 584 41 inlet;
#X msg 580 72 attractpt \$1 \$2;
#X obj 258 21 loadbang;
#X obj 213 391 outlet;
#X obj 206 132 metro 50;
#X obj 718 29 loadbang;
#X msg 721 60 4.5 4;
#X obj 212 165 boids2d 32;
#X obj 201 12 inlet;
#X msg 350 206 neighbors 4 \, maxspeed 1.5 \, minspeed 1.2 \, center
1.2 \, attract 3 \, match 0.3 \, avoid 3.5 \, repel 0 \, edgedist 0
\, speed 6 \, inertia 5 \, accel 2.5 \, prefdist 4;
#X connect 0 0 1 0;
#X connect 1 0 7 0;
#X connect 2 0 9 0;
#X connect 4 0 7 0;
#X connect 5 0 6 0;
#X connect 6 0 1 0;
#X connect 7 0 3 0;
#X connect 8 0 4 0;
#X connect 9 0 7 0;
#X restore 1139 360 pd boids;
#X obj 1128 299 route float list;
#X obj 42 603 outlet~;
#X obj 121 603 outlet~;
#X obj 181 603 outlet~;
#X obj 260 603 outlet~;
#X obj 325 603 outlet~;
#X obj 404 603 outlet~;
#X obj 468 602 outlet~;
#X obj 547 602 outlet~;
#N canvas 8 521 814 389 sample_parse 0;
#X obj 524 336 s \$0frames;
#X obj 379 332 s \$0grains;
#X obj 105 7 inlet;
#X obj 383 113 table \$0dummy 44100;
#X obj 257 189 f \$0;
#X msg 361 175 44100;
#X msg 266 217 table \$1dummy;
#X obj 101 132 sample/handle;
#X obj 119 176 sel -1 1 0;
#X msg 547 268 kill;
#X obj 234 40 t b b;
#X obj 351 33 s \$0ready;
#X msg 357 6 1;
#X obj 277 142 t b b b b;
#X msg 356 147 0;
#X msg 4 297 symbol \$1s0;
#X obj 1 348 outlet;
#X obj 651 323 s \$0filegain;
#X msg 255 79 channels table_id frames gain;
#X obj 0 213 route table_id frames gain channels;
#X obj 121 347 outlet;
#X obj 15 270 demultiplex 0 1;
#X obj 176 257 > 1;
#X msg 91 298 symbol \$1s0;
#X msg 185 294 symbol \$1s1;
#X connect 2 0 7 0;
#X connect 4 0 6 0;
#X connect 5 0 0 0;
#X connect 6 0 1 0;
#X connect 7 0 19 0;
#X connect 7 1 8 0;
#X connect 8 0 13 0;
#X connect 8 1 10 0;
#X connect 8 2 13 0;
#X connect 9 0 1 0;
#X connect 10 0 12 0;
#X connect 10 1 18 0;
#X connect 12 0 11 0;
#X connect 13 0 4 0;
#X connect 13 1 5 0;
#X connect 13 2 9 0;
#X connect 13 3 14 0;
#X connect 14 0 11 0;
#X connect 15 0 16 0;
#X connect 15 0 20 0;
#X connect 18 0 7 1;
#X connect 19 0 21 0;
#X connect 19 1 0 0;
#X connect 19 2 17 0;
#X connect 19 3 22 0;
#X connect 21 0 15 0;
#X connect 21 1 23 0;
#X connect 21 1 24 0;
#X connect 22 0 21 1;
#X connect 23 0 16 0;
#X connect 24 0 20 0;
#X restore 353 68 pd sample_parse;
#X obj 640 7 inlet;
#X obj 111 96 spigot;
#X obj 139 66 r \$0ready;
#X obj 261 114 sel 0 1;
#X msg 327 137 Ready.;
#X obj 235 166 print synth/particulate~;
#X obj 412 257 b;
#X obj 414 235 r \$0peek;
#X obj 386 301 list;
#X obj 338 345 route bang;
#X obj 412 373 t l b;
#N canvas 159 140 914 884 parameters 0;
#N canvas 0 0 450 300 float|list 0;
#X obj 273 90 route list;
#X obj 273 118 unpack f f;
#X obj 349 115 t f f;
#X obj 284 54 inlet;
#X obj 268 181 outlet;
#X obj 359 188 outlet;
#X connect 0 0 1 0;
#X connect 0 1 2 0;
#X connect 1 0 4 0;
#X connect 1 1 5 0;
#X connect 2 0 4 0;
#X connect 2 1 5 0;
#X connect 3 0 0 0;
#X restore 226 571 pd float|list;
#X obj 87 27 inlet;
#N canvas 0 0 450 300 float|list 0;
#X obj 273 90 route list;
#X obj 273 118 unpack f f;
#X obj 349 115 t f f;
#X obj 284 54 inlet;
#X obj 268 181 outlet;
#X obj 359 188 outlet;
#X connect 0 0 1 0;
#X connect 0 1 2 0;
#X connect 1 0 4 0;
#X connect 1 1 5 0;
#X connect 2 0 4 0;
#X connect 2 1 5 0;
#X connect 3 0 0 0;
#X restore 239 472 pd float|list;
#X obj 239 450 r \$0length;
#N canvas 0 0 450 300 float|list 0;
#X obj 273 90 route list;
#X obj 273 118 unpack f f;
#X obj 349 115 t f f;
#X obj 284 54 inlet;
#X obj 268 181 outlet;
#X obj 359 188 outlet;
#X connect 0 0 1 0;
#X connect 0 1 2 0;
#X connect 1 0 4 0;
#X connect 1 1 5 0;
#X connect 2 0 4 0;
#X connect 2 1 5 0;
#X connect 3 0 0 0;
#X restore 284 401 pd float|list;
#X obj 284 371 r \$0speed;
#N canvas 0 0 450 300 float|list 0;
#X obj 273 90 route list;
#X obj 273 118 unpack f f;
#X obj 349 115 t f f;
#X obj 284 54 inlet;
#X obj 268 181 outlet;
#X obj 359 188 outlet;
#X connect 0 0 1 0;
#X connect 0 1 2 0;
#X connect 1 0 4 0;
#X connect 1 1 5 0;
#X connect 2 0 4 0;
#X connect 2 1 5 0;
#X connect 3 0 0 0;
#X restore 299 317 pd float|list;
#X obj 299 287 r \$0attack;
#N canvas 0 0 450 300 float|list 0;
#X obj 273 90 route list;
#X obj 273 118 unpack f f;
#X obj 349 115 t f f;
#X obj 284 54 inlet;
#X obj 268 181 outlet;
#X obj 359 188 outlet;
#X connect 0 0 1 0;
#X connect 0 1 2 0;
#X connect 1 0 4 0;
#X connect 1 1 5 0;
#X connect 2 0 4 0;
#X connect 2 1 5 0;
#X connect 3 0 0 0;
#X restore 348 236 pd float|list;
#X obj 348 206 r \$0sustain;
#N canvas 0 0 450 300 float|list 0;
#X obj 273 90 route list;
#X obj 273 118 unpack f f;
#X obj 349 115 t f f;
#X obj 284 54 inlet;
#X obj 268 181 outlet;
#X obj 359 188 outlet;
#X connect 0 0 1 0;
#X connect 0 1 2 0;
#X connect 1 0 4 0;
#X connect 1 1 5 0;
#X connect 2 0 4 0;
#X connect 2 1 5 0;
#X connect 3 0 0 0;
#X restore 351 139 pd float|list;
#X obj 351 109 r \$0gain;
#X obj 52 886 outlet;
#X obj 226 541 r \$0onset;
#X text 833 754 voice onset(smp) length(smp) speed(rel) attack(rel)
sustain(rel) gain;
#N canvas 0 0 450 300 *frames 0;
#X obj 169 102 r \$0frames;
#X obj 119 186 * 44100;
#X obj 144 128 t b f;
#X obj 60 71 inlet;
#X obj 125 222 outlet;
#X obj 125 152 f 1;
#X connect 0 0 2 0;
#X connect 1 0 4 0;
#X connect 2 0 5 0;
#X connect 2 1 1 1;
#X connect 3 0 5 0;
#X connect 5 0 1 0;
#X restore 309 596 pd *frames;
#N canvas 0 0 450 300 *frames 0;
#X obj 168 100 r \$0frames;
#X obj 119 186 * 44100;
#X obj 143 126 t b f;
#X obj 45 78 inlet;
#X obj 125 222 outlet;
#X obj 117 152 f 0;
#X connect 0 0 2 0;
#X connect 1 0 4 0;
#X connect 2 0 5 0;
#X connect 2 1 1 1;
#X connect 3 0 5 0;
#X connect 5 0 1 0;
#X restore 219 597 pd *frames;
#N canvas 0 0 450 300 *frames 0;
#X obj 211 85 r \$0frames;
#X obj 119 186 * 44100;
#X obj 190 113 t b f;
#X obj 101 77 inlet;
#X obj 125 222 outlet;
#X obj 122 162 f 1;
#X connect 0 0 2 0;
#X connect 1 0 4 0;
#X connect 2 0 5 0;
#X connect 2 1 1 1;
#X connect 3 0 5 0;
#X connect 5 0 1 0;
#X restore 324 493 pd *frames;
#N canvas 0 0 450 300 *frames 0;
#X obj 208 99 r \$0frames;
#X obj 119 186 * 44100;
#X obj 183 125 t b f;
#X obj 97 74 inlet;
#X obj 125 222 outlet;
#X obj 110 131 f 0;
#X connect 0 0 2 0;
#X connect 1 0 4 0;
#X connect 2 0 5 0;
#X connect 2 1 1 1;
#X connect 3 0 5 0;
#X connect 5 0 1 0;
#X restore 231 493 pd *frames;
#X text 49 911 trigger;
#X obj 68 827 t l l;
#N canvas 0 0 625 524 checkfilelimits 0;
#X obj 142 110 +;
#X obj 290 95 r \$0frames;
#X obj 92 31 inlet;
#X obj 188 45 inlet;
#X obj 174 78 t f f;
#X obj 197 163 moses 44100;
#X obj 92 69 t f f;
#X obj 43 443 outlet;
#X obj 376 472 outlet;
#X obj 99 270 demultiplex 0 1;
#X obj 324 290 f;
#X obj 201 191 t b b;
#X msg 193 221 0;
#X msg 324 194 1;
#X obj 228 395 - 44100;
#X obj 252 356 r \$0frames;
#X obj 196 301 t f f;
#X obj 253 423 abs;
#X connect 0 0 5 0;
#X connect 1 0 5 1;
#X connect 2 0 6 0;
#X connect 3 0 4 0;
#X connect 4 0 0 1;
#X connect 4 1 10 1;
#X connect 5 0 11 0;
#X connect 5 1 13 0;
#X connect 6 0 9 0;
#X connect 6 1 0 0;
#X connect 9 0 7 0;
#X connect 9 1 16 0;
#X connect 10 0 8 0;
#X connect 11 0 12 0;
#X connect 11 1 10 0;
#X connect 12 0 9 1;
#X connect 13 0 9 1;
#X connect 14 0 17 0;
#X connect 15 0 14 1;
#X connect 16 0 7 0;
#X connect 16 1 14 0;
#X connect 17 0 8 0;
#X restore 90 698 pd checkfilelimits;
#X obj 579 558 symbol \$0dummy;
#X obj 714 34 inlet;
#X obj 276 192 r \$0filegain;
#X obj 260 217 * 1;
#X obj 709 858 outlet;
#X obj 822 32 inlet;
#X obj 749 554 symbol \$0dummy;
#X obj 590 491 t b b;
#X obj 67 786 pack f f f f f f f s s f f;
#X obj 424 4 r \$0width;
#N canvas 0 0 450 300 float|list 0;
#X obj 273 90 route list;
#X obj 273 118 unpack f f;
#X obj 349 115 t f f;
#X obj 284 54 inlet;
#X obj 268 181 outlet;
#X obj 359 188 outlet;
#X connect 0 0 1 0;
#X connect 0 1 2 0;
#X connect 1 0 4 0;
#X connect 1 1 5 0;
#X connect 2 0 4 0;
#X connect 2 1 5 0;
#X connect 3 0 0 0;
#X restore 427 25 pd float|list;
#X obj 85 80 t f b b b b b b b b b;
#X obj 383 49 * -1;
#X obj 522 48 * -1;
#X obj 579 99 unpack;
#X obj 558 147 +;
#X obj 607 147 +;
#X obj 546 9 r \$0position;
#X obj 299 71 random/float -1 1;
#X obj 258 164 random/float 0.5 0.5;
#X obj 241 260 random/float 0.5 0.5;
#X obj 211 340 random/float 0.5 0.5;
#X obj 180 425 random/float 1 1;
#X obj 131 513 random/float 0 6000;
#X obj 93 623 random/float 0 44100;
#X obj 513 70 random/float -1 1;
#X connect 0 0 16 0;
#X connect 0 1 15 0;
#X connect 1 0 33 0;
#X connect 2 0 18 0;
#X connect 2 1 17 0;
#X connect 3 0 2 0;
#X connect 4 0 44 1;
#X connect 4 1 44 2;
#X connect 5 0 4 0;
#X connect 6 0 43 1;
#X connect 6 1 43 2;
#X connect 7 0 6 0;
#X connect 8 0 42 1;
#X connect 8 1 42 2;
#X connect 9 0 8 0;
#X connect 10 0 41 1;
#X connect 10 1 41 2;
#X connect 11 0 10 0;
#X connect 13 0 0 0;
#X connect 15 0 46 2;
#X connect 16 0 46 1;
#X connect 17 0 45 2;
#X connect 18 0 45 1;
#X connect 20 0 12 0;
#X connect 20 1 26 0;
#X connect 21 0 30 1;
#X connect 21 1 30 2;
#X connect 22 0 30 7;
#X connect 23 0 22 1;
#X connect 24 0 25 1;
#X connect 25 0 30 6;
#X connect 27 0 28 1;
#X connect 28 0 30 8;
#X connect 29 0 22 0;
#X connect 29 1 28 0;
#X connect 30 0 20 0;
#X connect 31 0 32 0;
#X connect 32 0 34 0;
#X connect 32 0 40 2;
#X connect 32 1 35 0;
#X connect 32 1 47 2;
#X connect 33 0 30 0;
#X connect 33 1 46 0;
#X connect 33 2 45 0;
#X connect 33 3 44 0;
#X connect 33 4 43 0;
#X connect 33 5 42 0;
#X connect 33 6 41 0;
#X connect 33 7 29 0;
#X connect 33 8 40 0;
#X connect 33 9 47 0;
#X connect 34 0 40 1;
#X connect 35 0 47 1;
#X connect 36 0 37 1;
#X connect 36 1 38 1;
#X connect 37 0 30 9;
#X connect 38 0 30 10;
#X connect 39 0 36 0;
#X connect 40 0 37 0;
#X connect 41 0 25 0;
#X connect 42 0 30 5;
#X connect 43 0 30 4;
#X connect 44 0 30 3;
#X connect 45 0 21 1;
#X connect 46 0 21 0;
#X connect 47 0 38 0;
#X restore 174 325 pd parameters;
#X msg 164 136 Not ready(no sample).;
#X obj 55 414 particulate/grains~ \$0;
#X obj 1054 183 relay outputs output;
#X obj 945 178 s \$0width;
#X obj 976 213 s \$0position;
#X msg 709 546 grain 0 onset 91987.6 length 1016.14 speed 1.60628 attack
0.5 sustain 0.5 gain 0.976864 position -0.750962 -0.866432;
#X obj 476 425 niagara 9;
#X obj 659 495 list;
#X msg 523 453 set grain \$1 onset \$2 length \$3 speed \$4 attack
\$5 sustain \$6 gain \$7;
#X obj 450 454 t b l;
#X msg 721 496 add2 position \$1 \$2 \, bang;
#X obj 640 117 route interonset length speed attack sustain gain onset
peek spread position;
#X connect 1 0 32 0;
#X connect 3 0 27 0;
#X connect 4 0 8 0;
#X connect 5 0 4 0;
#X connect 5 1 45 0;
#X connect 6 0 57 0;
#X connect 7 0 43 0;
#X connect 8 0 5 0;
#X connect 10 0 22 0;
#X connect 11 0 10 0;
#X connect 12 0 10 0;
#X connect 19 0 20 0;
#X connect 20 0 8 0;
#X connect 20 1 21 0;
#X connect 21 0 8 0;
#X connect 26 0 55 0;
#X connect 26 1 11 0;
#X connect 27 0 32 0;
#X connect 27 1 12 0;
#X connect 31 0 57 1;
#X connect 32 0 26 0;
#X connect 33 0 31 0;
#X connect 34 0 18 0;
#X connect 34 0 33 0;
#X connect 34 1 33 1;
#X connect 43 0 55 1;
#X connect 43 1 55 2;
#X connect 44 0 67 0;
#X connect 45 0 32 0;
#X connect 46 0 45 1;
#X connect 46 0 47 0;
#X connect 47 0 56 0;
#X connect 47 1 48 0;
#X connect 48 0 49 0;
#X connect 50 0 52 0;
#X connect 51 0 50 0;
#X connect 52 0 53 0;
#X connect 53 1 54 0;
#X connect 54 0 62 0;
#X connect 54 1 52 1;
#X connect 55 0 57 1;
#X connect 55 1 52 1;
#X connect 56 0 49 0;
#X connect 57 0 35 0;
#X connect 57 1 36 0;
#X connect 57 2 37 0;
#X connect 57 3 38 0;
#X connect 57 4 39 0;
#X connect 57 5 40 0;
#X connect 57 6 41 0;
#X connect 57 7 42 0;
#X connect 58 0 30 0;
#X connect 58 1 30 0;
#X connect 58 2 34 0;
#X connect 61 0 24 0;
#X connect 62 0 65 0;
#X connect 62 1 63 1;
#X connect 63 0 66 0;
#X connect 64 0 61 0;
#X connect 65 0 63 0;
#X connect 65 1 64 0;
#X connect 66 0 61 0;
#X connect 67 0 9 0;
#X connect 67 1 13 0;
#X connect 67 2 14 0;
#X connect 67 3 15 0;
#X connect 67 4 16 0;
#X connect 67 5 17 0;
#X connect 67 6 23 0;
#X connect 67 7 28 0;
#X connect 67 8 59 0;
#X connect 67 9 60 0;
#X connect 67 10 58 0;
