#N canvas 0 27 1247 912 10;
#X msg 351 230 gain \$1 \$2;
#X msg 272 -292 speed \$1 \$2;
#X msg 347 41 attack \$1 \$2;
#X msg 369 -175 length \$1 \$2;
#X msg 350 137 sustain \$1 \$2;
#X msg 428 -301 onset \$1 \$2;
#X floatatom 16 9 5 0 0 0 voices - -;
#X msg -2 -275 envelope \$1;
#X obj -2 -297 tgl 15 0 empty empty empty 0 -6 0 8 -262144 -1 -1 0
1;
#X obj -114 32 dac~ 1 2;
#X msg 119 -275 interonset \$1 \$2;
#X obj -88 -497 sample/table 2 882000;
#X msg -36 -319 peek;
#X obj -59 -341 tgl 15 0 empty empty empty 0 -6 0 8 -262144 -1 -1 0
1;
#X msg 350 -68 pan \$1 \$2;
#X obj 20 -24 print peek_last_grain;
#X obj -88 -457 sample/display_;
#X obj 104 -351 input/minmax_ 5 100;
#X obj 272 -362 input/minmax_ -2 2;
#X obj 435 -372 input/minmax_ 0 1;
#X obj -87 -541 file/parentfolder;
#X msg -87 -570 ../examples/media/sounds/loop2.wav;
#X obj -88 -71 sample/particular~;
#X obj 378 -237 input/minmax_ 0 1;
#X obj 358 -139 input/minmax_ 0 1;
#X obj 349 -25 input/minmax_ 0 1;
#X obj 351 75 input/minmax_ 0 1;
#X obj 352 168 input/minmax_ 0 1;
#X text -83 -628 Description: Granular synthesis.;
#X text -91 -613 Flags: sample_id;
#X text -39 -342 on/off;
#X text 238 -450 This abstraction does not support sample_id's region
loop points yet!;
#X connect 0 0 22 1;
#X connect 1 0 22 1;
#X connect 2 0 22 1;
#X connect 3 0 22 1;
#X connect 4 0 22 1;
#X connect 5 0 22 1;
#X connect 7 0 22 1;
#X connect 8 0 7 0;
#X connect 10 0 22 1;
#X connect 11 0 16 0;
#X connect 12 0 22 1;
#X connect 13 0 22 1;
#X connect 14 0 22 1;
#X connect 16 0 22 0;
#X connect 17 0 10 0;
#X connect 18 0 1 0;
#X connect 19 0 5 0;
#X connect 20 0 11 0;
#X connect 21 0 20 0;
#X connect 22 0 9 0;
#X connect 22 1 9 1;
#X connect 22 2 6 0;
#X connect 22 3 15 0;
#X connect 23 0 3 0;
#X connect 24 0 14 0;
#X connect 25 0 2 0;
#X connect 26 0 4 0;
#X connect 27 0 0 0;
