#N canvas 100 138 1180 669 10;
#X obj 74 5 inlet;
#X obj 295 615 print :|;
#X obj 674 75 t b a b b;
#X msg 646 191 name \, samplerate \, frames \, channels \, start \,
length \, gain \, table_id \, preview_id \, filename;
#X obj 72 193 ../sample/handle;
#X obj -9 110 t f f;
#X obj -7 624 outlet;
#X obj 210 123 sel 1;
#X obj 128 82 spigot 1;
#X msg 340 141 1;
#X msg 249 147 0;
#X msg 139 43 dump;
#X obj 680 18 inlet;
#X obj 230 192 t b b;
#X obj 213 218 spigot \$1;
#X obj 175 340 spigot;
#X obj 217 247 t b b b;
#X msg 266 281 1;
#X msg 217 278 0;
#X connect 0 0 5 0;
#X connect 2 0 16 0;
#X connect 4 0 15 0;
#X connect 4 1 7 0;
#X connect 5 0 6 0;
#X connect 5 1 4 0;
#X connect 7 0 13 0;
#X connect 7 1 10 0;
#X connect 8 0 4 1;
#X connect 9 0 8 1;
#X connect 10 0 8 1;
#X connect 11 0 8 0;
#X connect 12 0 2 0;
#X connect 13 0 14 0;
#X connect 13 1 9 0;
#X connect 14 0 16 0;
#X connect 15 0 1 0;
#X connect 16 0 18 0;
#X connect 16 1 11 0;
#X connect 16 2 17 0;
#X connect 17 0 15 1;
#X connect 18 0 15 1;
