#N canvas 0 127 1182 691 10;
#X obj 60 44 inlet~;
#N canvas 774 526 450 300 record_2 0;
#X obj 464 116 switch~;
#X obj 77 53 inlet~;
#X obj 455 70 inlet;
#X obj 199 41 inlet;
#X obj 201 75 spigot;
#X obj 310 38 inlet;
#X obj 368 42 inlet;
#X obj 269 85 spigot;
#X obj 336 102 spigot;
#X obj 77 221 record~ \$0s1;
#X connect 1 0 9 0;
#X connect 2 0 0 0;
#X connect 2 0 4 1;
#X connect 2 0 8 1;
#X connect 2 0 7 1;
#X connect 3 0 4 0;
#X connect 4 0 9 0;
#X connect 5 0 7 0;
#X connect 6 0 8 0;
#X connect 7 0 9 1;
#X connect 8 0 9 2;
#X restore 168 249 pd record_2;
#X obj 167 42 inlet~;
#X obj 645 571 outlet sample_id;
#X obj 267 1 inlet;
#X obj 574 -20 table \$0s0;
#X obj 662 -19 table \$0s1;
#X obj 463 -36 loadbang;
#X msg 397 -19 0;
#X obj 346 5 spigot 1;
#N canvas 225 336 1055 649 init_tables 0;
#X obj 79 27 inlet;
#X obj 163 331 s \$0s0;
#X obj 216 330 s \$0s1;
#X msg 168 208 resize \$1;
#X obj 121 165 ../init/df \$2 882000;
#X obj 215 96 ../init/df \$1 2;
#X obj 122 64 t b b;
#X obj 88 373 outlet;
#X obj 373 373 outlet;
#X obj 380 175 > 1;
#X obj 262 124 t f f;
#X text 244 211 init tables to 20 seconds @ 44100;
#X obj 217 253 spigot;
#X connect 0 0 6 0;
#X connect 3 0 1 0;
#X connect 3 0 12 0;
#X connect 4 0 3 0;
#X connect 4 0 7 0;
#X connect 5 0 10 0;
#X connect 6 0 4 0;
#X connect 6 1 5 0;
#X connect 9 0 12 1;
#X connect 10 0 8 0;
#X connect 10 1 9 0;
#X connect 12 0 2 0;
#X restore 464 11 pd init_tables;
#X obj 285 34 t a b;
#X obj 464 -13 t b b;
#X obj 627 288 samplerate~;
#X obj 305 118 t a a;
#X obj 56 355 snapshot~;
#X obj 117 286 bang~;
#X floatatom 37 426 5 0 0 0 - - -;
#X obj 721 286 f \$0;
#X obj 323 90 relay loop;
#X obj 338 140 s \$0looping;
#X obj 245 82 t f f;
#X obj 651 531 ../sample/gen;
#X obj 59 249 record~ \$0s0;
#X obj 97 387 change -1;
#X obj -71 377 r \$0frames;
#X obj -190 312 r \$0start;
#X msg -184 333 1;
#X msg -144 363 0;
#X obj -189 460 s \$0%;
#X obj -228 261 r \$0channels;
#X obj 562 58 s \$0channels;
#X obj -219 315 > 1;
#X obj 241 467 == -1;
#X obj 285 411 t f f;
#X obj 307 495 f;
#X obj 239 441 change -1;
#X obj 323 439 moses 0;
#X obj 241 494 sel 1;
#X obj 312 -31 tgl 15 0 empty empty empty 0 -6 0 8 -262144 -1 -1 0
1;
#X obj 280 302 s \$0start;
#X obj 292 238 sel 1 0;
#X obj 460 60 s \$0frames;
#X obj 237 521 t b b;
#X obj 227 562 s \$0done;
#X floatatom 552 106 5 0 0 0 - - -;
#X obj -118 471 s \$0preview_size;
#X obj 749 499 r \$0%;
#X obj 803 275 r \$0preview_size;
#X obj 290 204 change 0;
#X msg 346 181 set 0;
#X obj 400 174 r \$0done;
#X obj 680 102 r \$0done;
#X obj 687 181 change;
#X msg 680 129 0;
#X obj 738 147 r \$0start;
#X msg 745 172 set 1;
#X obj 865 304 r \$0frames;
#X obj 365 514 s \$0length;
#X obj 741 305 r \$0length;
#X obj 489 360 s \$0status;
#X msg 532 318 1;
#X obj 292 265 t b b;
#X msg 357 277 0;
#X obj 697 474 r \$0status;
#X obj 574 5 table \$0p0 300;
#X obj 682 5 table \$0p1 300;
#N canvas 36 373 1199 557 preview+gain 0;
#X obj 811 105 inlet;
#X obj 106 68 inlet~;
#X text 85 45 samples;
#X obj 107 171 pack~;
#X obj 199 330 repack;
#X obj 102 132 abs~;
#X obj 349 604 outlet;
#X obj 651 97 inlet;
#X text 647 66 on/off;
#X obj 73 205 spigot;
#X text 760 78 number of frames;
#X obj 797 158 int;
#X obj 797 180 + 1;
#X obj 798 135 / 300;
#X obj 187 383 spigot;
#X obj 671 173 t f f;
#X text 346 628 data;
#X obj 239 73 inlet~;
#X text 218 50 samples;
#X obj 240 176 pack~;
#X obj 235 137 abs~;
#X obj 215 215 spigot;
#X obj 449 315 repack;
#X obj 437 368 spigot;
#X obj 249 435 ../list/avg;
#X obj 366 436 ../list/avg;
#X obj 555 207 sel 0 1;
#X obj 590 354 t b b;
#X obj 415 478 * -1;
#X obj 341 525 pack f f;
#X obj 588 637 tabwrite \$0p0;
#X obj 719 639 tabwrite \$0p1;
#X obj 643 463 ../count/accum;
#X obj 628 493 - 1;
#X obj 539 504 t l l b;
#X obj 560 549 unpack;
#X msg 624 437 1;
#X obj 900 653 outlet;
#X obj 866 584 / 3;
#X obj 947 603 int;
#X obj 961 630 change -1;
#X obj 455 65 inlet channels;
#X obj 131 96 multiplex~ 0 1;
#X obj 1107 584 outlet;
#X obj 682 135 change -1;
#N canvas 371 360 710 577 find_amplitude 0;
#X obj 20 172 minmax~;
#X msg 115 133 reset;
#X obj 152 174 minmax~;
#X msg 247 135 reset;
#X obj 94 327 pack f f f f;
#X obj 94 407 minmax;
#X obj 54 201 abs;
#X obj 152 199 abs;
#X obj 24 19 inlet~;
#X obj 148 20 inlet~;
#X obj 129 453 outlet;
#X obj 369 33 inlet;
#X obj 91 85 t b b b;
#X connect 0 2 6 0;
#X connect 0 3 4 1;
#X connect 1 0 0 0;
#X connect 2 2 7 0;
#X connect 2 3 4 3;
#X connect 3 0 2 0;
#X connect 4 0 5 0;
#X connect 5 1 10 0;
#X connect 6 0 4 0;
#X connect 7 0 4 2;
#X connect 8 0 0 0;
#X connect 9 0 2 0;
#X connect 11 0 12 0;
#X connect 12 0 1 0;
#X connect 12 0 3 0;
#X connect 12 1 0 0;
#X connect 12 2 2 0;
#X restore -44 158 pd find_amplitude;
#X obj -79 270 /;
#X msg -82 245 1 \$1;
#X obj -54 333 outlet;
#X obj 933 110 inlet;
#X text 980 106 Fill offset;
#X obj 696 374 f 0;
#X msg 693 408 set \$1;
#X obj 991 228 / 44100;
#X obj 951 279 * 300;
#X connect 0 0 13 0;
#X connect 0 0 53 1;
#X connect 1 0 42 0;
#X connect 1 0 5 0;
#X connect 1 0 45 0;
#X connect 3 0 9 0;
#X connect 4 0 14 0;
#X connect 5 0 3 0;
#X connect 7 0 44 0;
#X connect 9 0 4 0;
#X connect 11 0 12 0;
#X connect 12 0 4 1;
#X connect 12 0 22 1;
#X connect 13 0 11 0;
#X connect 14 0 24 0;
#X connect 15 0 26 0;
#X connect 15 1 9 1;
#X connect 15 1 14 1;
#X connect 15 1 21 1;
#X connect 15 1 23 1;
#X connect 17 0 42 1;
#X connect 17 0 45 1;
#X connect 19 0 21 0;
#X connect 20 0 19 0;
#X connect 21 0 22 0;
#X connect 22 0 23 0;
#X connect 23 0 25 0;
#X connect 24 0 29 0;
#X connect 25 0 28 0;
#X connect 26 0 4 0;
#X connect 26 0 22 0;
#X connect 26 0 45 2;
#X connect 26 1 27 0;
#X connect 27 0 6 0;
#X connect 27 1 51 0;
#X connect 28 0 29 1;
#X connect 29 0 34 0;
#X connect 32 0 33 0;
#X connect 33 0 30 1;
#X connect 33 0 31 1;
#X connect 33 0 38 0;
#X connect 33 0 43 0;
#X connect 34 0 6 0;
#X connect 34 1 35 0;
#X connect 34 2 36 0;
#X connect 35 0 30 0;
#X connect 35 1 31 0;
#X connect 36 0 32 0;
#X connect 38 0 39 0;
#X connect 39 0 40 0;
#X connect 40 0 37 0;
#X connect 41 0 42 0;
#X connect 42 0 20 0;
#X connect 44 0 15 0;
#X connect 45 0 47 0;
#X connect 46 0 48 0;
#X connect 47 0 46 0;
#X connect 49 0 53 0;
#X connect 51 0 52 0;
#X connect 52 0 32 0;
#X connect 53 0 54 0;
#X connect 54 0 51 1;
#X restore -240 419 pd preview+gain;
#X obj -265 471 s \$0gain;
#X obj 859 337 r \$0gain;
#X obj 847 554 outlet;
#X obj -128 337 r \$0subdone;
#X obj 558 208 t b b b b b;
#X obj 677 220 s \$0subdone;
#X obj 282 56 route float autogain;
#X obj 430 96 s \$0autogain;
#X obj 850 480 r \$0autogain;
#X msg 852 515 autogain \$1;
#X obj 939 524 ../init/lf \$3;
#X obj 784 576 route start;
#X obj 769 601 ../convert/smp2ms;
#X obj 782 626 s \$0msstart;
#X obj 130 213 r \$0msstart;
#X obj 891 608 s \$0framestart;
#X obj 910 377 r \$0framestart;
#X obj 622 375 pack f f f f f f 0;
#X msg 622 413 name record~ \, filename -1 \, samplerate \$1 \, table_id
\$2 \, preview_id \$2 \, preview_size \$3 \, start \$7 \, length \$4
\, frames \$5 \, gain \$6;
#X obj -105 424 r \$0framestart;
#X obj 750 333 - 0;
#X text -89 -126 Todo: append.;
#X msg -44 -84 loop \$1;
#X obj -44 -107 tgl 15 0 empty empty empty 0 -6 0 8 -262144 -1 -1 0
1;
#X text -19 -106 record continously;
#X text -87 -106 Todo:;
#X text 21 -85 WARNING: will disable sample status 0 \, therefore all
sample abstractions can read the table while it is being recorded.
Will also probably disable start and length properties.;
#X connect 0 0 23 0;
#X connect 0 0 67 0;
#X connect 2 0 1 0;
#X connect 2 0 67 1;
#X connect 4 0 11 0;
#X connect 7 0 12 0;
#X connect 8 0 9 1;
#X connect 9 0 12 0;
#X connect 10 0 42 0;
#X connect 10 1 31 0;
#X connect 10 1 45 0;
#X connect 11 0 74 0;
#X connect 11 1 9 0;
#X connect 12 0 10 0;
#X connect 12 1 8 0;
#X connect 13 0 85 0;
#X connect 14 0 1 1;
#X connect 14 0 23 0;
#X connect 14 1 20 0;
#X connect 15 0 17 0;
#X connect 15 0 34 0;
#X connect 16 0 15 0;
#X connect 18 0 85 1;
#X connect 19 0 14 0;
#X connect 21 0 23 0;
#X connect 21 0 1 1;
#X connect 21 1 49 0;
#X connect 22 0 3 0;
#X connect 22 1 79 0;
#X connect 23 0 15 0;
#X connect 25 0 67 4;
#X connect 26 0 27 0;
#X connect 27 0 67 3;
#X connect 28 0 67 3;
#X connect 30 0 32 0;
#X connect 32 0 67 2;
#X connect 33 0 38 0;
#X connect 34 0 36 0;
#X connect 34 1 37 0;
#X connect 35 0 58 0;
#X connect 36 0 33 0;
#X connect 37 1 35 1;
#X connect 38 0 43 0;
#X connect 39 0 11 0;
#X connect 41 0 62 0;
#X connect 43 0 44 0;
#X connect 43 1 35 0;
#X connect 47 0 22 3;
#X connect 48 0 85 2;
#X connect 49 0 41 0;
#X connect 50 0 49 0;
#X connect 51 0 50 0;
#X connect 52 0 54 0;
#X connect 53 0 72 0;
#X connect 54 0 53 0;
#X connect 55 0 56 0;
#X connect 56 0 53 0;
#X connect 57 0 85 4;
#X connect 59 0 88 0;
#X connect 61 0 60 0;
#X connect 62 0 40 0;
#X connect 62 1 63 0;
#X connect 63 0 60 0;
#X connect 64 0 22 2;
#X connect 67 0 68 0;
#X connect 67 2 29 0;
#X connect 67 3 46 0;
#X connect 69 0 85 5;
#X connect 71 0 28 0;
#X connect 72 0 70 0;
#X connect 72 1 61 0;
#X connect 72 2 13 0;
#X connect 72 3 18 0;
#X connect 72 4 73 0;
#X connect 74 0 21 0;
#X connect 74 1 75 0;
#X connect 76 0 78 0;
#X connect 77 0 22 4;
#X connect 78 0 77 0;
#X connect 79 0 80 0;
#X connect 79 0 83 0;
#X connect 80 0 81 0;
#X connect 82 0 23 1;
#X connect 82 0 1 2;
#X connect 84 0 85 6;
#X connect 84 0 88 1;
#X connect 85 0 86 0;
#X connect 86 0 22 1;
#X connect 87 0 67 5;
#X connect 88 0 85 3;
#X connect 91 0 90 0;
