#N struct 3419preview float x float y float p float h;
#N canvas 53 318 845 577 10;
#X text -69 20 Description: Graphical version of sample/region.;
#X text -69 59 Version: 2007-1-11;
#X text 218 296 * Click and drag the horizontal slider sideways \,
up and down to change a samples start and length bounds.;
#X text 218 333 * The center section display from left to right: start
\, length and frames. The first two are editable.;
#X text 221 371 * The bottom section sets the start or length to fractions
of the total file.;
#X obj -88 337 sample/region_;
#X text -70 40 Flags: gui sample_id;
#X obj -88 169 file/parentfolder;
#X msg -88 142 ../examples/media/sounds/loop0.wav;
#X obj -85 113 loadbang;
#X obj -88 429 sample/display_;
#X obj -88 285 sample/filer 1;
#X connect 5 0 10 0;
#X connect 7 0 11 0;
#X connect 8 0 7 0;
#X connect 9 0 8 0;
#X connect 11 0 5 0;
