#N canvas 593 167 639 519 10;
#X obj 103 100 hsl 295 15 0 0 0 0 empty empty empty -2 -6 0 8 -1 -262144
-1 -2.14748e+09 0;
#X obj -64 13 inlet;
#X obj 100 117 cnv 15 98 15 empty empty empty 3 8 0 8 -1 -262144 0
;
#X obj 301 117 cnv 15 99 15 empty \$0framesd 0 3 8 0 8 -1 -262144 0
;
#X obj -53 341 outlet;
#X obj -44 49 ../sample/region;
#X obj 200 117 cnv 15 99 15 empty empty empty 3 8 0 8 -1 -262144 0
;
#X obj 103 118 nbx 11 14 0 0 0 0 empty empty empty 0 -6 0 8 -1 -262144
-1 0 256;
#X obj 204 117 nbx 11 14 0 0 0 0 empty empty empty 0 -6 0 8 -1 -262144
-1 0 256;
#X msg -19 133 set \$1;
#X msg 109 172 set \$1;
#X msg 449 123 label \$1;
#X obj 454 89 makesymbol %s;
#X msg 253 207 range 0 \$1;
#N canvas 0 0 649 523 mouse 0;
#X obj 214 305 MouseState;
#X msg 111 169 0;
#X obj 49 362 sel 0;
#X msg 188 231 nopoll;
#X obj 71 425 t b b;
#X msg 191 116 1;
#X obj 39 130 spigot 1;
#X obj 167 386 spigot;
#X msg 71 275 1;
#X msg 107 453 0;
#X obj 57 64 inlet;
#X obj 330 467 outlet;
#X obj 377 195 f;
#X obj 49 182 t b b b;
#X obj 288 405 +;
#X obj 493 100 inlet frames;
#X obj 349 100 inlet length;
#X msg 49 206 zero \, poll;
#X obj 485 259 / -300;
#X obj 265 375 * -1000;
#X obj 320 434 clip 0 0;
#X connect 0 0 7 0;
#X connect 0 2 19 0;
#X connect 1 0 6 1;
#X connect 2 0 4 0;
#X connect 3 0 0 0;
#X connect 4 0 5 0;
#X connect 4 0 9 0;
#X connect 4 1 3 0;
#X connect 5 0 6 1;
#X connect 6 0 13 0;
#X connect 7 0 2 0;
#X connect 8 0 7 1;
#X connect 9 0 7 1;
#X connect 10 0 6 0;
#X connect 12 0 14 1;
#X connect 13 0 17 0;
#X connect 13 1 12 0;
#X connect 13 2 1 0;
#X connect 13 2 8 0;
#X connect 14 0 20 0;
#X connect 15 0 18 0;
#X connect 15 0 20 2;
#X connect 16 0 12 1;
#X connect 17 0 0 0;
#X connect 18 0 19 1;
#X connect 19 0 14 0;
#X connect 20 0 11 0;
#X restore 5 268 pd mouse;
#X msg 281 65 0;
#X obj 290 22 bng 15 250 50 0 empty empty empty 0 -6 0 8 -262144 -1
-1;
#X msg 170 57 set \$1;
#X obj 100 134 cnv 15 98 15 empty empty empty 3 8 0 8 -1 -262144 0
;
#X obj 101 135 hradio 12 1 0 8 \$0js empty empty 0 -6 0 8 -1 -262144
-1 6;
#X obj 142 274 r \$0js;
#X obj 455 149 s \$0framesd;
#X obj 142 299 / 8;
#X obj 94 25 s \$0frames;
#X obj 475 61 r \$0frames;
#X obj 250 175 r \$0frames;
#X obj 183 301 r \$0frames;
#X obj 124 332 *;
#X obj 317 286 / 8;
#X obj 358 288 r \$0frames;
#X obj 299 319 *;
#X obj 320 243 r \$0jl;
#X obj 200 134 cnv 15 99 15 empty empty empty 3 8 0 8 -1 -262144 0
;
#X obj 202 135 hradio 12 1 0 8 \$0jl empty empty 0 -6 0 8 -1 -262144
-1 0;
#X obj 331 348 + 1;
#X connect 0 0 5 1;
#X connect 0 0 14 0;
#X connect 1 0 5 0;
#X connect 5 0 4 0;
#X connect 5 1 9 0;
#X connect 5 2 10 0;
#X connect 5 2 14 1;
#X connect 5 3 14 2;
#X connect 5 3 23 0;
#X connect 7 0 0 0;
#X connect 8 0 5 2;
#X connect 9 0 7 0;
#X connect 9 0 0 0;
#X connect 10 0 8 0;
#X connect 11 0 21 0;
#X connect 12 0 11 0;
#X connect 13 0 8 0;
#X connect 13 0 7 0;
#X connect 13 0 0 0;
#X connect 14 0 8 0;
#X connect 15 0 9 0;
#X connect 15 0 10 0;
#X connect 15 0 17 0;
#X connect 15 0 12 0;
#X connect 15 0 13 0;
#X connect 16 0 15 0;
#X connect 17 0 0 0;
#X connect 20 0 22 0;
#X connect 22 0 27 0;
#X connect 24 0 12 0;
#X connect 25 0 13 0;
#X connect 26 0 27 1;
#X connect 27 0 7 0;
#X connect 28 0 30 0;
#X connect 29 0 30 1;
#X connect 30 0 8 0;
#X connect 31 0 34 0;
#X connect 34 0 28 0;
#X coords 0 -1 1 1 300 49 1 100 100;
