#N canvas 87 316 775 529 10;
#X obj 40 26 inlet;
#X obj 113 150 sample/handle;
#X obj 13 320 outlet;
#X obj 40 88 t f f;
#X obj 145 186 == 1;
#X obj 283 19 spigot;
#X obj 136 485 outlet;
#X obj 164 217 sel 1;
#X obj 98 282 route start length frames;
#X obj 263 -9 inlet;
#X obj 434 12 inlet;
#X obj 551 73 spigot;
#X obj 457 291 clip 0 1;
#X obj 619 227 clip 0 1;
#X obj 377 463 outlet;
#X obj 202 305 t f f;
#X obj 497 372 pack 0 1;
#X msg 492 402 bounds \$1 \$2;
#X msg 241 195 frames length start;
#X obj 212 247 t b b;
#X obj 497 205 f;
#X obj 519 99 t b f;
#X obj 442 125 t f b;
#X obj 219 485 outlet;
#X obj 76 323 t f f;
#X obj 125 320 t f f;
#X obj 556 190 f 0;
#X msg 127 240 0;
#X obj 127 262 t f f f;
#X connect 0 0 3 0;
#X connect 1 0 8 0;
#X connect 1 1 4 0;
#X connect 3 0 2 0;
#X connect 3 1 1 0;
#X connect 4 0 5 1;
#X connect 4 0 7 0;
#X connect 4 0 11 1;
#X connect 5 0 22 0;
#X connect 7 0 19 0;
#X connect 7 1 27 0;
#X connect 8 0 24 0;
#X connect 8 1 25 0;
#X connect 8 2 15 0;
#X connect 9 0 5 0;
#X connect 10 0 11 0;
#X connect 11 0 21 0;
#X connect 12 0 16 0;
#X connect 13 0 16 1;
#X connect 15 0 14 0;
#X connect 15 1 16 1;
#X connect 15 1 12 2;
#X connect 15 1 13 2;
#X connect 16 0 17 0;
#X connect 17 0 1 2;
#X connect 18 0 1 1;
#X connect 19 1 18 0;
#X connect 20 0 12 0;
#X connect 21 0 20 0;
#X connect 21 1 26 0;
#X connect 22 0 20 0;
#X connect 22 1 26 0;
#X connect 24 0 6 0;
#X connect 24 1 20 1;
#X connect 25 0 23 0;
#X connect 25 1 26 1;
#X connect 26 0 13 0;
#X connect 27 0 28 0;
#X connect 28 0 24 0;
#X connect 28 1 25 0;
#X connect 28 2 15 0;
