#N canvas 33 102 1247 912 10;
#X obj 172 53 inlet sample;
#X obj 484 23 inlet;
#N canvas 182 25 801 889 theplayer 0;
#X obj 142 651 line~;
#X text 335 594 coeff vitesse;
#X obj 255 570 / 1;
#X obj 484 767 line~;
#X obj 289 222 / 200;
#X obj 419 224 / 200;
#X obj 291 244 *;
#X obj 417 247 *;
#X msg 142 628 \$1 \, \$2 \$3;
#X floatatom 295 269 9 0 0 0 - - -;
#X floatatom 420 269 9 0 0 0 - - -;
#X obj 335 411 -;
#X obj 440 354 t b f;
#X text 364 410 Num of samples to play;
#X obj 322 455 convert/smp2ms;
#X floatatom 258 594 10 0 0 0 - - -;
#X floatatom 350 439 9 0 0 0 - - -;
#X obj 170 566 f;
#X obj 140 566 f;
#X obj 334 530 t b f;
#X obj 102 464 t b b b;
#X msg 488 743 1;
#X floatatom 327 477 5 0 0 0 - - -;
#X obj 486 719 loadbang;
#X obj 85 425 r \$0play;
#X obj 420 195 inlet;
#X obj 290 196 inlet;
#X obj 95 158 inlet;
#X obj 141 676 tabread~ \$0dummy;
#X obj 215 838 outlet~;
#X obj 583 211 r \$0frames;
#X obj 304 721 r \$0table;
#X obj 116 344 bng 15 250 50 0 empty empty empty 0 -6 0 8 -262144 -1
-1;
#X obj 118 317 t b;
#X obj 169 282 t b f;
#X obj 117 369 s \$0play;
#X text 292 172 From;
#X text 427 170 To;
#X text 92 135 Speed;
#X text 569 747 todo : adsr ?;
#X text 236 614 todo : the pack i i i gives am error: bad type at startup
;
#X text 377 481 Duration (ms) to play;
#X obj 151 198 sel 0;
#X msg 15 364 0;
#X obj 142 601 pack f f f;
#X connect 0 0 28 0;
#X connect 2 0 15 0;
#X connect 2 0 44 2;
#X connect 4 0 6 0;
#X connect 5 0 7 0;
#X connect 6 0 9 0;
#X connect 6 0 12 0;
#X connect 6 0 18 1;
#X connect 7 0 10 0;
#X connect 7 0 11 0;
#X connect 7 0 17 1;
#X connect 8 0 0 0;
#X connect 11 0 14 0;
#X connect 11 0 16 0;
#X connect 12 0 11 0;
#X connect 12 1 11 1;
#X connect 14 0 2 0;
#X connect 14 0 22 0;
#X connect 17 0 44 1;
#X connect 18 0 44 0;
#X connect 19 0 2 0;
#X connect 19 1 2 1;
#X connect 20 0 18 0;
#X connect 20 1 17 0;
#X connect 21 0 3 0;
#X connect 23 0 21 0;
#X connect 24 0 20 0;
#X connect 25 0 5 0;
#X connect 26 0 4 0;
#X connect 27 0 42 0;
#X connect 28 0 29 0;
#X connect 30 0 7 1;
#X connect 30 0 6 1;
#X connect 31 0 28 0;
#X connect 32 0 35 0;
#X connect 33 0 32 0;
#X connect 34 0 33 0;
#X connect 34 1 19 0;
#X connect 42 0 43 0;
#X connect 42 1 34 0;
#X connect 43 0 0 0;
#X connect 44 0 8 0;
#X restore 547 527 pd theplayer;
#X obj 150 286 sel 1;
#X obj 495 246 spigot;
#X obj 532 184 r \$0has_a_sample;
#X obj 151 373 s \$0has_a_sample;
#X obj 154 311 t b b;
#X msg 149 333 1;
#X obj 230 297 t b b;
#X obj 230 535 s \$0table;
#X msg 309 366 set \$1dummy;
#X obj 309 336 f \$0;
#X msg 232 323 0;
#X text 145 195 Load sample data;
#X msg 184 216 table_id \, frames;
#X obj 60 425 route table_id frames;
#X msg 60 479 set \$1s0;
#X obj 140 452 s \$0frames;
#X obj 163 617 table \$0dummy 3;
#X text 651 180 Only process input if there is a sample.;
#X obj 562 670 outlet~;
#X text 205 269 If status is 1(ready): get properties \, if not: switch
the table read to an empty dummy table.;
#X text 124 479 Load the left channel(or mono) table (you can check
if the sample is stereo by getting the channels property).;
#X obj 814 307 init/df \$1 0;
#X obj 811 277 loadbang;
#X obj 963 286 loadbang;
#X obj 963 307 init/df \$2 200;
#X obj 682 451 f;
#X obj 820 481 f;
#X obj 594 99 t b a;
#X text 531 22 Play at speed;
#X text 812 258 From;
#X text 966 265 To;
#X obj 815 504 clip 0 200;
#X obj 647 484 clip 0 200;
#X text 711 574 200 means the end of the file in the sample format
\, right ?;
#X obj 910 283 inlet;
#X obj 908 306 unpack;
#X obj 118 252 sample/handle;
#X connect 0 0 30 0;
#X connect 1 0 4 0;
#X connect 2 0 21 0;
#X connect 3 0 7 0;
#X connect 3 1 9 0;
#X connect 4 0 2 0;
#X connect 5 0 4 1;
#X connect 7 0 8 0;
#X connect 7 1 15 0;
#X connect 8 0 6 0;
#X connect 9 0 13 0;
#X connect 9 1 12 0;
#X connect 11 0 10 0;
#X connect 12 0 11 0;
#X connect 13 0 6 0;
#X connect 15 0 39 1;
#X connect 16 0 17 0;
#X connect 16 1 18 0;
#X connect 17 0 10 0;
#X connect 24 0 28 1;
#X connect 25 0 24 0;
#X connect 26 0 27 0;
#X connect 27 0 29 1;
#X connect 28 0 35 0;
#X connect 29 0 34 0;
#X connect 30 0 28 0;
#X connect 30 0 29 0;
#X connect 30 1 39 0;
#X connect 34 0 2 2;
#X connect 35 0 2 1;
#X connect 37 0 38 0;
#X connect 38 0 28 0;
#X connect 38 1 29 0;
#X connect 39 0 16 0;
#X connect 39 1 3 0;
