#N canvas 0 27 1247 912 10;
#X obj 22 -145 inlet;
#X obj 475 855 outlet;
#X obj 771 -22 switch~ 64 1 1;
#X obj 694 -124 loadbang;
#X obj 878 867 outlet;
#X obj -40 446 delay 50;
#X msg -34 494 1;
#X obj 488 776 r \$0frames;
#X obj 257 391 s \$0frames;
#X obj -3 495 s \$0start;
#X obj 47 764 r \$0start;
#X obj 155 771 r \$0start;
#X obj 369 711 r \$0start;
#X obj -33 471 t b b;
#X obj 129 736 multiplex~ 0 1;
#X msg -60 816 stop;
#X obj 193 333 < 2;
#N canvas 371 360 710 577 find_amplitude 0;
#X obj 20 172 minmax~;
#X msg 115 133 reset;
#X obj 152 174 minmax~;
#X msg 247 135 reset;
#X obj 94 327 pack f f f f;
#X obj 94 407 minmax;
#X obj 54 201 abs;
#X obj 152 199 abs;
#X obj 24 19 inlet~;
#X obj 148 20 inlet~;
#X obj 129 453 outlet;
#X obj 369 33 inlet;
#X obj 279 68 r \$0start;
#X obj 91 85 t b b b;
#X connect 0 2 6 0;
#X connect 0 3 4 1;
#X connect 1 0 0 0;
#X connect 2 2 7 0;
#X connect 2 3 4 3;
#X connect 3 0 2 0;
#X connect 4 0 5 0;
#X connect 5 1 10 0;
#X connect 6 0 4 0;
#X connect 7 0 4 2;
#X connect 8 0 0 0;
#X connect 9 0 2 0;
#X connect 11 0 13 0;
#X connect 12 0 1 0;
#X connect 12 0 3 0;
#X connect 13 0 1 0;
#X connect 13 0 3 0;
#X connect 13 1 0 0;
#X connect 13 2 2 0;
#X restore 679 618 pd find_amplitude;
#X text 40 -168 arguments: speed maxsize;
#X obj 32 873 tabwrite~ \$0s0;
#X obj 144 873 tabwrite~ \$0s1;
#X obj -89 289 list2symbol;
#X obj 30 -119 t a b;
#X obj 695 -101 t b b b;
#X msg 507 -103 0;
#X obj 456 -79 spigot 1;
#X text 397 -66 Makes sure to loadbang before any input;
#X obj -88 315 demultiplex 0 1;
#X obj 77 254 r \$0loading;
#X obj 106 334 s \$0cancel;
#X obj 77 308 t s b;
#X obj 221 443 s \$0loading;
#X obj 692 587 s \$0loading;
#X msg 221 420 1;
#X obj -108 407 r \$0cancel;
#X msg -108 430 stop;
#X obj -60 543 r \$0cancel;
#X msg -60 566 0;
#X obj 508 744 r \$0cancel;
#X obj -85 732 r \$0cancel;
#X obj 28 372 t b s b b s b;
#X obj 288 644 s \$0done;
#X obj 761 507 r \$0done;
#X msg 692 563 0;
#N canvas 0 0 797 414 messages 0;
#X obj 163 242 print :>;
#X obj 75 124 symbol;
#X msg 276 132 Loading \$1;
#X msg 76 170 Done loading \$1;
#X msg 163 144 Cancelling \$1;
#X obj 163 121 symbol;
#X obj 152 61 t s s s;
#X obj 151 95 r \$0cancel;
#X obj 57 93 r \$0done;
#X obj 158 22 inlet;
#X connect 1 0 3 0;
#X connect 2 0 0 0;
#X connect 3 0 0 0;
#X connect 4 0 0 0;
#X connect 5 0 4 0;
#X connect 6 0 1 1;
#X connect 6 1 5 1;
#X connect 6 2 2 0;
#X connect 7 0 5 0;
#X connect 8 0 1 0;
#X connect 9 0 6 0;
#X restore 195 490 pd messages;
#N canvas 21 177 1193 761 2preview 0;
#X obj 811 105 inlet;
#X obj 106 68 inlet~;
#X text 85 45 samples;
#X obj 131 144 pack~;
#X obj 199 330 repack;
#X obj 126 105 abs~;
#X obj 349 604 outlet;
#X obj 667 126 inlet;
#X text 663 95 on/off;
#X obj 73 205 spigot;
#X text 760 78 number of frames;
#X obj 797 158 int;
#X obj 797 180 + 1;
#X obj 798 135 / 300;
#X obj 187 383 spigot;
#X obj 671 173 t f f;
#X text 346 628 data;
#X obj 239 73 inlet~;
#X text 218 50 samples;
#X obj 264 149 pack~;
#X obj 259 110 abs~;
#X obj 215 215 spigot;
#X obj 449 315 repack;
#X obj 437 368 spigot;
#X obj 249 435 ../list/avg;
#X obj 366 436 ../list/avg;
#X obj 555 207 sel 0 1;
#X obj 590 354 t b b;
#X obj 415 478 * -1;
#X obj 341 525 pack f f;
#X obj 588 637 tabwrite \$0p0;
#X obj 719 639 tabwrite \$0p1;
#X obj 628 464 ../count/accum;
#X obj 628 493 - 1;
#X obj 539 504 t l l b;
#X obj 560 549 unpack;
#X msg 624 437 1;
#X obj 936 622 outlet;
#X obj 902 553 / 3;
#X obj 983 572 int;
#X obj 997 599 change -1;
#X connect 0 0 13 0;
#X connect 1 0 5 0;
#X connect 3 0 9 0;
#X connect 4 0 14 0;
#X connect 5 0 3 0;
#X connect 7 0 15 0;
#X connect 9 0 4 0;
#X connect 11 0 12 0;
#X connect 12 0 4 1;
#X connect 12 0 22 1;
#X connect 13 0 11 0;
#X connect 14 0 24 0;
#X connect 15 0 26 0;
#X connect 15 1 9 1;
#X connect 15 1 14 1;
#X connect 15 1 21 1;
#X connect 15 1 23 1;
#X connect 17 0 20 0;
#X connect 19 0 21 0;
#X connect 20 0 19 0;
#X connect 21 0 22 0;
#X connect 22 0 23 0;
#X connect 23 0 25 0;
#X connect 24 0 29 0;
#X connect 25 0 28 0;
#X connect 26 0 4 0;
#X connect 26 0 22 0;
#X connect 26 1 27 0;
#X connect 27 0 6 0;
#X connect 27 1 32 1;
#X connect 28 0 29 1;
#X connect 29 0 34 0;
#X connect 32 0 33 0;
#X connect 33 0 30 1;
#X connect 33 0 31 1;
#X connect 33 0 38 0;
#X connect 34 0 6 0;
#X connect 34 1 35 0;
#X connect 34 2 36 0;
#X connect 35 0 30 0;
#X connect 35 1 31 0;
#X connect 36 0 32 0;
#X connect 38 0 39 0;
#X connect 39 0 40 0;
#X connect 40 0 37 0;
#X restore 373 802 pd 2preview;
#X text 479 877 sample;
#X msg 375 732 1;
#X obj 431 736 r \$0done;
#X msg 415 762 0;
#X obj -64 263 list;
#X obj 160 112 ../sf/info;
#X obj 198 163 s \$0set_p;
#X obj 887 815 s \$0set_p;
#X obj 536 815 r \$0output;
#X obj 804 737 t b a;
#X obj 759 800 s \$0get_sample;
#X obj 261 260 moses;
#X obj 340 307 f;
#X obj 442 395 s \$0set_p;
#X obj 50 562 readsf~ 2;
#X obj 49 420 pack s f;
#X msg 49 450 0 \, open \$1 \$2;
#X obj 244 324 t f b;
#X msg 271 348 0;
#X obj 334 340 t f f;
#X obj 302 307 -;
#X obj 301 279 t f b;
#X obj 288 238 s \$0name;
#X obj 684 669 /;
#X msg 681 644 1 \$1;
#X obj 374 261 r \$0table_size;
#N canvas 0 0 1055 649 init_table 0;
#X obj 79 27 inlet;
#X obj 151 229 s \$0s0;
#X obj 204 228 s \$0s1;
#X msg 156 167 resize \$1;
#X text 232 170 init tables to 20 seconds;
#X obj 109 124 ../init/df \$2 882000;
#X obj 24 146 s \$0table_size;
#X connect 0 0 5 0;
#X connect 3 0 1 0;
#X connect 3 0 2 0;
#X connect 5 0 3 0;
#X connect 5 0 6 0;
#X restore 787 -84 pd init_table;
#N canvas 0 0 879 651 init_dsp 0;
#X obj 218 224 pow 2;
#X msg 351 262 set 64 1 \$1;
#X msg 219 193 2 \$1;
#X msg 229 340 0;
#X floatatom 287 215 5 0 0 0 - - -;
#X obj 241 317 delay 10;
#X obj 261 290 r \$0stop;
#X obj 87 256 r \$0loading;
#X obj 231 117 ../init/df \$1 1;
#N canvas 0 0 632 388 turn_dsp_on-off 0;
#X obj 332 189 t f f;
#X obj 245 93 delay 50;
#X obj 310 84 t f b;
#X obj 280 61 sel 0;
#X msg 338 103 stop;
#X msg 246 114 0;
#X msg 312 140 1;
#X obj 282 31 inlet;
#X obj 320 262 outlet;
#X obj 365 218 sel 1;
#X msg 443 255 \; pd dsp 1;
#X connect 0 0 8 0;
#X connect 0 1 9 0;
#X connect 1 0 5 0;
#X connect 2 0 6 0;
#X connect 2 1 4 0;
#X connect 3 0 1 0;
#X connect 3 1 2 0;
#X connect 4 0 1 0;
#X connect 5 0 0 0;
#X connect 6 0 0 0;
#X connect 7 0 3 0;
#X connect 9 0 10 0;
#X restore 87 282 pd turn_dsp_on-off;
#X obj 239 51 inlet;
#X obj 270 410 outlet;
#X connect 0 0 1 0;
#X connect 0 0 4 0;
#X connect 1 0 11 0;
#X connect 2 0 0 0;
#X connect 3 0 11 0;
#X connect 5 0 3 0;
#X connect 6 0 5 0;
#X connect 7 0 9 0;
#X connect 8 0 2 0;
#X connect 9 0 11 0;
#X connect 10 0 8 0;
#X restore 771 -50 pd init_dsp;
#X obj 749 125 r \$0set_p;
#X obj 118 60 spigot;
#X obj 250 105 t f f;
#N canvas 0 0 655 360 initsample 0;
#X obj 105 81 sel 1;
#X msg 236 131 clear;
#X obj 106 50 inlet;
#X obj 220 216 s \$0sample;
#X obj 113 110 t b b b;
#X msg 128 154 status 0;
#X connect 0 0 4 0;
#X connect 1 0 3 0;
#X connect 2 0 0 0;
#X connect 4 1 5 0;
#X connect 4 2 1 0;
#X connect 5 0 3 0;
#X restore 286 141 pd initsample;
#X obj 168 138 t a a;
#X obj 730 258 s \$0output;
#X obj 866 106 r \$0sample;
#X obj 248 689 s \$0sample;
#X msg 249 666 status 1;
#X obj 158 2 sel -no_sample-;
#X obj 229 35 t b s s;
#X obj 12 26 print :!;
#X msg -49 3 Sound file aleady loaded!;
#X obj 730 209 ../sample/gen;
#X obj 827 166 r \$0%;
#X obj 407 847 s \$0%;
#X obj 836 135 route status clear;
#X obj 217 -62 list;
#X obj 217 -41 list2symbol;
#X obj 905 -163 inlet options;
#X obj 905 -132 route autogain;
#X obj 929 -78 s \$0autogain;
#X obj 1013 179 r \$0autogain;
#X obj 762 537 t b b;
#X msg 875 246 autogain \$1;
#X obj 1001 214 ../init/lf \$3;
#X obj 840 279 route start length;
#X obj 1026 574 r \$0frames;
#X msg 115 83 name \, samplerate \, channels \, frames \, filename
;
#X obj 923 537 moses;
#X obj 979 656 f;
#X obj 961 570 b;
#X obj 773 676 t f b;
#X obj 809 713 pack f \$0 0 f;
#X msg 364 366 frames \$1;
#X obj 902 611 sel 0;
#X obj 916 491 f 0;
#X msg 886 776 gain \$1 \, table_id \$2 \, preview_id \$2 \, preview_size
300 \, start \$3 \, length \$4;
#X floatatom 1038 662 10 0 0 0 - - -;
#X floatatom 950 361 10 0 0 0 - - -;
#X floatatom 739 344 10 0 0 0 - - -;
#X floatatom 974 732 10 0 0 0 - - -;
#X obj 49 -46 openpanel;
#X obj 87 -76 route bang float;
#X obj 187 612 t b b b b b;
#X obj 107 215 route filename channels frames name samplerate;
#X msg 445 310 samplerate \$1;
#X obj 434 -142 table \$0p1 300;
#X obj 320 -142 table \$0p0 300;
#X obj 319 -173 table \$0s0 100;
#X obj 432 -175 table \$0s1 100;
#X connect 0 0 22 0;
#X connect 3 0 23 0;
#X connect 5 0 13 0;
#X connect 6 0 60 0;
#X connect 7 0 45 3;
#X connect 10 0 19 0;
#X connect 11 0 20 0;
#X connect 12 0 47 0;
#X connect 13 0 6 0;
#X connect 13 1 9 0;
#X connect 14 0 20 0;
#X connect 14 0 45 1;
#X connect 15 0 19 0;
#X connect 15 0 20 0;
#X connect 16 0 14 0;
#X connect 17 0 70 0;
#X connect 21 0 27 0;
#X connect 22 0 117 0;
#X connect 22 1 25 0;
#X connect 23 0 24 0;
#X connect 23 1 73 0;
#X connect 23 2 72 0;
#X connect 24 0 25 1;
#X connect 25 0 23 0;
#X connect 27 0 40 0;
#X connect 27 1 30 0;
#X connect 28 0 27 1;
#X connect 30 0 40 0;
#X connect 30 1 29 0;
#X connect 33 0 31 0;
#X connect 34 0 35 0;
#X connect 35 0 5 0;
#X connect 36 0 37 0;
#X connect 37 0 60 0;
#X connect 38 0 49 0;
#X connect 39 0 15 0;
#X connect 40 0 5 0;
#X connect 40 1 61 0;
#X connect 40 4 44 0;
#X connect 40 5 33 0;
#X connect 42 0 97 0;
#X connect 43 0 32 0;
#X connect 45 1 89 0;
#X connect 47 0 45 2;
#X connect 48 0 49 0;
#X connect 49 0 45 2;
#X connect 50 0 21 0;
#X connect 51 0 78 0;
#X connect 51 1 76 0;
#X connect 54 0 1 0;
#X connect 55 0 56 0;
#X connect 55 1 111 0;
#X connect 57 0 63 0;
#X connect 57 1 67 0;
#X connect 58 0 65 0;
#X connect 60 0 14 1;
#X connect 60 0 17 0;
#X connect 60 0 19 0;
#X connect 60 0 45 0;
#X connect 60 1 14 0;
#X connect 60 1 17 1;
#X connect 60 2 118 0;
#X connect 61 0 62 0;
#X connect 62 0 60 0;
#X connect 63 0 8 0;
#X connect 63 1 64 0;
#X connect 64 0 61 1;
#X connect 65 0 8 0;
#X connect 65 1 108 0;
#X connect 66 0 61 1;
#X connect 67 0 66 0;
#X connect 67 1 58 0;
#X connect 69 0 106 0;
#X connect 70 0 69 0;
#X connect 71 0 58 1;
#X connect 71 0 66 1;
#X connect 71 0 57 1;
#X connect 73 0 2 0;
#X connect 74 0 87 1;
#X connect 75 0 102 0;
#X connect 76 0 75 1;
#X connect 76 1 77 0;
#X connect 78 0 119 0;
#X connect 78 1 52 0;
#X connect 80 0 90 0;
#X connect 82 0 81 0;
#X connect 83 0 86 0;
#X connect 83 1 84 0;
#X connect 84 0 75 0;
#X connect 84 1 51 1;
#X connect 84 2 83 1;
#X connect 86 0 85 0;
#X connect 87 0 79 0;
#X connect 87 1 100 0;
#X connect 88 0 87 3;
#X connect 90 0 87 2;
#X connect 90 1 87 4;
#X connect 91 0 92 0;
#X connect 92 0 83 0;
#X connect 93 0 94 0;
#X connect 94 0 95 0;
#X connect 96 0 99 0;
#X connect 97 0 43 0;
#X connect 97 1 17 2;
#X connect 98 0 87 4;
#X connect 99 0 98 0;
#X connect 100 0 107 2;
#X connect 100 0 114 0;
#X connect 100 1 110 1;
#X connect 100 1 113 0;
#X connect 101 0 104 1;
#X connect 101 0 112 0;
#X connect 101 0 103 1;
#X connect 102 0 51 0;
#X connect 103 0 109 0;
#X connect 103 1 105 0;
#X connect 104 0 107 3;
#X connect 104 0 115 0;
#X connect 105 0 104 0;
#X connect 106 0 107 0;
#X connect 106 1 110 0;
#X connect 107 0 55 0;
#X connect 108 0 59 0;
#X connect 109 0 104 0;
#X connect 109 1 107 3;
#X connect 110 0 103 0;
#X connect 111 0 53 0;
#X connect 116 0 22 0;
#X connect 117 0 116 0;
#X connect 117 1 87 0;
#X connect 117 2 91 0;
#X connect 118 0 4 0;
#X connect 118 1 82 0;
#X connect 118 2 41 0;
#X connect 118 3 15 0;
#X connect 119 0 50 0;
#X connect 119 1 16 0;
#X connect 119 2 57 0;
#X connect 119 3 68 0;
#X connect 119 4 120 0;
#X connect 120 0 59 0;
