#N struct help-append-template1 float x float y float z;
#N canvas 330 8 595 450 12;
#X text 15 344 see also:;
#N canvas 164 72 425 146 help-append-template1 0;
#X obj 60 21 template float x float y float z;
#X obj 18 81 filledpolygon z z 0 0 0 20 0 20 30 0 30;
#X restore 357 373 pd help-append-template1;
#X obj 141 393 template;
#X obj 16 368 get;
#X obj 48 368 set;
#X obj 148 368 getsize;
#X obj 215 368 setsize;
#X obj 218 393 element;
#X obj 15 394 sublist;
#X obj 83 393 scalar;
#N canvas 0 0 276 163 help-append-data 1;
#X scalar help-append-template1 129 129 129 \;;
#X scalar help-append-template1 130 130 130 \;;
#X scalar help-append-template1 132 132 132 \;;
#X scalar help-append-template1 133 133 133 \;;
#X scalar help-append-template1 135 135 135 \;;
#X scalar help-append-template1 136 136 136 \;;
#X scalar help-append-template1 137 137 137 \;;
#X scalar help-append-template1 138 138 138 \;;
#X scalar help-append-template1 139 139 139 \;;
#X scalar help-append-template1 140 140 140 \;;
#X scalar help-append-template1 141 141 141 \;;
#X scalar help-append-template1 142 142 142 \;;
#X scalar help-append-template1 141 141 141 \;;
#X scalar help-append-template1 139 139 139 \;;
#X scalar help-append-template1 136 136 136 \;;
#X scalar help-append-template1 128 128 128 \;;
#X scalar help-append-template1 125 125 125 \;;
#X scalar help-append-template1 122 122 122 \;;
#X scalar help-append-template1 119 119 119 \;;
#X scalar help-append-template1 117 117 117 \;;
#X scalar help-append-template1 114 114 114 \;;
#X scalar help-append-template1 112 112 112 \;;
#X scalar help-append-template1 110 110 110 \;;
#X scalar help-append-template1 108 108 108 \;;
#X scalar help-append-template1 107 107 107 \;;
#X scalar help-append-template1 105 105 105 \;;
#X scalar help-append-template1 104 104 104 \;;
#X scalar help-append-template1 102 102 102 \;;
#X scalar help-append-template1 101 101 101 \;;
#X scalar help-append-template1 100 100 100 \;;
#X scalar help-append-template1 99 99 99 \;;
#X scalar help-append-template1 98 98 98 \;;
#X scalar help-append-template1 97 97 97 \;;
#X scalar help-append-template1 96 96 96 \;;
#X scalar help-append-template1 95 95 95 \;;
#X scalar help-append-template1 94 94 94 \;;
#X scalar help-append-template1 93 93 93 \;;
#X scalar help-append-template1 92 92 92 \;;
#X scalar help-append-template1 89 89 89 \;;
#X scalar help-append-template1 87 87 87 \;;
#X scalar help-append-template1 85 85 85 \;;
#X scalar help-append-template1 84 84 84 \;;
#X scalar help-append-template1 83 83 83 \;;
#X scalar help-append-template1 82 82 82 \;;
#X scalar help-append-template1 81 81 81 \;;
#X scalar help-append-template1 79 79 79 \;;
#X scalar help-append-template1 77 77 77 \;;
#X scalar help-append-template1 74 74 74 \;;
#X scalar help-append-template1 72 72 72 \;;
#X scalar help-append-template1 70 70 70 \;;
#X scalar help-append-template1 68 68 68 \;;
#X scalar help-append-template1 67 67 67 \;;
#X scalar help-append-template1 66 66 66 \;;
#X scalar help-append-template1 64 64 64 \;;
#X scalar help-append-template1 62 62 62 \;;
#X scalar help-append-template1 61 61 61 \;;
#X scalar help-append-template1 59 59 59 \;;
#X scalar help-append-template1 58 58 58 \;;
#X scalar help-append-template1 57 57 57 \;;
#X scalar help-append-template1 56 56 56 \;;
#X scalar help-append-template1 55 55 55 \;;
#X scalar help-append-template1 54 54 54 \;;
#X scalar help-append-template1 53 53 53 \;;
#X scalar help-append-template1 52 52 52 \;;
#X scalar help-append-template1 50 50 50 \;;
#X scalar help-append-template1 49 49 49 \;;
#X scalar help-append-template1 47 47 47 \;;
#X scalar help-append-template1 46 46 46 \;;
#X scalar help-append-template1 45 45 45 \;;
#X scalar help-append-template1 44 44 44 \;;
#X scalar help-append-template1 43 43 43 \;;
#X scalar help-append-template1 44 44 44 \;;
#X scalar help-append-template1 45 45 45 \;;
#X scalar help-append-template1 47 47 47 \;;
#X scalar help-append-template1 48 48 48 \;;
#X scalar help-append-template1 49 49 49 \;;
#X scalar help-append-template1 51 51 51 \;;
#X scalar help-append-template1 52 52 52 \;;
#X scalar help-append-template1 54 54 54 \;;
#X scalar help-append-template1 56 56 56 \;;
#X scalar help-append-template1 58 58 58 \;;
#X scalar help-append-template1 60 60 60 \;;
#X scalar help-append-template1 62 62 62 \;;
#X scalar help-append-template1 68 68 68 \;;
#X scalar help-append-template1 70 70 70 \;;
#X scalar help-append-template1 76 76 76 \;;
#X scalar help-append-template1 79 79 79 \;;
#X scalar help-append-template1 85 85 85 \;;
#X scalar help-append-template1 88 88 88 \;;
#X scalar help-append-template1 91 91 91 \;;
#X scalar help-append-template1 99 99 99 \;;
#X scalar help-append-template1 101 101 101 \;;
#X scalar help-append-template1 103 103 103 \;;
#X scalar help-append-template1 105 105 105 \;;
#X scalar help-append-template1 107 107 107 \;;
#X scalar help-append-template1 109 109 109 \;;
#X scalar help-append-template1 111 111 111 \;;
#X scalar help-append-template1 113 113 113 \;;
#X scalar help-append-template1 115 115 115 \;;
#X scalar help-append-template1 117 117 117 \;;
#X scalar help-append-template1 119 119 119 \;;
#X scalar help-append-template1 121 121 121 \;;
#X scalar help-append-template1 123 123 123 \;;
#X scalar help-append-template1 129 129 129 \;;
#X scalar help-append-template1 132 132 132 \;;
#X scalar help-append-template1 134 134 134 \;;
#X scalar help-append-template1 136 136 136 \;;
#X scalar help-append-template1 137 137 137 \;;
#X scalar help-append-template1 139 139 139 \;;
#X scalar help-append-template1 140 140 140 \;;
#X scalar help-append-template1 142 142 142 \;;
#X scalar help-append-template1 143 143 143 \;;
#X scalar help-append-template1 144 144 144 \;;
#X scalar help-append-template1 146 146 146 \;;
#X scalar help-append-template1 147 147 147 \;;
#X scalar help-append-template1 149 149 149 \;;
#X scalar help-append-template1 150 150 150 \;;
#X scalar help-append-template1 152 152 152 \;;
#X scalar help-append-template1 153 153 153 \;;
#X scalar help-append-template1 154 154 154 \;;
#X scalar help-append-template1 155 155 155 \;;
#X scalar help-append-template1 156 156 156 \;;
#X scalar help-append-template1 157 157 157 \;;
#X scalar help-append-template1 158 158 158 \;;
#X scalar help-append-template1 160 160 160 \;;
#X scalar help-append-template1 161 161 161 \;;
#X scalar help-append-template1 162 162 162 \;;
#X scalar help-append-template1 163 163 163 \;;
#X scalar help-append-template1 164 164 164 \;;
#X scalar help-append-template1 165 165 165 \;;
#X scalar help-append-template1 166 166 166 \;;
#X scalar help-append-template1 168 168 168 \;;
#X scalar help-append-template1 169 169 169 \;;
#X scalar help-append-template1 170 170 170 \;;
#X scalar help-append-template1 172 172 172 \;;
#X scalar help-append-template1 173 173 173 \;;
#X scalar help-append-template1 175 175 175 \;;
#X scalar help-append-template1 177 177 177 \;;
#X scalar help-append-template1 179 179 179 \;;
#X scalar help-append-template1 180 180 180 \;;
#X scalar help-append-template1 181 181 181 \;;
#X scalar help-append-template1 182 182 182 \;;
#X scalar help-append-template1 181 181 181 \;;
#X scalar help-append-template1 178 178 178 \;;
#X scalar help-append-template1 170 170 170 \;;
#X scalar help-append-template1 160 160 160 \;;
#X scalar help-append-template1 150 150 150 \;;
#X scalar help-append-template1 140 140 140 \;;
#X scalar help-append-template1 137 137 137 \;;
#X scalar help-append-template1 134 134 134 \;;
#X scalar help-append-template1 131 131 131 \;;
#X scalar help-append-template1 130 130 130 \;;
#X scalar help-append-template1 128 128 128 \;;
#X scalar help-append-template1 127 127 127 \;;
#X scalar help-append-template1 125 125 125 \;;
#X scalar help-append-template1 123 123 123 \;;
#X scalar help-append-template1 120 120 120 \;;
#X scalar help-append-template1 118 118 118 \;;
#X scalar help-append-template1 115 115 115 \;;
#X scalar help-append-template1 112 112 112 \;;
#X scalar help-append-template1 110 110 110 \;;
#X scalar help-append-template1 104 104 104 \;;
#X scalar help-append-template1 102 102 102 \;;
#X scalar help-append-template1 100 100 100 \;;
#X scalar help-append-template1 99 99 99 \;;
#X scalar help-append-template1 98 98 98 \;;
#X scalar help-append-template1 97 97 97 \;;
#X scalar help-append-template1 96 96 96 \;;
#X scalar help-append-template1 95 95 95 \;;
#X scalar help-append-template1 94 94 94 \;;
#X scalar help-append-template1 92 92 92 \;;
#X scalar help-append-template1 91 91 91 \;;
#X scalar help-append-template1 90 90 90 \;;
#X scalar help-append-template1 88 88 88 \;;
#X scalar help-append-template1 86 86 86 \;;
#X scalar help-append-template1 84 84 84 \;;
#X scalar help-append-template1 82 82 82 \;;
#X scalar help-append-template1 80 80 80 \;;
#X scalar help-append-template1 79 79 79 \;;
#X scalar help-append-template1 78 78 78 \;;
#X scalar help-append-template1 77 77 77 \;;
#X scalar help-append-template1 76 76 76 \;;
#X scalar help-append-template1 75 75 75 \;;
#X scalar help-append-template1 74 74 74 \;;
#X scalar help-append-template1 75 75 75 \;;
#X scalar help-append-template1 77 77 77 \;;
#X scalar help-append-template1 80 80 80 \;;
#X scalar help-append-template1 83 83 83 \;;
#X scalar help-append-template1 85 85 85 \;;
#X scalar help-append-template1 91 91 91 \;;
#X scalar help-append-template1 99 99 99 \;;
#X scalar help-append-template1 105 105 105 \;;
#X scalar help-append-template1 111 111 111 \;;
#X scalar help-append-template1 117 117 117 \;;
#X scalar help-append-template1 119 119 119 \;;
#X scalar help-append-template1 121 121 121 \;;
#X scalar help-append-template1 123 123 123 \;;
#X scalar help-append-template1 125 125 125 \;;
#X scalar help-append-template1 127 127 127 \;;
#X scalar help-append-template1 129 129 129 \;;
#X scalar help-append-template1 131 131 131 \;;
#X scalar help-append-template1 133 133 133 \;;
#X scalar help-append-template1 135 135 135 \;;
#X scalar help-append-template1 136 136 136 \;;
#X scalar help-append-template1 138 138 138 \;;
#X scalar help-append-template1 139 139 139 \;;
#X scalar help-append-template1 140 140 140 \;;
#X scalar help-append-template1 142 142 142 \;;
#X scalar help-append-template1 144 144 144 \;;
#X scalar help-append-template1 145 145 145 \;;
#X scalar help-append-template1 147 147 147 \;;
#X scalar help-append-template1 149 149 149 \;;
#X scalar help-append-template1 150 150 150 \;;
#X scalar help-append-template1 152 152 152 \;;
#X scalar help-append-template1 153 153 153 \;;
#X scalar help-append-template1 154 154 154 \;;
#X scalar help-append-template1 155 155 155 \;;
#X scalar help-append-template1 156 156 156 \;;
#X scalar help-append-template1 157 157 157 \;;
#X scalar help-append-template1 159 159 159 \;;
#X scalar help-append-template1 160 160 160 \;;
#X scalar help-append-template1 161 161 161 \;;
#X scalar help-append-template1 163 163 163 \;;
#X scalar help-append-template1 165 165 165 \;;
#X scalar help-append-template1 166 166 166 \;;
#X scalar help-append-template1 167 167 167 \;;
#X scalar help-append-template1 168 168 168 \;;
#X scalar help-append-template1 167 167 167 \;;
#X scalar help-append-template1 164 164 164 \;;
#X scalar help-append-template1 161 161 161 \;;
#X scalar help-append-template1 153 153 153 \;;
#X scalar help-append-template1 145 145 145 \;;
#X scalar help-append-template1 142 142 142 \;;
#X scalar help-append-template1 139 139 139 \;;
#X scalar help-append-template1 137 137 137 \;;
#X scalar help-append-template1 135 135 135 \;;
#X scalar help-append-template1 133 133 133 \;;
#X scalar help-append-template1 131 131 131 \;;
#X scalar help-append-template1 130 130 130 \;;
#X scalar help-append-template1 128 128 128 \;;
#X scalar help-append-template1 126 126 126 \;;
#X scalar help-append-template1 124 124 124 \;;
#X scalar help-append-template1 121 121 121 \;;
#X scalar help-append-template1 118 118 118 \;;
#X scalar help-append-template1 116 116 116 \;;
#X scalar help-append-template1 113 113 113 \;;
#X scalar help-append-template1 111 111 111 \;;
#X scalar help-append-template1 109 109 109 \;;
#X scalar help-append-template1 106 106 106 \;;
#X scalar help-append-template1 104 104 104 \;;
#X scalar help-append-template1 102 102 102 \;;
#X scalar help-append-template1 100 100 100 \;;
#X scalar help-append-template1 98 98 98 \;;
#X scalar help-append-template1 96 96 96 \;;
#X scalar help-append-template1 94 94 94 \;;
#X scalar help-append-template1 92 92 92 \;;
#X scalar help-append-template1 90 90 90 \;;
#X scalar help-append-template1 88 88 88 \;;
#X scalar help-append-template1 87 87 87 \;;
#X scalar help-append-template1 85 85 85 \;;
#X scalar help-append-template1 84 84 84 \;;
#X scalar help-append-template1 86 86 86 \;;
#X scalar help-append-template1 92 92 92 \;;
#X scalar help-append-template1 100 100 100 \;;
#X scalar help-append-template1 108 108 108 \;;
#X scalar help-append-template1 118 118 118 \;;
#X scalar help-append-template1 128 128 128 \;;
#X scalar help-append-template1 138 138 138 \;;
#X scalar help-append-template1 150 150 150 \;;
#X scalar help-append-template1 160 160 160 \;;
#X scalar help-append-template1 170 170 170 \;;
#X scalar help-append-template1 180 180 180 \;;
#X scalar help-append-template1 188 188 188 \;;
#X scalar help-append-template1 191 191 191 \;;
#X scalar help-append-template1 194 194 194 \;;
#X scalar help-append-template1 196 196 196 \;;
#X scalar help-append-template1 197 197 197 \;;
#X scalar help-append-template1 195 195 195 \;;
#X scalar help-append-template1 185 185 185 \;;
#X scalar help-append-template1 171 171 171 \;;
#X scalar help-append-template1 157 157 157 \;;
#X scalar help-append-template1 143 143 143 \;;
#X scalar help-append-template1 133 133 133 \;;
#X scalar help-append-template1 125 125 125 \;;
#X scalar help-append-template1 123 123 123 \;;
#X scalar help-append-template1 122 122 122 \;;
#X scalar help-append-template1 123 123 123 \;;
#X scalar help-append-template1 125 125 125 \;;
#X scalar help-append-template1 135 135 135 \;;
#X scalar help-append-template1 147 147 147 \;;
#X scalar help-append-template1 161 161 161 \;;
#X scalar help-append-template1 177 177 177 \;;
#X scalar help-append-template1 191 191 191 \;;
#X scalar help-append-template1 203 203 203 \;;
#X scalar help-append-template1 211 211 211 \;;
#X scalar help-append-template1 212 212 212 \;;
#X scalar help-append-template1 213 213 213 \;;
#X scalar help-append-template1 212 212 212 \;;
#X scalar help-append-template1 211 211 211 \;;
#X scalar help-append-template1 201 201 201 \;;
#X scalar help-append-template1 187 187 187 \;;
#X scalar help-append-template1 171 171 171 \;;
#X scalar help-append-template1 155 155 155 \;;
#X scalar help-append-template1 143 143 143 \;;
#X scalar help-append-template1 140 140 140 \;;
#X scalar help-append-template1 138 138 138 \;;
#X scalar help-append-template1 139 139 139 \;;
#X scalar help-append-template1 141 141 141 \;;
#X scalar help-append-template1 153 153 153 \;;
#X scalar help-append-template1 163 163 163 \;;
#X scalar help-append-template1 173 173 173 \;;
#X scalar help-append-template1 176 176 176 \;;
#X scalar help-append-template1 178 178 178 \;;
#X scalar help-append-template1 179 179 179 \;;
#X scalar help-append-template1 177 177 177 \;;
#X scalar help-append-template1 167 167 167 \;;
#X scalar help-append-template1 149 149 149 \;;
#X scalar help-append-template1 129 129 129 \;;
#X scalar help-append-template1 111 111 111 \;;
#X scalar help-append-template1 97 97 97 \;;
#X scalar help-append-template1 87 87 87 \;;
#X scalar help-append-template1 84 84 84 \;;
#X scalar help-append-template1 85 85 85 \;;
#X scalar help-append-template1 91 91 91 \;;
#X scalar help-append-template1 99 99 99 \;;
#X scalar help-append-template1 111 111 111 \;;
#X scalar help-append-template1 123 123 123 \;;
#X scalar help-append-template1 135 135 135 \;;
#X scalar help-append-template1 147 147 147 \;;
#X scalar help-append-template1 155 155 155 \;;
#X scalar help-append-template1 156 156 156 \;;
#X scalar help-append-template1 154 154 154 \;;
#X scalar help-append-template1 144 144 144 \;;
#X scalar help-append-template1 130 130 130 \;;
#X scalar help-append-template1 114 114 114 \;;
#X scalar help-append-template1 100 100 100 \;;
#X scalar help-append-template1 90 90 90 \;;
#X scalar help-append-template1 88 88 88 \;;
#X scalar help-append-template1 89 89 89 \;;
#X scalar help-append-template1 91 91 91 \;;
#X scalar help-append-template1 99 99 99 \;;
#X scalar help-append-template1 111 111 111 \;;
#X scalar help-append-template1 127 127 127 \;;
#X scalar help-append-template1 141 141 141 \;;
#X scalar help-append-template1 149 149 149 \;;
#X scalar help-append-template1 147 147 147 \;;
#X scalar help-append-template1 135 135 135 \;;
#X scalar help-append-template1 123 123 123 \;;
#X scalar help-append-template1 107 107 107 \;;
#X scalar help-append-template1 91 91 91 \;;
#X scalar help-append-template1 79 79 79 \;;
#X scalar help-append-template1 71 71 71 \;;
#X scalar help-append-template1 70 70 70 \;;
#X scalar help-append-template1 71 71 71 \;;
#X scalar help-append-template1 72 72 72 \;;
#X scalar help-append-template1 82 82 82 \;;
#X scalar help-append-template1 92 92 92 \;;
#X scalar help-append-template1 102 102 102 \;;
#X scalar help-append-template1 104 104 104 \;;
#X scalar help-append-template1 103 103 103 \;;
#X scalar help-append-template1 102 102 102 \;;
#X scalar help-append-template1 92 92 92 \;;
#X scalar help-append-template1 80 80 80 \;;
#X scalar help-append-template1 68 68 68 \;;
#X scalar help-append-template1 56 56 56 \;;
#X scalar help-append-template1 53 53 53 \;;
#X scalar help-append-template1 51 51 51 \;;
#X scalar help-append-template1 52 52 52 \;;
#X scalar help-append-template1 53 53 53 \;;
#X scalar help-append-template1 59 59 59 \;;
#X scalar help-append-template1 65 65 65 \;;
#X scalar help-append-template1 73 73 73 \;;
#X scalar help-append-template1 76 76 76 \;;
#X scalar help-append-template1 78 78 78 \;;
#X scalar help-append-template1 81 81 81 \;;
#X scalar help-append-template1 83 83 83 \;;
#X scalar help-append-template1 85 85 85 \;;
#X scalar help-append-template1 86 86 86 \;;
#X scalar help-append-template1 87 87 87 \;;
#X scalar help-append-template1 88 88 88 \;;
#X scalar help-append-template1 90 90 90 \;;
#X scalar help-append-template1 92 92 92 \;;
#X scalar help-append-template1 94 94 94 \;;
#X scalar help-append-template1 102 102 102 \;;
#X scalar help-append-template1 110 110 110 \;;
#X scalar help-append-template1 118 118 118 \;;
#X scalar help-append-template1 121 121 121 \;;
#X scalar help-append-template1 124 124 124 \;;
#X scalar help-append-template1 127 127 127 \;;
#X scalar help-append-template1 129 129 129 \;;
#X scalar help-append-template1 132 132 132 \;;
#X scalar help-append-template1 134 134 134 \;;
#X scalar help-append-template1 136 136 136 \;;
#X scalar help-append-template1 138 138 138 \;;
#X scalar help-append-template1 140 140 140 \;;
#X scalar help-append-template1 141 141 141 \;;
#X scalar help-append-template1 143 143 143 \;;
#X scalar help-append-template1 145 145 145 \;;
#X scalar help-append-template1 146 146 146 \;;
#X scalar help-append-template1 148 148 148 \;;
#X scalar help-append-template1 149 149 149 \;;
#X scalar help-append-template1 150 150 150 \;;
#X scalar help-append-template1 151 151 151 \;;
#X scalar help-append-template1 153 153 153 \;;
#X scalar help-append-template1 155 155 155 \;;
#X scalar help-append-template1 156 156 156 \;;
#X scalar help-append-template1 158 158 158 \;;
#X scalar help-append-template1 160 160 160 \;;
#X scalar help-append-template1 161 161 161 \;;
#X scalar help-append-template1 163 163 163 \;;
#X scalar help-append-template1 164 164 164 \;;
#X scalar help-append-template1 165 165 165 \;;
#X scalar help-append-template1 166 166 166 \;;
#X scalar help-append-template1 168 168 168 \;;
#X scalar help-append-template1 170 170 170 \;;
#X scalar help-append-template1 172 172 172 \;;
#X scalar help-append-template1 174 174 174 \;;
#X scalar help-append-template1 176 176 176 \;;
#X scalar help-append-template1 178 178 178 \;;
#X scalar help-append-template1 179 179 179 \;;
#X scalar help-append-template1 180 180 180 \;;
#X scalar help-append-template1 182 182 182 \;;
#X scalar help-append-template1 183 183 183 \;;
#X scalar help-append-template1 185 185 185 \;;
#X scalar help-append-template1 187 187 187 \;;
#X scalar help-append-template1 189 189 189 \;;
#X scalar help-append-template1 190 190 190 \;;
#X scalar help-append-template1 192 192 192 \;;
#X scalar help-append-template1 194 194 194 \;;
#X scalar help-append-template1 196 196 196 \;;
#X scalar help-append-template1 198 198 198 \;;
#X scalar help-append-template1 199 199 199 \;;
#X scalar help-append-template1 200 200 200 \;;
#X scalar help-append-template1 201 201 201 \;;
#X scalar help-append-template1 203 203 203 \;;
#X scalar help-append-template1 204 204 204 \;;
#X scalar help-append-template1 206 206 206 \;;
#X scalar help-append-template1 207 207 207 \;;
#X scalar help-append-template1 209 209 209 \;;
#X scalar help-append-template1 210 210 210 \;;
#X scalar help-append-template1 211 211 211 \;;
#X scalar help-append-template1 212 212 212 \;;
#X scalar help-append-template1 213 213 213 \;;
#X scalar help-append-template1 223 223 223 \;;
#X scalar help-append-template1 226 226 226 \;;
#X scalar help-append-template1 228 228 228 \;;
#X scalar help-append-template1 229 229 229 \;;
#X scalar help-append-template1 230 230 230 \;;
#X scalar help-append-template1 231 231 231 \;;
#X scalar help-append-template1 232 232 232 \;;
#X scalar help-append-template1 233 233 233 \;;
#X scalar help-append-template1 234 234 234 \;;
#X scalar help-append-template1 233 233 233 \;;
#X scalar help-append-template1 225 225 225 \;;
#X scalar help-append-template1 217 217 217 \;;
#X scalar help-append-template1 205 205 205 \;;
#X scalar help-append-template1 195 195 195 \;;
#X scalar help-append-template1 183 183 183 \;;
#X scalar help-append-template1 173 173 173 \;;
#X scalar help-append-template1 163 163 163 \;;
#X scalar help-append-template1 155 155 155 \;;
#X scalar help-append-template1 152 152 152 \;;
#X scalar help-append-template1 150 150 150 \;;
#X scalar help-append-template1 148 148 148 \;;
#X scalar help-append-template1 147 147 147 \;;
#X scalar help-append-template1 145 145 145 \;;
#X scalar help-append-template1 143 143 143 \;;
#X scalar help-append-template1 141 141 141 \;;
#X scalar help-append-template1 139 139 139 \;;
#X scalar help-append-template1 136 136 136 \;;
#X scalar help-append-template1 133 133 133 \;;
#X scalar help-append-template1 130 130 130 \;;
#X scalar help-append-template1 122 122 122 \;;
#X scalar help-append-template1 116 116 116 \;;
#X scalar help-append-template1 113 113 113 \;;
#X scalar help-append-template1 110 110 110 \;;
#X scalar help-append-template1 108 108 108 \;;
#X scalar help-append-template1 106 106 106 \;;
#X scalar help-append-template1 104 104 104 \;;
#X scalar help-append-template1 102 102 102 \;;
#X scalar help-append-template1 100 100 100 \;;
#X scalar help-append-template1 99 99 99 \;;
#X scalar help-append-template1 98 98 98 \;;
#X scalar help-append-template1 96 96 96 \;;
#X scalar help-append-template1 95 95 95 \;;
#X scalar help-append-template1 93 93 93 \;;
#X scalar help-append-template1 92 92 92 \;;
#X scalar help-append-template1 90 90 90 \;;
#X scalar help-append-template1 88 88 88 \;;
#X scalar help-append-template1 85 85 85 \;;
#X scalar help-append-template1 82 82 82 \;;
#X scalar help-append-template1 76 76 76 \;;
#X scalar help-append-template1 74 74 74 \;;
#X scalar help-append-template1 71 71 71 \;;
#X scalar help-append-template1 69 69 69 \;;
#X scalar help-append-template1 67 67 67 \;;
#X scalar help-append-template1 65 65 65 \;;
#X scalar help-append-template1 63 63 63 \;;
#X scalar help-append-template1 62 62 62 \;;
#X scalar help-append-template1 60 60 60 \;;
#X scalar help-append-template1 58 58 58 \;;
#X scalar help-append-template1 56 56 56 \;;
#X scalar help-append-template1 54 54 54 \;;
#X scalar help-append-template1 51 51 51 \;;
#X scalar help-append-template1 49 49 49 \;;
#X scalar help-append-template1 47 47 47 \;;
#X scalar help-append-template1 45 45 45 \;;
#X scalar help-append-template1 44 44 44 \;;
#X scalar help-append-template1 42 42 42 \;;
#X scalar help-append-template1 40 40 40 \;;
#X scalar help-append-template1 38 38 38 \;;
#X scalar help-append-template1 36 36 36 \;;
#X scalar help-append-template1 34 34 34 \;;
#X scalar help-append-template1 33 33 33 \;;
#X scalar help-append-template1 32 32 32 \;;
#X scalar help-append-template1 31 31 31 \;;
#X scalar help-append-template1 30 30 30 \;;
#X scalar help-append-template1 28 28 28 \;;
#X scalar help-append-template1 27 27 27 \;;
#X scalar help-append-template1 25 25 25 \;;
#X scalar help-append-template1 24 24 24 \;;
#X scalar help-append-template1 23 23 23 \;;
#X scalar help-append-template1 22 22 22 \;;
#X scalar help-append-template1 21 21 21 \;;
#X scalar help-append-template1 20 20 20 \;;
#X scalar help-append-template1 19 19 19 \;;
#X scalar help-append-template1 18 18 18 \;;
#X scalar help-append-template1 16 16 16 \;;
#X scalar help-append-template1 15 15 15 \;;
#X scalar help-append-template1 14 14 14 \;;
#X scalar help-append-template1 13 13 13 \;;
#X scalar help-append-template1 12 12 12 \;;
#X scalar help-append-template1 11 11 11 \;;
#X scalar help-append-template1 10 10 10 \;;
#X scalar help-append-template1 9 9 9 \;;
#X scalar help-append-template1 8 8 8 \;;
#X scalar help-append-template1 7 7 7 \;;
#X scalar help-append-template1 6 6 6 \;;
#X scalar help-append-template1 5 5 5 \;;
#X scalar help-append-template1 4 4 4 \;;
#X scalar help-append-template1 3 3 3 \;;
#X scalar help-append-template1 2 2 2 \;;
#X scalar help-append-template1 3 3 3 \;;
#X scalar help-append-template1 73 73 73 \;;
#X scalar help-append-template1 75 75 75 \;;
#X scalar help-append-template1 77 77 77 \;;
#X scalar help-append-template1 79 79 79 \;;
#X scalar help-append-template1 81 81 81 \;;
#X scalar help-append-template1 82 82 82 \;;
#X scalar help-append-template1 84 84 84 \;;
#X scalar help-append-template1 85 85 85 \;;
#X scalar help-append-template1 86 86 86 \;;
#X scalar help-append-template1 87 87 87 \;;
#X scalar help-append-template1 93 93 93 \;;
#X scalar help-append-template1 96 96 96 \;;
#X scalar help-append-template1 98 98 98 \;;
#X scalar help-append-template1 100 100 100 \;;
#X scalar help-append-template1 101 101 101 \;;
#X scalar help-append-template1 102 102 102 \;;
#X scalar help-append-template1 103 103 103 \;;
#X scalar help-append-template1 104 104 104 \;;
#X scalar help-append-template1 105 105 105 \;;
#X scalar help-append-template1 106 106 106 \;;
#X scalar help-append-template1 107 107 107 \;;
#X scalar help-append-template1 108 108 108 \;;
#X scalar help-append-template1 110 110 110 \;;
#X scalar help-append-template1 111 111 111 \;;
#X scalar help-append-template1 112 112 112 \;;
#X scalar help-append-template1 113 113 113 \;;
#X scalar help-append-template1 114 114 114 \;;
#X scalar help-append-template1 115 115 115 \;;
#X scalar help-append-template1 116 116 116 \;;
#X scalar help-append-template1 117 117 117 \;;
#X scalar help-append-template1 118 118 118 \;;
#X scalar help-append-template1 119 119 119 \;;
#X scalar help-append-template1 120 120 120 \;;
#X scalar help-append-template1 121 121 121 \;;
#X scalar help-append-template1 122 122 122 \;;
#X scalar help-append-template1 123 123 123 \;;
#X scalar help-append-template1 124 124 124 \;;
#X scalar help-append-template1 125 125 125 \;;
#X scalar help-append-template1 126 126 126 \;;
#X scalar help-append-template1 127 127 127 \;;
#X scalar help-append-template1 128 128 128 \;;
#X restore 357 351 pd help-append-data;
#X obj 212 255 pointer;
#X obj 21 10 append;
#X text 75 9 -- add item to a list;
#X msg 212 231 traverse pd-help-append-data \, bang;
#X obj 34 295 append help-append-template1 x y z;
#X floatatom 34 246 5 0 0;
#X obj 34 266 t f f;
#X msg 356 311 \; pd-help-append-data clear;
#X text 27 28 "append" maintains a pointer to a scalar \, or else an
empty pointer to the head of a list. You may set the pointer using
the leftmost inlet. The creation arguments specify the template of
a new scalar to append \, and the names of the fields (there should
be at least one) you will wish to initialize. To append an object \,
send a number to the leftmost inlet. "Append"'s pointer is updated
to point to the new scalar \, and the new pointer is also output.;
#X text 28 149 To insert to the beginning of a list \, you can append
to the "head" of the list. You may append objects of different templates
using different "append" objects.;
#X obj 81 368 pointer;
#X text 341 408 updated for Pd version 0.35;
#X text 34 226 click this first->;
#X text 230 210 go to (and output) "head" of the list;
#X connect 11 0 15 3;
#X connect 14 0 11 0;
#X connect 16 0 17 0;
#X connect 17 0 15 0;
#X connect 17 1 15 1;
#X connect 17 1 15 2;
