#N canvas 0 0 708 341 10;
#N canvas 631 164 450 300 subpatch 0;
#X obj 95 132 file/parentfolder;
#X obj 96 60 inlet;
#X obj 95 169 outlet;
#X connect 0 0 2 0;
#X connect 1 0 0 0;
#X restore 93 187 pd subpatch;
#X obj 93 252 print RESULT;
#X obj 93 65 bng 15 250 50 0 empty empty empty 0 -6 0 8 -262144 -1
-1;
#X text 186 185 <- this subpatch contains file/parentfolder;
#X text 118 61 <- will output the folder containing this patch (this
patch is the parent of the subpatch. Also works with abstractions.)
;
#X msg 163 136 samples/;
#X text 227 132 <- Anything else will be appended to the folder path.
;
#X text 80 13 Description: Returns or prepends the parent patche's
folder.;
#X connect 0 0 1 0;
#X connect 2 0 0 0;
#X connect 5 0 0 0;
