#N canvas 548 149 496 385 10;
#X obj 8 10 cnv 15 400 40 empty empty basic_2d_objects 20 12 0 24 -228992
-66577 0;
#X obj 168 196 gemhead;
#X obj 167 168 tgl 15 1 empty empty empty 0 -6 0 8 -24198 -1 -1 0 1
;
#X obj 29 120 gemwin;
#X msg 28 63 create \, 1;
#X msg 42 90 destroy;
#X obj 168 224 square;
#X obj 28 196 gemhead;
#X obj 27 168 tgl 15 1 empty empty empty 0 -6 0 8 -24198 -1 -1 0 1
;
#X obj 98 196 gemhead;
#X obj 97 168 tgl 15 1 empty empty empty 0 -6 0 8 -24198 -1 -1 0 1
;
#X obj 28 224 circle;
#X obj 98 224 triangle;
#X text 8 147 two-dimensional (2D);
#X obj 230 196 gemhead;
#X obj 229 168 tgl 15 1 empty empty empty 0 -6 0 8 -24198 -1 -1 0 1
;
#X obj 230 224 rectangle;
#X connect 1 0 6 0;
#X connect 2 0 1 0;
#X connect 4 0 3 0;
#X connect 5 0 3 0;
#X connect 7 0 11 0;
#X connect 8 0 7 0;
#X connect 9 0 12 0;
#X connect 10 0 9 0;
#X connect 14 0 16 0;
#X connect 15 0 14 0;
