#N canvas 10 40 620 460 10;
#X obj 8 10 cnv 15 400 40 empty empty tracking 20 12 0 24 -228992 -66577
0;
#X obj 465 16 gemwin_control;
#X obj 466 60 import Gem;
#X obj 159 193 pix_grey;
#X msg 184 221 reset;
#X obj 159 250 pix_background;
#X msg 252 229 \$1 \$1 \$1;
#X floatatom 252 213 5 0 0 0 - - -;
#X obj 103 316 pix_blob;
#N canvas 10 40 620 460 cursor 0;
#X obj 17 14 inlet;
#X obj 89 18 inlet;
#X obj 101 346 translateXYZ;
#X text 63 148 0.64;
#X text 37 151 1;
#X obj 23 63 t f f;
#X obj 37 176 -;
#X text 62 177 X-Range;
#X text 196 176 Y-Range;
#X obj 63 240 expr (8/$f1);
#X obj 33 241 -;
#X obj 51 267 *;
#X obj 29 95 max 0;
#X obj 71 95 min 10;
#X obj 59 132 f;
#X obj 33 131 f;
#X obj 52 293 - 4;
#X text 193 146 0.64;
#X text 167 149 1;
#X obj 153 61 t f f;
#X obj 167 174 -;
#X obj 193 238 expr (8/$f1);
#X obj 163 239 -;
#X obj 181 265 *;
#X obj 159 93 max 0;
#X obj 201 93 min 10;
#X obj 189 130 f;
#X obj 163 129 f;
#X text 188 171 comment;
#X obj 154 298 expr (-1*$f1)+4;
#X obj 293 27 inlet;
#X obj 283 63 * 10;
#X obj 94 320 gemhead 15;
#X obj 157 509 circle 0.1;
#X obj 17 423 separator;
#X obj 87 423 separator;
#X obj 17 484 rectangle 0.2 0.01;
#X obj 157 423 separator;
#X msg 185 478 draw line;
#X obj 185 457 loadbang;
#X obj 77 386 colorRGB 1 0 0 1;
#X obj 17 462 rectangle 0.01 0.2;
#X msg 256 478 width \$1;
#X obj 296 342 int;
#X obj 275 413 + 1;
#X connect 0 0 5 0;
#X connect 1 0 19 0;
#X connect 2 0 40 0;
#X connect 5 0 10 0;
#X connect 5 0 12 0;
#X connect 5 1 13 0;
#X connect 6 0 9 0;
#X connect 9 0 11 1;
#X connect 10 0 11 0;
#X connect 11 0 16 0;
#X connect 12 0 15 0;
#X connect 13 0 14 0;
#X connect 14 0 6 1;
#X connect 14 0 10 1;
#X connect 14 0 13 1;
#X connect 15 0 6 0;
#X connect 15 0 12 1;
#X connect 16 0 2 1;
#X connect 19 0 22 0;
#X connect 19 0 24 0;
#X connect 19 1 25 0;
#X connect 20 0 21 0;
#X connect 21 0 23 1;
#X connect 22 0 23 0;
#X connect 23 0 29 0;
#X connect 24 0 27 0;
#X connect 25 0 26 0;
#X connect 26 0 20 1;
#X connect 26 0 22 1;
#X connect 26 0 25 1;
#X connect 27 0 20 0;
#X connect 27 0 24 1;
#X connect 29 0 2 2;
#X connect 30 0 31 0;
#X connect 31 0 33 1;
#X connect 31 0 43 0;
#X connect 32 0 2 0;
#X connect 34 0 41 0;
#X connect 35 0 36 0;
#X connect 37 0 33 0;
#X connect 38 0 33 0;
#X connect 39 0 38 0;
#X connect 40 0 34 0;
#X connect 40 0 35 0;
#X connect 40 0 37 0;
#X connect 42 0 33 0;
#X connect 43 0 44 0;
#X connect 44 0 42 0;
#X restore 117 348 pd cursor;
#X obj 292 133 separator;
#X obj 292 154 pix_texture;
#X obj 292 175 square 4;
#X obj 278 368 pix_texture;
#X obj 159 170 separator;
#X obj 278 348 alpha;
#X obj 278 328 colourRGB 1 1 1 0.65;
#X obj 278 388 translateXYZ -2.4 -2.4 0;
#X obj 278 408 square 1.5;
#X obj 227 68 gemhead 10;
#X obj 227 89 pix_video;
#X text 276 309 Show pix_background output;
#X text 116 369 Show centroid/size;
#X text 294 210 Set noise threshold;
#X text 291 115 Render source video;
#X connect 3 0 5 0;
#X connect 4 0 5 0;
#X connect 5 0 8 0;
#X connect 5 0 16 0;
#X connect 6 0 5 1;
#X connect 7 0 6 0;
#X connect 8 1 9 0;
#X connect 8 2 9 1;
#X connect 8 3 9 2;
#X connect 10 0 11 0;
#X connect 11 0 12 0;
#X connect 13 0 17 0;
#X connect 14 0 3 0;
#X connect 15 0 13 0;
#X connect 16 0 15 0;
#X connect 17 0 18 0;
#X connect 19 0 20 0;
#X connect 20 0 10 0;
#X connect 20 0 14 0;
