#N canvas 281 278 637 379 10;
#X obj 25 16 loadbang;
#X msg 25 43 \; pd dsp 1;
#X text 133 39 See prvu~ (iemlib) for more options.;
#X floatatom 128 324 6 0 0 0 - - -;
#X floatatom 215 328 6 0 0 0 - - -;
#X text 273 322 dB;
#X text 172 303 dB;
#X text 127 16 Description: Displays a VU meter.;
#X obj 128 134 anal/prevue_~;
#X obj 128 78 osc~ 1;
#X obj 127 103 *~;
#X obj 175 100 osc~ 0.1;
#X connect 0 0 1 0;
#X connect 8 0 3 0;
#X connect 8 1 4 0;
#X connect 9 0 10 0;
#X connect 10 0 8 0;
#X connect 11 0 10 1;
