#N canvas 479 321 510 513 10;
#X obj 209 81 phasor~;
#X obj 321 283 dac~;
#X obj 316 239 *~ 0.2;
#X obj 86 46 mtof;
#X floatatom 86 25 5 33 110 0 - - -;
#X obj 209 60 mtof;
#X floatatom 209 42 5 0 0 0 - - -;
#X obj 52 -2 noise~;
#X text 357 188 Volume;
#X obj 209 2 loadbang;
#X obj 356 207 hsl 50 22 0 1 0 0 empty empty empty -2 -8 2 8 -33289
-262144 -33289 0 1;
#X msg 209 22 48;
#X text 67 -90 Description: FFT spectral graphical analysis;
#X obj 151 185 multiplex~ 0 1 2;
#X obj 50 70 bp~ 2637 35;
#X obj 70 96 *~ 5;
#X obj 19 152 hradio 15 1 0 3 empty empty select_input 0 -6 0 8 -262144
-1 -1 0;
#X obj 317 91 osc~ 440;
#X obj 29 252 anal/spectrum_~ 1;
#X connect 0 0 13 1;
#X connect 2 0 1 0;
#X connect 2 0 1 1;
#X connect 3 0 14 1;
#X connect 4 0 3 0;
#X connect 5 0 0 0;
#X connect 6 0 5 0;
#X connect 7 0 14 0;
#X connect 9 0 11 0;
#X connect 10 0 2 1;
#X connect 11 0 6 0;
#X connect 13 0 2 0;
#X connect 13 0 18 0;
#X connect 14 0 15 0;
#X connect 15 0 13 0;
#X connect 16 0 13 0;
#X connect 17 0 13 2;
