#N canvas 52 280 674 638 10;
#X text 27 62 Description: Introduction to the sample_id format.;
#X text 28 89 Please note \, that while the format's name is "sample_id"
most of the abstractions that use it will be in pdmtl's sample folder.
;
#X text 29 146 All the abstractions that use the sample_id format are
flagged with "sample_id".;
#X text 31 186 Bugs: Even thought support for different sampling rates
is built in the sample_id format this is untested and does not work
:). So just stick with 44100 for now and everything will work correctly.
;
#X text 31 261 There are three categories of sample_id objects:;
#X text 49 289 generators: These load or record sample data into tables.
They generate the sample.;
#X text 47 346 manipulators: These modify properties \, display information
or redirect generated samples.;
#X text 50 401 players: These play a generated sample.;
#X text 27 512 The first inlet of all sample_id abstractions is reserved
to the sample_id signal that points to a generated sample.;
#X text 28 557 The first outlet of generators and manipulators is also
reserved for the sample_id signal.;
#X obj 95 323 sample/table;
#X obj 210 324 sample/filer;
#X obj 94 379 sample/region;
#X obj 225 378 sample/print;
#X obj 95 428 sample/looper~;
#X text 31 467 A sample travelling through sample_id abstractions is
called a generated sample.;
#X obj 466 475 sample/table;
#X obj 466 502 sample/region;
#X obj 466 537 sample/looper~;
#X obj 479 576 dac~;
#X connect 16 0 17 0;
#X connect 17 0 18 0;
#X connect 18 0 19 0;
#X connect 18 1 19 1;
