#N canvas 193 27 850 912 10;
#X msg 50 -4 ../media/sounds/loop0.wav;
#X obj 50 13 file/parentfolder;
#X obj 244 35 bng 15 250 50 0 empty empty empty 0 -6 0 8 -262144 -1
-1;
#X text 33 -103 There are many ways of displaying a generated sample's
information:;
#X text 35 -153 Description: Examples on how to display generated sample
information.;
#X text 247 -3 <- Click this to load the sound.;
#X obj 50 58 sample/filer 1;
#X obj 50 102 sample/print 1;
#X text 170 102 <- Everytime you will load a sample \, sample/print
will print that sample's information in the Pd window.;
#X text 268 35 <- Try with one of your own files!;
#X text 149 -37 --Printing information--;
#X text 112 172 --Displaying and modifying regions--;
#X obj 52 217 file/parentfolder;
#X msg 52 200 ../media/sounds/loop1.wav;
#X obj 52 251 sample/filer 1;
#X obj 187 226 bng 15 250 50 0 empty empty empty 0 -6 0 8 -262144 -1
-1;
#X text 211 226 <- Try with one of your own files!;
#X text 365 281 <- This is sample/region!. It displays the playback
region in frames. Check out it's help for more information.;
#X text 94 360 --Displaying the sample's audio data--;
#X obj 49 426 file/parentfolder;
#X obj 49 460 sample/filer 1;
#X obj 184 435 bng 15 250 50 0 empty empty empty 0 -6 0 8 -262144 -1
-1;
#X text 208 435 <- Try with one of your own files!;
#X msg 49 409 ../media/sounds/loop2.wav;
#X text 359 503 <- This is sample/display!. It displays the samples
audio data. Check out it's help for more information.;
#X text 163 618 --Combining stuff--;
#X obj 69 82 bng 15 250 50 0 empty empty empty 0 -6 0 8 -262144 -1
-1;
#X text 89 79 Bang to force a print out.;
#X obj 47 670 file/parentfolder;
#X obj 47 704 sample/filer 1;
#X obj 182 679 bng 15 250 50 0 empty empty empty 0 -6 0 8 -262144 -1
-1;
#X text 206 679 <- Try with one of your own files!;
#X msg 47 653 ../media/sounds/loop2.wav;
#X msg 235 653 ../media/sounds/loop1.wav;
#X text 356 837 <- When you drag sample/region!'s horizontal ruler
(right \, left AND up and down) \, watch how it affects the samples
display is sample/display!;
#X obj 53 274 sample/region_;
#X obj 49 498 sample/display_;
#X obj 47 742 sample/display_;
#X obj 47 839 sample/region_;
#X connect 0 0 1 0;
#X connect 1 0 6 0;
#X connect 2 0 6 0;
#X connect 6 0 7 0;
#X connect 12 0 14 0;
#X connect 13 0 12 0;
#X connect 14 0 35 0;
#X connect 15 0 14 0;
#X connect 19 0 20 0;
#X connect 20 0 36 0;
#X connect 21 0 20 0;
#X connect 23 0 19 0;
#X connect 26 0 7 0;
#X connect 28 0 29 0;
#X connect 29 0 37 0;
#X connect 30 0 29 0;
#X connect 32 0 28 0;
#X connect 33 0 28 0;
#X connect 37 0 38 0;
