#N canvas 344 469 450 300 10;
#N canvas 1416 288 795 476 openhelp 0;
#X obj 46 53 inlet;
#X obj 50 210 file/parentfolder;
#X obj 50 257 file/splitpath;
#X obj 57 318 pack s s;
#X msg 59 382 \; pd open \$2 \$1;
#X obj 89 354 print;
#X obj 46 76 symbol;
#X obj 49 181 makesymbol ../../%s-help.pd;
#X connect 0 0 6 0;
#X connect 1 0 2 0;
#X connect 2 0 3 0;
#X connect 2 1 3 1;
#X connect 3 0 4 0;
#X connect 6 0 7 0;
#X connect 7 0 1 0;
#X restore 69 55 pd openhelp;
#X msg 69 20 sample/looper~;
#N canvas 1416 288 795 476 openhelp 0;
#X obj 46 53 inlet;
#X obj 50 210 file/parentfolder;
#X obj 50 257 file/splitpath;
#X obj 57 318 pack s s;
#X msg 59 382 \; pd open \$2 \$1;
#X obj 89 354 print;
#X obj 46 76 symbol;
#X obj 49 181 makesymbol ../../%s-help.pd;
#X connect 0 0 6 0;
#X connect 1 0 2 0;
#X connect 2 0 3 0;
#X connect 2 1 3 1;
#X connect 3 0 4 0;
#X connect 6 0 7 0;
#X connect 7 0 1 0;
#X restore 69 130 pd openhelp;
#X msg 69 95 sample/groove~;
#N canvas 1416 288 795 476 openhelp 0;
#X obj 46 53 inlet;
#X obj 50 210 file/parentfolder;
#X obj 50 257 file/splitpath;
#X obj 57 318 pack s s;
#X msg 59 382 \; pd open \$2 \$1;
#X obj 89 354 print;
#X obj 46 76 symbol;
#X obj 49 181 makesymbol ../../%s-help.pd;
#X connect 0 0 6 0;
#X connect 1 0 2 0;
#X connect 2 0 3 0;
#X connect 2 1 3 1;
#X connect 3 0 4 0;
#X connect 6 0 7 0;
#X connect 7 0 1 0;
#X restore 69 204 pd openhelp;
#X msg 69 169 sample/particular~;
#N canvas 1416 288 795 476 openhelp 0;
#X obj 46 53 inlet;
#X obj 50 210 file/parentfolder;
#X obj 50 257 file/splitpath;
#X obj 57 318 pack s s;
#X msg 59 382 \; pd open \$2 \$1;
#X obj 89 354 print;
#X obj 46 76 symbol;
#X obj 49 181 makesymbol ../../%s-help.pd;
#X connect 0 0 6 0;
#X connect 1 0 2 0;
#X connect 2 0 3 0;
#X connect 2 1 3 1;
#X connect 3 0 4 0;
#X connect 6 0 7 0;
#X connect 7 0 1 0;
#X restore 66 271 pd openhelp;
#X msg 66 236 sample/particulate~;
#X connect 1 0 0 0;
#X connect 3 0 2 0;
#X connect 5 0 4 0;
#X connect 7 0 6 0;
