#N canvas 344 469 840 440 10;
#N canvas 1416 288 795 476 openhelp 0;
#X obj 46 53 inlet;
#X obj 50 210 file/parentfolder;
#X obj 50 257 file/splitpath;
#X obj 57 318 pack s s;
#X msg 59 382 \; pd open \$2 \$1;
#X obj 89 354 print;
#X obj 46 76 symbol;
#X obj 49 181 makesymbol ../../%s-help.pd;
#X connect 0 0 6 0;
#X connect 1 0 2 0;
#X connect 2 0 3 0;
#X connect 2 1 3 1;
#X connect 3 0 4 0;
#X connect 6 0 7 0;
#X connect 7 0 1 0;
#X restore 69 55 pd openhelp;
#X msg 69 20 sample/looper~;
#X text 178 20 <- A first example.;
#X text 182 100 -- Another with live recording --;
#X obj 448 160 timing/master~;
#X obj 448 137 tgl 15 0 empty empty empty 0 -6 0 8 -262144 -1 -1 1
1;
#X obj 442 192 s~ \$0s;
#X obj 495 189 s~ \$0b;
#X obj 143 313 r~ \$0s;
#X obj 199 315 r~ \$0b;
#X obj 82 344 sample/looper~;
#X obj 136 248 loadbang;
#X msg 139 273 sync 1;
#X obj 80 213 sample/filer;
#X obj 78 169 file/parentfolder;
#X obj 241 440 dac~;
#X obj 237 415 *~ 0.5;
#X obj 286 414 *~ 0.5;
#X msg 102 285 1;
#X msg 78 139 ../media/sounds/loop0.wav;
#X obj 349 254 sample/record~ 1;
#X obj 348 200 adc~;
#X obj 468 230 tgl 15 0 empty empty empty 0 -6 0 8 -262144 -1 -1 0
1;
#X obj 400 350 r~ \$0s;
#X obj 456 352 r~ \$0b;
#X obj 339 381 sample/looper~;
#X obj 367 283 loadbang;
#X msg 370 308 sync 1;
#X msg 466 299 1;
#X floatatom 508 116 5 0 0 0 - - -;
#X obj 445 89 loadbang;
#X text 489 227 <- Record a sample with a microphone. Then play it
with sample/looper~.;
#X msg 472 320 0;
#X connect 1 0 0 0;
#X connect 4 0 6 0;
#X connect 4 1 7 0;
#X connect 5 0 4 0;
#X connect 8 0 10 2;
#X connect 9 0 10 3;
#X connect 10 0 16 0;
#X connect 10 1 17 0;
#X connect 11 0 12 0;
#X connect 12 0 10 1;
#X connect 13 0 10 0;
#X connect 14 0 13 0;
#X connect 16 0 15 0;
#X connect 17 0 15 1;
#X connect 18 0 10 1;
#X connect 19 0 14 0;
#X connect 20 0 25 0;
#X connect 21 0 20 0;
#X connect 22 0 20 2;
#X connect 23 0 25 2;
#X connect 24 0 25 3;
#X connect 25 0 16 0;
#X connect 25 1 17 0;
#X connect 26 0 27 0;
#X connect 27 0 25 1;
#X connect 28 0 25 1;
#X connect 29 0 4 1;
#X connect 30 0 5 0;
#X connect 32 0 25 1;
