#N canvas 76 11 897 646 12;
#X obj 16 54 fs.main;
#X msg 16 27 6001;
#X msg 58 27 reset;
#X obj 264 73 init;
#X msg 274 131 28 + 128;
#X obj 264 435 fs.copy;
#X obj 264 514 fs.framed example-pho;
#X obj 264 159 fs.framed example-pho;
#X msg 436 514 28 + 308;
#X obj 436 539 init;
#X msg 424 349 bosstota;
#X msg 364 120 next \, bang;
#X msg 430 373 bubbspac;
#X msg 436 397 chloemag;
#X msg 381 202 colsteps;
#X text 631 116 without parameters;
#X text 634 137 a dialog will pop;
#X text 268 592 see Filters/README.TXT for more info.;
#X msg 264 99 head.avi;
#X msg 388 227 zoomnoise;
#X msg 396 252 picasso;
#X msg 403 276 yage;
#X msg 418 324 PicChop;
#X msg 411 300 BitLeft;
#X obj 519 438 pack s s;
#X msg 519 464 \$2 \$1;
#X obj 652 355 vsl 15 128 0 255 0 0 empty empty empty 0 -8 0 8 -262144
-1 -1 8000 1;
#X obj 669 355 vsl 15 128 0 255 0 0 empty empty empty 0 -8 0 8 -262144
-1 -1 7500 1;
#X obj 686 355 vsl 15 128 0 255 0 0 empty empty empty 0 -8 0 8 -262144
-1 -1 0 1;
#X obj 703 355 vsl 15 128 0 255 0 0 empty empty empty 0 -8 0 8 -262144
-1 -1 12700 1;
#X obj 720 355 vsl 15 128 0 255 0 0 empty empty empty 0 -8 0 8 -262144
-1 -1 0 1;
#X obj 737 355 vsl 15 128 0 255 0 0 empty empty empty 0 -8 0 8 -262144
-1 -1 0 1;
#X obj 754 355 vsl 15 128 0 255 0 0 empty empty empty 0 -8 0 8 -262144
-1 -1 0 1;
#X obj 771 355 vsl 15 128 0 255 0 0 empty empty empty 0 -8 0 8 -262144
-1 -1 0 1;
#X msg 816 486 bang;
#X obj 652 511 l2s;
#X obj 652 486 pack f f f f f f f f;
#X obj 381 476 symbol yage;
#X msg 530 128 yage;
#X msg 530 192 yage 74 74;
#X text 634 191 with parameters \, no dialog;
#X obj 652 562 delay 50;
#X msg 652 536 bang;
#X obj 364 95 r next;
#X obj 327 476 s next;
#X text 529 281 select filter -> try the sliders ...;
#X text 448 33 Using Photoshop-filters;
#X connect 1 0 0 0;
#X connect 1 0 2 0;
#X connect 2 0 0 1;
#X connect 3 0 18 0;
#X connect 3 0 4 0;
#X connect 4 0 7 0;
#X connect 5 0 6 0;
#X connect 6 2 8 0;
#X connect 7 0 5 0;
#X connect 7 2 4 0;
#X connect 8 0 6 0;
#X connect 9 0 8 0;
#X connect 9 0 37 0;
#X connect 10 0 5 1;
#X connect 10 0 37 0;
#X connect 10 0 44 0;
#X connect 11 0 7 0;
#X connect 12 0 5 1;
#X connect 12 0 37 0;
#X connect 12 0 44 0;
#X connect 13 0 5 1;
#X connect 13 0 37 0;
#X connect 13 0 44 0;
#X connect 14 0 5 1;
#X connect 14 0 37 0;
#X connect 14 0 44 0;
#X connect 18 0 7 0;
#X connect 19 0 5 1;
#X connect 19 0 37 0;
#X connect 19 0 44 0;
#X connect 20 0 5 1;
#X connect 20 0 37 0;
#X connect 20 0 44 0;
#X connect 21 0 5 1;
#X connect 21 0 37 0;
#X connect 21 0 44 0;
#X connect 22 0 5 1;
#X connect 22 0 37 0;
#X connect 22 0 44 0;
#X connect 23 0 5 1;
#X connect 23 0 37 0;
#X connect 23 0 44 0;
#X connect 24 0 25 0;
#X connect 25 0 5 1;
#X connect 26 0 36 0;
#X connect 27 0 34 0;
#X connect 27 0 36 1;
#X connect 28 0 34 0;
#X connect 28 0 36 2;
#X connect 29 0 34 0;
#X connect 29 0 36 3;
#X connect 30 0 34 0;
#X connect 30 0 36 4;
#X connect 31 0 34 0;
#X connect 31 0 36 5;
#X connect 32 0 34 0;
#X connect 32 0 36 6;
#X connect 33 0 34 0;
#X connect 33 0 36 7;
#X connect 34 0 36 0;
#X connect 35 0 24 0;
#X connect 35 0 42 0;
#X connect 36 0 35 0;
#X connect 37 0 24 1;
#X connect 38 0 5 1;
#X connect 38 0 11 0;
#X connect 39 0 5 1;
#X connect 39 0 11 0;
#X connect 41 0 44 0;
#X connect 42 0 41 0;
#X connect 43 0 11 0;
