#N canvas 335 300 661 349 12;
#X obj 11 37 fs.main;
#X obj 88 185 fs.browser;
#X msg 11 8 6001;
#X msg 62 8 reset;
#X obj 88 255 fs.frame;
#X msg 88 133 bang;
#X msg 190 82 1000x480;
#X obj 88 221 fs.copy;
#X msg 164 282 xbend 110 120;
#X floatatom 287 273 4 0 0;
#X obj 287 299 bangx;
#X msg 287 247 10;
#X text 54 110 click here;
#X obj 181 15 init;
#X msg 181 122 http://pinktwins.com;
#X connect 1 0 7 0;
#X connect 2 0 0 0;
#X connect 2 0 3 0;
#X connect 3 0 0 1;
#X connect 5 0 1 0;
#X connect 6 0 1 0;
#X connect 7 0 4 0;
#X connect 8 0 4 0;
#X connect 9 0 10 0;
#X connect 10 0 8 0;
#X connect 11 0 9 0;
#X connect 13 0 6 0;
#X connect 13 0 14 0;
#X connect 14 0 1 0;
