#N canvas 286 240 264 239 12;
#X obj 42 89 until;
#X obj 42 61 f 1;
#X obj 42 32 inlet;
#X obj 42 152 outlet;
#X msg 42 118 bang;
#X connect 0 0 4 0;
#X connect 1 0 0 0;
#X connect 2 0 1 0;
#X connect 4 0 3 0;
