#N canvas 43 99 953 532 12;
#X obj 444 24 loadbang;
#X obj 276 380 fs_sender;
#X obj 76 25 inlet;
#X obj 76 55 route bang;
#X obj 76 91 symbol;
#X obj 151 111 route fs_op;
#X obj 151 153 pack s s s;
#X obj 76 125 outlet;
#X obj 276 193 l2s;
#X obj 276 226 pack s s;
#X msg 276 259 \$2 \$1;
#X text 450 149 inlet accepts:;
#X obj 444 91 symbol;
#X obj 538 83 r fs_reset;
#X msg 538 108 bang;
#X obj 444 54 symbol \$0fs.browser;
#X msg 444 119 browser \$1;
#X text 492 181 <url> or "open <url>";
#X text 491 210 "refresh" "stop";
#X text 491 240 "640x480" to set display size;
#X obj 461 327 r \$0fs.browserlink;
#X obj 461 380 symbol;
#X obj 461 406 outlet;
#X text 461 304 report clicked links starting with "fs:";
#X obj 461 353 buildstr;
#X connect 0 0 15 0;
#X connect 2 0 3 0;
#X connect 3 0 4 0;
#X connect 3 1 5 0;
#X connect 4 0 7 0;
#X connect 5 0 6 0;
#X connect 5 1 8 0;
#X connect 6 0 1 0;
#X connect 8 0 9 0;
#X connect 9 0 10 0;
#X connect 10 0 1 0;
#X connect 12 0 16 0;
#X connect 13 0 14 0;
#X connect 14 0 12 0;
#X connect 15 0 4 1;
#X connect 15 0 6 2;
#X connect 15 0 9 1;
#X connect 15 0 12 0;
#X connect 16 0 1 0;
#X connect 20 0 24 0;
#X connect 21 0 22 0;
#X connect 24 0 21 0;
