#N canvas 30 209 749 354 10;
#X obj 55 42 inlet;
#X obj 159 301 outlet;
#X obj 239 43 inlet;
#X obj 90 143 fs.copy;
#X obj 173 146 fs.copy;
#X obj 192 104 symbol;
#X obj 330 44 inlet;
#X msg 329 100 alpha \$1;
#X msg 289 176 127;
#X msg 286 215 flip_manual;
#X obj 346 174 init;
#X obj 63 91 t b s b;
#X msg 24 134 flip;
#X text 47 20 fs.frame;
#X text 229 19 fs.frame;
#X text 152 322 fs.frame;
#X text 314 21 blend amount;
#X text 447 21 fs.blend -- mix two images with parameter;
#X text 447 44 see example-blending.pd!;
#X obj 330 71 int;
#X connect 0 0 11 0;
#X connect 2 0 5 1;
#X connect 3 0 1 0;
#X connect 4 0 1 0;
#X connect 5 0 4 0;
#X connect 6 0 19 0;
#X connect 7 0 3 1;
#X connect 8 0 7 0;
#X connect 9 0 1 0;
#X connect 10 0 8 0;
#X connect 10 0 9 0;
#X connect 11 0 12 0;
#X connect 11 1 3 0;
#X connect 11 2 5 0;
#X connect 12 0 1 0;
#X connect 19 0 7 0;
