#N canvas 46 193 827 465 12;
#X obj 53 97 inlet;
#X obj 54 386 outlet;
#X text 26 414 outputs red \, green and blue;
#X text 21 61 connection from fs.frame | x and y packed;
#X obj 244 95 inlet;
#X obj 53 241 fs_sender;
#X text 159 187 tell plugin where to send results!;
#X obj 77 343 pack f f f;
#X obj 339 150 symbol \$0rgb;
#X obj 77 310 r \$0rgbred;
#X obj 162 310 r \$0rgbgreen;
#X obj 263 310 r \$0rgbblue;
#X obj 53 164 pack s f f s;
#X msg 53 209 \$1 rgb \$2 \$3 \$4red \$4green \$4blue;
#X obj 122 132 unpack f f;
#X obj 339 126 reset;
#X text 23 16 fs.rgb -- output red \, green and blue from a given position.
;
#X connect 0 0 12 0;
#X connect 4 0 14 0;
#X connect 7 0 1 0;
#X connect 8 0 12 3;
#X connect 9 0 7 0;
#X connect 10 0 7 1;
#X connect 11 0 7 2;
#X connect 12 0 13 0;
#X connect 13 0 5 0;
#X connect 14 0 12 1;
#X connect 14 1 12 2;
#X connect 15 0 8 0;
