#N canvas 483 310 458 308 12;
#X obj 167 136 random 10;
#X obj 199 66 inlet;
#X obj 134 68 inlet;
#X obj 167 176 sel 0;
#X obj 167 216 outlet;
#X text 14 8 ooo - one out of ...;
#X obj 290 58 float \$1;
#X obj 302 32 loadbang;
#X obj 216 103 - 1;
#X msg 148 103 bang;
#X connect 0 0 3 0;
#X connect 1 0 8 0;
#X connect 2 0 9 0;
#X connect 3 0 4 0;
#X connect 6 0 8 0;
#X connect 7 0 6 0;
#X connect 8 0 0 1;
#X connect 9 0 0 0;
