#N canvas 261 155 452 302 12;
#X obj 128 198 pack f f f f;
#X obj 128 102 random \$1;
#X obj 158 125 random \$2;
#X obj 188 148 random \$1;
#X obj 219 171 random \$2;
#X obj 128 31 inlet;
#X obj 128 67 t b b b b;
#X obj 128 235 outlet;
#X connect 0 0 7 0;
#X connect 1 0 0 0;
#X connect 2 0 0 1;
#X connect 3 0 0 2;
#X connect 4 0 0 3;
#X connect 5 0 6 0;
#X connect 6 0 1 0;
#X connect 6 1 2 0;
#X connect 6 2 3 0;
#X connect 6 3 4 0;
