#N canvas 620 1 504 354 10;
#X obj 39 16 inlet~;
#X msg 128 134 1;
#X msg 159 134 0;
#X obj 128 162 metro 100;
#X obj 119 16 inlet;
#X text 160 15 snapout size in seconds;
#X floatatom 260 48 4 0 0;
#X obj 211 82 * 1000;
#X floatatom 209 134 4 0 0;
#X msg 54 134 bang;
#X obj 39 188 tabwrite~ \$1;
#X obj 303 132 symbol \$1;
#X obj 303 109 loadbang;
#X msg 260 186 \; \$2 resize \$1;
#X obj 260 156 pack f s;
#X obj 260 219 print;
#X obj 367 15 loadbang;
#X obj 367 37 samplerate~;
#X obj 260 82 *;
#X obj 341 69 / 100;
#X obj 260 109 -;
#X obj 119 55 switch~;
#X connect 0 0 10 0;
#X connect 1 0 3 0;
#X connect 2 0 3 0;
#X connect 3 0 10 0;
#X connect 4 0 6 0;
#X connect 4 0 21 0;
#X connect 6 0 7 0;
#X connect 6 0 18 0;
#X connect 7 0 8 0;
#X connect 8 0 3 1;
#X connect 8 0 3 0;
#X connect 9 0 10 0;
#X connect 11 0 14 1;
#X connect 12 0 11 0;
#X connect 13 0 15 0;
#X connect 14 0 13 0;
#X connect 16 0 17 0;
#X connect 17 0 18 1;
#X connect 17 0 19 0;
#X connect 18 0 20 0;
#X connect 19 0 20 1;
#X connect 20 0 14 0;
