#N canvas 306 359 496 310 12;
#X obj 43 24 inlet;
#X text 97 25 fs.frame;
#X obj 55 67 fs.info;
#X obj 36 231 outlet;
#X text 100 231 fs.frame (same as inlet!);
#X msg 204 193 mousetrack_1;
#X obj 213 26 inlet;
#X text 268 26 second outlet of fs.frame;
#X obj 213 66 unpack f f;
#X obj 36 118 /;
#X obj 36 151 *;
#X msg 36 181 seek \$1;
#X obj 188 159 init;
#X floatatom 102 121 5 0 0;
#X floatatom 151 121 5 0 0;
#X connect 0 0 2 0;
#X connect 2 0 9 1;
#X connect 2 0 13 0;
#X connect 2 2 10 1;
#X connect 2 2 14 0;
#X connect 5 0 3 0;
#X connect 6 0 8 0;
#X connect 8 0 9 0;
#X connect 9 0 10 0;
#X connect 10 0 11 0;
#X connect 11 0 3 0;
#X connect 12 0 3 0;
#X connect 12 0 5 0;
