#N canvas 0 0 464 314 12;
#X obj 70 26 inlet;
#X obj 70 172 makefilename c:/lab/framestein/plugins/%s;
#X obj 70 272 outlet;
#X text 125 200 correct this path to your installation;
#X obj 70 142 l2s;
#X connect 0 0 4 0;
#X connect 1 0 2 0;
#X connect 4 0 1 0;
