#N canvas 20 105 625 441 10;
#X obj 204 15 inlet control;
#X obj 269 332 switch~;
#X obj 19 11 inlet~;
#X obj 19 379 outlet~;
#X text 304 14 duration [bp time] * n;
#X obj 204 92 _bpe_stuff;
#X obj 204 47 zl ecils 2;
#X obj 19 360 *~;
#X obj 36 164 pack f f;
#X obj 36 188 line~;
#X obj 36 231 rampsmooth~;
#X obj 162 131 unpack f f;
#X obj 162 193 prepend rampup;
#X obj 227 214 prepend rampdown;
#X obj 269 259 sel 1;
#X obj 269 281 1;
#X obj 72 262 edge~;
#X obj 102 282 0;
#X text 21 407 $Id: bpe_rampsmooth.pd 195 2005-11-20 01:25:43Z tim $;
#X connect 0 0 6 0;
#X connect 2 0 7 0;
#X connect 5 0 8 0;
#X connect 5 1 8 1;
#X connect 5 2 14 0;
#X connect 6 0 5 0;
#X connect 6 1 11 0;
#X connect 7 0 3 0;
#X connect 8 0 9 0;
#X connect 9 0 10 0;
#X connect 10 0 7 1;
#X connect 10 0 16 0;
#X connect 11 0 12 0;
#X connect 11 1 13 0;
#X connect 12 0 10 0;
#X connect 13 0 10 0;
#X connect 14 0 15 0;
#X connect 15 0 1 0;
#X connect 16 1 17 0;
#X connect 17 0 1 0;
