#N canvas 0 27 1247 912 10;
#X obj 90 163 inlet~;
#X obj 350 167 inlet;
#X obj 572 150 inlet;
#X obj 62 572 outlet~;
#X obj 137 571 outlet~;
#X obj 218 569 outlet~;
#X obj 300 569 outlet~;
#X obj 446 567 outlet~;
#X obj 521 566 outlet~;
#X obj 602 564 outlet~;
#X obj 684 564 outlet~;
#X obj 539 189 route 0 1 2 3 4 5 6 7;
#X obj 12 344 2d/speaker~ -1 -1 0.5 1.5 10 20;
#X text 337 145 Send to all output~;
#X text 483 128 Send to a specific output~;
#X obj 183 170 inlet sound_position;
#X obj -1 427 2d/speaker~ 1 1 0.5 1.5 10 20;
#X obj 234 429 2d/speaker~ 1 0 0.5 1.5 10 20;
#X obj 281 348 2d/speaker~ -1 0 0.5 1.5 10 20;
#X obj 515 358 2d/speaker~ -1 1 0.5 1.5 10 20;
#X obj 469 428 2d/speaker~ 1 -1 0.5 1.5 10 20;
#X obj 761 424 2d/speaker~ 0 -1 0.5 1.5 10 20;
#X obj 753 347 2d/speaker~ 0 1 0.5 1.5 10 20;
#X connect 0 0 12 0;
#X connect 0 0 16 0;
#X connect 0 0 17 0;
#X connect 0 0 18 0;
#X connect 0 0 19 0;
#X connect 0 0 20 0;
#X connect 0 0 21 0;
#X connect 0 0 22 0;
#X connect 1 0 12 2;
#X connect 1 0 16 2;
#X connect 1 0 17 2;
#X connect 1 0 18 2;
#X connect 1 0 19 2;
#X connect 1 0 20 2;
#X connect 1 0 21 2;
#X connect 1 0 22 2;
#X connect 2 0 11 0;
#X connect 11 0 12 2;
#X connect 11 1 18 2;
#X connect 11 2 19 2;
#X connect 11 3 22 2;
#X connect 11 4 16 2;
#X connect 11 5 17 2;
#X connect 11 6 20 2;
#X connect 11 7 21 2;
#X connect 12 0 3 0;
#X connect 15 0 12 1;
#X connect 15 0 16 1;
#X connect 15 0 17 1;
#X connect 15 0 18 1;
#X connect 15 0 19 1;
#X connect 15 0 20 1;
#X connect 15 0 21 1;
#X connect 15 0 22 1;
#X connect 16 0 7 0;
#X connect 17 0 8 0;
#X connect 18 0 4 0;
#X connect 19 0 5 0;
#X connect 20 0 9 0;
#X connect 21 0 10 0;
#X connect 22 0 6 0;
