#N canvas 0 27 1247 910 10;
#X obj 77 831 outlet~;
#X obj 917 826 outlet;
#X obj 527 -48 inlet;
#X obj 83 807 *~ 1;
#N canvas 0 0 764 683 trapezoid(envelope) 0;
#X obj 375 67 switch~;
#X obj 378 27 inlet;
#X obj 47 40 inlet~;
#X obj 126 629 outlet~;
#X obj 261 40 inlet;
#X text 23 15 env signal;
#X text 251 19 attack+release;
#X obj -23 262 min~ 1;
#X obj 51 263 min~ 1;
#X obj 61 150 -~ 1;
#X obj 61 179 abs~;
#X obj -22 293 *~;
#X obj -23 217 *~ 1;
#X obj 50 219 *~ 1;
#X obj 237 110 unpack;
#X connect 1 0 0 0;
#X connect 2 0 9 0;
#X connect 2 0 12 0;
#X connect 4 0 14 0;
#X connect 7 0 11 0;
#X connect 8 0 11 1;
#X connect 9 0 10 0;
#X connect 10 0 13 0;
#X connect 11 0 3 0;
#X connect 12 0 7 0;
#X connect 13 0 8 0;
#X connect 14 0 12 1;
#X connect 14 1 13 1;
#X restore -80 719 pd trapezoid(envelope);
#N canvas 121 332 859 578 cosine(envelope) 0;
#X obj 375 67 switch~;
#X obj 378 27 inlet;
#X obj 47 40 inlet~;
#X obj 264 534 outlet~;
#X obj 296 34 inlet;
#X obj 111 322 *~ 0.5;
#X obj 114 384 cos~;
#X obj 121 414 *~ 0.5;
#X obj 133 445 +~ 0.5;
#X obj 53 246 min~ 1;
#X obj 158 260 min~ 1;
#X obj 157 192 abs~;
#X obj 54 277 *~;
#X obj 52 202 *~ 1;
#X obj 158 231 *~ 1;
#X obj 157 163 -~ 1;
#X obj 113 353 +~ 0.5;
#X obj 286 88 unpack f f;
#X connect 1 0 0 0;
#X connect 2 0 13 0;
#X connect 2 0 15 0;
#X connect 4 0 17 0;
#X connect 5 0 16 0;
#X connect 6 0 7 0;
#X connect 7 0 8 0;
#X connect 8 0 3 0;
#X connect 9 0 12 0;
#X connect 10 0 12 1;
#X connect 11 0 14 0;
#X connect 12 0 5 0;
#X connect 13 0 9 0;
#X connect 14 0 10 0;
#X connect 15 0 11 0;
#X connect 16 0 6 0;
#X connect 17 0 13 1;
#X connect 17 1 14 1;
#X restore 162 723 pd cosine(envelope);
#X obj 822 178 s \$0env;
#X obj 67 673 r \$0env;
#X obj 67 695 == 0;
#X obj 289 671 r \$0env;
#X obj 860 116 loadbang;
#X obj 840 145 f 0;
#X obj 282 600 pack f f;
#X obj 82 773 *~;
#X text 643 646 envelope;
#X obj 625 7 route list float;
#X obj 552 45 t l b;
#X msg 991 781 1;
#X obj 6 298 pack f f f;
#X text 82 304 start end ms;
#X msg 6 327 \$1 \, \$2 \$3;
#X msg 282 536 1 \$1;
#X msg 333 537 1 \$1;
#X obj 282 567 /;
#X obj 333 567 /;
#X msg -82 486 0 \, 1 \$1;
#X obj 627 251 s \$0table;
#X obj 103 521 r \$0table;
#X msg 103 545 set \$1;
#X obj 149 242 +;
#X obj 286 273 convert/smp2ms;
#X obj 286 296 t f f;
#X obj 256 191 t f f;
#X obj 286 251 abs;
#X obj 286 227 / 1;
#X obj 119 175 t f f;
#X text 641 619 table;
#X obj 410 348 - 1;
#X obj 409 370 abs;
#X obj 312 331 t f f;
#X obj 330 366 - 1;
#X obj 339 393 abs;
#X obj 296 450 * 0.5;
#X obj 346 453 * 0.5;
#X obj 284 483 max 1e-06;
#X obj 355 485 max 1e-06;
#X obj 5 357 line~;
#X obj -82 539 Line~;
#X obj 98 577 tabread~;
#X msg 875 788 0;
#X text 662 568 offset(smp) length(smp) speed(rel) attack(rel) sustain(rel)
gain table;
#X obj 834 55 route envelope;
#X obj 697 252 s \$0table1;
#X obj 552 109 unpack f f f f f f s s f f;
#X obj 536 829 outlet;
#X obj 754 398 pack;
#X connect 2 0 15 0;
#X connect 3 0 0 0;
#X connect 4 0 13 0;
#X connect 5 0 13 0;
#X connect 7 0 8 0;
#X connect 8 0 4 2;
#X connect 9 0 5 2;
#X connect 10 0 11 0;
#X connect 11 0 6 0;
#X connect 12 0 5 1;
#X connect 12 0 4 1;
#X connect 13 0 3 0;
#X connect 15 0 16 0;
#X connect 15 2 51 0;
#X connect 16 0 53 0;
#X connect 16 1 17 0;
#X connect 17 0 1 0;
#X connect 18 0 20 0;
#X connect 20 0 46 0;
#X connect 21 0 23 0;
#X connect 22 0 24 0;
#X connect 23 0 12 0;
#X connect 24 0 12 1;
#X connect 25 0 47 0;
#X connect 27 0 28 0;
#X connect 28 0 48 0;
#X connect 29 0 18 1;
#X connect 30 0 31 0;
#X connect 31 0 18 2;
#X connect 31 1 25 0;
#X connect 32 0 29 1;
#X connect 32 1 34 0;
#X connect 33 0 30 0;
#X connect 34 0 33 0;
#X connect 35 0 18 0;
#X connect 35 1 29 0;
#X connect 37 0 38 0;
#X connect 38 0 42 1;
#X connect 38 0 43 1;
#X connect 39 0 42 0;
#X connect 39 1 40 0;
#X connect 40 0 41 0;
#X connect 41 0 43 0;
#X connect 42 0 44 0;
#X connect 43 0 45 0;
#X connect 44 0 21 0;
#X connect 45 0 22 0;
#X connect 46 0 48 0;
#X connect 47 0 4 0;
#X connect 47 0 5 0;
#X connect 47 1 49 0;
#X connect 48 0 13 1;
#X connect 49 0 1 0;
#X connect 51 0 11 0;
#X connect 53 0 35 0;
#X connect 53 1 32 0;
#X connect 53 2 34 1;
#X connect 53 3 39 0;
#X connect 53 4 37 0;
#X connect 53 5 3 1;
#X connect 53 6 26 0;
#X connect 53 7 52 0;
#X connect 53 8 55 0;
#X connect 53 9 55 1;
#X connect 55 0 54 0;
