#N canvas 278 26 448 150 10;
#X obj 1 1 cnv 15 445 20 empty \$0-pddp.cnv.header finding_pd_objects
20 10 1 18 -261106 -33289 0;
#X obj 407 2 pddp/pddplink http://puredata.info/dev/pddp -text pddp
;
#X obj 1 123 cnv 15 445 20 empty \$0-pddp.cnv.footer empty 20 12 0
14 -233017 -33289 0;
#N canvas 278 205 494 284 META 0;
#X text 12 65 LIBRARY PDDP;
#X text 12 5 GENRE all_about_pd;
#X text 12 45 DESCRIPTION tips for searching for objects;
#X text 12 25 KEYWORDS help;
#X msg 19 114 tot destroy .^.m;
#X obj 19 142 tot .parent;
#X text 12 85 HELP_PATCH_AUTHORS Jonathan Wilkes \, Pd-ext 0.42.;
#X connect 4 0 5 0;
#X connect 5 3 4 0;
#X restore 392 125 pd META;
#X obj 6 125 pddp/pddplink pddp/help.pd -text help;
#N canvas 13 162 428 183 References 0;
#X obj 1 1 cnv 15 425 20 empty \$0-pddp.cnv.subheading empty 3 12 0
14 -261106 -33289 0;
#X text 7 2 Searching for Objects;
#X text 32 39 * pdpedia;
#X text 32 59 * mailing lists;
#X text 32 79 * google;
#X text 32 99 * your own harddrive;
#X restore 103 125 pd References;
#X text 19 26 Enter search terms to match the descriptions in the help
files. (This will match the description in the help patch);
#X text 19 56 You can also specify specific PDDP keywords preceded
by an '@' sign. For example \, '@AUTHOR Puckette'. '@AUTHOR Puckette
@INLET_0 symbol' matches all objects by Miller Puckette that accept
a symbol at the left inlet.;
