#N canvas 196 180 459 553 10;
#X text 15 38 Here are various text conventions for discussing various
aspects of Pd in text:;
#X text 30 108 "anything" \, "bang" \, "float" \, "list" \, "pointer"
\, "symbol";
#X text 15 138 objects:;
#X text 30 157 [route] \, [set] \, [float] \, [symbol] \, [trigger]
\, etc.;
#X text 15 191 messages:;
#X text 30 214 [send 1( \, [set 0( \,;
#X text 15 270 design principles;
#X text 50 300 - Make states visible and visibly distinguished;
#X text 50 315 - Teach by example \, not by formalism;
#X text 50 330 - Communicate visually;
#X text 50 345 - Offer informative feedback;
#X text 50 360 - Strive for consistency;
#X text 50 375 - Avoid arbitrary syntax;
#X text 50 390 - Use standard language;
#X text 50 405 - Use the application's terminology;
#X text 50 420 - Support clear conceptual models for documentation
;
#X text 50 435 - Respect the rules of human conversation;
#X text 50 450 - Respond with an appropriate amount of information
;
#X text 17 88 reserved words:;
#X obj 2 2 cnv 15 450 20 empty empty pddp-style-guide 2 11 1 18 -233017
-66577 0;
#X obj 418 3 pddp;
