#N canvas 273 236 233 186 10;
#X obj 0 0 cnv 15 200 20 empty \$0-pddp_print 61 5 10 1 14 -233017
-33289 0;
#X obj 62 130 s \$0-pddp_print;
#X obj 62 104 prepend label;
#X obj 62 47 inlet;
#X obj 62 77 list2symbol;
#X connect 2 0 1 0;
#X connect 3 0 4 0;
#X connect 4 0 2 0;
#X coords 0 0 1 1 200 20 1;
