#N canvas 56 22 510 577 10;
#X obj 3 2 cnv 15 500 20 empty empty pddp 2 12 1 18 -233017 -66577
0;
#X obj 9 544 pddp_open;
#X msg 10 92 acoustic_conversions;
#X msg 10 112 arrays;
#X msg 10 132 cyclone;
#X msg 10 152 data_structures;
#X msg 10 172 data_types;
#X msg 10 192 haptics;
#X msg 10 212 hid;
#X msg 10 232 hid_mapping;
#X msg 10 252 lists_vs_anythings;
#X msg 10 272 looping;
#X msg 10 312 scope_and_locality;
#X msg 10 332 send_n_receive;
#X msg 10 352 symbol_construction;
#X msg 10 452 pddp-style-guide;
#X msg 10 482 dynamic_sends;
#X msg 10 512 time_measurements;
#X text 170 113 comment;
#X text 170 173 comment;
#N canvas 0 22 462 312 guts 0;
#X obj 79 119 inlet;
#X obj 75 258 outlet;
#X obj 78 168 symbol;
#X obj 75 221 makefilename all_about_%s;
#X text 46 28 this opens the "all_about_" patches;
#X connect 0 0 2 0;
#X connect 2 0 3 0;
#X connect 3 0 1 0;
#X restore 10 387 pd guts;
#X text 170 93 audio power and RMS \, MIDI and frequency;
#X text 170 213 physically interfacing with humans;
#X text 170 273 making all sorts of loops;
#X msg 10 292 midi_flags;
#X text 170 193 controlling force and vibration feedback;
#X text 170 233 mapping data from human interface devices;
#X text 170 293 command line flags for using MIDI devices;
#X obj 471 3 pddp/pddplink http://puredata.info/dev/pddp -text pddp
;
#X text 170 452 style recommendations for pddp patches;
#X text 170 482 (unfinished);
#X text 170 512 (unfinished);
#X text 170 153 (unfinished);
#X text 170 253 (unfinished);
#X text 22 27 TABLE OF CONTENTS;
#X text 7 48 pddp provides a number of overview patches called "all_about_"
patches. Here is a listing of them:;
#X text 170 133 cyclone is the Max/MSP compatibility library;
#X text 170 333 sending and receiving with out cords;
#X text 170 353 building special symbols (unfinished);
#X text 170 313 global and local scope of names;
#X connect 2 0 20 0;
#X connect 3 0 20 0;
#X connect 4 0 20 0;
#X connect 5 0 20 0;
#X connect 6 0 20 0;
#X connect 7 0 20 0;
#X connect 8 0 20 0;
#X connect 9 0 20 0;
#X connect 10 0 20 0;
#X connect 11 0 20 0;
#X connect 12 0 20 0;
#X connect 13 0 20 0;
#X connect 14 0 20 0;
#X connect 15 0 1 0;
#X connect 16 0 1 0;
#X connect 17 0 1 0;
#X connect 20 0 1 0;
#X connect 24 0 20 0;
