#N canvas 106 77 480 616 10;
#X obj 3 2 cnv 15 450 20 empty empty PDDP 2 12 1 18 -233017 -66577
0;
#X text 102 5 Table of Contents;
#X obj 10 80 all_about_arrays;
#X obj 10 100 all_about_cyclone;
#X obj 10 120 all_about_data_structures;
#X obj 10 140 all_about_data_types;
#X obj 10 160 all_about_haptics;
#X obj 10 180 all_about_hid;
#X obj 10 200 all_about_lists_vs_anythings;
#X obj 10 220 all_about_looping;
#X obj 10 240 all_about_scope_and_locality;
#X obj 10 260 all_about_send_n_receive;
#X obj 10 280 all_about_symbol_construction;
#X text 240 81 comment;
#X text 240 101 comment;
#X text 240 121 comment;
#X text 240 141 comment;
#X text 240 161 comment;
#X text 240 181 comment;
#X text 240 201 comment;
#X text 240 221 comment;
#X text 240 241 comment;
#X text 240 261 comment;
#X text 240 281 comment;
