#N canvas 289 74 815 597 12;
#X obj 114 34 inlet;
#X obj 424 31 inlet;
#X obj 654 100 inlet;
#X obj 319 494 outlet;
#X obj 392 493 outlet;
#X obj 480 493 outlet;
#X obj 114 64 t b b;
#X obj 37 134 timer;
#X obj 104 135 cputime;
#X obj 183 136 realtime;
#X obj 299 62 osc~ 800;
#X msg 424 87 1;
#X msg 424 114 \; pd dsp \$1 \;;
#X msg 369 94 0;
#X obj 424 57 t b b;
#X obj 312 251 timer;
#X obj 379 252 cputime;
#X obj 455 251 realtime;
#X obj 298 86 env~;
#X obj 298 110 > 0;
#X obj 298 135 sel 1;
#X obj 569 162 delay 3000;
#X obj 654 132 t b b;
#X obj 585 242 timer;
#X obj 652 243 cputime;
#X obj 728 242 realtime;
#X connect 0 0 6 0;
#X connect 1 0 14 0;
#X connect 2 0 22 0;
#X connect 6 0 7 1;
#X connect 6 0 8 1;
#X connect 6 0 9 1;
#X connect 6 1 7 0;
#X connect 6 1 8 0;
#X connect 6 1 9 0;
#X connect 7 0 3 0;
#X connect 8 0 4 0;
#X connect 9 0 5 0;
#X connect 10 0 18 0;
#X connect 11 0 12 0;
#X connect 13 0 12 0;
#X connect 14 0 11 0;
#X connect 14 1 17 0;
#X connect 14 1 16 0;
#X connect 14 1 15 0;
#X connect 15 0 3 0;
#X connect 16 0 4 0;
#X connect 17 0 5 0;
#X connect 18 0 19 0;
#X connect 19 0 20 0;
#X connect 20 0 15 1;
#X connect 20 0 16 1;
#X connect 20 0 17 1;
#X connect 20 0 13 0;
#X connect 21 0 23 1;
#X connect 21 0 24 1;
#X connect 21 0 25 1;
#X connect 22 0 21 0;
#X connect 22 1 25 0;
#X connect 22 1 24 0;
#X connect 22 1 23 0;
#X connect 23 0 3 0;
#X connect 24 0 4 0;
#X connect 25 0 5 0;
