#N canvas 417 318 464 379 10;
#X obj 244 149 inlet;
#X obj 179 149 inlet;
#X obj 179 253 outlet;
#X obj 179 206 list-lastx;
#X text 54 77 This is just a backwards compatibility wrapper around
list-lastx;
#X connect 0 0 3 1;
#X connect 1 0 3 0;
#X connect 3 0 2 0;
