#N canvas 354 269 450 300 10;
#X obj 77 101 t b a;
#X obj 77 41 inlet;
#X obj 149 66 inlet;
#X obj 77 257 outlet;
#X obj 77 181 list append;
#X obj 77 153 list append;
#X text 72 21 add new elements to stored list and output it;
#X text 149 47 set stored list \, no output;
#X connect 0 0 5 0;
#X connect 0 1 4 1;
#X connect 1 0 0 0;
#X connect 2 0 5 1;
#X connect 4 0 3 0;
#X connect 4 0 5 1;
#X connect 5 0 4 0;
