#N canvas 172 34 832 393 10;
#X floatatom 385 85 5 0 0 2 change-size - -;
#X obj 341 60 inlet;
#X obj 180 60 inlet;
#X obj 180 302 outlet;
#X obj 180 228 list split \$1;
#X obj 341 84 f \$1;
#X obj 180 183 list prepend;
#X obj 180 111 t b a;
#X obj 180 138 until;
#X obj 268 270 t b a;
#X obj 261 153 list prepend;
#X obj 341 118 t b b f;
#X text 393 116 reset (b) and set new length (f).;
#X text 369 225 Lists shorter than group size are stored for next list.
Lists longer get split at group size \, shorter part is put out \,
longer part is re-evaluated.;
#X connect 0 0 11 0;
#X connect 1 0 5 0;
#X connect 2 0 7 0;
#X connect 4 0 3 0;
#X connect 4 1 6 1;
#X connect 4 2 9 0;
#X connect 5 0 11 0;
#X connect 6 0 4 0;
#X connect 7 0 8 0;
#X connect 7 1 10 0;
#X connect 8 0 6 0;
#X connect 9 0 8 1;
#X connect 9 1 10 1;
#X connect 10 0 6 1;
#X connect 11 0 6 1;
#X connect 11 1 10 1;
#X connect 11 2 4 1;
