#N canvas 489 301 701 467 10;
#X obj 322 283 list split 1;
#X obj 322 324 list prepend;
#X obj 367 216 until;
#X text 416 325 move first element to back;
#X obj 322 251 list;
#X obj 267 277 t l;
#X obj 323 170 f \$1;
#X obj 323 194 moses 1;
#X obj 302 54 inlet;
#X obj 406 83 inlet;
#X text 457 83 how often to rotate;
#X obj 221 268 list;
#X obj 221 231 b;
#X text 74 191 pass unchanged \, if rot# < 1;
#X floatatom 397 140 5 0 0 0 - - -;
#X obj 302 80 t b b l;
#X obj 299 388 list;
#X obj 238 116 s \$0-out;
#X obj 211 351 r \$0-out;
#X text 349 53 list to rotate;
#X msg 135 37 0 1 2 3 4 5 6 7;
#X obj 299 418 outlet;
#X connect 0 0 1 0;
#X connect 0 1 1 1;
#X connect 1 0 5 0;
#X connect 1 0 16 1;
#X connect 2 0 4 0;
#X connect 4 0 0 0;
#X connect 5 0 4 1;
#X connect 6 0 7 0;
#X connect 7 0 12 0;
#X connect 7 1 2 0;
#X connect 8 0 15 0;
#X connect 9 0 6 1;
#X connect 11 0 16 1;
#X connect 12 0 11 0;
#X connect 14 0 6 1;
#X connect 15 0 17 0;
#X connect 15 1 6 0;
#X connect 15 2 4 1;
#X connect 15 2 11 1;
#X connect 16 0 21 0;
#X connect 18 0 16 0;
#X connect 20 0 15 0;
