#N canvas 499 299 571 374 10;
#X obj 128 37 list-drip;
#X obj 128 60 route float;
#X obj 128 204 f;
#X obj 112 284 outlet;
#X obj 171 259 f;
#X obj 171 286 outlet;
#X obj 40 198 t b b;
#X obj 128 13 inlet;
#X obj 112 256 f;
#N canvas 0 0 450 300 once 0;
#X obj 110 75 inlet;
#X obj 105 187 spigot 1;
#X obj 110 104 t b f;
#X msg 125 151 0;
#X msg 165 99 1;
#X obj 165 63 inlet;
#X obj 102 219 outlet;
#X connect 0 0 2 0;
#X connect 1 0 6 0;
#X connect 2 0 3 0;
#X connect 2 1 1 0;
#X connect 3 0 1 1;
#X connect 4 0 1 1;
#X connect 5 0 4 0;
#X restore 218 112 pd once;
#X obj 128 90 t f f f;
#X obj 218 59 s \$0-end;
#X obj 262 87 r \$0-end;
#X obj 40 174 r \$0-end;
#X obj 128 146 <=;
#X obj 128 168 select 1;
#X obj 244 205 f;
#X obj 244 169 select 1;
#X obj 244 147 >=;
#X connect 0 0 1 0;
#X connect 0 1 11 0;
#X connect 1 0 10 0;
#X connect 2 0 8 1;
#X connect 2 0 14 1;
#X connect 4 0 5 0;
#X connect 6 0 8 0;
#X connect 6 1 4 0;
#X connect 7 0 0 0;
#X connect 8 0 3 0;
#X connect 9 0 14 1;
#X connect 9 0 18 1;
#X connect 10 0 14 0;
#X connect 10 0 18 0;
#X connect 10 1 16 1;
#X connect 10 1 2 1;
#X connect 10 2 9 0;
#X connect 12 0 9 1;
#X connect 13 0 6 0;
#X connect 14 0 15 0;
#X connect 15 0 2 0;
#X connect 16 0 4 1;
#X connect 16 0 18 1;
#X connect 17 0 16 0;
#X connect 18 0 17 0;
