#N canvas 0 0 457 428 10;
#X obj 127 69 inlet;
#X obj 127 337 outlet;
#X obj 146 138 list-drip;
#X obj 146 164 route float;
#X obj 127 274 f;
#X obj 127 308 /;
#X obj 146 189 t a b;
#N canvas 370 313 450 300 accum 0;
#X obj 182 102 0;
#X obj 135 79 inlet;
#X obj 182 79 inlet;
#X obj 135 169 outlet;
#X obj 135 137 +;
#X obj 168 138 f;
#X connect 0 0 4 1;
#X connect 1 0 4 0;
#X connect 2 0 0 0;
#X connect 4 0 3 0;
#X connect 4 0 5 0;
#X connect 5 0 4 1;
#X restore 146 224 pd accum;
#X obj 127 105 t b a b a;
#X obj 245 225 list length;
#X connect 0 0 8 0;
#X connect 2 0 3 0;
#X connect 3 0 6 0;
#X connect 4 0 5 0;
#X connect 5 0 1 0;
#X connect 6 0 7 0;
#X connect 7 0 4 1;
#X connect 8 0 4 0;
#X connect 8 1 2 0;
#X connect 8 2 7 1;
#X connect 8 3 9 0;
#X connect 9 0 5 1;
