#N canvas 161 215 536 406 10;
#X obj 133 90 inlet;
#X obj 133 246 outlet;
#X obj 247 95 inlet;
#X obj 190 213 outlet;
#X obj 247 173 outlet;
#N canvas 501 342 487 367 drip-two-lists 1;
#X obj 64 243 outlet;
#X obj 64 57 inlet;
#X obj 157 240 outlet;
#X obj 225 242 outlet;
#X obj 321 95 inlet;
#X text 272 240 End;
#X obj 64 133 list-drip;
#X obj 64 156 t a b;
#X obj 157 192 list-dripslow;
#X connect 1 0 6 0;
#X connect 4 0 8 1;
#X connect 6 0 7 0;
#X connect 6 1 3 0;
#X connect 7 0 0 0;
#X connect 7 1 8 0;
#X connect 8 0 2 0;
#X restore 133 139 pd drip-two-lists;
#X text 300 172 bang at end;
#X text 244 212 second list;
#X text 190 248 first list;
#X text 51 35 Drips two lists in sync \, as long as the first list
lasts.;
#X connect 0 0 5 0;
#X connect 2 0 5 1;
#X connect 5 0 1 0;
#X connect 5 1 3 0;
#X connect 5 2 4 0;
