#N canvas 0 0 450 300 10;
#X obj 122 108 inlet;
#X obj 197 69 loadbang;
#X obj 122 139 list split;
#X obj 187 95 f \$1;
#X obj 154 210 outlet;
#X obj 187 47 inlet;
#X obj 154 176 list split 1;
#X connect 0 0 2 0;
#X connect 1 0 3 0;
#X connect 2 1 6 0;
#X connect 3 0 2 1;
#X connect 5 0 3 0;
#X connect 6 0 4 0;
