#N canvas 628 149 479 392 10;
#X obj 84 29 inlet;
#X obj 162 29 inlet;
#X obj 84 226 outlet;
#X obj 171 227 outlet;
#X obj 267 228 outlet;
#N canvas 112 19 601 430 negatives 0;
#X obj 316 97 inlet;
#X obj 381 96 inlet;
#X obj 316 279 outlet;
#X obj 384 281 outlet;
#X obj 455 283 outlet;
#X obj 316 205 list;
#X obj 316 180 t b a;
#X obj 316 157 list split;
#X text 54 192 keep execution order right to left:;
#X obj 316 249 list-rev;
#X obj 316 125 list-rev;
#X obj 384 250 list-rev;
#X obj 455 252 list-rev;
#X connect 0 0 10 0;
#X connect 1 0 7 1;
#X connect 5 0 9 0;
#X connect 6 0 5 0;
#X connect 6 1 11 0;
#X connect 7 0 6 0;
#X connect 7 1 5 1;
#X connect 7 2 12 0;
#X connect 9 0 2 0;
#X connect 10 0 7 0;
#X connect 11 0 3 0;
#X connect 12 0 4 0;
#X restore 188 169 pd negatives;
#X obj 135 113 < 0;
#N canvas 235 272 450 300 route 0;
#X obj 76 76 inlet;
#X obj 155 74 inlet;
#X obj 76 123 list prepend;
#X obj 76 158 route 0 1;
#X obj 76 231 outlet;
#X obj 105 192 outlet;
#X connect 0 0 2 0;
#X connect 1 0 2 1;
#X connect 2 0 3 0;
#X connect 3 0 4 0;
#X connect 3 1 5 0;
#X restore 84 137 pd route;
#X obj 162 63 f \$1;
#X obj 210 29 loadbang;
#X obj 162 85 t f f f;
#X obj 267 134 * -1;
#X obj 84 168 list split;
#X connect 0 0 7 0;
#X connect 1 0 8 0;
#X connect 5 0 2 0;
#X connect 5 1 3 0;
#X connect 5 2 4 0;
#X connect 6 0 7 1;
#X connect 7 0 12 0;
#X connect 7 1 5 0;
#X connect 8 0 10 0;
#X connect 9 0 8 0;
#X connect 10 0 6 0;
#X connect 10 1 12 1;
#X connect 10 2 11 0;
#X connect 11 0 5 1;
#X connect 12 0 2 0;
#X connect 12 1 3 0;
#X connect 12 2 4 0;
