#N canvas 158 147 575 357 10;
#X obj 173 193 list prepend;
#X obj 151 44 inlet;
#X obj 252 115 inlet;
#X text 304 115 how often to rotate;
#X obj 151 220 list;
#X text 198 43 list to rotate;
#X obj 151 250 outlet;
#X obj 173 152 list-splat 1;
#X obj 151 70 t b l b;
#X text 267 194 move right part of list to left.;
#X connect 0 0 4 1;
#X connect 1 0 8 0;
#X connect 2 0 7 1;
#X connect 4 0 6 0;
#X connect 7 0 0 0;
#X connect 7 1 0 1;
#X connect 8 0 4 0;
#X connect 8 1 7 0;
#X connect 8 2 0 1;
