#N canvas 421 357 511 459 10;
#X obj 100 19 inlet;
#X obj 190 115 list;
#X obj 190 137 list-drip;
#X obj 35 297 select;
#X obj 35 355 f;
#X obj 213 67 inlet;
#X obj 190 177 route float symbol;
#X obj 35 239 f;
#X obj 35 379 outlet;
#X obj 35 211 t b f f;
#X obj 51 161 route float symbol;
#X obj 250 225 t b a a;
#X obj 250 254 symbol;
#X obj 250 282 select NODEFAULT;
#X obj 250 350 symbol;
#X text 241 34 ACHTUNG: symbols don't work yet!;
#X obj 100 46 t b a b;
#X obj 343 173 spigot 1;
#X obj 35 326 t b b;
#X obj 343 196 outlet;
#X obj 159 67 s \$0-s;
#X obj 394 148 r \$0-s;
#X obj 81 349 s \$0-s;
#X msg 159 42 1;
#X msg 81 325 0;
#X connect 0 0 16 0;
#X connect 1 0 2 0;
#X connect 2 0 6 0;
#X connect 2 1 17 0;
#X connect 3 0 18 0;
#X connect 4 0 8 0;
#X connect 5 0 1 1;
#X connect 6 0 9 0;
#X connect 6 1 11 0;
#X connect 7 0 3 0;
#X connect 9 0 7 0;
#X connect 9 1 3 1;
#X connect 9 2 4 1;
#X connect 10 0 7 1;
#X connect 10 1 12 1;
#X connect 11 0 12 0;
#X connect 11 1 13 1;
#X connect 11 2 14 1;
#X connect 12 0 13 0;
#X connect 13 0 14 0;
#X connect 14 0 8 0;
#X connect 16 0 1 0;
#X connect 16 1 10 0;
#X connect 16 2 23 0;
#X connect 17 0 19 0;
#X connect 18 0 4 0;
#X connect 18 1 24 0;
#X connect 21 0 17 1;
#X connect 23 0 20 0;
#X connect 24 0 22 0;
