#N canvas 444 190 497 465 10;
#X obj 206 267 list split 1;
#X obj 206 330 list;
#X obj 206 389 list;
#X obj 206 300 t b a;
#X obj 206 233 list;
#X obj 206 200 until;
#X obj 256 174 b;
#X obj 206 85 inlet;
#X obj 206 415 outlet;
#N canvas 0 0 533 407 drip 0;
#X obj 64 206 list split 1;
#X obj 64 123 until;
#X obj 64 181 list append;
#X obj 194 206 bang;
#X text 146 90 First store list \, then start the loop;
#X text 163 118 "until" bangs its output until told to stop by a "bang"
to its right inlet.;
#X text 182 160 Store the remaining list.;
#X text 239 205 third outlet of "split" tells us to stop.;
#X obj 64 243 outlet;
#X obj 64 57 inlet;
#X text 237 44 From list-help.pd;
#X obj 143 243 outlet;
#X obj 64 86 t b a;
#X connect 0 0 8 0;
#X connect 0 1 2 1;
#X connect 0 2 3 0;
#X connect 0 2 11 0;
#X connect 1 0 2 0;
#X connect 2 0 0 0;
#X connect 3 0 1 1;
#X connect 9 0 12 0;
#X connect 12 0 1 0;
#X connect 12 1 2 1;
#X restore 206 355 pd drip;
#X obj 206 152 t b a;
#X connect 0 0 3 0;
#X connect 0 1 1 1;
#X connect 0 1 4 1;
#X connect 0 2 6 0;
#X connect 1 0 9 0;
#X connect 2 0 8 0;
#X connect 3 0 1 0;
#X connect 3 1 2 1;
#X connect 4 0 0 0;
#X connect 5 0 4 0;
#X connect 6 0 5 1;
#X connect 7 0 10 0;
#X connect 9 0 2 0;
#X connect 10 0 5 0;
#X connect 10 1 4 1;
