#N canvas 329 264 450 300 10;
#X obj 162 41 inlet;
#X obj 161 240 outlet;
#X obj 162 72 prepend \$1;
#X obj 161 158 r \$2-in;
#X obj 161 208 route \$1;
#X obj 69 207 OSCroute \$1;
#X text 22 262 Read \$2-OSC (== \$0-OSC) \, filter by argument \$1
;
#X obj 162 99 s \$2-RRADICAL-MEMENTO;
#X text 95 123 RRADICAL_MEMENTO is also in originator;
#X obj 69 183 r \$2-RRADICAL-OSC;
#X connect 0 0 2 0;
#X connect 2 0 7 0;
#X connect 3 0 4 0;
#X connect 4 0 1 0;
#X connect 5 0 1 0;
#X connect 9 0 5 0;
