#N canvas 0 0 450 300 10;
#X obj 153 133 commun \$1 \$2;
#X obj 153 92 scale 0 127 \$3 \$4;
#X obj 153 57 inlet;
#X obj 153 189 outlet;
#X obj 153 158 scale \$3 \$4 0 127;
#X obj 309 129 outlet;
#X obj 241 46 f \$3;
#X obj 279 46 f \$4;
#X obj 250 23 loadbang;
#X connect 0 0 4 0;
#X connect 0 0 5 0;
#X connect 1 0 0 0;
#X connect 1 0 5 0;
#X connect 2 0 1 0;
#X connect 4 0 3 0;
#X connect 6 0 1 3;
#X connect 6 0 4 4;
#X connect 7 0 1 4;
#X connect 7 0 4 3;
#X connect 8 0 6 0;
