#N canvas 96 191 894 406 10;
#X obj 486 176 s as_b;
#X floatatom 542 147 0 0 0;
#X obj 542 171 s as_f;
#X floatatom 617 150 0 0 0;
#X obj 617 174 s as_bw;
#X msg 486 107 127;
#X msg 486 130 1;
#X msg 486 154 10;
#X obj 93 110 float;
#X obj 147 110 + 1;
#X obj 93 155 select 1;
#X obj 34 128 delay 0;
#X msg 93 45 bang;
#X floatatom 486 201 0 0 0;
#X obj 486 225 s as_sl;
#X obj 93 68 t b 0;
#X text 541 128 mean freq.;
#X text 616 130 freq. bandwith;
#X text 530 203 time for change (log);
#X text 488 87 % of osc that will change;
#X msg 745 80 127 50 13 74;
#X obj 745 177 unpack f f f f;
#X msg 745 101 127 0 75 127;
#X msg 745 60 127 127 6 127;
#X text 745 38 examples...;
#X obj 93 134 < 100;
#X text 85 -4 kill Asound in the upper left corner to removes all the
osc.;
#X msg 745 124 127 64 64 127;
#X text 487 50 the controler :;
#X obj 807 204 s as_f;
#X obj 838 225 s as_bw;
#X text 95 345 this msg do all the job !!!;
#X text 532 106 <= ACTIVE INLET !!!;
#X text 95 21 FIRST;
#X text 303 20 SECOND;
#X msg 745 147 127 0 0 10;
#X obj 745 203 s as_b;
#X obj 776 225 s as_sl;
#X obj 245 220 float;
#X obj 299 220 + 1;
#X obj 245 265 select 1;
#X obj 186 238 delay 0;
#X msg 245 155 bang;
#X obj 245 178 t b 0;
#X obj 245 244 < 100;
#X text 135 60 100 asound patch;
#X text 137 46 this will load;
#X text 289 171 100 asound patch;
#X text 289 156 this will remove the;
#X msg 92 300 \; pd-1.polyphonie.pd obj 10 10 asound \;;
#X msg 375 464 editmode \$1;
#X msg 361 284 \; pd-1.polyphonie.pd editmode 1 \; pd-1.polyphonie.pd
click 12 12 1 1 \; pd-1.polyphonie.pd cut \; pd-1.polyphonie.pd editmode
0 \;;
#X msg 306 54 1;
#X msg 341 55 0;
#X text 285 37 turn on and off all asound;
#X text 744 24 FIRD;
#X text 300 186 if created \, if not...;
#X obj 306 79 switch~;
#X connect 1 0 2 0;
#X connect 3 0 4 0;
#X connect 5 0 0 0;
#X connect 6 0 0 0;
#X connect 7 0 0 0;
#X connect 8 0 9 0;
#X connect 8 0 25 0;
#X connect 9 0 8 1;
#X connect 10 0 49 0;
#X connect 10 0 11 0;
#X connect 11 0 8 0;
#X connect 12 0 15 0;
#X connect 13 0 14 0;
#X connect 15 0 8 0;
#X connect 15 1 8 0;
#X connect 20 0 21 0;
#X connect 21 0 36 0;
#X connect 21 1 37 0;
#X connect 21 2 29 0;
#X connect 21 3 30 0;
#X connect 22 0 21 0;
#X connect 23 0 21 0;
#X connect 25 0 10 0;
#X connect 27 0 21 0;
#X connect 35 0 21 0;
#X connect 38 0 39 0;
#X connect 38 0 44 0;
#X connect 39 0 38 1;
#X connect 40 0 41 0;
#X connect 40 0 51 0;
#X connect 41 0 38 0;
#X connect 42 0 43 0;
#X connect 43 0 38 0;
#X connect 43 1 38 0;
#X connect 44 0 40 0;
#X connect 52 0 57 0;
#X connect 53 0 57 0;
