#N canvas 585 87 498 434 10;
#X obj 180 406 import unauthorized Gem;
#X obj 154 102 grid grid1 200 0 199 200 0 199 1 1 1 10 10 276 240;
#X obj 25 39 pddp/dsp;
#N canvas 446 285 646 466 guts 0;
#X obj 20 10 inlet;
#X obj 275 14 inlet;
#X obj 112 127 osc~;
#X obj 112 156 *~;
#X obj 149 98 / 200;
#X obj 110 185 dac~;
#X obj 444 54 receive pd;
#X msg 340 154 create;
#X msg 310 154 1;
#X obj 482 215 gemwin;
#X msg 564 154 0;
#X msg 504 154 destroy;
#X obj 517 132 t b b;
#X obj 311 125 trigger bang bang bang;
#X obj 444 94 select 1;
#X obj 444 74 route dsp;
#X obj 89 229 gemhead;
#X obj 90 375 sphere 1 20;
#X obj 91 344 translateXYZ;
#X obj 93 287 colorRGB 1 1 1 1;
#X obj 90 314 alpha;
#X msg 289 192 lighting 1;
#X obj 418 294 gemhead;
#X obj 419 359 world_light -120;
#X obj 228 292 / 25;
#X obj 30 300 / 25;
#X obj 228 269 - 100;
#X obj 29 279 - 100;
#X obj 181 251 / 200;
#X obj 53 250 / 200;
#X msg 394 154 dimen 200 200;
#X obj 112 51 + 250;
#X obj 149 137 line~;
#X msg 149 117 \$1 5;
#X connect 0 0 4 0;
#X connect 0 0 27 0;
#X connect 0 0 29 0;
#X connect 1 0 26 0;
#X connect 1 0 28 0;
#X connect 1 0 31 0;
#X connect 2 0 3 0;
#X connect 3 0 5 0;
#X connect 3 0 5 1;
#X connect 4 0 33 0;
#X connect 6 0 15 0;
#X connect 7 0 9 0;
#X connect 8 0 9 0;
#X connect 10 0 9 0;
#X connect 11 0 9 0;
#X connect 12 0 11 0;
#X connect 12 1 10 0;
#X connect 13 0 8 0;
#X connect 13 0 21 0;
#X connect 13 1 7 0;
#X connect 13 2 30 0;
#X connect 14 0 13 0;
#X connect 14 1 12 0;
#X connect 15 0 14 0;
#X connect 16 0 19 0;
#X connect 18 0 17 0;
#X connect 19 0 20 0;
#X connect 20 0 18 0;
#X connect 21 0 9 0;
#X connect 22 0 23 0;
#X connect 24 0 18 2;
#X connect 25 0 18 1;
#X connect 26 0 24 0;
#X connect 27 0 25 0;
#X connect 28 0 19 2;
#X connect 29 0 19 1;
#X connect 30 0 9 0;
#X connect 31 0 2 0;
#X connect 32 0 3 1;
#X connect 33 0 32 0;
#X restore 256 320 pd guts;
#X text 102 9 Its all just data. Use it however you want!;
#X text 28 61 ^-- click here to turn it on and off;
#X obj 154 344 nbx 5 24 -1e+37 1e+37 0 0 empty empty X -15 12 1 18
-166441 -1 -1 121 256;
#X obj 348 343 nbx 5 24 -1e+37 1e+37 0 0 empty empty Y -15 12 1 18
-166441 -1 -1 61 256;
#X text 14 121 click and drag in;
#X text 14 137 this box ------->;
#X connect 1 0 3 0;
#X connect 1 0 6 0;
#X connect 1 1 3 1;
#X connect 1 1 7 0;
