#N canvas 228 159 624 436 12;
#X msg 235 167 Hello world!;
#X text 238 216 <-- connection \, aka "cord";
#X text 17 32 In Pd \, programming is done with boxes which are connected
together. The boxes have "inlets" and "outlets" \, where they are connected.
;
#X text 153 265 inlet-->;
#X text 154 158 inlet-->;
#X text 144 178 outlet-->;
#X obj 234 265 print;
#X text 289 266 <-- object box;
#X text 89 357 Now look in the Pd window to see the result.;
#X connect 0 0 6 0;
