#N canvas 356 66 567 403 12;
#X obj 36 141;
#X text 91 141 empty object box;
#X obj 34 91 float;
#X text 96 91 object box;
#X msg 34 187 message;
#X text 119 187 a clickable message box;
#X floatatom 34 236 5 0 0 0 - - -;
#X text 120 233 a number box;
#X symbolatom 34 285 10 0 0 0 - - -;
#X text 152 284 a symbol box;
#X text 33 334 comment;
#X text 148 333 a comment (like the rest of this text);
#X text 54 28 comment;
#X obj 12 13 cnv 15 400 40 empty empty Basic_Elements 20 12 0 24 -228992
-66577 0;
