#N canvas 690 65 592 555 10;
#X obj 191 249 textfile;
#X obj 111 279 print all;
#X msg 191 213 rewind;
#X obj 131 347 route canvas;
#X obj 112 474 print width;
#X obj 51 425 print Xpos;
#X obj 81 450 print Ypos;
#X obj 143 499 print heigth;
#X obj 174 424 print fontsize;
#X obj 51 394 unpack f f f f f;
#X obj 295 427 s pd-clone;
#X obj 191 274 route #N #X;
#X obj 234 106 tgl 20 0 empty empty empty 0 -6 0 8 -24198 -1 -1 0 1
;
#X msg 294 338 vis 1 \, clear;
#X obj 142 174 + 1;
#X obj 100 174 float;
#X obj 272 152 select 1;
#X obj 98 150 metro 300;
#X text 35 54 Even .pd files use the same message format.;
#X text 34 75 Here is a patch that reads the file of this patch and
sends it to the "clone" subpatch \, making a clone:;
#X obj 8 10 cnv 15 400 40 empty empty pure_data_files 10 15 0 24 -228992
-66577 0;
#X msg 317 214 read 46.pure_data_files.pd;
#X obj 100 213 bang;
#N canvas 102 66 580 554 clone 1;
#X restore 433 456 pd clone;
#X connect 0 0 1 0;
#X connect 0 0 11 0;
#X connect 0 1 12 0;
#X connect 2 0 0 0;
#X connect 3 0 9 0;
#X connect 9 0 5 0;
#X connect 9 1 6 0;
#X connect 9 2 4 0;
#X connect 9 3 7 0;
#X connect 9 4 8 0;
#X connect 11 0 3 0;
#X connect 11 1 10 0;
#X connect 12 0 16 0;
#X connect 12 0 17 0;
#X connect 13 0 10 0;
#X connect 14 0 15 1;
#X connect 15 0 14 0;
#X connect 15 0 22 0;
#X connect 16 0 21 0;
#X connect 16 0 2 0;
#X connect 16 0 13 0;
#X connect 17 0 15 0;
#X connect 21 0 0 0;
#X connect 22 0 0 0;
