#N canvas 0 22 458 308 12;
#X text 121 112 <-- click here \,;
#X obj 51 151 unpack float float float;
#X obj 8 10 cnv 15 400 40 empty empty outlet_order 20 12 0 24 -228992
-66577 0;
#X msg 51 112 3 2 1;
#X obj 28 193 print último;
#X obj 315 193 print first;
#X obj 167 193 print nächste;
#X connect 1 0 4 0;
#X connect 1 1 6 0;
#X connect 1 2 5 0;
#X connect 3 0 1 0;
