#N canvas 298 70 636 452 12;
#X text 196 193 <-- click here \,;
#X obj 126 242 unpack float float float;
#X obj 8 10 cnv 15 400 40 empty empty right_to_left_order 20 12 0 24
-228992 -66577 0;
#X msg 126 193 3 2 1;
#X text 14 94 Objects in Pd output there data in right-to-left order.
In general \, the flow of data is from top to bottom \, from right
to left.;
#X text 100 356 now look in the Pd window for the output;
#X obj 227 306 print nächste;
#X obj 87 307 print último;
#X obj 378 306 print first;
#X connect 1 0 7 0;
#X connect 1 1 6 0;
#X connect 1 2 8 0;
#X connect 3 0 1 0;
