#N canvas 736 151 452 434 10;
#X obj 40 15 inlet bang;
#X obj 40 150 /;
#X obj 40 169 t a a;
#X text 167 24 with tolerance 0;
#X obj 40 188 <= 0;
#X text 167 9 This test verifies that (1+2)+3=1+(2+3);
#X msg 40 34 1 2 3;
#X obj 40 74 unpack 0 0 0;
#X obj 40 245 outlet;
#X obj 40 131 * 2;
#X obj 40 112 \$1.norm;
#X obj 147 112 \$1.norm;
#X obj 40 93 associator \$1 \$2;
#X obj 40 226 list append associative \$1 \$2;
#X obj 40 207 pack 0 0 -1;
#X connect 0 0 6 0;
#X connect 1 0 2 0;
#X connect 2 0 4 0;
#X connect 2 1 14 1;
#X connect 4 0 14 0;
#X connect 6 0 7 0;
#X connect 7 0 12 0;
#X connect 7 1 12 1;
#X connect 7 2 12 2;
#X connect 9 0 1 0;
#X connect 10 0 9 0;
#X connect 11 0 1 1;
#X connect 12 0 10 0;
#X connect 12 1 11 0;
#X connect 13 0 8 0;
#X connect 14 0 13 0;
