#N canvas 380 66 452 291 10;
#X obj 40 15 inlet bang;
#X obj 40 79 unpack 0 0;
#X obj 33 151 /;
#X msg 40 34 1 3;
#X text 216 9 This test verifies that 1+3=3+1;
#X obj 33 170 t a a;
#X obj 33 208 pack 0 0;
#X obj 33 246 outlet;
#X text 217 44 with tolerance 0;
#X obj 33 189 <= 0;
#X msg 33 227 list commutative1 \$1 \$2 -;
#X text 218 23 and 1*3=3*1 and...;
#X obj 33 103 commutator \$2;
#X obj 33 122 \$1norm;
#X obj 119 122 \$1norm;
#X connect 0 0 3 0;
#X connect 1 0 12 0;
#X connect 1 1 12 1;
#X connect 2 0 5 0;
#X connect 3 0 1 0;
#X connect 5 0 9 0;
#X connect 5 1 6 1;
#X connect 6 0 10 0;
#X connect 9 0 6 0;
#X connect 10 0 7 0;
#X connect 12 0 13 0;
#X connect 12 1 14 0;
#X connect 13 0 2 0;
#X connect 14 0 2 1;
