#N canvas 665 86 452 291 10;
#X obj 40 15 inlet bang;
#X obj 40 79 unpack 0 0;
#X obj 33 160 /;
#X msg 40 34 1 3;
#X obj 33 179 t a a;
#X text 217 24 with tolerance 0;
#X obj 33 198 <= 0;
#X text 215 9 This test verifies that 1+3-3=1;
#X obj 33 236 outlet;
#X obj 97 155 loadbang;
#X obj 97 193 unpack s s s s;
#X obj 33 217 pack 0 0 -1 s s s s;
#X obj 97 174 4times symbol invertible \$1 \$2 \$3;
#X obj 33 141 * 2;
#X obj 33 122 \$1.norm;
#X obj 147 123 \$1.norm;
#X obj 33 103 invertor \$1 \$2 \$3;
#X connect 0 0 3 0;
#X connect 1 0 16 0;
#X connect 1 1 16 1;
#X connect 2 0 4 0;
#X connect 3 0 1 0;
#X connect 4 0 6 0;
#X connect 4 1 11 1;
#X connect 6 0 11 0;
#X connect 9 0 12 0;
#X connect 10 0 11 3;
#X connect 10 1 11 4;
#X connect 10 2 11 5;
#X connect 10 3 11 6;
#X connect 11 0 8 0;
#X connect 12 0 10 0;
#X connect 13 0 2 0;
#X connect 14 0 13 0;
#X connect 15 0 2 1;
#X connect 16 0 14 0;
#X connect 16 1 15 0;
