#N canvas 165 73 474 293 10;
#X obj 19 4 inlet;
#X obj 41 93 outlet;
#X obj 19 53 t s s s;
#X obj 128 15 loadbang;
#X obj 63 72 pack s s s;
#X obj 95 53 symbol begin;
#X obj 19 132 pack s s s;
#X obj 51 113 symbol end;
#X msg 64 184 \; \$1 \$2 \$3;
#X obj 128 34 symbol \$2;
#X obj 206 51 loadbang;
#X obj 206 89 makefilename \$1-%s;
#X obj 206 70 symbol \$2;
#N canvas 0 0 450 300 1370-bitch 0;
#X obj 16 75 outlet;
#X obj 282 12 namecanvas \$0-bitch;
#X restore 30 24 pd \$0-bitch;
#X obj 206 157 s \$0-bitch;
#X msg 206 138 obj 0 0 r \$1 \, connect 2 0 0 0;
#X connect 0 0 2 0;
#X connect 2 0 6 0;
#X connect 2 1 1 0;
#X connect 2 2 4 0;
#X connect 3 0 5 0;
#X connect 3 0 7 0;
#X connect 3 0 9 0;
#X connect 4 0 8 0;
#X connect 5 0 4 1;
#X connect 6 0 8 0;
#X connect 7 0 6 1;
#X connect 9 0 4 2;
#X connect 9 0 6 2;
#X connect 10 0 12 0;
#X connect 11 0 15 0;
#X connect 12 0 11 0;
#X connect 13 0 2 0;
#X connect 15 0 14 0;
