#N canvas 480 22 450 300 10;
#X declare -lib list-abs;
#X obj 182 135 until;
#X msg 182 156 next;
#X obj 56 90 list append \$1;
#X obj 56 113 prepent traverse;
#X obj 56 53 loadbang;
#X obj 182 22 inlet;
#X obj 182 242 outlet;
#X obj 336 242 outlet;
#X obj 317 40 t b b b;
#X obj 242 242 outlet;
#X obj 182 179 pointer \$2;
#X obj 318 18 import list-abs;
#X connect 0 0 1 0;
#X connect 1 0 10 0;
#X connect 2 0 3 0;
#X connect 3 0 10 0;
#X connect 4 0 2 0;
#X connect 5 0 0 0;
#X connect 8 0 2 0;
#X connect 8 1 7 0;
#X connect 8 2 0 1;
#X connect 10 0 6 0;
#X connect 10 1 9 0;
#X connect 10 2 8 0;
