#N canvas 356 354 1026 403 10;
#X obj 4 1 hsl 290 15 10 300 0 0 \$0.x-size-s \$0.x-size-r x-size 140
7 0 10 -262144 -1 -1 9400 1;
#X obj 1 3 vsl 15 290 300 10 0 0 \$0.y-size-s \$0.y-size-r y 5 150
0 10 -262144 -1 -1 22800 1;
#X obj 554 188 loadbang;
#X msg 554 213 10;
#X obj 554 242 s \$0.y-size-r;
#X obj 391 14 r \$0.y-size-s;
#X obj 362 -6 r \$0.x-size-s;
#X obj 17 17 nbx 3 14 0 1e+37 0 0 \$0.x-off-s \$0.x-off-r x 40 7 0
10 -262144 -1 -1 425 256;
#X obj 17 31 nbx 3 14 0 1e+37 0 0 \$0.y-off-s \$0.y-off-r y 40 7 0
10 -262144 -1 -1 100 256;
#X obj 362 78 hotpack f f f f;
#X obj 420 34 r \$0.x-off-s;
#X obj 449 54 r \$0.y-off-s;
#X msg 362 101 donecanvasdialog 1 -1 2 0 -1 1 1 \$1 \$2 \$3 \$4;
#X obj 362 133 s \$1;
#X connect 2 0 3 0;
#X connect 3 0 4 0;
#X connect 5 0 9 1;
#X connect 6 0 9 0;
#X connect 9 0 12 0;
#X connect 10 0 9 2;
#X connect 11 0 9 3;
#X connect 12 0 13 0;
#X coords 0 -1 1 1 297 297 2 0 0;
