#N canvas 536 378 450 300 10;
#X obj 55 171 list;
#X obj 76 125 s \$1;
#X obj 76 145 r \$1;
#X obj 55 197 outlet;
#X obj 55 51 inlet;
#X obj 244 73 loadbang;
#X obj 244 163 list;
#X obj 265 138 r \$1;
#X obj 301 210 s \$1;
#X obj 244 186 route bang;
#X obj 244 95 s \$1.INIT-NEW;
#X obj 244 116 r \$1.INIT-NEW;
#X obj 55 73 route bang clear;
#X obj 76 102 t b;
#X connect 0 0 3 0;
#X connect 2 0 0 1;
#X connect 4 0 12 0;
#X connect 5 0 10 0;
#X connect 6 0 9 0;
#X connect 7 0 6 1;
#X connect 9 1 8 0;
#X connect 11 0 6 0;
#X connect 12 0 0 0;
#X connect 12 1 13 0;
#X connect 12 2 1 0;
#X connect 13 0 1 0;
