#N canvas 766 282 203 271 10;
#X obj 44 35 inlet;
#X obj 44 199 spigot;
#X msg 44 154 1;
#X msg 83 154 0;
#X obj 44 107 t b b b;
#X obj 95 107 t b;
#X obj 44 70 route set;
#X obj 44 233 outlet;
#X obj 132 166 inlet;
#X obj 131 142 outlet;
#X connect 0 0 6 0;
#X connect 1 0 7 0;
#X connect 2 0 1 1;
#X connect 3 0 1 1;
#X connect 4 0 2 0;
#X connect 4 1 9 0;
#X connect 4 2 3 0;
#X connect 5 0 9 0;
#X connect 6 0 4 0;
#X connect 6 1 5 0;
#X connect 8 0 1 0;
