#N canvas 0 22 454 304 10;
#X obj 92 97 snapshot~;
#X obj 103 42 loadbang;
#X obj 103 70 metro 50;
#X obj 92 14 inlet~;
#X obj 102 124 nbx 5 14 -1e+37 1e+37 0 0 empty empty empty 0 -6 0 10
-44926 -1 -1 0.694145 256;
#X connect 0 0 4 0;
#X connect 1 0 2 0;
#X connect 2 0 0 0;
#X connect 3 0 0 0;
#X coords 0 -1 1 1 58 40 1 100 100;
