#N canvas 0 22 470 320 10;
#X obj 143 99 inlet;
#X obj 144 124 route \$1;
#X obj 143 205 pack;
#X obj 143 152 t b f;
#X obj 143 178 f \$1;
#X obj 144 234 outlet;
#X connect 0 0 1 0;
#X connect 1 0 3 0;
#X connect 2 0 5 0;
#X connect 3 0 4 0;
#X connect 3 1 2 1;
#X connect 4 0 2 0;
