#N canvas 561 68 716 692 10;
#X obj 243 376 mtx 1 1;
#X obj 242 405 mtx_phon_curve 60;
#X msg 242 432 \$3;
#X obj 242 348 mtof;
#X obj 82 99 inlet;
#X obj 392 108 inlet;
#X obj 399 156 init/df \$1 60;
#X obj 401 132 loadbang;
#X obj 105 623 outlet;
#X obj 241 327 clip 1 127;
#X connect 0 0 1 0;
#X connect 1 0 2 0;
#X connect 2 0 8 0;
#X connect 3 0 0 0;
#X connect 4 0 9 0;
#X connect 5 0 1 1;
#X connect 6 0 1 1;
#X connect 7 0 6 0;
#X connect 9 0 3 0;
