#N canvas 0 0 814 870 10;
#X obj 265 171 tgl 15 0 empty empty empty 20 7 2 8 -33289 -262144 -1
0 1;
#X obj 265 189 tgl 15 0 empty empty empty 20 7 2 8 -33289 -262144 -1
0 1;
#X msg 67 362 1 \$1;
#X obj 265 207 tgl 15 0 empty empty empty 20 7 2 8 -33289 -262144 -1
0 1;
#X obj 265 225 tgl 15 0 empty empty empty 20 7 2 8 -33289 -262144 -1
0 1;
#X obj 265 243 tgl 15 0 empty empty empty 20 7 2 8 -33289 -262144 -1
0 8;
#X obj 265 261 tgl 15 0 empty empty empty 20 7 2 8 -33289 -262144 -1
0 4;
#X obj 265 279 tgl 15 0 empty empty empty 20 7 2 8 -33289 -262144 -1
0 1;
#X obj 265 297 tgl 15 0 empty empty empty 20 7 2 8 -33289 -262144 -1
0 1;
#X msg 67 382 2 \$1;
#X msg 67 402 3 \$1;
#X msg 67 422 4 \$1;
#X msg 67 443 5 \$1;
#X msg 67 503 8 \$1;
#X msg 67 483 7 \$1;
#X msg 67 463 6 \$1;
#X msg 67 524 1 \$1 \$2;
#X msg 265 665 element \$1 \$2 \$3;
#X obj 554 23 inlet;
#X obj 554 43 route 1 2 3 4 5 6 7 8;
#X obj 224 781 mtx 8 8;
#X msg -35 688 row \$1;
#X obj 111 26 inlet;
#X obj 119 86 unpack f f f f f f f f;
#X obj 283 171 tgl 15 0 empty empty empty 20 7 2 8 -33289 -262144 -1
0 1;
#X obj 283 189 tgl 15 0 empty empty empty 20 7 2 8 -33289 -262144 -1
0 1;
#X msg 130 372 1 \$1;
#X obj 283 207 tgl 15 0 empty empty empty 20 7 2 8 -33289 -262144 -1
0 1;
#X obj 283 225 tgl 15 0 empty empty empty 20 7 2 8 -33289 -262144 -1
0 1;
#X obj 283 243 tgl 15 0 empty empty empty 20 7 2 8 -33289 -262144 -1
0 8;
#X obj 283 261 tgl 15 0 empty empty empty 20 7 2 8 -33289 -262144 -1
0 4;
#X obj 283 279 tgl 15 0 empty empty empty 20 7 2 8 -33289 -262144 -1
0 1;
#X obj 283 297 tgl 15 0 empty empty empty 20 7 2 8 -33289 -262144 -1
0 1;
#X msg 130 392 2 \$1;
#X msg 130 412 3 \$1;
#X msg 130 432 4 \$1;
#X msg 130 453 5 \$1;
#X msg 130 513 8 \$1;
#X msg 130 493 7 \$1;
#X msg 130 473 6 \$1;
#X obj 137 105 unpack f f f f f f f f;
#X obj 301 171 tgl 15 0 empty empty empty 20 7 2 8 -33289 -262144 -1
0 1;
#X obj 301 189 tgl 15 0 empty empty empty 20 7 2 8 -33289 -262144 -1
1 1;
#X msg 192 373 1 \$1;
#X obj 301 207 tgl 15 0 empty empty empty 20 7 2 8 -33289 -262144 -1
0 1;
#X obj 301 225 tgl 15 0 empty empty empty 20 7 2 8 -33289 -262144 -1
0 1;
#X obj 301 243 tgl 15 0 empty empty empty 20 7 2 8 -33289 -262144 -1
0 8;
#X obj 301 261 tgl 15 0 empty empty empty 20 7 2 8 -33289 -262144 -1
1 1;
#X obj 301 279 tgl 15 0 empty empty empty 20 7 2 8 -33289 -262144 -1
0 1;
#X obj 301 297 tgl 15 0 empty empty empty 20 7 2 8 -33289 -262144 -1
0 1;
#X msg 192 393 2 \$1;
#X msg 192 413 3 \$1;
#X msg 192 433 4 \$1;
#X msg 192 454 5 \$1;
#X msg 192 514 8 \$1;
#X msg 192 494 7 \$1;
#X msg 192 474 6 \$1;
#X obj 155 124 unpack f f f f f f f f;
#X obj 319 171 tgl 15 0 empty empty empty 20 7 2 8 -33289 -262144 -1
0 1;
#X obj 319 189 tgl 15 0 empty empty empty 20 7 2 8 -33289 -262144 -1
0 1;
#X msg 256 364 1 \$1;
#X obj 319 207 tgl 15 0 empty empty empty 20 7 2 8 -33289 -262144 -1
0 1;
#X obj 319 225 tgl 15 0 empty empty empty 20 7 2 8 -33289 -262144 -1
0 1;
#X obj 319 243 tgl 15 0 empty empty empty 20 7 2 8 -33289 -262144 -1
0 8;
#X obj 319 261 tgl 15 0 empty empty empty 20 7 2 8 -33289 -262144 -1
0 1;
#X obj 319 279 tgl 15 0 empty empty empty 20 7 2 8 -33289 -262144 -1
0 1;
#X obj 319 297 tgl 15 0 empty empty empty 20 7 2 8 -33289 -262144 -1
0 1;
#X msg 256 384 2 \$1;
#X msg 256 404 3 \$1;
#X msg 256 424 4 \$1;
#X msg 256 445 5 \$1;
#X msg 256 505 8 \$1;
#X msg 256 485 7 \$1;
#X msg 256 465 6 \$1;
#X obj 173 143 unpack f f f f f f f f;
#X msg 130 553 2 \$1 \$2;
#X msg 192 573 3 \$1 \$2;
#X msg 256 583 4 \$1 \$2;
#X obj 337 171 tgl 15 0 empty empty empty 20 7 2 8 -33289 -262144 -1
0 1;
#X obj 337 189 tgl 15 0 empty empty empty 20 7 2 8 -33289 -262144 -1
0 1;
#X msg 303 386 1 \$1;
#X obj 337 207 tgl 15 0 empty empty empty 20 7 2 8 -33289 -262144 -1
0 1;
#X obj 337 225 tgl 15 0 empty empty empty 20 7 2 8 -33289 -262144 -1
0 1;
#X obj 337 243 tgl 15 0 empty empty empty 20 7 2 8 -33289 -262144 -1
0 8;
#X obj 337 261 tgl 15 0 empty empty empty 20 7 2 8 -33289 -262144 -1
0 1;
#X obj 337 279 tgl 15 0 empty empty empty 20 7 2 8 -33289 -262144 -1
0 1;
#X obj 337 297 tgl 15 0 empty empty empty 20 7 2 8 -33289 -262144 -1
0 1;
#X msg 303 406 2 \$1;
#X msg 303 426 3 \$1;
#X msg 303 446 4 \$1;
#X msg 303 467 5 \$1;
#X msg 303 527 8 \$1;
#X msg 303 507 7 \$1;
#X msg 303 487 6 \$1;
#X obj 337 86 unpack f f f f f f f f;
#X obj 355 171 tgl 15 0 empty empty empty 20 7 2 8 -33289 -262144 -1
0 1;
#X obj 355 189 tgl 15 0 empty empty empty 20 7 2 8 -33289 -262144 -1
0 1;
#X msg 376 376 1 \$1;
#X obj 355 207 tgl 15 0 empty empty empty 20 7 2 8 -33289 -262144 -1
0 1;
#X obj 355 225 tgl 15 0 empty empty empty 20 7 2 8 -33289 -262144 -1
0 1;
#X obj 355 243 tgl 15 0 empty empty empty 20 7 2 8 -33289 -262144 -1
0 8;
#X obj 355 261 tgl 15 0 empty empty empty 20 7 2 8 -33289 -262144 -1
0 1;
#X obj 355 279 tgl 15 0 empty empty empty 20 7 2 8 -33289 -262144 -1
0 1;
#X obj 355 297 tgl 15 0 empty empty empty 20 7 2 8 -33289 -262144 -1
0 1;
#X msg 376 396 2 \$1;
#X msg 376 416 3 \$1;
#X msg 376 436 4 \$1;
#X msg 376 457 5 \$1;
#X msg 376 517 8 \$1;
#X msg 376 497 7 \$1;
#X msg 376 477 6 \$1;
#X obj 355 105 unpack f f f f f f f f;
#X obj 373 171 tgl 15 0 empty empty empty 20 7 2 8 -33289 -262144 -1
0 1;
#X obj 373 189 tgl 15 0 empty empty empty 20 7 2 8 -33289 -262144 -1
0 1;
#X msg 452 371 1 \$1;
#X obj 373 207 tgl 15 0 empty empty empty 20 7 2 8 -33289 -262144 -1
0 1;
#X obj 373 225 tgl 15 0 empty empty empty 20 7 2 8 -33289 -262144 -1
1 1;
#X obj 373 243 tgl 15 0 empty empty empty 20 7 2 8 -33289 -262144 -1
0 8;
#X obj 373 261 tgl 15 0 empty empty empty 20 7 2 8 -33289 -262144 -1
0 1;
#X obj 373 279 tgl 15 0 empty empty empty 20 7 2 8 -33289 -262144 -1
0 1;
#X obj 373 297 tgl 15 0 empty empty empty 20 7 2 8 -33289 -262144 -1
0 1;
#X msg 452 391 2 \$1;
#X msg 452 411 3 \$1;
#X msg 452 431 4 \$1;
#X msg 452 452 5 \$1;
#X msg 452 512 8 \$1;
#X msg 452 492 7 \$1;
#X msg 452 472 6 \$1;
#X obj 373 124 unpack f f f f f f f f;
#X obj 391 171 tgl 15 0 empty empty empty 20 7 2 8 -33289 -262144 -1
0 1;
#X obj 391 189 tgl 15 0 empty empty empty 20 7 2 8 -33289 -262144 -1
0 1;
#X msg 608 346 1 \$1;
#X obj 391 207 tgl 15 0 empty empty empty 20 7 2 8 -33289 -262144 -1
0 1;
#X obj 391 225 tgl 15 0 empty empty empty 20 7 2 8 -33289 -262144 -1
0 1;
#X obj 391 243 tgl 15 0 empty empty empty 20 7 2 8 -33289 -262144 -1
0 8;
#X obj 391 261 tgl 15 0 empty empty empty 20 7 2 8 -33289 -262144 -1
0 1;
#X obj 391 279 tgl 15 0 empty empty empty 20 7 2 8 -33289 -262144 -1
0 1;
#X obj 391 297 tgl 15 0 empty empty empty 20 7 2 8 -33289 -262144 -1
0 1;
#X msg 608 366 2 \$1;
#X msg 608 386 3 \$1;
#X msg 608 406 4 \$1;
#X msg 608 427 5 \$1;
#X msg 608 487 8 \$1;
#X msg 608 467 7 \$1;
#X msg 608 447 6 \$1;
#X obj 391 143 unpack f f f f f f f f;
#X msg 303 548 5 \$1 \$2;
#X msg 376 557 6 \$1 \$2;
#X msg 452 571 7 \$1 \$2;
#X msg 608 565 8 \$1 \$2;
#X obj 220 825 outlet;
#X connect 0 0 2 0;
#X connect 1 0 9 0;
#X connect 2 0 16 0;
#X connect 3 0 10 0;
#X connect 4 0 11 0;
#X connect 5 0 12 0;
#X connect 6 0 15 0;
#X connect 7 0 14 0;
#X connect 8 0 13 0;
#X connect 9 0 16 0;
#X connect 10 0 16 0;
#X connect 11 0 16 0;
#X connect 12 0 16 0;
#X connect 13 0 16 0;
#X connect 14 0 16 0;
#X connect 15 0 16 0;
#X connect 16 0 17 0;
#X connect 17 0 20 0;
#X connect 18 0 19 0;
#X connect 19 0 23 0;
#X connect 19 1 40 0;
#X connect 19 2 57 0;
#X connect 19 3 74 0;
#X connect 19 4 94 0;
#X connect 19 5 111 0;
#X connect 19 6 128 0;
#X connect 19 7 145 0;
#X connect 20 0 150 0;
#X connect 21 0 20 0;
#X connect 22 0 21 0;
#X connect 23 0 0 0;
#X connect 23 1 1 0;
#X connect 23 2 3 0;
#X connect 23 3 4 0;
#X connect 23 4 5 0;
#X connect 23 5 6 0;
#X connect 23 6 7 0;
#X connect 23 7 8 0;
#X connect 24 0 26 0;
#X connect 25 0 33 0;
#X connect 26 0 75 0;
#X connect 27 0 34 0;
#X connect 28 0 35 0;
#X connect 29 0 36 0;
#X connect 30 0 39 0;
#X connect 31 0 38 0;
#X connect 32 0 37 0;
#X connect 33 0 75 0;
#X connect 34 0 75 0;
#X connect 35 0 75 0;
#X connect 36 0 75 0;
#X connect 37 0 75 0;
#X connect 38 0 75 0;
#X connect 39 0 75 0;
#X connect 40 0 24 0;
#X connect 40 1 25 0;
#X connect 40 2 27 0;
#X connect 40 3 28 0;
#X connect 40 4 29 0;
#X connect 40 5 30 0;
#X connect 40 6 31 0;
#X connect 40 7 32 0;
#X connect 41 0 43 0;
#X connect 42 0 50 0;
#X connect 43 0 76 0;
#X connect 44 0 51 0;
#X connect 45 0 52 0;
#X connect 46 0 53 0;
#X connect 47 0 56 0;
#X connect 48 0 55 0;
#X connect 49 0 54 0;
#X connect 50 0 76 0;
#X connect 51 0 76 0;
#X connect 52 0 76 0;
#X connect 53 0 76 0;
#X connect 54 0 76 0;
#X connect 55 0 76 0;
#X connect 56 0 76 0;
#X connect 57 0 41 0;
#X connect 57 1 42 0;
#X connect 57 2 44 0;
#X connect 57 3 45 0;
#X connect 57 4 46 0;
#X connect 57 5 47 0;
#X connect 57 6 48 0;
#X connect 57 7 49 0;
#X connect 58 0 60 0;
#X connect 59 0 67 0;
#X connect 60 0 77 0;
#X connect 61 0 68 0;
#X connect 62 0 69 0;
#X connect 63 0 70 0;
#X connect 64 0 73 0;
#X connect 65 0 72 0;
#X connect 66 0 71 0;
#X connect 67 0 77 0;
#X connect 68 0 77 0;
#X connect 69 0 77 0;
#X connect 70 0 77 0;
#X connect 71 0 77 0;
#X connect 72 0 77 0;
#X connect 73 0 77 0;
#X connect 74 0 58 0;
#X connect 74 1 59 0;
#X connect 74 2 61 0;
#X connect 74 3 62 0;
#X connect 74 4 63 0;
#X connect 74 5 64 0;
#X connect 74 6 65 0;
#X connect 74 7 66 0;
#X connect 75 0 17 0;
#X connect 76 0 17 0;
#X connect 77 0 17 0;
#X connect 78 0 80 0;
#X connect 79 0 87 0;
#X connect 80 0 146 0;
#X connect 81 0 88 0;
#X connect 82 0 89 0;
#X connect 83 0 90 0;
#X connect 84 0 93 0;
#X connect 85 0 92 0;
#X connect 86 0 91 0;
#X connect 87 0 146 0;
#X connect 88 0 146 0;
#X connect 89 0 146 0;
#X connect 90 0 146 0;
#X connect 91 0 146 0;
#X connect 92 0 146 0;
#X connect 93 0 146 0;
#X connect 94 0 78 0;
#X connect 94 1 79 0;
#X connect 94 2 81 0;
#X connect 94 3 82 0;
#X connect 94 4 83 0;
#X connect 94 5 84 0;
#X connect 94 6 85 0;
#X connect 94 7 86 0;
#X connect 95 0 97 0;
#X connect 96 0 104 0;
#X connect 97 0 147 0;
#X connect 98 0 105 0;
#X connect 99 0 106 0;
#X connect 100 0 107 0;
#X connect 101 0 110 0;
#X connect 102 0 109 0;
#X connect 103 0 108 0;
#X connect 104 0 147 0;
#X connect 105 0 147 0;
#X connect 106 0 147 0;
#X connect 107 0 147 0;
#X connect 108 0 147 0;
#X connect 109 0 147 0;
#X connect 110 0 147 0;
#X connect 111 0 95 0;
#X connect 111 1 96 0;
#X connect 111 2 98 0;
#X connect 111 3 99 0;
#X connect 111 4 100 0;
#X connect 111 5 101 0;
#X connect 111 6 102 0;
#X connect 111 7 103 0;
#X connect 112 0 114 0;
#X connect 113 0 121 0;
#X connect 114 0 148 0;
#X connect 115 0 122 0;
#X connect 116 0 123 0;
#X connect 117 0 124 0;
#X connect 118 0 127 0;
#X connect 119 0 126 0;
#X connect 120 0 125 0;
#X connect 121 0 148 0;
#X connect 122 0 148 0;
#X connect 123 0 148 0;
#X connect 124 0 148 0;
#X connect 125 0 148 0;
#X connect 126 0 148 0;
#X connect 127 0 148 0;
#X connect 128 0 112 0;
#X connect 128 1 113 0;
#X connect 128 2 115 0;
#X connect 128 3 116 0;
#X connect 128 4 117 0;
#X connect 128 5 118 0;
#X connect 128 6 119 0;
#X connect 128 7 120 0;
#X connect 129 0 131 0;
#X connect 130 0 138 0;
#X connect 131 0 149 0;
#X connect 132 0 139 0;
#X connect 133 0 140 0;
#X connect 134 0 141 0;
#X connect 135 0 144 0;
#X connect 136 0 143 0;
#X connect 137 0 142 0;
#X connect 138 0 149 0;
#X connect 139 0 149 0;
#X connect 140 0 149 0;
#X connect 141 0 149 0;
#X connect 142 0 149 0;
#X connect 143 0 149 0;
#X connect 144 0 149 0;
#X connect 145 0 129 0;
#X connect 145 1 130 0;
#X connect 145 2 132 0;
#X connect 145 3 133 0;
#X connect 145 4 134 0;
#X connect 145 5 135 0;
#X connect 145 6 136 0;
#X connect 145 7 137 0;
#X connect 146 0 17 0;
#X connect 147 0 17 0;
#X connect 148 0 17 0;
#X connect 149 0 17 0;
#X coords 0 -1 1 1 150 160 1 260 155;
