#N canvas 124 59 840 811 10;
#X obj 122 414 *~ 0;
#X obj 122 373 mtof;
#X obj 122 333 loadbang;
#X obj 184 414 *~ 0;
#X obj 184 373 mtof;
#X obj 184 333 loadbang;
#X obj 246 414 *~ 0;
#X obj 246 373 mtof;
#X obj 246 333 loadbang;
#X obj 308 414 *~ 0;
#X obj 308 373 mtof;
#X obj 308 333 loadbang;
#X obj 385 537 +~;
#X obj 386 600 *~ 0.1;
#X obj 750 374 vsl 15 128 0.01 1 1 0 empty empty empty 0 -8 0 8 -262144
-1 -1 0 1;
#X obj 383 633 dac~;
#X obj 743 520 - 0.01;
#X msg 233 254 \$8 \$7 \$6 \$5 \$4 \$3 \$2 \$1;
#X obj 372 412 *~ 0;
#X obj 372 371 mtof;
#X obj 372 331 loadbang;
#X obj 434 412 *~ 0;
#X obj 434 371 mtof;
#X obj 434 331 loadbang;
#X obj 496 412 *~ 0;
#X obj 496 371 mtof;
#X obj 496 331 loadbang;
#X obj 558 412 *~ 0;
#X obj 558 371 mtof;
#X obj 558 331 loadbang;
#X obj 235 284 unpack f f f f f f f f;
#X msg 292 -65 6 1 0 0 1 0 0 1;
#X msg 122 353 60;
#X msg 184 353 62;
#X msg 246 353 64;
#X msg 308 353 65;
#X msg 371 351 67;
#X msg 434 351 69;
#X msg 496 351 71;
#X msg 558 351 72;
#X obj 122 393 osc~;
#X obj 184 393 osc~;
#X obj 246 393 osc~;
#X obj 308 393 osc~;
#X obj 372 391 osc~;
#X obj 434 391 osc~;
#X obj 496 391 osc~;
#X obj 558 391 osc~;
#X obj 423 134 convert/byte2binary;
#X floatatom 447 63 5 0 0 0 - - -;
#X obj 376 198 pack f f f f f f f f f;
#X obj 394 176 unpack f f f f f f f f;
#X floatatom 42 34 5 0 0 0 - - -;
#X text 406 -66 column number followed by the eigth values of the toggles.
;
#X obj 109 75 seq/8x8_;
#X obj 398 88 t b f;
#X obj 344 112 random 8;
#X obj 344 133 + 1;
#X floatatom 350 154 5 0 0 0 - - -;
#X obj 441 242 gui/da;
#X obj 14 -31 timing/tempo_ 120 1 8;
#X obj 15 -61 loadbang;
#X text 111 -145 Description: Eight 8 step step beat sequencers.;
#X connect 0 0 12 0;
#X connect 1 0 40 0;
#X connect 2 0 32 0;
#X connect 3 0 12 0;
#X connect 4 0 41 0;
#X connect 5 0 33 0;
#X connect 6 0 12 1;
#X connect 7 0 42 0;
#X connect 8 0 34 0;
#X connect 9 0 12 1;
#X connect 10 0 43 0;
#X connect 11 0 35 0;
#X connect 12 0 13 0;
#X connect 13 0 15 0;
#X connect 13 0 15 1;
#X connect 14 0 16 0;
#X connect 16 0 13 1;
#X connect 17 0 30 0;
#X connect 18 0 12 0;
#X connect 19 0 44 0;
#X connect 20 0 36 0;
#X connect 21 0 12 1;
#X connect 22 0 45 0;
#X connect 23 0 37 0;
#X connect 24 0 12 1;
#X connect 25 0 46 0;
#X connect 26 0 38 0;
#X connect 27 0 12 0;
#X connect 28 0 47 0;
#X connect 29 0 39 0;
#X connect 30 0 0 1;
#X connect 30 1 3 1;
#X connect 30 2 6 1;
#X connect 30 3 9 1;
#X connect 30 4 18 1;
#X connect 30 5 21 1;
#X connect 30 6 24 1;
#X connect 30 7 27 1;
#X connect 31 0 54 1;
#X connect 32 0 1 0;
#X connect 33 0 4 0;
#X connect 34 0 7 0;
#X connect 35 0 10 0;
#X connect 36 0 19 0;
#X connect 37 0 22 0;
#X connect 38 0 25 0;
#X connect 39 0 28 0;
#X connect 40 0 0 0;
#X connect 41 0 3 0;
#X connect 42 0 6 0;
#X connect 43 0 9 0;
#X connect 44 0 18 0;
#X connect 45 0 21 0;
#X connect 46 0 24 0;
#X connect 47 0 27 0;
#X connect 48 0 51 0;
#X connect 49 0 55 0;
#X connect 50 0 54 1;
#X connect 50 0 59 0;
#X connect 51 0 50 1;
#X connect 51 1 50 2;
#X connect 51 2 50 3;
#X connect 51 3 50 4;
#X connect 51 4 50 5;
#X connect 51 5 50 6;
#X connect 51 6 50 7;
#X connect 51 7 50 8;
#X connect 52 0 54 0;
#X connect 54 0 17 0;
#X connect 55 0 56 0;
#X connect 55 1 48 0;
#X connect 56 0 57 0;
#X connect 57 0 58 0;
#X connect 58 0 50 0;
#X connect 60 0 52 0;
#X connect 61 0 60 0;
