#N canvas 679 22 493 528 10;
#X obj 88 187 cnv 15 100 100 empty empty empty 20 12 0 14 -258699 -66577
0;
#X obj 237 318 bng 15 250 50 0 empty empty empty 0 -6 0 8 -262144 -1
-1;
#X msg 237 205 record;
#X msg 239 227 stop;
#X msg 237 184 play;
#X msg 239 247 print;
#X text 201 63 Copyleft )c( Alexandre Quessy 2006;
#X msg 239 267 write chart.txt;
#X msg 240 287 read chart.txt;
#X msg 236 161 tempo \$1;
#X floatatom 236 144 5 0 0 0 - - -;
#X text 27 379 This one is an interface to qlist.;
#X msg 234 125 loop \$1;
#X obj 234 107 tgl 15 0 empty empty empty 0 -6 0 8 -262144 -1 -1 0
1;
#X floatatom 95 146 5 0 0 0 - - -;
#X msg 95 163 a \$1;
#X floatatom 133 147 5 0 0 0 - - -;
#X floatatom 135 324 5 0 0 0 - - -;
#X floatatom 93 323 5 0 0 0 - - -;
#X msg 133 164 b \$1;
#X text 24 447 If you want to save your chart \, you will need the
unique id to be the same when you open your patch again and read the
file. Therefore \, I recommend using a symbol or a number as a unique
id \, instead of a dollar-0.;
#X text 306 163 1 is the original speed;
#X text 259 318 Banged when done;
#X text 202 78 GNU public license v2.0;
#X obj 43 127 hsl 128 15 0 127 0 0 empty empty empty -2 -6 0 8 -262144
-1 -1 0 1;
#X obj 183 338 hsl 128 15 0 127 0 0 empty empty empty -2 -6 0 8 -262144
-1 -1 0 1;
#X text 38 110 Messages to be recorded;
#X obj 188 -5 cnv 15 15 15 empty empty seq/qtrack 20 12 0 24 -262144
-66577 0;
#X obj 39 60 cnv 15 400 1 empty empty empty 20 12 0 14 -66577 -66577
0;
#X text 25 400 You can record a sequence of any list. It will be played
back with the same timing. You can use arbitrary selectors and lists
of any length.;
#X msg 40 146 foo \$1;
#X obj 94 298 route a b foo;
#X obj 90 223 seq/qtrack id;
#X text 39 26 seq/qtrack <unique id>;
#X text 40 40 Description: Yet another sequencer abstraction;
#X connect 2 0 32 1;
#X connect 3 0 32 1;
#X connect 4 0 32 1;
#X connect 5 0 32 1;
#X connect 7 0 32 1;
#X connect 8 0 32 1;
#X connect 9 0 32 1;
#X connect 10 0 9 0;
#X connect 12 0 32 1;
#X connect 13 0 12 0;
#X connect 14 0 15 0;
#X connect 15 0 32 0;
#X connect 16 0 19 0;
#X connect 19 0 32 0;
#X connect 24 0 30 0;
#X connect 30 0 32 0;
#X connect 31 0 18 0;
#X connect 31 1 17 0;
#X connect 31 2 25 0;
#X connect 32 0 31 0;
#X connect 32 1 1 0;
