#N canvas 708 185 541 701 10;
#X text 14 2 Here the list of all the messages :;
#X msg 40 207 array 500 190;
#X msg 40 233 scalar 500 220;
#X msg 40 318 restore;
#X msg 40 292 connect \$1 \$2 \$3 \$4;
#X text 16 28 objects;
#X text 17 267 methods for reading files;
#X text 20 345 events;
#X msg 40 376 click \$1 \$2 \$3 \$4;
#X msg 40 426 mouseup \$1 \$2 \$3;
#X text 375 6 GUI stuff;
#X msg 375 30 menusave;
#X msg 375 56 menusaveas;
#X msg 375 82 menuclose;
#X msg 375 108 saveto;
#X msg 375 194 cut;
#X msg 375 217 copy;
#X msg 375 266 duplicate;
#X msg 375 134 tidy;
#X msg 375 160 texteditor;
#X msg 375 464 editmode \$1;
#X msg 375 536 print;
#X msg 375 622 pop;
#X msg 375 500 loadbang;
#X msg 375 572 relocate;
#X msg 375 307 menufont;
#X msg 375 331 font 10 100 100;
#X msg 375 402 findagain;
#X msg 375 426 findparent;
#X msg 375 598 vis;
#X obj 40 631 s pd-0.all_msg.pd;
#X obj 375 652 s pd-0.all_msg.pd;
#X msg 40 51 obj 300 10 r test;
#X msg 40 77 msg 300 40 bang;
#X msg 40 129 symbolatom 300 100 symbol;
#X msg 40 155 text 300 130 comment;
#X msg 40 181 graph;
#X msg 40 499 key 1 \$1;
#X text 456 81 Warnnig !!!;
#X text 426 109 ?????;
#X text 149 234 ?????;
#X msg 375 242 paste;
#X msg 375 379 find test;
#X text 443 570 ?????;
#X msg 40 401 motion \$1 \$2 \$3;
#X msg 40 103 floatatom 300 70;
#X connect 1 0 30 0;
#X connect 2 0 30 0;
#X connect 3 0 30 0;
#X connect 4 0 30 0;
#X connect 8 0 30 0;
#X connect 9 0 30 0;
#X connect 11 0 31 0;
#X connect 12 0 31 0;
#X connect 13 0 31 0;
#X connect 14 0 31 0;
#X connect 15 0 31 0;
#X connect 16 0 31 0;
#X connect 17 0 31 0;
#X connect 18 0 31 0;
#X connect 19 0 31 0;
#X connect 20 0 31 0;
#X connect 21 0 31 0;
#X connect 22 0 31 0;
#X connect 23 0 31 0;
#X connect 24 0 31 0;
#X connect 25 0 31 0;
#X connect 26 0 31 0;
#X connect 27 0 31 0;
#X connect 28 0 31 0;
#X connect 29 0 31 0;
#X connect 32 0 30 0;
#X connect 33 0 30 0;
#X connect 34 0 30 0;
#X connect 35 0 30 0;
#X connect 36 0 30 0;
#X connect 37 0 30 0;
#X connect 41 0 31 0;
#X connect 42 0 31 0;
#X connect 44 0 30 0;
#X connect 45 0 30 0;
