#N canvas 174 23 561 721 10;
#X text 14 2 Here the list of all the messages :;
#X msg 40 207 array 500 190;
#X msg 40 233 scalar 500 220;
#X msg 40 318 restore;
#X text 16 28 objects;
#X text 20 345 events;
#X msg 40 365 click \$1 \$2 \$3 \$4;
#X msg 40 415 mouseup \$1 \$2 \$3;
#X text 375 6 GUI stuff;
#X msg 375 30 menusave;
#X msg 375 56 menusaveas;
#X msg 375 82 menuclose;
#X msg 375 108 saveto;
#X msg 375 194 cut;
#X msg 375 216 copy;
#X msg 375 260 duplicate;
#X msg 375 134 tidy;
#X msg 375 160 texteditor;
#X msg 375 478 editmode \$1;
#X msg 375 550 print;
#X msg 375 622 pop;
#X msg 375 514 loadbang;
#X msg 375 321 menufont;
#X msg 375 345 font 10 100 100;
#X msg 375 416 findagain;
#X msg 375 440 findparent;
#X msg 40 51 obj 300 10 r test;
#X msg 40 77 msg 300 40 bang;
#X msg 40 129 symbolatom 300 100 symbol;
#X msg 40 155 text 300 130 comment;
#X msg 40 181 graph;
#X msg 40 442 key 1 \$1;
#X text 456 81 Warnnig !!!;
#X text 426 109 ?????;
#X text 149 234 ?????;
#X msg 375 238 paste;
#X msg 375 393 find test;
#X msg 40 390 motion \$1 \$2 \$3;
#X msg 40 103 floatatom 300 70;
#X msg 375 282 selectall;
#X text 22 462 reset the patch;
#X msg 40 483 clear;
#N canvas 0 22 494 344 subpatch 1;
#X restore 210 680 pd subpatch;
#X obj 40 679 s pd-subpatch;
#X obj 375 678 s pd-subpatch;
#X msg 40 289 connect 0 0 1 0;
#X text 22 256 make connections;
#X text 46 271 (connect obj# outlet# obj# inlet#);
#X text 144 208 ?????;
#X msg 40 530 read textfile.txt;
#X msg 40 555 write textfile.txt;
#X msg 375 602 vis \$1;
#X msg 275 646 vis 1 \, clear;
#X obj 275 624 loadbang;
#X text 24 509 for reading/writing data structures;
#X msg 40 598 relocate 10x20+300+400 20x30+400+500;
#X text 26 581 this apparently relocates windows;
#X connect 1 0 43 0;
#X connect 2 0 43 0;
#X connect 3 0 43 0;
#X connect 6 0 43 0;
#X connect 7 0 43 0;
#X connect 9 0 44 0;
#X connect 10 0 44 0;
#X connect 11 0 44 0;
#X connect 12 0 44 0;
#X connect 13 0 44 0;
#X connect 14 0 44 0;
#X connect 15 0 44 0;
#X connect 16 0 44 0;
#X connect 17 0 44 0;
#X connect 18 0 44 0;
#X connect 19 0 44 0;
#X connect 20 0 44 0;
#X connect 21 0 44 0;
#X connect 22 0 44 0;
#X connect 23 0 44 0;
#X connect 24 0 44 0;
#X connect 25 0 44 0;
#X connect 26 0 43 0;
#X connect 27 0 43 0;
#X connect 28 0 43 0;
#X connect 29 0 43 0;
#X connect 30 0 43 0;
#X connect 31 0 43 0;
#X connect 35 0 44 0;
#X connect 36 0 44 0;
#X connect 37 0 43 0;
#X connect 38 0 43 0;
#X connect 39 0 44 0;
#X connect 41 0 43 0;
#X connect 45 0 43 0;
#X connect 49 0 43 0;
#X connect 50 0 43 0;
#X connect 51 0 44 0;
#X connect 52 0 44 0;
#X connect 53 0 52 0;
