#N canvas 656 148 543 410 10;
#X msg 39 237 array 500 190;
#X msg 39 263 scalar 500 220;
#X msg 39 348 restore;
#X msg 39 322 connect \$1 \$2 \$3 \$4;
#X text 15 58 objects;
#X text 16 297 methods for reading files;
#X msg 39 81 obj 300 10 r test;
#X msg 39 107 msg 300 40 bang;
#X msg 39 133 floatatom 300 70 symbol;
#X msg 39 159 symbolatom 300 100 symbol;
#X msg 39 185 text 300 130 comment;
#X msg 39 211 graph;
#X text 148 264 ?????;
#X obj 39 383 s pd-1.0.objects.pd;
#X text 110 348 ??????;
#X text 16 7 Here the list of all the messages;
#X text 17 24 that deals with objects.;
#X connect 0 0 13 0;
#X connect 1 0 13 0;
#X connect 2 0 13 0;
#X connect 3 0 13 0;
#X connect 6 0 13 0;
#X connect 7 0 13 0;
#X connect 8 0 13 0;
#X connect 9 0 13 0;
#X connect 10 0 13 0;
#X connect 11 0 13 0;
