#N canvas 22 196 222 608 10;
#X text 17 121 GUI stuff;
#X msg 17 145 menusave;
#X msg 17 171 menusaveas;
#X msg 17 197 menuclose;
#X msg 17 223 saveto;
#X msg 17 249 tidy;
#X msg 17 275 texteditor;
#X msg 17 434 editmode \$1;
#X msg 35 408 0;
#X msg 69 408 1;
#X msg 17 460 print;
#X msg 17 301 menufont;
#X msg 17 353 findagain;
#X msg 17 379 findparent;
#X text 68 222 ?????;
#X msg 17 327 find test;
#X obj 17 496 s pd-2.menu.pd;
#X text 98 196 Warnning !!!;
#X text 15 14 Thoes msg will do exactly;
#X text 17 33 what the corresponding;
#X text 19 52 menu do.;
#X connect 1 0 16 0;
#X connect 2 0 16 0;
#X connect 3 0 16 0;
#X connect 4 0 16 0;
#X connect 5 0 16 0;
#X connect 6 0 16 0;
#X connect 7 0 16 0;
#X connect 8 0 7 0;
#X connect 9 0 7 0;
#X connect 10 0 16 0;
#X connect 11 0 16 0;
#X connect 12 0 16 0;
#X connect 13 0 16 0;
#X connect 15 0 16 0;
