#N canvas 204 161 381 325 10;
#X msg 36 86 click \$1 \$2 \$3 \$4;
#X obj 111 182 key;
#X floatatom 111 208 0 0 0;
#X floatatom 50 184 0 0 0;
#X msg 50 158 0;
#X msg 6 6 bang;
#X text 56 41 left;
#X text 124 41 rigth;
#X text 70 4 Msg-dealing with events :;
#X text 89 28 click;
#X text 218 47 \$1 x;
#X text 219 65 \$2 y;
#X text 218 117 \$4 mod (0:nomod \; 1 shift \; 2 crtl \; 3 alt \; 4
right click);
#X obj 36 290 s pd-3.0.events.pd;
#X text 218 86 \$3 (unuse ???);
#X msg 36 129 mouseup \$1 \$2 \$4;
#X msg 113 60 15 15 0 8;
#X msg 36 60 15 15 0 1;
#X text 59 232 \$1 number of the key;
#X msg 36 209 key 1 \$1;
#X msg 36 257 motion \$1 \$2 \$4;
#X connect 0 0 13 0;
#X connect 1 0 2 0;
#X connect 3 0 19 0;
#X connect 4 0 3 0;
#X connect 15 0 13 0;
#X connect 16 0 0 0;
#X connect 17 0 0 0;
#X connect 19 0 13 0;
#X connect 20 0 13 0;
