#N canvas 235 178 665 456 10;
#X obj 61 208 route 1 2 3 4 5 6;
#X obj 18 33 vradio 22 1 0 7 empty empty empty 0 -6 0 8 -262144 -1
-1 0;
#X obj 31 228 stage;
#X obj 31 342 stage;
#X obj 31 323 stage;
#X obj 31 304 stage;
#X obj 31 285 stage;
#X obj 31 266 stage;
#X obj 31 247 stage;
#X msg 533 373 \; --------------;
#X msg 427 373 \; --------------;
#X obj 98 392 install;
#X obj 39 34 delay 11111;
#X obj 39 56 delay 111;
#X obj 39 78 delay 1;
#X obj 39 101 delay 1.11111e+09;
#X obj 39 145 delay 11;
#X obj 39 168 delay 1111;
#X obj 39 123 delay 1.1111e+08;
#X obj 39 7 loadbang;
#X obj 77 366 tabread array;
#X msg 191 374 \; -----------------------------;
#X connect 0 0 2 1;
#X connect 0 1 8 1;
#X connect 0 2 7 1;
#X connect 0 3 6 1;
#X connect 0 4 5 1;
#X connect 0 5 4 1;
#X connect 0 6 3 1;
#X connect 3 0 20 0;
#X connect 9 0 11 0;
#X connect 10 0 11 0;
#X connect 12 0 0 0;
#X connect 13 0 0 0;
#X connect 14 0 0 0;
#X connect 15 0 0 0;
#X connect 16 0 0 0;
#X connect 17 0 0 0;
#X connect 18 0 0 0;
#X connect 19 0 12 0;
#X connect 20 0 11 0;
#X connect 21 0 11 0;
