#N canvas 769 55 458 308 10;
#X obj 258 13 import maxlib cyclone zexy;
#X obj 141 112 netserver 47292;
#X obj 68 83 prepend broadcast;
#X obj 153 204 prepend;
#X obj 197 176 makesymbol client%s_%s;
#X obj 197 151 pack float symbol;
#X connect 1 0 3 0;
#X connect 1 2 5 0;
#X connect 1 3 5 1;
#X connect 2 0 1 0;
#X connect 3 0 2 0;
#X connect 4 0 3 1;
#X connect 5 0 4 0;
