#N canvas 23 36 964 605 10;
#X obj 241 386 cnv 15 69 16 empty empty 69x16 2 12 0 9 -128992 -66577
0;
#X obj 241 355 cnv 15 78 20 empty empty 78x20 2 12 0 9 -128992 -66577
0;
#X obj 611 387 cnv 15 70 17 empty empty 70x17 2 12 0 9 -128992 -66577
0;
#X text 21 389 Mac OS X;
#X text 20 357 Windows;
#X text 21 417 GNU/Linux;
#X obj 711 387 cnv 15 70 17 empty empty 70x17 2 12 0 9 -128992 -66577
0;
#X obj 811 387 cnv 15 60 15 empty empty 60x15 2 12 0 9 -128992 -66577
0;
#X obj 580 162 cnv 15 100 60 empty empty courier8 20 12 0 8 -233017
-66577 0;
#X msg 599 166 courier10;
#X obj 710 92 cnv 15 100 60 empty empty courier9 20 12 0 9 -233017
-66577 0;
#X msg 730 94 courier10;
#X obj 611 357 cnv 15 60 17 empty empty 60x17 2 12 0 9 -128992 -66577
0;
#X obj 711 357 cnv 15 60 17 empty empty 60x17 2 12 0 9 -128992 -66577
0;
#X obj 241 416 cnv 15 87 19 empty empty 87x19 2 12 0 9 -128992 -66577
0;
#X text 17 314 these represent the size of this message box:;
#X msg 346 313 courier10;
#X text 15 1 the fonts line up on these platforms:;
#X obj 139 35 cnv 15 100 60 empty empty courier10 20 12 0 9 -233017
-66577 0;
#X msg 157 41 courier10;
#X obj 103 389 cnv 15 69 16 empty empty 69x16 2 12 0 9 -128992 -66577
0;
#X text 91 334 0.39.2-extended-RC1;
#X text 240 335 0.39.2-extended-test7;
#X text 613 335 0.39-2;
#X text 713 334 0.40-2;
#X text 803 334 devel 0.39-1test1;
#X obj 401 386 cnv 15 69 16 empty empty 69x16 2 12 0 9 -128992 -66577
0;
#X text 400 335 0.38.4-extended;
#X obj 522 387 cnv 15 70 17 empty empty 70x17 2 12 0 9 -128992 -66577
0;
#X text 524 335 0.38-4;
#X text 18 444 these represent the size of this comment:;
#X obj 140 240 cnv 15 100 60 empty empty courier10 20 12 0 10 -233017
-66577 0;
#X msg 158 243 courier10;
#X obj 100 500 cnv 7 52 7 empty empty 52x7 2 15 0 11 -128992 -66577
0;
#X text 21 499 Mac OS X;
#X text 20 467 Windows;
#X text 21 527 GNU/Linux;
#X obj 714 500 cnv 7 63 8 empty empty 63x8 2 15 0 11 -128992 -66577
0;
#X obj 404 500 cnv 7 62 7 empty empty 62x7 2 15 0 11 -128992 -66577
0;
#X obj 20 170 cnv 15 100 60 empty empty courier10 20 12 0 12 -233017
-66577 0;
#X msg 39 174 courier10;
#X text 47 212 12 pt;
#X text 176 284 10pt;
#X text 746 129 9 pt;
#X obj 20 35 cnv 15 100 60 empty empty courier10 20 12 0 12 -233017
-66577 0;
#X msg 39 39 courier10;
#X text 47 77 12 pt;
#X text 40 64 0.38-4;
#X text 40 199 0.40-2;
#X text 139 64 devel 0.39-1test1;
#X text 140 265 0.39-2-extended-rc1;
#X text 32 16 ---------- Mac OS X ----------;
#X obj 524 500 cnv 7 63 8 empty empty 63x8 2 15 0 11 -128992 -66577
0;
#X text 435 442 ----------------------------------------------------------
;
#X text 445 312 ----------------------------------------------------------
;
#X obj 614 500 cnv 7 63 8 empty empty 63x8 2 15 0 11 -128992 -66577
0;
#X obj 21 102 cnv 15 100 60 empty empty courier10 20 12 0 12 -233017
-66577 0;
#X msg 40 106 courier10;
#X text 48 144 12 pt;
#X text 41 131 0.39-2;
#X text 141 78 9 pt (closest);
#X obj 810 500 cnv 6 53 6 empty empty 53x6 2 15 0 11 -128992 -66577
0;
#X obj 580 92 cnv 15 100 60 empty empty courier8 20 12 0 8 -233017
-66577 0;
#X msg 599 96 courier10;
#X text 608 113 0.39-2;
#X text 602 16 ---------- Windows ----------;
#X text 588 129 8 pt (closest);
#X text 609 186 0.40-2;
#X obj 614 470 cnv 5 51 5 empty empty 51x5 2 15 0 11 -128992 -66577
0;
#X text 586 202 8 pt (closest);
#X obj 714 470 cnv 5 51 5 empty empty 51x5 2 15 0 11 -128992 -66577
0;
#X text 336 443 courier10;
#X obj 290 92 cnv 15 100 60 empty empty courier10 20 12 0 8 -233017
-66577 0;
#X msg 309 96 courier10;
#X text 318 113 0.39-2;
#X text 312 16 ---------- GNU/Linux ----------;
#X text 711 113 0.39.2-extended-test7;
#X obj 102 416 cnv 15 62 17 empty empty 62x17 2 12 0 9 -128992 -66577
0;
#X obj 420 242 cnv 15 100 60 empty empty courier10 20 12 0 8 -233017
-66577 0;
#X msg 438 246 courier10;
#X text 421 263 0.39.2-extended-RC1;
#X text 456 279 8 pt;
#X obj 100 530 cnv 7 53 6 empty empty 53x6 2 15 0 11 -128992 -66577
0;
#X obj 610 414 cnv 15 69 17 empty empty 69x17 2 12 0 9 -128992 -66577
0;
#X obj 614 530 cnv 7 61 8 empty empty 61x8 2 15 0 11 -128992 -66577
0;
#X text 328 129 8 pt;
