#N canvas 59 185 576 424 10;
#X floatatom 171 18 5 0 0 0 - - -;
#X obj 136 192 dac~;
#X obj 70 3 adc~;
#X obj 171 -7 hsl 128 15 0 127 0 0 empty empty empty -2 -6 0 8 -262144
-1 -1 3900 1;
#X obj 232 41 hsl 128 15 0 127 0 0 empty empty empty -2 -6 0 8 -262144
-1 -1 0 1;
#X obj 113 93 fx/cmreverb~;
#X text 60 -85 Comment: Original patch by Claude H.;
#X text 65 -106 Description: A simple stereo reverb.;
#X floatatom 230 64 5 0 0 0 - - -;
#X obj 292 90 nbx 5 14 0 127 0 0 empty empty wetness(0-127) 0 -6 0
10 -262144 -1 -1 0 256;
#X text 310 -10 feedback (0-127);
#X text 365 41 delay (0-127);
#X connect 0 0 5 2;
#X connect 2 0 5 0;
#X connect 2 0 5 1;
#X connect 3 0 0 0;
#X connect 4 0 8 0;
#X connect 5 0 1 0;
#X connect 5 1 1 1;
#X connect 8 0 5 3;
#X connect 9 0 5 4;
