#N canvas 144 180 869 554 10;
#X obj 281 244 *~;
#X obj 286 310 dac~;
#X floatatom 476 88 5 0 127 0 - - -;
#X floatatom 287 90 5 0 127 0 - - -;
#X floatatom 287 52 5 0 127 0 - - -;
#X text 326 50 Distort positive and negative;
#X text 321 89 Distort positive;
#X text 513 88 Distort negative;
#X obj 197 43 osc~ 30;
#X obj 174 81 *~ 0.9;
#X text 336 161 argument 1: positive distortion;
#X text 334 178 argument 2: negative distortion;
#X obj 167 163 fx/dist~ 64 64;
#X obj 323 230 hsl 128 15 0 1 0 0 empty empty empty -2 -6 0 8 -262144
-1 -1 0 1;
#X text 458 230 Volume;
#X text -72 7 Description: A simple distortion. Positive and negative
distortion can be set independently.;
#X obj -78 179 anal/scope_~ 1;
#X obj 94 346 anal/scope_~ 1;
#X connect 0 0 1 0;
#X connect 0 0 1 1;
#X connect 2 0 12 2;
#X connect 3 0 12 1;
#X connect 4 0 2 0;
#X connect 4 0 3 0;
#X connect 8 0 9 0;
#X connect 9 0 12 0;
#X connect 9 0 16 0;
#X connect 12 0 0 0;
#X connect 12 0 17 0;
#X connect 13 0 0 1;
