#N canvas 349 131 626 518 12;
#X obj 27 182 inlet~;
#X obj 45 393 outlet~;
#X obj 42 268 +~;
#X obj 105 283 -~;
#X obj 125 378 delwrite~ \$0fb \$1;
#X obj 125 222 vd~ \$0fb;
#X text 67 24 Based on a patch that appears as an abstraction in patch
44;
#X obj 149 68 inlet~;
#X obj 128 188 *~ \$1;
#X obj 348 74 inlet;
#X obj 305 167 / 127;
#X obj 287 203 clip 0 1;
#X obj 386 108 loadbang;
#X obj 327 134 f \$2;
#X obj 124 352 *~ 0;
#X obj 165 104 /~ 127;
#X connect 0 0 2 0;
#X connect 0 0 3 0;
#X connect 2 0 1 0;
#X connect 3 0 14 0;
#X connect 5 0 2 1;
#X connect 5 0 3 1;
#X connect 7 0 15 0;
#X connect 8 0 5 0;
#X connect 9 0 13 0;
#X connect 10 0 11 0;
#X connect 11 0 14 1;
#X connect 12 0 13 0;
#X connect 13 0 10 0;
#X connect 14 0 4 0;
#X connect 15 0 8 0;
