#N canvas 178 74 549 375 10;
#X obj 87 202 inlet~;
#X obj 88 301 outlet~;
#X obj 2 2 cnv 15 370 56 empty empty empty 20 12 0 15 -249661 -233017
0;
#X obj 2 2 cnv 10 10 55 empty empty ::EQ:: 16 8 0 8 -237178 -33289
0;
#X obj 287 202 inlet~;
#X obj 287 301 outlet~;
#X obj 327 43 bng 8 250 50 0 empty empty reset 2 -4 0 8 -33289 -262144
-1;
#X obj 16 -19 init/lf 0;
#N canvas 0 0 724 522 hml_shelf 0;
#X floatatom 288 116 5 2 9999 0 - - -;
#X text 330 116 ms;
#X obj 74 140 hml_shelf~ 6 100 0 4000 -6 200;
#X obj 355 25 vsl 15 49 27.5 440 1 1 empty empty low_freq. -8 -8 0
8 -262144 -1 -1 1200 1;
#X obj 108 28 vsl 15 81 -40 40 0 1 empty empty low_level -18 -8 0 8
-262144 -1 -1 3000 1;
#X obj 176 27 vsl 15 81 -40 40 0 1 empty empty mid_level -10 -8 0 8
-262144 -1 -1 4000 1;
#X obj 244 26 vsl 15 81 -40 40 0 1 empty empty high_level 0 -8 0 8
-262144 -1 -1 3000 1;
#X text 372 19 -440Hz;
#X text 372 67 -27.5Hz;
#X text 372 43 -110Hz;
#X obj 426 25 vsl 15 49 880 14080 1 1 empty empty high_freq. -8 -8
0 8 -262144 -1 -1 3800 1;
#X text 443 19 -14080Hz;
#X text 443 67 -880Hz;
#X text 443 43 -3520Hz;
#X floatatom 108 117 4 0 0 0 - - -;
#X floatatom 175 113 4 0 0 0 - - -;
#X floatatom 244 115 4 0 0 0 - - -;
#X floatatom 355 96 8 0 0 0 - - -;
#X floatatom 426 96 8 0 0 0 - - -;
#X text 124 23 +40;
#X text 126 62 0;
#X text 124 102 -40;
#X text 194 61 0;
#X text 192 101 -40;
#X text 192 22 +40;
#X text 260 21 +40;
#X text 262 60 0;
#X text 260 100 -40;
#X text 107 0 dB;
#X text 174 -2 dB;
#X text 243 -2 dB;
#X obj 75 -68 inlet~;
#X obj 314 266 outlet~;
#X obj 428 265 switch~;
#X obj 314 242 mix/switchwhen~ 1;
#X obj 428 137 inlet;
#X obj 428 157 sel 0;
#X msg 428 219 0;
#X obj 428 200 t b;
#X msg 464 220 1;
#X obj 471 197 flow/once;
#X obj 471 178 t b;
#X obj 116 -41 inlet;
#X obj 165 -41 inlet;
#X obj 217 -41 inlet;
#X obj 358 -40 inlet;
#X obj 263 -41 inlet;
#X obj 309 -41 inlet;
#X connect 0 0 2 6;
#X connect 2 0 34 0;
#X connect 3 0 17 0;
#X connect 4 0 14 0;
#X connect 5 0 15 0;
#X connect 6 0 16 0;
#X connect 10 0 18 0;
#X connect 14 0 2 1;
#X connect 15 0 2 3;
#X connect 16 0 2 5;
#X connect 17 0 2 2;
#X connect 18 0 2 4;
#X connect 31 0 2 0;
#X connect 34 0 32 0;
#X connect 34 1 33 0;
#X connect 35 0 36 0;
#X connect 36 0 38 0;
#X connect 36 1 41 0;
#X connect 37 0 34 1;
#X connect 38 0 37 0;
#X connect 38 0 40 1;
#X connect 39 0 34 1;
#X connect 40 0 39 0;
#X connect 41 0 40 0;
#X connect 42 0 2 1;
#X connect 43 0 2 3;
#X connect 44 0 2 5;
#X connect 45 0 2 6;
#X connect 46 0 2 2;
#X connect 47 0 2 4;
#X restore 311 236 pd hml_shelf;
#N canvas 265 316 724 522 hml_shelf 0;
#X floatatom 288 116 5 2 9999 0 - - -;
#X text 330 116 ms;
#X obj 74 140 hml_shelf~ 6 100 0 4000 -6 200;
#X obj 355 25 vsl 15 49 27.5 440 1 1 empty empty low_freq. -8 -8 0
8 -262144 -1 -1 1200 1;
#X obj 108 28 vsl 15 81 -40 40 0 1 empty empty low_level -18 -8 0 8
-262144 -1 -1 3000 1;
#X obj 176 27 vsl 15 81 -40 40 0 1 empty empty mid_level -10 -8 0 8
-262144 -1 -1 4000 1;
#X obj 244 26 vsl 15 81 -40 40 0 1 empty empty high_level 0 -8 0 8
-262144 -1 -1 3000 1;
#X text 372 19 -440Hz;
#X text 372 67 -27.5Hz;
#X text 372 43 -110Hz;
#X obj 426 25 vsl 15 49 880 14080 1 1 empty empty high_freq. -8 -8
0 8 -262144 -1 -1 3800 1;
#X text 443 19 -14080Hz;
#X text 443 67 -880Hz;
#X text 443 43 -3520Hz;
#X floatatom 108 117 4 0 0 0 - - -;
#X floatatom 175 113 4 0 0 0 - - -;
#X floatatom 244 115 4 0 0 0 - - -;
#X floatatom 355 96 8 0 0 0 - - -;
#X floatatom 426 96 8 0 0 0 - - -;
#X text 124 23 +40;
#X text 126 62 0;
#X text 124 102 -40;
#X text 194 61 0;
#X text 192 101 -40;
#X text 192 22 +40;
#X text 260 21 +40;
#X text 262 60 0;
#X text 260 100 -40;
#X text 107 0 dB;
#X text 174 -2 dB;
#X text 243 -2 dB;
#X obj 75 -68 inlet~;
#X obj 314 266 outlet~;
#X obj 428 265 switch~;
#X obj 314 242 mix/switchwhen~ 1;
#X obj 428 137 inlet;
#X obj 428 157 sel 0;
#X msg 428 219 0;
#X obj 428 200 t b;
#X msg 464 220 1;
#X obj 471 197 flow/once;
#X obj 471 178 t b;
#X obj 116 -41 inlet;
#X obj 165 -41 inlet;
#X obj 217 -41 inlet;
#X obj 358 -40 inlet;
#X obj 263 -41 inlet;
#X obj 309 -41 inlet;
#X connect 0 0 2 6;
#X connect 2 0 34 0;
#X connect 3 0 17 0;
#X connect 4 0 14 0;
#X connect 5 0 15 0;
#X connect 6 0 16 0;
#X connect 10 0 18 0;
#X connect 14 0 2 1;
#X connect 15 0 2 3;
#X connect 16 0 2 5;
#X connect 17 0 2 2;
#X connect 18 0 2 4;
#X connect 31 0 2 0;
#X connect 34 0 32 0;
#X connect 34 1 33 0;
#X connect 35 0 36 0;
#X connect 36 0 38 0;
#X connect 36 1 41 0;
#X connect 37 0 34 1;
#X connect 38 0 37 0;
#X connect 38 0 40 1;
#X connect 39 0 34 1;
#X connect 40 0 39 0;
#X connect 41 0 40 0;
#X connect 42 0 2 1;
#X connect 43 0 2 3;
#X connect 44 0 2 5;
#X connect 45 0 2 6;
#X connect 46 0 2 2;
#X connect 47 0 2 4;
#X restore 112 233 pd hml_shelf;
#X obj 19 39 hsl 40 12 0 127 0 0 empty empty :dry/wet: -2 -8 0 8 -33289
-262144 -33289 0 1;
#X obj 287 265 mix/wet~;
#X msg 348 272 curve \$1;
#X obj 348 257 nbx 5 14 -1e+37 1e+37 0 1 empty empty empty 0 -8 0 10
-262144 -1 -1 1 256;
#X obj 403 255 init/lf 1;
#X obj 88 265 mix/wet~;
#X msg 151 271 curve \$1;
#X obj 151 256 nbx 5 14 -1e+37 1e+37 0 1 empty empty empty 0 -8 0 10
-262144 -1 -1 1 256;
#X obj 206 254 init/lf 1;
#X msg 376 23 0;
#X obj 79 7 hsl 65 12 -40 40 0 0 empty empty low 4 6 0 10 -33289 -195568
-262144 3200 1;
#X obj 79 24 hsl 65 12 -40 40 0 0 empty empty mid 4 6 0 10 -33289 -195568
-262144 3200 1;
#X obj 79 40 hsl 65 12 -40 40 0 0 empty empty high 4 6 0 10 -33289
-195568 -262144 3200 1;
#X obj 93 -19 gui/label 0 low dB;
#X obj 233 -19 gui/label 0 mid dB;
#X obj 373 -19 gui/label 0 high dB;
#X obj 361 2 cnv 10 10 55 empty empty empty 16 8 0 8 -237178 -33289
0;
#X obj 158 7 hsl 95 12 27.5 440 0 0 empty empty lowcut 4 6 0 10 -33289
-195568 -262144 627 1;
#X obj 376 3 gui/label 55 lowcut Hz;
#X obj 158 24 hsl 95 12 880 14080 0 0 empty empty highcut 4 6 0 10
-33289 -195568 -262144 5001 1;
#X obj 376 43 gui/label 7902.13 highcut Hz;
#X msg 327 70 55;
#X msg 327 93 7901.13;
#X obj 265 7 hsl 85 12 1 5000 0 0 empty empty release 4 6 0 10 -33289
-195568 -262144 96 1;
#X msg 327 115 50;
#X obj 376 63 gui/label 55 release ms;
#X connect 0 0 15 0;
#X connect 0 0 9 0;
#X connect 4 0 11 0;
#X connect 4 0 8 0;
#X connect 6 0 19 0;
#X connect 6 0 32 0;
#X connect 6 0 31 0;
#X connect 6 0 34 0;
#X connect 7 0 10 0;
#X connect 8 0 11 1;
#X connect 9 0 15 1;
#X connect 10 0 9 7;
#X connect 10 0 8 7;
#X connect 10 0 15 2;
#X connect 10 0 11 2;
#X connect 11 0 5 0;
#X connect 12 0 11 2;
#X connect 13 0 12 0;
#X connect 14 0 13 0;
#X connect 15 0 1 0;
#X connect 16 0 15 2;
#X connect 17 0 16 0;
#X connect 18 0 17 0;
#X connect 19 0 21 0;
#X connect 19 0 22 0;
#X connect 19 0 20 0;
#X connect 20 0 9 1;
#X connect 20 0 8 1;
#X connect 20 0 23 0;
#X connect 21 0 9 2;
#X connect 21 0 8 2;
#X connect 21 0 24 0;
#X connect 22 0 8 3;
#X connect 22 0 9 3;
#X connect 22 0 25 0;
#X connect 23 0 20 0;
#X connect 24 0 21 0;
#X connect 25 0 22 0;
#X connect 27 0 28 0;
#X connect 27 0 8 4;
#X connect 27 0 9 4;
#X connect 28 0 27 0;
#X connect 29 0 30 0;
#X connect 29 0 9 5;
#X connect 29 0 8 5;
#X connect 30 0 29 0;
#X connect 31 0 27 0;
#X connect 32 0 29 0;
#X connect 33 0 9 6;
#X connect 33 0 8 6;
#X connect 33 0 35 0;
#X connect 34 0 33 0;
#X connect 35 0 33 0;
#X coords 0 -1 1 1 372 58 1 1 1;
