#N canvas 356 354 434 358 10;


#X obj 284 188 loadbang;
#X msg 284 213 10;
#X obj 121 14 r \$0.y-size-s;
#X obj 92 -6 r \$0.x-size-s;
#X obj 1 1 nbx 3 14 0 1e+37 0 0 \$0.x-off-s \$0.x-off-r x-offs 40 7
0 10 -262144 -1 -1 0 256;
#X obj 1 15 nbx 3 14 0 1e+37 0 0 \$0.y-off-s \$0.y-off-r y-offs 40
7 0 10 -262144 -1 -1 0 256;
#X obj 92 78 hotpack f f f f;
#X obj 150 34 r \$0.x-off-s;
#X obj 179 54 r \$0.y-off-s;
#X msg 92 101 donecanvasdialog 1 -1 2 0 -1 1 1 \$1 \$2 \$3 \$4;
#X obj 325 55 import-disabled iemguts;
#X obj 92 133 sendcanvas 1;
#X obj 1 41 nbx 3 14 0 1e+37 0 0 \$0.x-size-s \$0.x-size-r x-size 40
7 0 10 -262144 -1 -1 0 256;
#X obj 1 55 nbx 3 14 0 1e+37 0 0 \$0.y-size-s \$0.y-size-r y-size 40
7 0 10 -262144 -1 -1 0 256;
#X obj 19 30 cnv 10 43 10 empty empty gop-edit 2 5 0 8 -260129 -262144
0;
#X obj 284 302 s \$0.y-size-r;
#X obj 284 242 s \$0.x-off-r;
#X obj 284 262 s \$0.y-off-r;
#X obj 284 282 s \$0.x-size-r;
#X connect 0 0 1 0;
#X connect 1 0 16 0;
#X connect 1 0 17 0;
#X connect 1 0 18 0;
#X connect 1 0 15 0;
#X connect 2 0 6 1;
#X connect 3 0 6 0;
#X connect 6 0 9 0;
#X connect 7 0 6 2;
#X connect 8 0 6 3;
#X connect 9 0 11 0;
#X coords 0 -1 1 1 85 70 2 0 0;
