#N canvas 469 180 164 138 10;
#X obj 23 21 r \$1\$2;
#X obj 23 101 s \$1\$2R;
#X obj 93 21 r \$1\$2D;
#X obj 91 101 s \$1\$2DR;
#X msg 23 53 set \$1;
#X connect 0 0 4 0;
#X connect 2 0 1 0;
#X connect 4 0 3 0;
