#N canvas 145 92 239 311 10;
#X obj 72 131 list split 1;
#X obj 72 181 t b a;
#X msg 129 155 0;
#X obj 25 218 sdeeprouteOSC;
#X obj 25 247 outlet;
#X obj 105 87 inlet learn?;
#X obj 144 249 outlet;
#X obj 72 155 spigot;
#X obj 25 58 r OSCIN;
#X connect 0 0 7 0;
#X connect 1 0 2 0;
#X connect 1 1 3 1;
#X connect 1 1 6 0;
#X connect 2 0 7 1;
#X connect 3 0 4 0;
#X connect 5 0 7 1;
#X connect 7 0 1 0;
#X connect 8 0 0 0;
#X connect 8 0 3 0;
