#N canvas 59 429 450 300 10;
#X obj 123 127 list-find;
#X obj 123 84 list append \$1;
#X obj 123 14 inlet;
#X obj 123 156 once;
#X obj 123 47 t b a b a;
#X obj 124 229 list split;
#X obj 124 204 list;
#X obj 124 178 t b a;
#X obj 124 273 outlet;
#X obj 195 269 outlet;
#X connect 0 0 3 0;
#X connect 1 0 0 0;
#X connect 2 0 4 0;
#X connect 3 0 7 0;
#X connect 4 0 1 0;
#X connect 4 1 0 1;
#X connect 4 2 3 1;
#X connect 4 3 6 1;
#X connect 5 0 8 0;
#X connect 5 1 9 0;
#X connect 6 0 5 0;
#X connect 7 0 6 0;
#X connect 7 1 5 1;
