#N canvas 804 104 455 638 10;
#X obj 103 318 textfile;
#X obj 103 366 route #X;
#X obj 103 387 route connect;
#X obj 50 271 until;
#X obj 50 145 t b b;
#X obj 50 46 loadbang;
#X obj 103 435 unpack f f f f;
#X obj 103 519 pack f f f f;
#X obj 103 581 sendcanvas 1;
#X obj 208 443 r \$0.index-offset;
#X obj 149 479 +;
#X obj 103 479 +;
#X msg 103 551 connect \$1 \$2 \$3 \$4;
#X obj 69 98 canvasindex;
#X obj 132 125 s \$0.index-offset;
#N canvas 342 115 467 373 offset-coords 0;
#X obj 47 3 inlet;
#X obj 46 334 outlet;
#X obj 47 78 list split 1;
#X obj 96 113 list split 2;
#X obj 110 256 list append;
#X obj 47 282 list append;
#X obj 194 181 +;
#X obj 194 152 unpack f f;
#X obj 209 94 unpack f f;
#X obj 251 182 +;
#X obj 194 211 pack f f;
#X obj 208 62 inlet;
#X obj 46 309 list trim;
#X obj 266 122 + 20;
#X text 301 123 spawn under [templater];
#X connect 0 0 2 0;
#X connect 2 0 5 0;
#X connect 2 1 3 0;
#X connect 3 0 7 0;
#X connect 3 1 4 1;
#X connect 4 0 5 1;
#X connect 5 0 12 0;
#X connect 6 0 10 0;
#X connect 7 0 6 0;
#X connect 7 1 9 0;
#X connect 8 0 6 1;
#X connect 8 1 13 0;
#X connect 9 0 10 1;
#X connect 10 0 4 0;
#X connect 11 0 8 0;
#X connect 12 0 1 0;
#X connect 13 0 9 1;
#X restore 199 387 pd offset-coords;
#X obj 199 409 sendcanvas 1;
#X obj 292 362 canvasposition;
#X obj 50 74 t b b b;
#X obj 113 75 s \$0.get-position;
#X obj 292 292 r \$0.get-position;
#X obj 102 174 list append \$1;
#X obj 102 198 route float;
#X msg 103 235 read \$1-template.pd \, rewind;
#X obj 292 339 sel 0;
#X text 304 16 *optional;
#X obj 292 316 list append \$2;
#X text 86 16 [templater templatename absolute?*];
#X text 286 602 2008 Luke Iannini;
#X connect 0 0 1 0;
#X connect 0 1 3 1;
#X connect 1 0 2 0;
#X connect 2 0 6 0;
#X connect 2 1 15 0;
#X connect 3 0 0 0;
#X connect 4 0 3 0;
#X connect 4 1 21 0;
#X connect 5 0 18 0;
#X connect 6 0 11 0;
#X connect 6 1 7 1;
#X connect 6 2 10 0;
#X connect 6 3 7 3;
#X connect 7 0 12 0;
#X connect 9 0 11 1;
#X connect 9 0 10 1;
#X connect 10 0 7 2;
#X connect 11 0 7 0;
#X connect 12 0 8 0;
#X connect 13 1 14 0;
#X connect 15 0 16 0;
#X connect 17 0 15 1;
#X connect 18 0 4 0;
#X connect 18 1 13 0;
#X connect 18 2 19 0;
#X connect 20 0 26 0;
#X connect 21 0 22 0;
#X connect 22 1 23 0;
#X connect 23 0 0 0;
#X connect 24 0 17 0;
#X connect 26 0 24 0;
