#N canvas 58 168 454 304 10;
#X obj 155 147 route 1 bla;
#X msg 147 44 list bla hu;
#X obj 147 185 bng 15 250 50 0 empty empty empty 17 7 0 10 -262144
-1 -1;
#X obj 182 189 bng 15 250 50 0 empty empty empty 17 7 0 10 -262144
-1 -1;
#X obj 230 188 bng 15 250 50 0 empty empty empty 17 7 0 10 -262144
-1 -1;
#X msg 96 44 bla hu;
#X msg 187 104 1 two;
#X msg 231 104 list 1 two;
#X connect 0 0 2 0;
#X connect 0 1 3 0;
#X connect 0 2 4 0;
#X connect 1 0 0 0;
#X connect 5 0 0 0;
#X connect 6 0 0 0;
#X connect 7 0 0 0;
