#N canvas 242 94 904 607 10;
#X msg 48 59 symbol pie;
#X msg 67 111 pie;
#X text 127 59 a symbol;
#X floatatom 96 337 5 0 0 0 - - -;
#X symbolatom 144 336 10 0 0 0 - - -;
#X obj 49 357 bng 15 250 50 0 empty empty bang -6 23 1 12 -262144 -1
-1;
#X obj 49 313 route bang float symbol list;
#X obj 96 357 bng 15 250 50 0 empty empty float -4 23 1 12 -262144
-1 -1;
#X obj 144 357 bng 15 250 50 0 empty empty symbol -12 23 1 12 -262144
-1 -1;
#X obj 192 357 bng 15 250 50 0 empty empty list -2 23 1 12 -262144
-1 -1;
#X obj 240 357 bng 15 250 50 0 empty empty undefined -18 23 1 12 -262144
-1 -1;
#X msg 86 240 lots of pie;
#X msg 132 473 word;
#X msg 140 492 symbol word;
#X text 166 473 not a symbol;
#X obj 132 538 bng 15 250 50 0 empty empty empty 0 -6 0 8 -262144 -1
-1;
#X obj 205 538 bng 15 250 50 0 empty empty empty 0 -6 0 8 -262144 -1
-1;
#X obj 133 517 select word;
#X text 15 445 [select] considers [word( as something other than a
symbol:;
#X msg 404 62 symbol pie;
#X msg 421 108 pie;
#X text 483 62 a symbol;
#X floatatom 467 370 5 0 0 0 - - -;
#X symbolatom 535 369 10 0 0 0 - - -;
#X obj 400 390 bng 15 250 50 0 empty empty bang -6 23 1 12 -262144
-1 -1;
#X obj 467 390 bng 15 250 50 0 empty empty float -4 23 1 12 -262144
-1 -1;
#X obj 535 390 bng 15 250 50 0 empty empty symbol -12 23 1 12 -262144
-1 -1;
#X obj 604 390 bng 15 250 50 0 empty empty list -2 23 1 12 -262144
-1 -1;
#X text 28 566 [select] requires a atom type selector in order to understand
the data (the float selector is implied);
#X text 54 89 [route] says these are not symbols:;
#X msg 74 131 word;
#X msg 91 261 is this a list 2?;
#X text 79 218 [route] says these are not lists:;
#X msg 82 186 list lots of pie;
#X text 203 187 a list;
#X msg 431 127 word;
#X text 424 88 [trigger] says these are not symbols (check Pd window):
;
#X obj 399 346 trigger bang float symbol list;
#X msg 443 252 list lots of pie;
#X text 570 252 a list;
#X msg 444 285 lots of pie;
#X msg 445 309 is this a list 2?;
#X connect 0 0 6 0;
#X connect 1 0 6 0;
#X connect 3 0 7 0;
#X connect 4 0 8 0;
#X connect 6 0 5 0;
#X connect 6 1 3 0;
#X connect 6 2 4 0;
#X connect 6 3 9 0;
#X connect 6 4 10 0;
#X connect 11 0 6 0;
#X connect 12 0 17 0;
#X connect 13 0 17 0;
#X connect 17 0 15 0;
#X connect 17 1 16 0;
#X connect 19 0 37 0;
#X connect 20 0 37 0;
#X connect 22 0 25 0;
#X connect 23 0 26 0;
#X connect 30 0 6 0;
#X connect 31 0 6 0;
#X connect 33 0 6 0;
#X connect 35 0 37 0;
#X connect 37 0 24 0;
#X connect 37 1 22 0;
#X connect 37 2 23 0;
#X connect 37 3 27 0;
#X connect 38 0 37 0;
#X connect 40 0 37 0;
#X connect 41 0 37 0;
