#N canvas 268 116 1016 724 10;
#X text 7 6 Made by Thomas Ouellet Fredericks for the ID collective
;
#X text 9 26 tom@danslchamp.org;
#X text 238 29 21 novembre 2004;
#X obj 56 76 inlet;
#X obj 329 625 outlet;
#X text 238 58 max input;
#X text 134 56 min input;
#X text 431 56 max output;
#X text 333 56 min output;
#X obj 142 71 inlet;
#X obj 250 75 inlet;
#X obj 330 74 inlet;
#X obj 442 76 inlet;
#X obj 264 197 expr ($f1 - $f2)/($f3-$f2)*($f5-$f4)+$f4;
#X obj 190 112 init/lf \$1;
#X obj 288 119 init/lf \$2;
#X obj 370 124 init/lf \$3;
#X obj 475 127 init/lf \$4;
#X connect 3 0 13 0;
#X connect 9 0 14 0;
#X connect 10 0 15 0;
#X connect 11 0 16 0;
#X connect 12 0 17 0;
#X connect 13 0 4 0;
#X connect 14 0 13 1;
#X connect 15 0 13 2;
#X connect 16 0 13 3;
#X connect 17 0 13 4;
