#N canvas 271 139 465 448 10;
#X obj 30 141 nbx 5 14 0 255 0 0 empty empty empty 0 -6 0 10 -262144
-1 -1 126 256;
#X obj 30 231 nbx 5 14 -1e+37 1e+37 0 0 empty empty empty 0 -6 0 10
-262144 -1 -1 -0.0117647 256;
#X text 87 156 Input floats between 0 and 255 is scaled and output
between -1 and 1;
#X text 206 200 arg1 is input low value \;;
#X text 206 217 arg2 is input high value \;;
#X text 206 235 arg3 is output low value \;;
#X text 208 252 arg4 is output high value \;;
#X text 210 270 All arguments are necessary.;
#X obj 32 306 nbx 5 14 0 255 0 0 empty empty empty 0 -6 0 10 -262144
-1 -1 60 256;
#X obj 32 396 nbx 5 14 -1e+37 1e+37 0 0 empty empty empty 0 -6 0 10
-262144 -1 -1 195 256;
#X text 85 330 hi and low can be reversed to invert mapping!;
#X obj 9 56 cnv 15 200 22 empty empty made_by:mr.tof(tom@danslchamp.org)
12 12 1 7 -1 -262144 0;
#X obj 254 56 cnv 15 155 22 empty empty version:01(2004-11-22) 45 12
1 7 -1 -262144 0;
#X text 15 17 Description: maps a range of input values to different
range of output values.;
#X obj 30 186 scale/linear 0 255 -1 1;
#X obj 32 351 scale/linear 0 255 255 0;
#X connect 0 0 14 0;
#X connect 8 0 15 0;
#X connect 14 0 1 0;
#X connect 15 0 9 0;
