#N canvas 0 0 670 562 10;
#X obj 139 30 inlet;
#X obj 61 540 outlet;
#X obj 139 142 ../convert/symbol2chars;
#X obj 138 276 list split \$1;
#X obj 247 533 outlet;
#X obj 257 332 t a b;
#X obj 43 461 ../convert/list2symbol;
#X msg 520 333 symbol;
#X obj 305 456 ../convert/list2symbol;
#X obj 406 117 f \$1;
#X obj 406 143 moses 0;
#X obj 218 174 t a b a b;
#X obj 404 214 spigot;
#X obj 456 168 t f b;
#X msg 486 190 0;
#X obj 426 244 length;
#X obj 470 271 +;
#X obj 396 169 t f b;
#X msg 445 190 1;
#X obj 43 244 demultiplex 0 1;
#X obj 270 283 t f f;
#X obj 308 310 > 0;
#X obj 45 307 t a b;
#X obj 459 41 inlet;
#X connect 0 0 2 0;
#X connect 2 0 11 0;
#X connect 3 0 6 0;
#X connect 3 1 8 0;
#X connect 3 2 5 0;
#X connect 5 0 6 0;
#X connect 5 1 4 0;
#X connect 6 0 1 0;
#X connect 7 0 6 1;
#X connect 7 0 8 1;
#X connect 8 0 4 0;
#X connect 9 0 10 0;
#X connect 10 0 17 0;
#X connect 10 1 13 0;
#X connect 11 0 19 0;
#X connect 11 1 7 0;
#X connect 11 2 12 0;
#X connect 11 3 9 0;
#X connect 12 0 15 0;
#X connect 13 0 20 0;
#X connect 13 1 14 0;
#X connect 14 0 12 1;
#X connect 15 0 16 0;
#X connect 16 0 20 0;
#X connect 17 0 16 1;
#X connect 17 1 18 0;
#X connect 18 0 12 1;
#X connect 19 0 22 0;
#X connect 19 1 3 0;
#X connect 20 0 3 1;
#X connect 20 1 21 0;
#X connect 21 0 19 1;
#X connect 22 0 6 0;
#X connect 22 1 4 0;
#X connect 23 0 9 1;
