#N canvas 277 245 900 649 12;
#X floatatom 105 161 5 0 0 0 - - -;
#X obj 39 112 bng 15 250 50 0 empty empty empty 0 -6 0 8 -262144 -1
-1;
#X obj 176 191 bng 15 250 50 0 empty empty empty 0 -6 0 8 -262144 -1
-1;
#X text 199 190 Stop;
#X text 151 159 Interval (ms);
#X floatatom 39 272 5 0 0 0 - - -;
#X obj 292 113 bng 15 250 50 0 empty empty empty 0 -6 0 8 -262144 -1
-1;
#X floatatom 341 292 5 0 0 0 - - -;
#X text 409 212 Arg 1's default value is 1000 milliseconds.;
#X text 315 112 Count till 10;
#X text 308 178 This example stop the count once it reaches 10;
#X obj 292 260 sel 11;
#X text 62 111 Reset and start.;
#X obj 125 362 bng 15 250 50 0 empty empty empty 0 -6 0 8 -262144 -1
-1;
#X floatatom 174 541 5 0 0 0 - - -;
#X obj 125 509 sel 11;
#X text 137 394 This example will count from 1 to 10 non stop.;
#X obj 68 135 tgl 15 0 empty empty empty 0 -6 0 8 -262144 -1 -1 0 1
;
#X text 85 134 Pause/unpause.;
#X msg 58 481 bang;
#X obj 125 461 count/timed 500;
#X obj 39 211 count/timed 1000;
#X obj 292 212 count/timed;
#X text 17 12 Description: counts integers at a certain speed.;
#X connect 0 0 21 1;
#X connect 1 0 21 0;
#X connect 2 0 21 2;
#X connect 6 0 22 0;
#X connect 11 0 22 2;
#X connect 11 1 7 0;
#X connect 13 0 20 0;
#X connect 15 0 19 0;
#X connect 15 1 14 0;
#X connect 17 0 21 0;
#X connect 19 0 20 0;
#X connect 20 0 15 0;
#X connect 21 0 5 0;
#X connect 22 0 11 0;
