#N canvas 54 171 836 606 12;
#X obj 77 8 inlet;
#X obj 302 14 inlet;
#X obj 174 488 outlet;
#X msg 187 294 1;
#X obj 188 254 metro \$1;
#X text 353 12 interval;
#X obj 480 11 inlet;
#X text 531 11 Stop it;
#X msg 480 43 0;
#X text 128 8 Start it;
#X obj 186 340 ../count/accum;
#X obj 359 238 ../init/df \$1 1000;
#X obj 395 209 loadbang;
#X obj 54 96 relay set;
#X obj 126 135 route float;
#X obj 130 178 change;
#X obj 228 158 t b b b;
#X msg 231 201 set 1;
#X connect 0 0 13 0;
#X connect 1 0 11 0;
#X connect 3 0 10 0;
#X connect 4 0 3 0;
#X connect 6 0 8 0;
#X connect 8 0 4 0;
#X connect 10 0 2 0;
#X connect 11 0 4 1;
#X connect 12 0 11 0;
#X connect 13 0 10 0;
#X connect 13 1 14 0;
#X connect 14 0 15 0;
#X connect 14 1 16 0;
#X connect 15 0 4 0;
#X connect 16 0 4 0;
#X connect 16 1 17 0;
#X connect 16 2 10 1;
#X connect 17 0 15 0;
