#N canvas 0 0 450 300 10;
#X obj 35 38 inlet;
#X obj 128 40 inlet;
#X obj 236 43 inlet;
#X obj 104 227 outlet;
#X obj 99 147 ../count/modulo \$1;
#X connect 0 0 4 0;
#X connect 1 0 4 1;
#X connect 2 0 4 2;
#X connect 4 0 3 0;
