#N canvas 330 193 379 266 10;
#X obj 20 16 inlet;
#X obj 69 108 inlet;
#X obj 108 108 inlet;
#X obj 20 35 route bang;
#X obj 46 241 outlet;
#X obj 46 130 \$1 \$2;
#X obj 85 130 \$1 \$3;
#X obj 85 170 route float;
#X obj 46 190 route float;
#X obj 20 54 t b b b;
#X obj 147 108 inlet;
#X obj 124 130 \$1 \$4;
#X obj 124 150 route float;
#X obj 118 211 pack s s s;
#X obj 46 209 pack 0 0 0;
#X obj 85 54 t a a a;
#X connect 0 0 3 0;
#X connect 1 0 5 1;
#X connect 2 0 6 1;
#X connect 3 0 9 0;
#X connect 3 1 15 0;
#X connect 5 0 8 0;
#X connect 6 0 7 0;
#X connect 7 0 14 1;
#X connect 7 1 13 1;
#X connect 8 0 14 0;
#X connect 8 1 13 0;
#X connect 9 0 5 0;
#X connect 9 1 6 0;
#X connect 9 2 11 0;
#X connect 10 0 11 1;
#X connect 11 0 12 0;
#X connect 12 0 14 2;
#X connect 12 1 13 2;
#X connect 13 0 4 0;
#X connect 14 0 4 0;
#X connect 15 0 5 0;
#X connect 15 1 6 0;
#X connect 15 2 11 0;
