#N canvas 185 138 665 479 10;
#X obj 26 69 s \$0-b;
#X obj 26 50 inlet bang;
#X obj 14 414 r \$0-r;
#X obj 14 433 outlet reports;
#X obj 176 111 func2-test float;
#X obj 176 131 func2-test symbol;
#X obj 176 151 func2-test int;
#X obj 176 91 func1-test bang;
#X text 346 19 todo: send \, receive \, select \, route;
#X text 346 32 todo: pack \, unpack \, trigger \, spigot;
#X text 346 45 todo: moses \, until \, print \, makefilename;
#X text 346 58 todo: change \, swap \, value;
#X connect 1 0 0 0;
#X connect 2 0 3 0;
