#N canvas 622 298 449 167 10;
#X obj 105 127 outlet;
#X obj 115 14 inlet;
#X obj 69 14 inlet;
#X obj 59 127 outlet;
#X obj 13 127 outlet;
#X obj 13 14 inlet;
#X obj 84 64 #store;
#X obj 38 64 #store;
#X obj 13 33 t a b b;
#X connect 1 0 6 1;
#X connect 2 0 7 1;
#X connect 5 0 8 0;
#X connect 6 0 0 0;
#X connect 7 0 3 0;
#X connect 8 0 4 0;
#X connect 8 1 7 0;
#X connect 8 2 6 0;
