#N canvas 0 0 450 300 10;
#X obj 11 14 inlet;
#X obj 11 192 *;
#X obj 63 75 random 256;
#X obj 183 87 random;
#X msg 220 39 1;
#X obj 220 20 loadbang;
#X obj 220 58 << 23;
#X obj 183 106 +;
#X obj 11 33 t b b b;
#X obj 11 116 random 2;
#X obj 11 154 - 1;
#X obj 63 94 - 150;
#X obj 33 94 pow;
#X obj 11 211 outlet;
#X obj 33 56 t b b;
#X msg 33 75 2;
#X obj 11 173 *;
#X obj 11 135 * 2;
#X connect 0 0 8 0;
#X connect 1 0 13 0;
#X connect 2 0 11 0;
#X connect 3 0 7 0;
#X connect 4 0 6 0;
#X connect 5 0 4 0;
#X connect 6 0 3 1;
#X connect 6 0 7 1;
#X connect 7 0 16 1;
#X connect 8 0 9 0;
#X connect 8 1 14 0;
#X connect 8 2 3 0;
#X connect 9 0 17 0;
#X connect 10 0 16 0;
#X connect 11 0 12 1;
#X connect 12 0 1 1;
#X connect 14 0 15 0;
#X connect 14 1 2 0;
#X connect 15 0 12 0;
#X connect 16 0 1 0;
#X connect 17 0 10 0;
