#N canvas 0 0 450 125 10;
#X obj 12 72 #store;
#X obj 12 34 t a a;
#X obj 12 53 #finished;
#X obj 12 15 inlet a;
#X obj 58 72 inlet b;
#X obj 12 91 outlet b;
#X obj 51 34 outlet a;
#X connect 0 0 5 0;
#X connect 1 0 2 0;
#X connect 1 1 6 0;
#X connect 2 0 0 0;
#X connect 3 0 1 0;
#X connect 4 0 0 1;
