#N canvas 415 303 474 293 10;
#X obj 51 61 symbol \$2;
#X obj 74 194 s;
#X obj 19 4 inlet bang;
#X obj 77 23 r \$1-\$2;
#X msg 51 80 begin \$1;
#X msg 19 134 end \$1;
#X obj 35 42 outlet;
#X obj 19 23 t b s b s;
#X obj 19 115 symbol \$2;
#X connect 0 0 4 0;
#X connect 2 0 7 0;
#X connect 3 0 7 0;
#X connect 4 0 1 0;
#X connect 5 0 1 0;
#X connect 7 0 8 0;
#X connect 7 1 6 0;
#X connect 7 2 0 0;
#X connect 7 3 1 1;
#X connect 8 0 5 0;
