#N canvas 418 284 306 194 10;
#X obj 18 9 inlet dump;
#X obj 44 29 inlet add;
#X obj 18 72 fifop;
#X obj 18 31 b;
#X text 21 141 $Id: msg_queue.pd 211 2005-12-10 21:10:37Z tim $;
#X obj 18 91 t b a;
#X obj 48 111 outlet;
#X connect 0 0 3 0;
#X connect 1 0 2 0;
#X connect 2 0 5 0;
#X connect 3 0 2 0;
#X connect 5 0 2 0;
#X connect 5 1 6 0;
