#N canvas 0 0 378 221 10;
#X obj 30 59 zl slice 1;
#X obj 30 98 buddy 2;
#X obj 30 149 forward;
#X obj 74 117 prepend send;
#X obj 30 18 inlet;
#X text 31 170 $Id: sender.pd 212 2005-12-10 21:49:22Z tim $;
#X connect 0 0 1 1;
#X connect 0 1 1 0;
#X connect 1 0 2 0;
#X connect 1 1 3 0;
#X connect 3 0 2 0;
#X connect 4 0 0 0;
