#N canvas 75 119 920 1023 12;
#X obj 30 0 widget mat n1 #w 881 #bg white #divX 8 #divY 5 #h 740 #Yb
63;
#X msg 1080 -23 -height 26 -width 26 -bg gray95;
#X msg 32 -22 redefine;
#X msg 242 -21 #w \$1;
#X msg 206 -22 #h \$1;
#X floatatom 172 -23 5 0 0 0 - - -;
#X floatatom 140 -21 5 0 0 0 - - -;
#X msg 329 -20 #Yb \$1;
#X msg 378 -20 63;
#X obj 84 767 widget kbd k1 #octaves 7 -width 483 -height 76;
#X obj 85 847 unpack 0 0;
#X obj 129 866 * 127;
#X obj 86 911 pack 0 0;
#X obj 197 927 + 3;
#X obj 248 927 + 5;
#X obj 264 913 nbx 5 14 -1e+37 1e+37 0 0 empty empty empty 0 -6 0 10
-262144 -1 -1 0 256;
#X obj 210 913 nbx 5 14 -1e+37 1e+37 0 0 empty empty empty 0 -6 0 10
-262144 -1 -1 0 256;
#X obj 169 893 spigot;
#X obj 231 889 tgl 15 0 empty empty empty 0 -6 0 8 -262144 -1 -1 0
1;
#X obj 97 960 noteout;
#X obj 309 990 makenote 40 250;
#X obj 330 899 tgl 15 0 empty empty empty 0 -6 0 8 -262144 -1 -1 0
1;
#X obj 370 894 metro 250;
#X obj 411 887 hsl 128 15 0 1000 0 0 empty empty empty -2 -6 0 8 -262144
-1 -1 0 1;
#X obj 307 938 random 128;
#X obj 359 933 t b b b;
#X obj 362 946 random 128;
#X obj 424 965 random 2000;
#X obj 431 932 hsl 128 15 10 5000 0 0 empty empty empty -2 -6 0 8 -262144
-1 -1 0 1;
#X msg 447 679 #w \$1 \, #h \$1;
#X floatatom 453 662 5 0 0 0 - - -;
#X msg 403 873 9999;
#X msg 441 875 444;
#X obj 85 867 + 36;
#X msg 174 855 36;
#X msg 207 854 12;
#X msg 374 869 128;
#X msg 351 864 0;
#X obj 343 970 + 0;
#X msg 369 966 127;
#X msg 390 968 0;
#X obj 307 966 + 0;
#X floatatom 327 957 5 0 0 0 - - -;
#X obj 371 914 pl;
#X obj 428 913 hsl 60 8 0 1 0 0 empty empty empty -2 -6 0 8 -262144
-1 -1 0 1;
#X obj 574 858 rp ss s1;
#X obj 632 787 rr ss;
#X obj 632 768 rg;
#X obj 35 931 print yo;
#X obj 17 767 route note;
#X obj 24 809 print note;
#X connect 0 0 49 0;
#X connect 2 0 0 0;
#X connect 3 0 0 0;
#X connect 4 0 0 0;
#X connect 5 0 3 0;
#X connect 6 0 4 0;
#X connect 7 0 0 0;
#X connect 8 0 7 0;
#X connect 9 0 10 0;
#X connect 9 0 45 0;
#X connect 10 0 33 0;
#X connect 10 1 11 0;
#X connect 11 0 12 1;
#X connect 12 0 19 0;
#X connect 12 0 48 0;
#X connect 13 0 12 0;
#X connect 14 0 12 0;
#X connect 15 0 14 1;
#X connect 16 0 13 1;
#X connect 17 0 14 0;
#X connect 17 0 13 0;
#X connect 18 0 17 1;
#X connect 20 0 19 0;
#X connect 20 1 19 1;
#X connect 21 0 22 0;
#X connect 22 0 43 0;
#X connect 23 0 22 1;
#X connect 24 0 41 0;
#X connect 25 0 24 0;
#X connect 25 1 26 0;
#X connect 25 2 27 0;
#X connect 26 0 38 0;
#X connect 27 0 20 2;
#X connect 28 0 27 1;
#X connect 30 0 29 0;
#X connect 31 0 20 2;
#X connect 32 0 20 2;
#X connect 33 0 12 0;
#X connect 33 0 17 0;
#X connect 34 0 33 1;
#X connect 35 0 33 1;
#X connect 36 0 26 1;
#X connect 36 0 24 1;
#X connect 37 0 26 1;
#X connect 37 0 24 1;
#X connect 38 0 20 1;
#X connect 39 0 38 1;
#X connect 40 0 38 1;
#X connect 41 0 20 0;
#X connect 42 0 41 1;
#X connect 43 0 25 0;
#X connect 44 0 43 1;
#X connect 45 0 9 0;
#X connect 47 0 46 0;
#X connect 49 0 20 0;
#X connect 49 0 50 0;
