#N canvas 25 0 920 1029 12;
#X obj 17 22 widget mat n1 #w 881 #bg white #divX 8 #divY 5 #h 740
#Yb 1 #Ya 88 #qYv 2 #qYa 8;
#X msg 1080 -13 -height 26 -width 26 -bg gray95;
#X msg 19 0 redefine;
#X msg 229 1 #w \$1;
#X msg 193 0 #h \$1;
#X floatatom 159 -1 5 0 0 0 - - -;
#X floatatom 127 1 5 0 0 0 - - -;
#X obj 121 879 * 127;
#X msg 447 689 #w \$1 \, #h \$1;
#X floatatom 453 672 5 0 0 0 - - -;
#X obj 85 877 + 36;
#X obj 577 798 rr ss;
#X obj 577 779 rg;
#X obj 17 771 route note;
#X msg 460 1 #Ya 88 \, Yb 24 \, #qYv 2;
#X obj 9 836 unpack f f f;
#X obj 37 871 * 127;
#X obj 16 901 pack f f f;
#X obj 18 958 print note;
#X obj 73 927 makenote 99 250;
#X obj 92 961 noteout;
#X msg 317 2 #Ya 1 \, #Yb 128 \, #qYv 8;
#X obj 535 833 rp ss kbd;
#X obj 591 833 rp ss kb2;
#X obj 109 775 widget kbd k1 #bg blue #fg green -height 32;
#X obj 207 823 widget kbd k2 #bg blue #fg green -height 32;
#X obj 97 854 unpack 0 0;
#X obj 98 897 pack 0 0 1;
#X obj 211 894 * 127;
#X obj 175 892 + 36;
#X obj 187 869 unpack 0 0;
#X obj 188 912 pack 0 0 2;
#X msg 283 874 redefine;
#X msg 414 885 #bg blue \, #fg green;
#X obj 115 818 print a;
#X connect 0 0 13 0;
#X connect 2 0 0 0;
#X connect 3 0 0 0;
#X connect 4 0 0 0;
#X connect 5 0 3 0;
#X connect 6 0 4 0;
#X connect 7 0 27 1;
#X connect 9 0 8 0;
#X connect 10 0 27 0;
#X connect 12 0 11 0;
#X connect 13 0 15 0;
#X connect 14 0 0 0;
#X connect 15 0 17 0;
#X connect 15 1 16 0;
#X connect 15 2 17 2;
#X connect 16 0 17 1;
#X connect 17 0 18 0;
#X connect 17 0 19 0;
#X connect 19 0 20 0;
#X connect 19 1 20 1;
#X connect 21 0 0 0;
#X connect 24 0 26 0;
#X connect 24 0 34 0;
#X connect 25 0 30 0;
#X connect 26 0 10 0;
#X connect 26 1 7 0;
#X connect 27 0 20 0;
#X connect 28 0 31 1;
#X connect 29 0 31 0;
#X connect 30 0 29 0;
#X connect 30 1 28 0;
#X connect 31 0 20 0;
#X connect 32 0 24 0;
#X connect 32 0 25 0;
#X connect 33 0 25 0;
#X connect 33 0 24 0;
