#N canvas 25 146 920 1008 12;
#X obj 17 12 widget mat n1 #w 881 #bg white #divX 8 #divY 5 #h 740
#Yb 1 #Ya 88 #qYv 2 #qYa 8;
#X msg 1080 -23 -height 26 -width 26 -bg gray95;
#X msg 19 -10 redefine;
#X msg 229 -9 #w \$1;
#X msg 193 -10 #h \$1;
#X floatatom 159 -11 5 0 0 0 - - -;
#X floatatom 127 -9 5 0 0 0 - - -;
#X obj 84 767 widget kbd k1 #octaves 7 -width 483 -height 76;
#X obj 85 846 unpack 0 0;
#X obj 134 868 * 127;
#X obj 85 892 pack 0 0;
#X msg 447 679 #w \$1 \, #h \$1;
#X floatatom 453 662 5 0 0 0 - - -;
#X obj 85 867 + 36;
#X obj 574 858 rp ss s1;
#X obj 632 787 rr ss;
#X obj 632 768 rg;
#X obj 17 761 route note;
#X msg 317 -8 #Ya 1 \, #Yb 128 \, #qYv 8;
#X msg 460 -9 #Ya 88 \, Yb 24 \, #qYv 2;
#X obj 9 826 unpack f f f;
#X obj 37 861 * 127;
#X obj 16 891 pack f f f;
#X obj 18 948 print note;
#X obj 73 917 makenote 99 250;
#X obj 88 948 noteout;
#X connect 0 0 17 0;
#X connect 2 0 0 0;
#X connect 3 0 0 0;
#X connect 4 0 0 0;
#X connect 5 0 3 0;
#X connect 6 0 4 0;
#X connect 7 0 8 0;
#X connect 7 0 14 0;
#X connect 8 0 13 0;
#X connect 8 1 9 0;
#X connect 9 0 10 1;
#X connect 10 0 25 0;
#X connect 12 0 11 0;
#X connect 13 0 10 0;
#X connect 14 0 7 0;
#X connect 16 0 15 0;
#X connect 17 0 20 0;
#X connect 18 0 0 0;
#X connect 19 0 0 0;
#X connect 20 0 22 0;
#X connect 20 1 21 0;
#X connect 20 2 22 2;
#X connect 21 0 22 1;
#X connect 22 0 23 0;
#X connect 22 0 24 0;
#X connect 24 0 25 0;
#X connect 24 1 25 1;
