#N canvas 79 176 946 763 10;
#X obj 120 -92 inlet;
#X msg 207 30 symbol;
#X obj 251 135 f 0;
#X obj 146 201 t a b;
#X obj 258 420 f 0;
#X obj 140 433 << 0;
#X obj 292 420 + 4;
#X obj 140 410 f;
#X msg 154 332 10;
#X msg 169 353 11;
#X msg 187 331 12;
#X msg 202 352 13;
#X msg 217 331 14;
#X msg 232 352 15;
#X obj 36 480 ../count/accum;
#X msg 300 136 set 0;
#X obj 44 580 outlet;
#X obj 148 223 route symbol float;
#X obj 133 134 ../list/reverse;
#X obj 132 159 ../list/unfold;
#X obj 350 502 moses 10;
#X obj 306 477 moses 0;
#X obj 165 -26 ../convert/list2symbol;
#X obj 130 61 ../convert/symbol2list;
#X obj 105 -56 route symbol;
#X obj 88 535 demultiplex 0 1;
#X msg 282 13 0;
#X msg 295 540 1;
#X msg 431 368 1;
#X obj 136 4 t s b b s;
#X obj 206 576 symbol;
#X obj 176 560 b;
#X obj 316 616 print convert/hex2dec;
#X obj 106 99 t b a b;
#X obj 145 252 sel a A b B c C d D e E f F x X;
#X msg 326 590 Cannot convert " \$1 "!;
#X obj 277 105 t b b b;
#X msg 385 188 1;
#X obj 280 182 spigot;
#X msg 352 210 0;
#X connect 0 0 24 0;
#X connect 1 0 23 1;
#X connect 2 0 4 1;
#X connect 3 0 17 0;
#X connect 3 1 4 0;
#X connect 4 0 5 1;
#X connect 4 0 6 0;
#X connect 5 0 14 1;
#X connect 6 0 4 1;
#X connect 7 0 5 0;
#X connect 8 0 7 0;
#X connect 9 0 7 0;
#X connect 10 0 7 0;
#X connect 11 0 7 0;
#X connect 12 0 7 0;
#X connect 13 0 7 0;
#X connect 14 0 25 0;
#X connect 15 0 14 0;
#X connect 17 0 34 0;
#X connect 17 1 21 0;
#X connect 17 2 34 0;
#X connect 18 0 19 0;
#X connect 19 0 38 0;
#X connect 20 0 7 0;
#X connect 20 1 27 0;
#X connect 21 0 27 0;
#X connect 21 1 20 0;
#X connect 22 0 29 0;
#X connect 23 0 33 0;
#X connect 24 0 29 0;
#X connect 24 1 22 0;
#X connect 25 0 16 0;
#X connect 25 1 31 0;
#X connect 26 0 25 1;
#X connect 27 0 25 1;
#X connect 28 0 25 1;
#X connect 29 0 23 0;
#X connect 29 1 1 0;
#X connect 29 2 26 0;
#X connect 29 3 30 1;
#X connect 30 0 35 0;
#X connect 31 0 30 0;
#X connect 33 0 14 0;
#X connect 33 1 18 0;
#X connect 33 2 36 0;
#X connect 34 0 8 0;
#X connect 34 1 8 0;
#X connect 34 2 9 0;
#X connect 34 3 9 0;
#X connect 34 4 10 0;
#X connect 34 5 10 0;
#X connect 34 6 11 0;
#X connect 34 7 11 0;
#X connect 34 8 12 0;
#X connect 34 9 12 0;
#X connect 34 10 13 0;
#X connect 34 11 13 0;
#X connect 34 12 39 0;
#X connect 34 13 39 0;
#X connect 34 14 28 0;
#X connect 35 0 32 0;
#X connect 36 0 2 0;
#X connect 36 1 15 0;
#X connect 36 2 37 0;
#X connect 37 0 38 1;
#X connect 38 0 3 0;
#X connect 39 0 38 1;
