#N canvas 485 118 450 300 10;
#X obj 92 32 inlet;
#X obj 102 97 route symbol;
#X obj 185 129 list;
#X obj 187 161 list2symbol;
#X obj 104 263 outlet;
#X obj 303 33 inlet;
#X connect 0 0 1 0;
#X connect 1 0 4 0;
#X connect 1 1 2 0;
#X connect 2 0 3 0;
#X connect 3 0 4 0;
#X connect 5 0 3 1;
