#N canvas 224 301 908 550 10;
#X obj 468 98 inlet;
#X obj 468 168 t f f f;
#X obj 585 388 outlet;
#X obj 458 423 outlet;
#X obj 347 389 outlet;
#X obj 477 247 -;
#X obj 553 208 mod 256;
#X obj 495 327 / 256;
#X obj 568 315 + 255;
#X obj 554 268 * -1;
#X obj 381 296 * -1;
#X obj 489 378 + 255;
#X obj 497 350 * -1;
#X obj 544 234 t f f;
#X obj 388 335 int;
#X obj 461 284 mod 65536;
#X obj 382 228 / 65537;
#X connect 0 0 1 0;
#X connect 1 0 16 0;
#X connect 1 1 5 0;
#X connect 1 2 6 0;
#X connect 5 0 15 0;
#X connect 6 0 13 0;
#X connect 7 0 12 0;
#X connect 8 0 2 0;
#X connect 9 0 8 0;
#X connect 10 0 14 0;
#X connect 11 0 3 0;
#X connect 12 0 11 0;
#X connect 13 0 9 0;
#X connect 13 1 5 1;
#X connect 14 0 4 0;
#X connect 15 0 7 0;
#X connect 16 0 10 0;
