#N canvas 8 402 789 457 10;
#X obj 33 20 cnv 15 250 60 empty can change_my_color! 20 12 0 14 -101954
-262144 0;
#X msg 91 286 \; can color \$1;
#X obj 138 152 nbx 5 14 0 255 0 0 empty empty empty 0 -6 0 10 -262144
-1 -1 98 256;
#X obj 221 156 nbx 5 14 0 255 0 0 empty empty empty 0 -6 0 10 -262144
-1 -1 230 256;
#X obj 305 159 nbx 5 14 0 255 0 0 empty empty empty 0 -6 0 10 -262144
-1 -1 5 256;
#X obj 341 51 loadbang;
#X msg 278 103 125;
#X obj 197 199 t b f;
#X obj 251 200 t b f;
#X obj 190 249 convert/rgb2num;
#X obj 236 128 t f f f;
#X obj 205 291 convert/num2rgb;
#X floatatom 202 327 5 0 0 0 - - -;
#X floatatom 268 334 5 0 0 0 - - -;
#X floatatom 320 332 5 0 0 0 - - -;
#X text 40 -14 Description: Converts an rgb value into a pd color value.
;
#X connect 2 0 9 0;
#X connect 3 0 7 0;
#X connect 4 0 8 0;
#X connect 5 0 6 0;
#X connect 6 0 10 0;
#X connect 7 0 9 0;
#X connect 7 1 9 1;
#X connect 8 0 9 0;
#X connect 8 1 9 2;
#X connect 9 0 1 0;
#X connect 9 0 11 0;
#X connect 10 0 2 0;
#X connect 10 1 3 0;
#X connect 10 2 4 0;
#X connect 11 0 12 0;
#X connect 11 1 13 0;
#X connect 11 2 14 0;
