#N canvas 0 0 450 300 10;
#X obj 94 57 inlet;
#X obj 93 262 outlet;
#X obj 93 214 symbol2list;
#X obj 265 65 inlet;
#X obj 93 90 route symbol;
#X obj 166 118 list;
#X obj 169 148 list2symbol;
#X obj 280 129 route symbol;
#X obj 335 160 list;
#X obj 338 190 list2symbol;
#X connect 0 0 4 0;
#X connect 2 0 1 0;
#X connect 3 0 7 0;
#X connect 4 0 2 0;
#X connect 4 1 5 0;
#X connect 5 0 6 0;
#X connect 6 0 2 0;
#X connect 7 0 2 1;
#X connect 7 1 8 0;
#X connect 8 0 9 0;
#X connect 9 0 2 1;
