#N canvas 0 0 779 602 10;
#X text 45 65 Comments: Wraps zexy's symbol2list.;
#X text 45 42 Description: Converts a symbol (or anything) to a list.
;
#X msg 106 128 ae b c d;
#X obj 98 229 print;
#X obj 70 446 convert/symbol2list;
#X obj 79 488 print;
#X msg 65 371 ae_b_c_d;
#X text 49 314 Through the second inlet \, change the list delimiter.
;
#X obj 68 399 t a b;
#X obj 89 187 convert/symbol2list;
#X msg 172 412 _;
#X obj 277 453 convert/symbol2list;
#X obj 286 495 print;
#X obj 275 406 t a b;
#X msg 272 378 1/2/3/4;
#X msg 379 419 /;
#X connect 2 0 9 0;
#X connect 4 0 5 0;
#X connect 6 0 8 0;
#X connect 8 0 4 0;
#X connect 8 1 10 0;
#X connect 9 0 3 0;
#X connect 10 0 4 1;
#X connect 11 0 12 0;
#X connect 13 0 11 0;
#X connect 13 1 15 0;
#X connect 14 0 13 0;
#X connect 15 0 11 1;
