#N canvas 864 97 816 808 10;
#X obj 350 92 cnv 15 100 60 empty empty empty 20 12 0 14 -258699 -66577
0;
#X obj 33 361 color 0 1 0;
#X msg 175 685 0 0 0 0;
#X msg 189 709 1 1 1 1;
#X msg 182 738 2 1 2 1;
#X msg 84 672 48;
#X obj 479 87 adc~;
#X obj 18 582 rotateXYZ;
#X msg 371 116 \; pd dsp 1;
#X obj 33 339 alpha 1;
#X text 364 93 click here;
#X obj 326 503 gemhead 100;
#X obj 36 28 tgl 15 0 empty empty empty 0 -6 0 8 -262144 -1 -1 0 1
;
#X obj 343 598 alpha;
#X obj 343 626 colorRGB 1 1 1 0.99;
#X obj 334 574 translateXYZ 0 0 -10;
#X obj 339 720 rectangle 1.3333 1;
#X obj 351 689 scaleXYZ 14 14 1;
#X obj 17 618 gems/alphamode 1;
#X obj 334 548 gems/feedback;
#X obj 502 621 hsl 128 15 0.95 1.05 0 0 empty empty empty -2 -6 0 8
-262144 -1 -1 0 1;
#X obj 499 643 * 14;
#X obj 30 171 gemhead;
#X obj 33 208 t a b;
#X obj 131 659 r \$0curve_points;
#X obj 116 332 r \$0color;
#X obj 51 548 r \$0rotation;
#X obj 75 453 r \$0translation;
#X obj 25 485 translateXYZ;
#N canvas 0 27 1247 912 draw_audio_input 0;
#X obj 587 19 inlet~;
#X obj 373 424 image mandala.gif;
#X obj 400 266 tabread \$0-knots;
#X obj 338 266 t f f;
#X obj 337 332 pack f f f 0;
#X obj 339 290 t f f;
#X obj 339 229 until;
#X msg 370 170 0;
#X obj 338 247 f 0;
#X obj 366 247 + 1;
#X obj 339 147 t b b;
#X obj 366 314 expr (($f1/$f2)*12)-6;
#X obj 342 201 t f f;
#X msg 340 172 800;
#X obj 567 382 table \$0-knots 800;
#X obj 567 356 tabwrite~ \$0-knots;
#X obj 401 292 * 4;
#X obj 251 501 f 0;
#X obj 279 501 + 1;
#X obj 198 289 hsv2rgb;
#X msg 197 267 \$1 1 1;
#X obj 197 246 expr ($f1%100)/100;
#X obj 197 224 f 0;
#X obj 225 224 + 1;
#X msg 198 333 \$1 \$2 \$3 0.3;
#X obj 39 355 f 0;
#X obj 67 355 + 1;
#X obj 93 387 sel 0 100;
#X msg 92 410 1;
#X msg 136 410 -1;
#X obj 50 431 expr ($f1-50)/25;
#X obj 51 377 t f f;
#X obj 341 19 t b;
#X obj 363 386 s \$0curve_points;
#X obj 235 368 s \$0color;
#X obj 251 527 s \$0rotation;
#X obj 64 463 s \$0translation;
#X obj 223 -96 inlet;
#X connect 0 0 15 0;
#X connect 2 0 16 0;
#X connect 3 0 5 0;
#X connect 3 1 2 0;
#X connect 4 0 33 0;
#X connect 5 0 4 0;
#X connect 5 1 11 0;
#X connect 6 0 8 0;
#X connect 7 0 8 1;
#X connect 8 0 9 0;
#X connect 8 0 3 0;
#X connect 9 0 8 1;
#X connect 10 0 13 0;
#X connect 10 1 7 0;
#X connect 11 0 4 1;
#X connect 12 0 6 0;
#X connect 12 1 11 1;
#X connect 13 0 12 0;
#X connect 16 0 4 2;
#X connect 17 0 18 0;
#X connect 17 0 35 0;
#X connect 18 0 17 1;
#X connect 19 0 24 0;
#X connect 20 0 19 0;
#X connect 21 0 20 0;
#X connect 22 0 23 0;
#X connect 22 0 21 0;
#X connect 23 0 22 1;
#X connect 24 0 34 0;
#X connect 25 0 26 0;
#X connect 25 0 31 0;
#X connect 26 0 25 1;
#X connect 27 0 28 0;
#X connect 27 1 29 0;
#X connect 28 0 26 1;
#X connect 29 0 26 1;
#X connect 30 0 36 0;
#X connect 31 0 30 0;
#X connect 31 1 27 0;
#X connect 32 0 10 0;
#X connect 32 0 15 0;
#X connect 32 0 17 0;
#X connect 32 0 25 0;
#X connect 32 0 22 0;
#X connect 37 0 32 0;
#X restore 351 236 pd draw_audio_input;
#X obj 486 143 *~ 1;
#X text 470 61 Volume boost;
#X text 188 -18 Description: Creates a dynamic number of curve objects.
;
#X obj 34 60 gems/win 640 480;
#X text 239 23 In this example \, we analyse the audio input to generate
the coordinates of the curve points.;
#X text 500 601 Play with the feedback!;
#X obj 33 291 repeat 1;
#X obj 104 262 hradio 15 1 0 3 empty empty empty 0 -6 0 8 -262144 -1
-1 0;
#X obj 103 287 + 1;
#X text 152 259 Repeat the gemchain (creates clones).;
#X obj 554 82 osc~ 110;
#X obj 513 81 vsl 15 50 0 4 0 0 empty empty empty 0 -8 0 8 -258699
-1 -1 0 1;
#X obj 615 84 vsl 15 50 0 1 0 0 empty empty empty 0 -8 0 8 -258699
-1 -1 0 1;
#X obj 561 150 *~ 0;
#X obj 716 87 vsl 15 50 0 1 0 0 empty empty empty 0 -8 0 8 -258699
-1 -1 0 1;
#X obj 673 152 *~ 0;
#X obj 666 84 noise~;
#X text 500 240 You can also try with other source types.;
#X obj 19 702 gems/curve_n 800;
#X connect 1 0 28 0;
#X connect 2 0 48 2;
#X connect 3 0 48 2;
#X connect 4 0 48 2;
#X connect 5 0 48 1;
#X connect 6 0 30 0;
#X connect 7 0 18 0;
#X connect 9 0 1 0;
#X connect 11 0 19 0;
#X connect 12 0 33 0;
#X connect 13 0 14 0;
#X connect 14 0 17 0;
#X connect 15 0 13 0;
#X connect 17 0 16 0;
#X connect 18 0 48 0;
#X connect 19 0 15 0;
#X connect 20 0 21 0;
#X connect 21 0 17 1;
#X connect 21 0 17 2;
#X connect 22 0 23 0;
#X connect 23 0 36 0;
#X connect 23 1 29 0;
#X connect 24 0 48 2;
#X connect 25 0 1 1;
#X connect 26 0 7 1;
#X connect 26 0 7 2;
#X connect 26 0 7 3;
#X connect 27 0 28 1;
#X connect 27 0 28 2;
#X connect 27 0 28 3;
#X connect 28 0 7 0;
#X connect 30 0 29 1;
#X connect 36 0 9 0;
#X connect 37 0 38 0;
#X connect 38 0 36 1;
#X connect 40 0 43 0;
#X connect 41 0 30 1;
#X connect 42 0 43 1;
#X connect 43 0 29 1;
#X connect 44 0 45 1;
#X connect 45 0 29 1;
#X connect 46 0 45 0;
