#N canvas 47 124 1155 671 10;
#X obj 32 -16 inlet;
#X text 359 606 height;
#X text 696 611 width;
#X obj 309 609 outlet;
#X obj 644 611 outlet;
#X text 958 84 gemwin width height (in pixels);
#X obj 833 37 route dimen;
#X text 916 36 Gem window dimension (H W);
#X text 83 -16 gemlist;
#X obj 32 589 outlet;
#X text 85 590 gemlist;
#X obj 166 -15 inlet;
#X obj 34 158 pix_info;
#X obj 834 15 r gems/win/state;
#X msg 162 99 0;
#X msg 233 103 1;
#X obj 1108 204 value gems/win/height;
#X obj 1060 136 loadbang;
#X msg 125 539 1;
#X msg 182 539 1;
#X obj 143 504 t b b;
#X obj 148 360 demultiplex 0 1 2;
#X msg 289 99 2;
#X obj 1061 161 t b b;
#X obj 1013 223 value gems/win/width;
#X obj 1069 278 pack;
#X obj 975 409 s \$0dimen;
#N canvas 0 0 823 639 fit2window 0;
#X text 359 606 height;
#X text 696 611 width;
#X obj 309 609 outlet;
#X obj 644 611 outlet;
#X obj 160 369 anal/ratio;
#X obj 344 319 anal/ratio;
#X obj 313 251 r \$0dimen;
#X obj 344 349 /;
#X obj 344 370 * 4;
#X msg 376 286 640 480;
#X obj 226 456 *;
#X obj 282 456 *;
#X obj 184 403 unpack;
#X obj 323 393 moses 4;
#X msg 365 418 4;
#X obj 144 331 inlet;
#X connect 4 0 12 0;
#X connect 5 0 7 0;
#X connect 6 0 5 0;
#X connect 7 0 8 0;
#X connect 8 0 13 0;
#X connect 9 0 5 0;
#X connect 10 0 2 0;
#X connect 11 0 3 0;
#X connect 12 0 10 0;
#X connect 12 1 11 0;
#X connect 13 0 11 1;
#X connect 13 0 10 1;
#X connect 13 1 14 0;
#X connect 14 0 11 1;
#X connect 14 0 10 1;
#X connect 15 0 4 0;
#X restore 167 434 pd fit2window;
#N canvas 0 0 810 635 fit2originalsize 0;
#X obj 82 26 inlet;
#X obj 463 310 /;
#X obj 463 440 *;
#X obj 695 365 t f b f;
#X obj 767 184 / 4;
#X obj 694 252 f;
#X obj 695 328 /;
#X obj 629 222 t f b;
#X obj 469 181 unpack f f;
#X obj 555 249 t f f;
#X obj 694 281 t b f;
#X obj 309 609 outlet;
#X obj 644 611 outlet;
#X text 545 181 image width heigth (in pixels);
#X obj 702 156 unpack f f;
#X obj 695 303 f;
#X obj 694 134 r \$0dimen;
#X obj 519 212 sel -1;
#X obj 393 249 sel -1;
#X msg 363 366 1;
#X msg 615 450 1;
#X connect 0 0 8 0;
#X connect 1 0 2 0;
#X connect 2 0 11 0;
#X connect 3 0 12 0;
#X connect 3 1 2 0;
#X connect 3 2 2 1;
#X connect 4 0 5 1;
#X connect 5 0 10 0;
#X connect 6 0 3 0;
#X connect 7 0 15 0;
#X connect 7 1 5 0;
#X connect 8 0 18 0;
#X connect 8 1 17 0;
#X connect 9 0 1 1;
#X connect 9 1 7 0;
#X connect 10 0 15 0;
#X connect 10 1 6 1;
#X connect 14 1 4 0;
#X connect 15 0 6 0;
#X connect 16 0 14 0;
#X connect 17 0 20 0;
#X connect 17 1 9 0;
#X connect 18 0 19 0;
#X connect 18 1 1 0;
#X connect 19 0 11 0;
#X connect 20 0 12 0;
#X restore 280 432 pd fit2originalsize;
#X obj 385 78 route float;
#X obj 464 416 anal/ratio;
#X obj 468 438 unpack;
#X obj 918 392 t b l;
#X obj 917 517 s \$0update;
#X obj 146 45 route window pixsize pixratio dimen;
#X obj 61 77 s \$0update;
#X obj 77 34 t b a;
#X obj 327 113 s \$0dimen;
#X obj 97 194 t f f f;
#X obj 156 193 t f f f;
#X obj 106 218 !=;
#X obj 158 218 !=;
#X obj 137 242 ||;
#X obj 145 301 list;
#X obj 122 272 sel 1;
#X obj 172 268 pack;
#X obj 50 318 r \$0update;
#X obj 128 327 route bang;
#X obj 479 -25 loadbang;
#X obj 474 4 dollarg;
#X obj 525 74 list split 1;
#X obj 530 123 list trim;
#X msg 527 35 list window 320 240;
#X msg 602 122 dimen \$1 \$2;
#X connect 0 0 12 0;
#X connect 6 0 32 0;
#X connect 11 0 36 0;
#X connect 12 0 9 0;
#X connect 12 1 38 0;
#X connect 12 2 39 0;
#X connect 13 0 6 0;
#X connect 14 0 21 1;
#X connect 15 0 21 1;
#X connect 16 0 25 1;
#X connect 17 0 23 0;
#X connect 18 0 3 0;
#X connect 19 0 4 0;
#X connect 20 0 18 0;
#X connect 20 1 19 0;
#X connect 21 0 27 0;
#X connect 21 1 28 0;
#X connect 21 2 30 0;
#X connect 22 0 21 1;
#X connect 23 0 24 0;
#X connect 23 1 16 0;
#X connect 24 0 25 0;
#X connect 25 0 32 0;
#X connect 27 0 3 0;
#X connect 27 1 4 0;
#X connect 28 0 3 0;
#X connect 28 1 4 0;
#X connect 29 0 21 1;
#X connect 30 0 31 0;
#X connect 31 0 3 0;
#X connect 31 1 4 0;
#X connect 32 0 33 0;
#X connect 32 1 26 0;
#X connect 34 0 14 0;
#X connect 34 1 15 0;
#X connect 34 2 22 0;
#X connect 34 3 37 0;
#X connect 34 4 29 0;
#X connect 36 0 35 0;
#X connect 36 1 34 0;
#X connect 38 0 40 1;
#X connect 38 1 40 0;
#X connect 38 2 45 0;
#X connect 39 0 41 1;
#X connect 39 1 41 0;
#X connect 39 2 45 1;
#X connect 40 0 42 0;
#X connect 41 0 42 1;
#X connect 42 0 44 0;
#X connect 43 0 47 0;
#X connect 44 0 43 0;
#X connect 45 0 43 1;
#X connect 46 0 43 0;
#X connect 47 1 21 0;
#X connect 48 0 49 0;
#X connect 49 0 52 0;
#X connect 50 0 51 0;
#X connect 50 1 53 0;
#X connect 51 0 34 0;
#X connect 52 0 50 0;
#X connect 53 0 34 0;
