#N canvas 722 234 838 528 10;
#X obj 103 180 gemhead;
#X obj 27 38 tgl 15 0 empty empty empty 0 -6 0 8 -262144 -1 -1 0 1
;
#X obj 307 202 bng 15 250 50 0 empty empty empty 0 -6 0 8 -262144 -1
-1;
#X floatatom 249 73 5 0 0 0 - - -;
#X obj 106 277 pix_texture;
#X obj 106 306 rectangle 5.33333 4;
#X obj 104 211 gems/images;
#X floatatom 282 310 5 0 0 0 - - -;
#X text 109 22 Description: Multiple images handler. The images do
not need to be the same dimension.;
#X obj 309 266 file/parentfolder;
#X msg 309 245 ../examples/media/images/img0.jpg;
#X text 332 198 3rd inlets loads images. You can bang it or send it
a file name.;
#X text 292 68 Second inlet allows to go back to a previously entered
image index. Images indices are sent by the right outlet on every time
you load an image.;
#X msg 308 225 ../examples/media/images/img1.jpg;
#X text 332 307 2nd outlet : number of images loaded;
#X obj 272 123 r \$0coll;
#X msg 300 399 read;
#X text 334 398 opens a dialog;
#X text 364 445 open a dialog;
#X msg 318 446 write;
#X msg 309 423 writeagain;
#X obj 141 479 s \$0coll;
#X obj 464 479 coll;
#C restore;
#X text 398 482 See also;
#X text 554 352 writes a file;
#X text 545 370 reads a file;
#X msg 297 350 write ../examples/_data/images.coll;
#X msg 293 373 read ../examples/_data/images.coll;
#X obj 106 242 gems/getsize;
#X obj 197 274 * 4;
#X text 341 120 You can also send almost any message you would send
to [coll] with the 2dn inlet.;
#X obj 27 61 gems/win 640 480;
#X connect 0 0 6 0;
#X connect 1 0 31 0;
#X connect 2 0 6 2;
#X connect 3 0 6 1;
#X connect 4 0 5 0;
#X connect 6 0 28 0;
#X connect 6 1 7 0;
#X connect 9 0 6 2;
#X connect 10 0 9 0;
#X connect 13 0 9 0;
#X connect 15 0 6 1;
#X connect 16 0 21 0;
#X connect 19 0 21 0;
#X connect 20 0 21 0;
#X connect 26 0 21 0;
#X connect 27 0 21 0;
#X connect 28 0 4 0;
#X connect 28 3 29 0;
#X connect 29 0 5 1;
