#N canvas 233 264 1367 936 10;
#X obj -28 -82 inlet;
#X obj 33 600 outlet;
#X obj 145 620 outlet;
#X obj 391 -111 inlet;
#X obj 278 -81 inlet;
#N canvas 0 22 1076 720 v33.videoplayer.guts 0;
#X obj 92 157 inlet;
#X obj 337 600 outlet;
#X obj 788 249 inlet;
#X text 839 249 frame #;
#X obj 623 199 inlet;
#X text 676 200 relative frame;
#X obj 321 513 t f f;
#X obj 269 153 inlet;
#X obj 307 345 f 1;
#X obj 319 479 int;
#X obj 398 210 unpack;
#X obj 353 378 * 0;
#X obj 400 383 * 1;
#X obj 352 319 t f f;
#X obj 401 329 t b f;
#X obj 446 325 t b f;
#X obj 456 455 expr $f1*($f3-$f2)+$f2;
#X obj 464 425 pack f 0 1;
#X obj 139 612 outlet;
#X obj 851 288 inlet;
#N canvas 0 22 478 328 fcounter 0;
#X obj 145 159 t f f f;
#X obj 165 214 -;
#X obj 182 184 int;
#X obj 155 261 +;
#X obj 110 21 inlet;
#X obj 221 20 inlet;
#N canvas 0 22 474 324 count 0;
#X obj 84 48 inlet;
#X obj 192 274 outlet;
#X obj 89 80 route bang;
#X obj 176 139 t b f;
#X obj 182 219 t f f;
#X obj 173 171 f;
#X obj 291 49 inlet;
#X obj 289 78 route bang;
#X msg 288 120 0;
#X obj 186 194 + 1;
#X obj 183 39 inlet;
#X connect 0 0 2 0;
#X connect 2 0 5 0;
#X connect 2 1 3 0;
#X connect 3 0 5 0;
#X connect 3 1 9 1;
#X connect 4 0 1 0;
#X connect 4 1 5 1;
#X connect 5 0 9 0;
#X connect 6 0 7 0;
#X connect 7 0 8 0;
#X connect 7 1 5 1;
#X connect 8 0 5 1;
#X connect 9 0 4 0;
#X connect 10 0 9 1;
#X restore 149 99 pd count;
#X obj 163 366 outlet;
#X obj 282 20 inlet;
#X obj 348 23 inlet;
#X obj 291 218 -;
#X obj 162 329 +;
#X obj 252 92 t b f f f;
#X obj 147 296 t f f;
#X obj 76 182 moses 0;
#X obj 52 209 - 1;
#X obj 50 261 + 1;
#X obj 46 236 mod 0;
#X obj 117 221 mod 0;
#X obj 219 68 - 0;
#X connect 0 0 14 0;
#X connect 0 1 1 0;
#X connect 0 2 2 0;
#X connect 1 0 3 1;
#X connect 2 0 1 1;
#X connect 3 0 13 0;
#X connect 4 0 6 0;
#X connect 5 0 19 0;
#X connect 6 0 0 0;
#X connect 8 0 12 0;
#X connect 9 0 10 0;
#X connect 10 0 17 1;
#X connect 10 0 18 1;
#X connect 11 0 7 0;
#X connect 12 0 10 0;
#X connect 12 1 10 1;
#X connect 12 2 11 1;
#X connect 12 3 19 1;
#X connect 13 0 11 0;
#X connect 13 1 6 2;
#X connect 14 0 15 0;
#X connect 14 1 18 0;
#X connect 15 0 17 0;
#X connect 16 0 3 0;
#X connect 17 0 16 0;
#X connect 18 0 3 0;
#X connect 19 0 6 2;
#X restore 320 440 pd fcounter;
#X obj 92 220 t a b;
#X obj 488 597 outlet;
#X obj 296 391 t f f;
#X obj 536 386 - 1;
#X obj 387 569 s \$0frame;
#X obj 732 585 s \$0speed;
#X obj 439 152 inlet;
#X obj 310 179 route float;
#X connect 0 0 21 0;
#X connect 2 0 20 1;
#X connect 4 0 17 0;
#X connect 6 0 25 0;
#X connect 6 1 1 0;
#X connect 7 0 28 0;
#X connect 8 0 23 0;
#X connect 9 0 6 0;
#X connect 10 0 14 0;
#X connect 10 1 15 0;
#X connect 11 0 17 1;
#X connect 11 0 20 2;
#X connect 12 0 20 3;
#X connect 12 0 24 0;
#X connect 13 0 11 0;
#X connect 13 1 12 0;
#X connect 14 0 11 0;
#X connect 14 1 11 1;
#X connect 15 0 12 0;
#X connect 15 1 12 1;
#X connect 16 0 20 1;
#X connect 17 0 16 0;
#X connect 19 0 13 0;
#X connect 20 0 9 0;
#X connect 21 0 18 0;
#X connect 21 1 8 0;
#X connect 23 0 20 0;
#X connect 23 1 22 0;
#X connect 24 0 17 2;
#X connect 27 0 10 0;
#X connect 28 0 8 1;
#X connect 28 0 26 0;
#X restore 38 325 pd v33.videoplayer.guts;
#X text -71 -103 Gemlist;
#X text 29 622 Gemlist;
#X text 370 -133 loop float float (loop relative boundaries);
#X text 442 -98 float (frame number);
#X text 364 -157 float (play speed) defaults to 1;
#X obj 65 -101 inlet;
#X obj 661 409 pack f \$0;
#X obj 791 446 makesymbol %s_%sin;
#X obj 554 450 makesymbol %s_%sframe;
#X msg 413 326 \$1;
#X obj 225 390 speedlim 0;
#X obj 278 521 unpack f f f s;
#X obj 172 554 pack f -1 f f f f s;
#N canvas 2 124 1044 724 mem 0;
#X msg 410 250 read \$1;
#X msg 296 324 dump;
#X obj 166 351 coll;
#C restore;
#X obj 179 525 outlet;
#X obj 394 123 inlet;
#X obj 275 231 prepend read;
#X obj 175 456 pack s s;
#X msg 178 492 list \$2 \$1;
#N canvas 0 22 458 308 l2s_fixed 0;
#X obj 130 188 l2s;
#X obj 140 261 spigot;
#X obj 158 148 t a b;
#X msg 183 170 1;
#X msg 127 234 0;
#X obj 132 209 t b a;
#X obj 161 101 inlet;
#X obj 154 285 outlet;
#X connect 0 0 5 0;
#X connect 1 0 7 0;
#X connect 2 0 0 0;
#X connect 2 1 3 0;
#X connect 3 0 1 1;
#X connect 4 0 1 1;
#X connect 5 0 4 0;
#X connect 5 1 1 0;
#X connect 6 0 2 0;
#X restore 89 401 pd l2s_fixed;
#X connect 0 0 2 0;
#X connect 1 0 2 0;
#X connect 2 0 8 0;
#X connect 2 1 6 1;
#X connect 2 2 1 0;
#X connect 4 0 5 0;
#X connect 5 0 2 0;
#X connect 6 0 7 0;
#X connect 7 0 3 0;
#X connect 8 0 6 0;
#X restore 575 -2 pd mem;
#X obj 33 558 r \$0out;
#X obj 57 366 loadbang;
#X obj 58 391 f \$0;
#X obj 447 620 outlet;
#X text 207 618 vidnum \, frame \, frames \, speed;
#X obj 685 549 r \$0dummy;
#X text 529 623 frames \, width \, height \, name;
#X msg 448 561 \$1 \$2 \$3 \$4;
#X obj 536 358 t l l l;
#X text 43 -125 Video manage;
#X obj 895 628 outlet;
#N canvas 359 261 430 394 bounddetect 0;
#X obj 98 242 sel 1;
#X obj 176 241 sel 1;
#X obj 98 222 change;
#X obj 176 220 change;
#X obj 176 199 < 0;
#X obj 207 155 abs;
#X obj 102 284 outlet;
#X obj 183 284 outlet;
#X obj 93 23 inlet;
#X obj 173 22 inlet;
#X obj 274 34 inlet;
#X obj 278 70 - 1;
#X obj 98 202 > 1;
#X obj 98 155 + 1;
#X connect 0 0 7 0;
#X connect 1 0 6 0;
#X connect 2 0 0 0;
#X connect 3 0 1 0;
#X connect 4 0 3 0;
#X connect 5 0 4 1;
#X connect 8 0 13 0;
#X connect 9 0 5 0;
#X connect 9 0 13 1;
#X connect 10 0 11 0;
#X connect 11 0 12 1;
#X connect 12 0 2 0;
#X connect 13 0 4 0;
#X connect 13 0 12 0;
#X restore 860 566 pd bounddetect;
#X obj 913 520 r \$0speed;
#X obj 822 532 r \$0frame;
#X msg 855 592 0;
#X msg 952 596 1;
#X obj 990 542 r \$0numframe;
#X obj 318 555 s \$0numframe;
#X obj 66 -76 route bang;
#X obj 65 -27 openpanel;
#X obj 408 11 t a b;
#X obj 320 236 route rel speedlim loop;
#X obj 462 85 s gems/win/force_render;
#X text 638 -6 <- load a collection;
#X text 284 -100 speed;
#X text 403 307 frame number;
#X obj 596 58 route contents write read limit clear;
#X obj 960 629 b;
#N canvas 387 251 1060 768 loadmovie 0;
#N canvas 0 22 590 440 1039pix_films 0;
#X restore 25 179 pd \$0pix_films;
#X obj 25 212 loadbang;
#X obj 273 -185 r \$0info;
#N canvas 28 310 1028 730 make_pix_film 0;
#X obj 352 147 makesymbol pd-%spix_films;
#X obj 350 104 f \$0;
#X obj 398 118 * 20;
#X obj 399 47 t f b f;
#X obj 184 156 makesymbol %s_%s;
#X obj 184 133 pack f \$0;
#X obj 395 13 inlet;
#X obj 582 16 inlet;
#X obj 536 59 f \$0;
#X obj 592 40 b;
#X msg 534 112 \; \$1 clear;
#X obj 455 204 makesymbol %s_%spix_film;
#X obj 340 235 pack s 10 \$0 s;
#X obj 454 178 pack f \$0;
#X msg 340 271 \; \$1 obj 10 \$2 pd \$4;
#X obj 532 84 makesymbol pd-%spix_films;
#X obj 37 185 makesymbol pd-%spix_films;
#X obj -206 99 * 7;
#X msg 140 301 \; \$1 obj 10 40 pix_film \; \$1 obj 10 15 r \$2in \;
\$1 obj 100 0 r \$2frame \; \$1 obj 10 65 s \$3out \; \$1 obj 110 65
s \$3info \; \$1 obj 220 65 s \$3end \; \$1 obj 100 15 change \;;
#X obj 169 242 pack s s \$0;
#X obj 39 211 t s s;
#X obj -70 254 pack f f f f f f f s;
#X obj 79 47 t f b f;
#X obj 37 157 f \$0;
#X obj -223 164 + 1;
#X obj -196 165 + 2;
#X obj -169 164 + 3;
#X obj -142 164 + 4;
#X obj -115 165 + 5;
#X obj -86 165 + 6;
#X obj -207 128 t f f f f f f f;
#X msg -58 319 \; \$8 connect \$1 0 \$7 0 \; \$8 connect \$2 0 \$6
0 \; \$8 connect \$6 0 \$7 1 \; \$8 connect \$7 0 \$3 0 \; \$8 connect
\$7 1 \$4 0 \; \$8 connect \$7 2 \$5 0 \;;
#X obj 659 13 bng 15 250 50 0 empty empty empty 0 -6 0 8 -262144 -1
-1;
#X connect 0 0 12 0;
#X connect 1 0 0 0;
#X connect 2 0 12 1;
#X connect 3 0 22 0;
#X connect 3 1 1 0;
#X connect 3 2 2 0;
#X connect 3 2 12 2;
#X connect 3 2 13 0;
#X connect 4 0 19 1;
#X connect 5 0 4 0;
#X connect 6 0 3 0;
#X connect 7 0 9 0;
#X connect 8 0 15 0;
#X connect 9 0 8 0;
#X connect 11 0 12 3;
#X connect 13 0 11 0;
#X connect 15 0 10 0;
#X connect 16 0 20 0;
#X connect 17 0 30 0;
#X connect 19 0 18 0;
#X connect 20 0 21 7;
#X connect 20 1 19 0;
#X connect 21 0 31 0;
#X connect 22 0 17 0;
#X connect 22 1 23 0;
#X connect 22 2 5 0;
#X connect 23 0 16 0;
#X connect 24 0 21 0;
#X connect 25 0 21 1;
#X connect 26 0 21 2;
#X connect 27 0 21 3;
#X connect 28 0 21 4;
#X connect 29 0 21 5;
#X connect 30 0 24 0;
#X connect 30 1 25 0;
#X connect 30 2 26 0;
#X connect 30 3 27 0;
#X connect 30 4 28 0;
#X connect 30 5 29 0;
#X connect 30 6 21 6;
#X connect 32 0 9 0;
#X restore 54 420 pd make_pix_film;
#X obj 204 -91 inlet;
#X text 23 152 make pix_films;
#X obj 313 126 makesymbol %s_%sin;
#X obj 336 156 pack s s;
#X obj 318 88 pack f \$0;
#X obj 550 24 inlet;
#X obj 325 608 outlet;
#X obj 437 603 outlet;
#X obj 39 -68 s \$0cIndex;
#X obj 15 -159 + 1;
#X obj 635 23 inlet;
#X obj 730 25 inlet;
#X msg 739 136 open;
#X obj 613 152 prepend write;
#N canvas 0 22 584 511 l2s_fixed 0;
#X obj 120 173 l2s;
#X obj 163 299 spigot;
#X obj 158 148 t a b;
#X msg 183 170 1;
#X msg 127 234 0;
#X obj 132 209 t b a;
#X obj 161 101 inlet;
#X obj 155 364 outlet;
#X connect 0 0 5 0;
#X connect 1 0 7 0;
#X connect 2 0 0 0;
#X connect 2 1 3 0;
#X connect 3 0 1 1;
#X connect 4 0 1 1;
#X connect 5 0 4 0;
#X connect 5 1 1 0;
#X connect 6 0 2 0;
#X restore 672 88 pd l2s_fixed;
#X msg 336 180 \; \$1 colorspace RGBA \; \$1 open \$2;
#X obj 63 363 r \$0makepix_film;
#X msg 46 310 0;
#X obj 14 -134 t f f;
#X obj 15 -189 f 0;
#X obj 16 -102 t f f;
#X obj 74 -96 s \$0makepix_film;
#X obj 59 266 t b b;
#X obj 345 25 r \$0cIndex;
#X obj 331 53 f;
#X msg 556 150 write;
#X obj 610 49 route bang;
#N canvas 0 0 695 688 indexcoll 0;
#X obj 211 412 coll;
#C restore;
#X obj 140 222 file/splitpath;
#X obj 213 354 spigot;
#X obj 208 441 t a b;
#X msg 251 463 0;
#X obj 232 299 t s s b;
#X msg 286 325 1;
#X obj 100 65 route symbol;
#X obj 183 95 list;
#X obj 188 119 list2symbol;
#X obj 73 22 inlet file_query;
#X obj 356 28 inlet file_store;
#X obj 117 558 outlet gotten;
#X obj 430 544 outlet get_info;
#X obj 363 87 t b l;
#X obj 395 299 pack s f f f f s;
#X obj 333 144 symbol;
#X obj 400 240 r \$0cIndex;
#X obj 398 115 unpack f f f;
#X text 494 111 frames width height;
#X obj 400 331 list prepend store;
#X obj 352 408 t b s;
#X obj 419 451 symbol;
#X obj 411 359 list trim;
#X msg 90 379 open;
#X obj 148 169 t s s s;
#X obj 344 319 t s s;
#X connect 0 0 3 0;
#X connect 1 1 5 0;
#X connect 2 0 21 0;
#X connect 3 0 12 0;
#X connect 3 1 4 0;
#X connect 4 0 2 1;
#X connect 5 0 2 0;
#X connect 5 1 0 0;
#X connect 5 2 6 0;
#X connect 6 0 2 1;
#X connect 7 0 25 0;
#X connect 7 1 8 0;
#X connect 8 0 9 0;
#X connect 9 0 25 0;
#X connect 10 0 7 0;
#X connect 11 0 14 0;
#X connect 14 0 16 0;
#X connect 14 1 18 0;
#X connect 15 0 20 0;
#X connect 16 0 26 0;
#X connect 17 0 15 1;
#X connect 18 0 15 2;
#X connect 18 1 15 3;
#X connect 18 2 15 4;
#X connect 20 0 23 0;
#X connect 21 0 22 0;
#X connect 21 1 16 1;
#X connect 22 0 13 0;
#X connect 23 0 0 0;
#X connect 24 0 0 0;
#X connect 25 0 1 0;
#X connect 25 1 15 5;
#X connect 25 1 22 1;
#X connect 26 0 0 0;
#X connect 26 1 15 0;
#X restore 203 -52 pd indexcoll;
#X obj 320 -25 t b s;
#X obj 273 -150 t b l;
#X text 51 -186 Make a new pix_film;
#X obj 246 390 list split 1;
#X obj 268 471 list;
#X obj 229 420 t b f;
#X obj 167 323 r \$0empty;
#X connect 1 0 26 0;
#X connect 2 0 33 0;
#X connect 4 0 31 0;
#X connect 6 0 7 0;
#X connect 7 0 19 0;
#X connect 8 0 6 0;
#X connect 13 0 22 0;
#X connect 14 0 30 0;
#X connect 15 0 16 0;
#X connect 18 0 17 0;
#X connect 20 0 3 0;
#X connect 21 0 3 0;
#X connect 22 0 24 0;
#X connect 22 1 23 1;
#X connect 23 0 13 0;
#X connect 24 0 12 0;
#X connect 24 1 25 0;
#X connect 26 0 21 0;
#X connect 26 1 3 1;
#X connect 27 0 28 1;
#X connect 28 0 8 0;
#X connect 30 0 29 0;
#X connect 30 1 18 0;
#X connect 31 0 35 0;
#X connect 31 1 32 0;
#X connect 32 0 28 0;
#X connect 32 1 7 1;
#X connect 33 0 23 0;
#X connect 33 1 31 1;
#X connect 35 0 37 0;
#X connect 35 1 36 1;
#X connect 36 0 10 0;
#X connect 37 0 36 0;
#X connect 37 1 11 0;
#X connect 38 0 3 1;
#X restore 559 327 pd loadmovie;
#X obj 981 202 s \$0empty;
#X obj 954 159 bng 15 250 50 0 empty empty empty 0 -6 0 8 -262144 -1
-1;
#X obj 3 505 flow/send \$0out;
#X msg 59 416 \$1out;
#X obj 236 427 flow/send \$0dummy;
#X connect 0 0 5 0;
#X connect 3 0 41 0;
#X connect 4 0 5 1;
#X connect 5 0 51 0;
#X connect 5 1 16 0;
#X connect 5 1 2 0;
#X connect 5 2 18 3;
#X connect 11 0 38 0;
#X connect 12 0 13 0;
#X connect 12 0 14 0;
#X connect 13 0 51 1;
#X connect 14 0 53 1;
#X connect 15 0 5 5;
#X connect 16 0 53 0;
#X connect 17 0 18 2;
#X connect 17 0 37 0;
#X connect 19 0 46 0;
#X connect 20 0 1 0;
#X connect 21 0 22 0;
#X connect 22 0 52 0;
#X connect 27 0 23 0;
#X connect 28 0 17 0;
#X connect 28 1 27 0;
#X connect 28 2 15 0;
#X connect 31 0 34 0;
#X connect 31 1 35 0;
#X connect 32 0 31 1;
#X connect 33 0 31 0;
#X connect 34 0 47 0;
#X connect 35 0 47 0;
#X connect 36 0 31 2;
#X connect 38 0 39 0;
#X connect 38 1 40 0;
#X connect 39 0 40 0;
#X connect 40 0 48 0;
#X connect 40 1 42 0;
#X connect 41 0 5 3;
#X connect 41 1 16 1;
#X connect 41 2 5 2;
#X connect 41 3 5 4;
#X connect 47 0 30 0;
#X connect 48 0 28 0;
#X connect 48 1 12 0;
#X connect 48 1 18 1;
#X connect 50 0 49 0;
#X connect 52 0 51 1;
