#N canvas 500 89 1036 912 10;
#X obj 11 103 gemhead;
#X obj 18 891 pix_texture;
#X floatatom 178 427 5 0 0 0 - - -;
#X floatatom 184 454 5 0 0 0 - - -;
#X floatatom 184 490 5 0 0 0 - - -;
#X msg 184 506 rel \$1;
#X floatatom 47 861 5 0 0 0 - - -;
#X floatatom 139 789 5 0 0 0 - - -;
#X symbolatom 221 736 40 0 0 0 - - -;
#X text 186 778 width;
#X text 229 757 height;
#X floatatom 177 756 5 0 0 0 - - -;
#X text 231 453 Frame #;
#X obj 93 724 unpack f f f s;
#X floatatom 94 811 5 0 0 0 - - -;
#X text 153 810 #frames;
#X obj 187 475 hsl 128 15 0 1 0 0 empty empty empty -2 -6 0 8 -262144
-1 -1 0 0;
#X text 224 425 Playback speed;
#X obj 108 689 print enfoffile;
#X text 230 506 Relative frame (0-1);
#X text 269 605 Loop bounds;
#X text 13 23 Description: A movie file manager and player.;
#X obj 18 919 rectangle 5.33 4;
#X obj 639 86 tgl 15 0 empty empty empty 0 -6 0 8 -262144 -1 -1 0 1
;
#X obj 106 218 file/parentfolder;
#X msg 196 605 loop \$1 \$2;
#X obj 196 540 gui/minmax 0 1;
#X obj 639 113 gems/win;
#X text 101 860 current frame;
#X msg 121 247 mov1.mov;
#X msg 121 270 mov0.mov;
#X text 85 112 To add a video file \, simply send the file path. Once
a video is loaded \, you can select that video by sending the full
file path or simply the file name.;
#X text 190 253 Once you load both videos above you can select them
with the file names instead of the file paths!;
#X obj 131 298 bng 15 250 50 0 empty empty empty 0 -6 0 8 -262144 -1
-1;
#X text 220 687 This outlet outputs a bang when the end of the file
is reached.;
#X text 152 295 Bang will open a panel.;
#N canvas 0 0 823 630 SAVING 0;
#X msg 131 269 contents;
#X msg 119 186 read tom.coll;
#X msg 119 211 write tom.coll;
#X text 215 271 This message displays the current entries. Editing
data in the window that pops up will have no effect.;
#X text 237 180 Read and write a text file (a collection) containing
the entries you added. If no path is specified \, the text file will
be saved in the same directory as [v33.readvf]. To remove an entry
\, you must manually edit this text file. An entry is composed of an
ID and a file name separated by a comma. Every entry is ended with
a colon.;
#X restore 608 444 pd SAVING;
#X text 511 416 SAVING FUNCTIONS ARE TEMPORARLY DISABLED!;
#X text 13 37 Version: 4;
#X obj 10 614 gems/movie;
#X msg 106 174 ../examples/media/movies/mov1.mov;
#X msg 395 173 ../examples/media/movies/mov0.mov;
#X connect 0 0 39 0;
#X connect 1 0 22 0;
#X connect 2 0 39 2;
#X connect 3 0 39 3;
#X connect 4 0 5 0;
#X connect 5 0 39 3;
#X connect 13 0 14 0;
#X connect 13 1 7 0;
#X connect 13 2 11 0;
#X connect 13 3 8 0;
#X connect 16 0 4 0;
#X connect 23 0 27 0;
#X connect 24 0 39 1;
#X connect 25 0 39 3;
#X connect 26 0 25 0;
#X connect 29 0 39 1;
#X connect 30 0 39 1;
#X connect 33 0 39 1;
#X connect 39 0 1 0;
#X connect 39 1 6 0;
#X connect 39 2 13 0;
#X connect 39 3 18 0;
#X connect 40 0 24 0;
#X connect 41 0 24 0;
