#N canvas 642 85 596 313 10;
#X obj 99 222 outlet;
#X obj 149 222 outlet;
#X obj 201 225 outlet;
#X obj 254 225 outlet;
#X obj 105 123 vsl 15 50 0 1 0 0 empty empty empty 0 -8 0 8 -258699
-1 -1 0 1;
#X obj 120 123 vsl 15 50 0 1 0 0 empty empty empty 0 -8 0 8 -24198
-1 -1 0 1;
#X obj 135 123 vsl 15 50 0 1 0 0 empty empty empty 0 -8 0 8 -62784
-1 -1 0 1;
#X obj 150 123 vsl 15 50 0 1 0 0 empty empty empty 0 -8 0 8 -195568
-1 -1 0 1;
#X connect 4 0 0 0;
#X connect 5 0 1 0;
#X connect 6 0 2 0;
#X connect 7 0 3 0;
#X coords 0 -1 1 1 70 80 1 100 100;
