#N canvas 0 0 450 300 10;
#X obj 133 238 square 1;
#X obj 135 218 colorRGB;
#X obj 135 90 alpha 1;
#X obj 135 68 gemhead;
#X obj 284 102 gems/win;
#X obj 284 82 tgl 15 0 empty empty empty 0 -6 0 8 -262144 -1 -1 0 1
;
#X text 52 14 Description: Simple graphical RGBA interface. Must be
connected to colorRGB.;
#X obj 167 109 gems/rgba_;
#X connect 1 0 0 0;
#X connect 2 0 1 0;
#X connect 3 0 2 0;
#X connect 5 0 4 0;
#X connect 7 0 1 1;
#X connect 7 1 1 2;
#X connect 7 2 1 3;
#X connect 7 3 1 4;
