#N canvas 75 63 990 728 10;
#X obj 74 23 inlet;
#X obj 73 47 t a a;
#X obj 326 308 % 2;
#X obj 684 276 coll;
#C restore;
#X obj 52 480 pix_image;
#X msg 275 416 open \$1;
#X obj 822 124 openpanel;
#X obj 823 144 t b a;
#X obj 833 239 pack f s;
#X obj 826 172 f 0;
#X obj 883 171 + 1;
#X msg 833 262 \$1 \$2 \, \$1;
#X obj 503 23 inlet;
#X obj 821 78 inlet;
#X obj 39 651 outlet;
#X obj 762 637 outlet;
#X obj 825 203 t f f;
#X obj 820 99 route bang;
#X obj 756 511 + 1;
#X obj 652 316 loadbang;
#X obj 623 411 t f f;
#X obj 530 174 prepend read;
#X msg 615 171 readagain;
#X obj 494 49 route read readagain float;
#X obj 654 339 f 0;
#X obj 286 264 t f b;
#X obj 327 284 f 0;
#X obj 360 291 + 1;
#X obj 721 196 f 2;
#X obj 148 485 pix_image;
#X obj 135 656 outlet;
#X obj 337 334 f;
#X obj 513 148 t b a b;
#X obj 588 146 t b b b;
#X obj 329 637 outlet;
#X obj 264 494 f 0;
#X msg 344 420 open \$1;
#X obj 346 501 f 1;
#X obj 253 392 t b a;
#X obj 335 399 t b a;
#X obj 269 367 demultiplex 0 1 2;
#X obj 52 438 pix_separator;
#X obj 151 400 separator;
#X obj 62 405 separator;
#X connect 0 0 1 0;
#X connect 1 0 43 0;
#X connect 1 1 42 0;
#X connect 2 0 31 0;
#X connect 3 0 40 0;
#X connect 4 0 14 0;
#X connect 5 0 4 0;
#X connect 6 0 7 0;
#X connect 7 0 9 0;
#X connect 7 1 8 1;
#X connect 8 0 11 0;
#X connect 9 0 10 0;
#X connect 9 0 16 0;
#X connect 10 0 9 1;
#X connect 11 0 3 0;
#X connect 12 0 23 0;
#X connect 13 0 17 0;
#X connect 16 0 18 0;
#X connect 16 1 8 0;
#X connect 17 0 6 0;
#X connect 17 1 7 0;
#X connect 18 0 15 0;
#X connect 19 0 24 0;
#X connect 20 0 18 0;
#X connect 20 1 9 1;
#X connect 21 0 3 0;
#X connect 22 0 3 0;
#X connect 23 0 32 0;
#X connect 23 1 33 0;
#X connect 23 2 3 0;
#X connect 23 3 3 0;
#X connect 23 3 25 0;
#X connect 24 0 40 1;
#X connect 25 0 40 0;
#X connect 25 1 26 0;
#X connect 26 0 27 0;
#X connect 26 0 2 0;
#X connect 27 0 26 1;
#X connect 28 0 40 1;
#X connect 29 0 30 0;
#X connect 31 0 40 1;
#X connect 32 0 31 0;
#X connect 32 1 21 0;
#X connect 32 2 28 0;
#X connect 33 0 31 0;
#X connect 33 1 22 0;
#X connect 33 2 28 0;
#X connect 35 0 34 0;
#X connect 36 0 29 0;
#X connect 37 0 34 0;
#X connect 38 0 35 0;
#X connect 38 1 5 0;
#X connect 39 0 37 0;
#X connect 39 1 36 0;
#X connect 40 0 38 0;
#X connect 40 1 39 0;
#X connect 40 2 20 0;
#X connect 41 0 4 0;
#X connect 42 0 29 0;
#X connect 43 0 41 0;
