#N canvas 33 512 438 278 10;
#X obj 106 66 r \$1\$3;
#X obj 106 125 s \$1\$3R;
#X text 47 201 \$3 is like /chptrA. In Bathyscaphe that's \$3 \, in
FXS it's \$2.;
#X text 47 231 Receives from \$0paramName and sends to \$0paramNameR
;
#X text 46 183 [sft.commun.sc.ez \$0 \$3 paramName 0 5000 btn* hide*]
;
#X text 46 250 *optional;
#X obj 106 96 sft.commun.sc \$1 \$2/\$3 \$4 \$5 \$6 \$7;
#X connect 0 0 6 0;
#X connect 6 0 1 0;
