#N canvas 459 264 494 344 10;
#X obj 121 253 outlet;
#X obj 111 188 change -1;
#X obj 116 20 keyname;
#X obj 119 143 route \$1;
#X obj 140 82 glue;
#X msg 140 101 \$2 \$1;
#X obj 142 43 symbol2list;
#X connect 1 0 0 0;
#X connect 2 0 4 0;
#X connect 2 1 6 0;
#X connect 3 0 1 0;
#X connect 4 0 5 0;
#X connect 5 0 3 0;
#X connect 6 0 4 1;
