#N canvas 267 162 462 312 10;
#X obj 19 164 tgl 15 0 empty empty empty 0 -6 0 8 -262144 -1 -1 0 1
;
#X text 17 119 The "a" key.;
#X obj 151 156 tgl 15 0 empty empty empty 0 -6 0 8 -262144 -1 -1 0
1;
#X text 149 111 The "2" key.;
#X obj 248 159 tgl 15 0 empty empty empty 0 -6 0 8 -262144 -1 -1 1
1;
#X text 246 114 The left control key.;
#X obj 18 238 tgl 15 0 empty empty empty 0 -6 0 8 -262144 -1 -1 1 1
;
#X text 16 193 The right control key.;
#X text 10 68 Requires the zexy external.;
#X obj 19 136 input/keyr a;
#X text 9 86 See also [key] and [keydown].;
#X obj 248 132 input/keyr Control_L;
#X obj 18 211 input/keyr Shift_L;
#X obj 151 129 input/keyr 2;
#X text 10 27 Description: Receive a computer key's status.;
#X connect 9 0 0 0;
#X connect 11 0 4 0;
#X connect 12 0 6 0;
#X connect 13 0 2 0;
