#N canvas 173 229 1055 791 10;
#X obj 105 116 hsl 128 15 0 1 0 0 empty empty min 0 8 0 8 -262144 -1
-1 6800 0;
#X obj 105 130 hsl 128 15 0 1 0 0 empty empty max 0 8 0 8 -262144 -1
-1 8700 0;
#X obj 402 668 outlet;
#X obj 468 617 pack;
#X obj 441 521 ../scale/linear 0 1 \$1 \$2;
#X obj 626 521 ../scale/linear 0 1 \$1 \$2;
#X obj 445 567 t f f;
#X obj 580 563 t f f;
#X obj 913 133 loadbang;
#X obj 952 228 pack \$1 \$2;
#X obj 1002 297 ==;
#X obj 952 260 t l l;
#X obj 952 293 +;
#X obj 952 321 == 0;
#X obj 970 353 &&;
#X obj 970 380 sel 1;
#X msg 966 415 1;
#X obj 813 250 f \$1;
#X obj 853 250 f \$2;
#X msg 50 234 label \$1;
#X obj 414 135 pack;
#X obj 414 166 unpack;
#X obj 460 241 >;
#X obj 415 324 f;
#X obj 411 272 demultiplex 0 1;
#X obj 397 360 pack;
#X obj 382 189 t f f f;
#X obj 414 299 b;
#X obj 548 432 t l l;
#X obj 645 462 s \$0top;
#X obj 475 34 r \$0top;
#X obj 482 63 unpack;
#X obj 545 486 unpack;
#X obj 55 362 makesymbol %s;
#X obj 186 340 makesymbol %s;
#X obj 614 149 pack;
#X obj 615 338 f;
#X obj 611 286 demultiplex 0 1;
#X obj 597 374 pack;
#X obj 582 203 t f f f;
#X obj 614 313 b;
#X obj 614 180 unpack;
#X obj 660 255 <;
#X msg 565 395 \$2 \$1;
#X msg 142 239 label \$1;
#X msg 188 399 set \$1;
#X msg 285 424 set \$1;
#X obj 895 167 t b b b;
#X msg 52 45 label min;
#X msg 135 48 label max;
#X obj 130 16 loadbang;
#X connect 0 0 20 0;
#X connect 1 0 35 0;
#X connect 3 0 2 0;
#X connect 4 0 6 0;
#X connect 5 0 7 0;
#X connect 6 0 3 0;
#X connect 6 1 33 0;
#X connect 7 0 3 1;
#X connect 7 1 34 0;
#X connect 8 0 47 0;
#X connect 9 0 11 0;
#X connect 10 0 14 1;
#X connect 11 0 12 0;
#X connect 11 1 10 0;
#X connect 12 0 13 0;
#X connect 13 0 14 0;
#X connect 14 0 15 0;
#X connect 15 0 16 0;
#X connect 16 0 4 4;
#X connect 16 0 5 4;
#X connect 19 0 0 0;
#X connect 20 0 21 0;
#X connect 21 0 26 0;
#X connect 21 1 23 1;
#X connect 21 1 22 1;
#X connect 22 0 24 1;
#X connect 23 0 25 1;
#X connect 24 0 27 0;
#X connect 24 1 25 1;
#X connect 25 0 28 0;
#X connect 26 0 25 0;
#X connect 26 1 24 0;
#X connect 26 2 22 0;
#X connect 27 0 23 0;
#X connect 28 0 32 0;
#X connect 28 1 29 0;
#X connect 30 0 31 0;
#X connect 31 0 35 1;
#X connect 31 1 20 1;
#X connect 32 0 4 0;
#X connect 32 0 45 0;
#X connect 32 1 5 0;
#X connect 32 1 46 0;
#X connect 33 0 19 0;
#X connect 34 0 44 0;
#X connect 35 0 41 0;
#X connect 36 0 38 1;
#X connect 37 0 40 0;
#X connect 37 1 38 1;
#X connect 38 0 43 0;
#X connect 39 0 38 0;
#X connect 39 1 37 0;
#X connect 39 2 42 0;
#X connect 40 0 36 0;
#X connect 41 0 39 0;
#X connect 41 1 36 1;
#X connect 41 1 42 1;
#X connect 42 0 37 1;
#X connect 43 0 28 0;
#X connect 44 0 1 0;
#X connect 45 0 0 0;
#X connect 46 0 1 0;
#X connect 47 0 17 0;
#X connect 47 1 18 0;
#X connect 47 2 9 0;
#X connect 48 0 0 0;
#X connect 49 0 1 0;
#X connect 50 0 48 0;
#X connect 50 0 49 0;
#X coords 0 -1 1 1 137 47 1 100 100;
