#N canvas 0 17 1155 838 10;
#X obj 647 692 outlet;
#N canvas 0 0 897 621 learnkeys 0;
#X obj 206 470 print lpn_midikeyboard_linking;
#X obj 364 418 tabwrite \$0keys;
#X obj 321 362 f;
#X obj 303 325 t b f;
#X obj 331 388 pack f f;
#X obj 584 84 inlet;
#X text 624 84 midi key2set;
#X obj 304 86 inlet;
#X text 339 86 keyboard keydown;
#X obj 401 504 outlet;
#X connect 2 0 4 0;
#X connect 3 0 2 0;
#X connect 3 1 4 1;
#X connect 4 0 1 0;
#X connect 4 0 0 0;
#X connect 4 0 9 0;
#X connect 5 0 2 1;
#X connect 7 0 3 0;
#X restore 655 425 page learnkeys;
#X obj 586 266 tgl 15 0 empty empty empty 0 -6 0 8 -262144 -1 -1 0
1;
#X obj 378 415 tabread \$0keys;
#X obj 459 382 unpack;
#X obj 374 474 pack;
#X obj 373 495 route 0;
#X obj 559 689 outlet;
#X obj 427 468 * 127;
#X text 697 653 velocity;
#X text 601 690 note;
#X obj 643 263 loadbang;
#X msg 586 220 0;
#X obj 1026 208 symbol \$0keys;
#X msg 1026 229 \; \$1 const 0;
#X obj 920 156 bng 15 250 50 0 empty empty empty 0 -6 0 8 -262144 -1
-1;
#X text 938 154 all reset;
#X obj 712 92 inlet;
#X obj 757 213 table \$0keys 256;
#X obj 285 591 makesymbol \$0r%smk;
#X obj 285 613 pack s f;
#X obj 285 568 unpack;
#X msg 285 635 \; \$1 set \$2;
#N canvas 0 0 454 304 saveload 0;
#X obj 163 79 s \$0keys;
#X obj 163 9 loadbang;
#X obj 29 -71 r \$0load;
#X obj 92 -70 r \$0save;
#X obj 29 -44 openpanel;
#X obj 92 -45 savepanel;
#X msg 29 30 read \$1;
#X msg 92 31 write \$1;
#X msg 163 36 read default.keys;
#X connect 1 0 8 0;
#X connect 2 0 4 0;
#X connect 3 0 5 0;
#X connect 4 0 6 0;
#X connect 5 0 7 0;
#X connect 6 0 0 0;
#X connect 7 0 0 0;
#X connect 8 0 0 0;
#X restore 757 234 pd saveload;
#X obj 923 375 unpack;
#X obj 923 397 swap;
#X obj 923 449 pack;
#N canvas 0 49 1006 684 mouse_receives 0;
#X obj 77 86 r \$0s49;
#X obj 143 86 r \$0s50;
#X obj 202 85 r \$0s51;
#X obj 275 83 r \$0s52;
#X obj 343 83 r \$0s53;
#X obj 403 86 r \$0s54;
#X obj 465 84 r \$0s55;
#X obj 526 84 r \$0s56;
#X obj 585 86 r \$0s57;
#X obj 650 88 r \$0s58;
#X obj 703 86 r \$0s59;
#X obj 754 88 r \$0s60;
#X obj 808 89 r \$0s61;
#X obj 859 89 r \$0s62;
#X obj 914 90 r \$0s63;
#X obj 961 92 r \$0s64;
#X obj 1019 95 r \$0s65;
#X obj 8 382 r \$0s66;
#X obj 72 383 r \$0s67;
#X obj 135 381 r \$0s68;
#X obj 187 384 r \$0s69;
#X obj 238 388 r \$0s70;
#X obj 293 387 r \$0s71;
#X obj 344 387 r \$0s72;
#X obj 400 386 r \$0s73;
#X obj 452 385 r \$0s74;
#X obj 503 385 r \$0s75;
#X obj 552 385 r \$0s76;
#X obj 601 382 r \$0s77;
#X obj 654 385 r \$0s78;
#X obj 702 386 r \$0s79;
#X obj 755 386 r \$0s80;
#X obj 809 387 r \$0s81;
#X obj 859 387 r \$0s82;
#X obj 909 387 r \$0s83;
#X obj 957 388 r \$0s84;
#X obj 5 86 r \$0s48;
#X obj 3 111 pack f 48;
#X obj 69 112 pack f 49;
#X obj 135 112 pack f 50;
#X obj 200 108 pack f 51;
#X obj 277 106 pack f 52;
#X obj 341 109 pack f 53;
#X obj 404 110 pack f 54;
#X obj 464 109 pack f 55;
#X obj 526 109 pack f 56;
#X obj 587 109 pack f 57;
#X obj 498 310 outlet;
#X obj 652 108 pack f 58;
#X obj 715 114 pack f 59;
#X obj 754 144 pack f 60;
#X obj 803 167 pack f 61;
#X obj 873 198 pack f 62;
#X obj 901 231 pack f 63;
#X obj 921 278 pack f 64;
#X obj 8 412 pack f 66;
#X obj 74 413 pack f 67;
#X obj 140 413 pack f 68;
#X obj 186 459 pack f 69;
#X obj 239 423 pack f 70;
#X obj 294 448 pack f 71;
#X obj 343 422 pack f 72;
#X obj 401 448 pack f 73;
#X obj 451 419 pack f 74;
#X obj 501 441 pack f 75;
#X obj 551 416 pack f 76;
#X obj 567 468 pack f 77;
#X obj 651 411 pack f 78;
#X obj 696 457 pack f 79;
#X obj 750 421 pack f 80;
#X obj 804 446 pack f 81;
#X obj 854 420 pack f 82;
#X obj 912 446 pack f 83;
#X obj 962 417 pack f 84;
#X obj 983 297 pack f 65;
#X connect 0 0 38 0;
#X connect 1 0 39 0;
#X connect 2 0 40 0;
#X connect 3 0 41 0;
#X connect 4 0 42 0;
#X connect 5 0 43 0;
#X connect 6 0 44 0;
#X connect 7 0 45 0;
#X connect 8 0 46 0;
#X connect 9 0 48 0;
#X connect 10 0 49 0;
#X connect 11 0 50 0;
#X connect 12 0 51 0;
#X connect 13 0 52 0;
#X connect 14 0 53 0;
#X connect 15 0 54 0;
#X connect 16 0 74 0;
#X connect 17 0 55 0;
#X connect 18 0 56 0;
#X connect 19 0 57 0;
#X connect 20 0 58 0;
#X connect 21 0 59 0;
#X connect 22 0 60 0;
#X connect 23 0 61 0;
#X connect 24 0 62 0;
#X connect 25 0 63 0;
#X connect 26 0 64 0;
#X connect 27 0 65 0;
#X connect 28 0 66 0;
#X connect 29 0 67 0;
#X connect 30 0 68 0;
#X connect 31 0 69 0;
#X connect 32 0 70 0;
#X connect 33 0 71 0;
#X connect 34 0 72 0;
#X connect 35 0 73 0;
#X connect 36 0 37 0;
#X connect 37 0 47 0;
#X connect 38 0 47 0;
#X connect 39 0 47 0;
#X connect 40 0 47 0;
#X connect 41 0 47 0;
#X connect 42 0 47 0;
#X connect 43 0 47 0;
#X connect 44 0 47 0;
#X connect 45 0 47 0;
#X connect 46 0 47 0;
#X connect 48 0 47 0;
#X connect 49 0 47 0;
#X connect 50 0 47 0;
#X connect 51 0 47 0;
#X connect 52 0 47 0;
#X connect 53 0 47 0;
#X connect 54 0 47 0;
#X connect 55 0 47 0;
#X connect 56 0 47 0;
#X connect 57 0 47 0;
#X connect 58 0 47 0;
#X connect 59 0 47 0;
#X connect 60 0 47 0;
#X connect 61 0 47 0;
#X connect 62 0 47 0;
#X connect 63 0 47 0;
#X connect 64 0 47 0;
#X connect 65 0 47 0;
#X connect 66 0 47 0;
#X connect 67 0 47 0;
#X connect 68 0 47 0;
#X connect 69 0 47 0;
#X connect 70 0 47 0;
#X connect 71 0 47 0;
#X connect 72 0 47 0;
#X connect 73 0 47 0;
#X connect 74 0 47 0;
#X restore 923 355 pd mouse_receives;
#X obj 559 635 unpack;
#X obj 459 356 spigot;
#X obj 490 334 == 0;
#X obj 560 181 r \$0learn;
#X obj 655 378 spigot;
#X msg 734 403 \$1;
#X obj 735 378 spigot;
#X obj 739 525 makesymbol \$0r%smk;
#X msg 743 559 \; \$1 set 0;
#X msg 655 447 \$1;
#X obj 655 475 t f b f;
#X msg 668 502 0;
#X obj 378 392 swap;
#X obj 655 399 route 1;
#N canvas 1427 263 339 547 keys 0;
#X obj 142 39 key;
#X obj 213 46 keyup;
#X msg 122 102 1 \$1;
#X msg 220 104 0 \$1;
#X obj 42 461 outlet;
#X connect 0 0 2 0;
#X connect 1 0 3 0;
#X connect 2 0 4 0;
#X connect 3 0 4 0;
#X restore 453 143 pd keys;
#X obj 712 119 route list show;
#X obj 0 15 cnv 15 394 87 lpn_trilpn_tri empty empty 20 12 0 14 -1
-66577 0;
#X obj 95 18 cnv 15 20 80 empty empty empty 20 12 0 14 -262144 -66577
0;
#X obj 118 18 cnv 15 20 80 empty empty empty 20 12 0 14 -262144 -66577
0;
#X obj 141 18 cnv 15 20 80 empty empty empty 20 12 0 14 -262144 -66577
0;
#X obj 3 18 cnv 15 20 80 empty empty empty 20 12 0 14 -262144 -66577
0;
#X obj 26 18 cnv 15 20 80 empty empty empty 20 12 0 14 -262144 -66577
0;
#X obj 49 18 cnv 15 20 80 empty empty empty 20 12 0 14 -262144 -66577
0;
#X obj 72 18 cnv 15 20 80 empty empty empty 20 12 0 14 -262144 -66577
0;
#X obj 16 18 cnv 14 14 55 empty empty empty 20 12 0 14 -1 -66577 0
;
#X obj 42 18 cnv 14 14 55 empty empty empty 20 12 0 14 -1 -66577 0
;
#X obj 85 18 cnv 14 14 55 empty empty empty 20 12 0 14 -1 -66577 0
;
#X obj 109 18 cnv 14 14 55 empty empty empty 20 12 0 14 -1 -66577 0
;
#X obj 134 18 cnv 14 14 55 empty empty empty 20 12 0 14 -1 -66577 0
;
#X obj 7 80 tgl 12 0 \$0s48 \$0r48mk empty 20 8 0 8 -262144 -1 -1 0
127;
#X obj 17 59 tgl 12 0 \$0s49 \$0r49mk empty 20 8 0 8 -262144 -1 -1
0 1;
#X obj 30 80 tgl 12 0 \$0s50 \$0r50mk empty 20 8 0 8 -262144 -1 -1
0 127;
#X obj 43 59 tgl 12 0 \$0s51 \$0r51mk empty 20 8 0 8 -262144 -1 -1
0 1;
#X obj 53 80 tgl 12 0 \$0s52 \$0r52mk empty 20 8 0 8 -262144 -1 -1
0 127;
#X obj 76 80 tgl 12 0 \$0s53 \$0r53mk empty 20 8 0 8 -262144 -1 -1
0 127;
#X obj 99 80 tgl 12 0 \$0s55 \$0r55mk empty 20 8 0 8 -262144 -1 -1
0 127;
#X obj 122 80 tgl 12 0 \$0s57 \$0r57mk empty 20 8 0 8 -262144 -1 -1
0 127;
#X obj 86 59 tgl 12 0 \$0s54 \$0r54mk empty 20 8 0 8 -262144 -1 -1
0 1;
#X obj 110 59 tgl 12 0 \$0s56 \$0r56mk empty 20 8 0 8 -262144 -1 -1
0 1;
#X obj 135 59 tgl 12 0 \$0s58 \$0r58mk empty 20 8 0 8 -262144 -1 -1
0 1;
#X obj 145 80 tgl 12 0 \$0s59 \$0r59mk empty 20 8 0 8 -262144 -1 -1
0 1;
#X obj 256 18 cnv 15 20 80 empty empty empty 20 12 0 14 -262144 -66577
0;
#X obj 279 18 cnv 15 20 80 empty empty empty 20 12 0 14 -262144 -66577
0;
#X obj 302 18 cnv 15 20 80 empty empty empty 20 12 0 14 -262144 -66577
0;
#X obj 164 18 cnv 15 20 80 empty empty empty 20 12 0 14 -262144 -66577
0;
#X obj 187 18 cnv 15 20 80 empty empty empty 20 12 0 14 -262144 -66577
0;
#X obj 210 18 cnv 15 20 80 empty empty empty 20 12 0 14 -262144 -66577
0;
#X obj 233 18 cnv 15 20 80 empty empty empty 20 12 0 14 -262144 -66577
0;
#X obj 177 18 cnv 14 14 55 empty empty empty 20 12 0 14 -1 -66577 0
;
#X obj 203 18 cnv 14 14 55 empty empty empty 20 12 0 14 -1 -66577 0
;
#X obj 246 18 cnv 14 14 55 empty empty empty 20 12 0 14 -1 -66577 0
;
#X obj 270 18 cnv 14 14 55 empty empty empty 20 12 0 14 -1 -66577 0
;
#X obj 295 18 cnv 14 14 55 empty empty empty 20 12 0 14 -1 -66577 0
;
#X obj 168 80 tgl 12 0 \$0s60 \$0r60mk empty 20 8 0 8 -262144 -1 -1
0 1;
#X obj 178 59 tgl 12 0 \$0s61 \$0r61mk empty 20 8 0 8 -262144 -1 -1
0 1;
#X obj 191 80 tgl 12 0 \$0s62 \$0r62mk empty 20 8 0 8 -262144 -1 -1
0 1;
#X obj 204 59 tgl 12 0 \$0s63 \$0r63mk empty 20 8 0 8 -262144 -1 -1
0 1;
#X obj 214 80 tgl 12 0 \$0s64 \$0r64mk empty 20 8 0 8 -262144 -1 -1
0 1;
#X obj 237 80 tgl 12 0 \$0s65 \$0r65mk empty 20 8 0 8 -262144 -1 -1
0 127;
#X obj 260 80 tgl 12 0 \$0s67 \$0r67mk empty 20 8 0 8 -262144 -1 -1
0 127;
#X obj 283 80 tgl 12 0 \$0s69 \$0r69mk empty 20 8 0 8 -262144 -1 -1
0 1;
#X obj 247 59 tgl 12 0 \$0s66 \$0r66mk empty 20 8 0 8 -262144 -1 -1
0 1;
#X obj 271 59 tgl 12 0 \$0s68 \$0r68mk empty 20 8 0 8 -262144 -1 -1
0 1;
#X obj 296 59 tgl 12 0 \$0s70 \$0r70mk empty 20 8 0 8 -262144 -1 -1
0 1;
#X obj 306 80 tgl 12 0 \$0s71 \$0r71mk empty 20 8 0 8 -262144 -1 -1
0 1;
#X obj 325 18 cnv 15 20 80 empty empty empty 20 12 0 14 -262144 -66577
0;
#X obj 348 18 cnv 15 20 80 empty empty empty 20 12 0 14 -262144 -66577
0;
#X obj 371 18 cnv 15 20 80 empty empty empty 20 12 0 14 -262144 -66577
0;
#X obj 338 18 cnv 14 14 55 empty empty empty 20 12 0 14 -1 -66577 0
;
#X obj 364 18 cnv 14 14 55 empty empty empty 20 12 0 14 -1 -66577 0
;
#X obj 329 80 tgl 12 0 \$0s72 \$0r72mk empty 20 8 0 8 -262144 -1 -1
0 127;
#X obj 339 59 tgl 12 0 \$0s73 \$0r73mk empty 20 8 0 8 -262144 -1 -1
0 1;
#X obj 352 80 tgl 12 0 \$0s74 \$0r74mk empty 20 8 0 8 -262144 -1 -1
0 1;
#X obj 365 59 tgl 12 0 \$0s75 \$0r75mk empty 20 8 0 8 -262144 -1 -1
0 1;
#X obj 375 80 tgl 12 0 \$0s76 \$0r76mk empty 20 8 0 8 -262144 -1 -1
0 127;
#X obj 0 103 cnv 15 394 15 empty empty keymap 4 6 0 8 -1 -262144 0
;
#X obj 140 103 tgl 12 0 \$0learn empty LEARN 15 6 0 8 -260818 -1 -262144
0 1;
#X obj 46 103 bng 12 250 50 0 \$0load empty LOAD 15 6 0 8 -24198 -1
-262144;
#X obj 94 103 bng 12 250 50 0 \$0save empty SAVE 15 6 0 8 -258699 -1
-262144;
#X obj 432 652 t l l;
#X obj 424 698 outlet;
#X obj 289 103 bng 12 250 50 0 empty empty STOP 15 6 0 8 -258699 -1
-262144;
#X obj 930 180 t b b;
#X obj 926 276 makesymbol \$0r%smk;
#X obj 924 226 flow/gun;
#X obj 929 249 + 47;
#X msg 918 199 29;
#X msg 928 309 \; \$1 0;
#X obj 624 584 pack;
#X obj 383 231 spigot \$1;
#X obj 341 102 tgl 12 0 empty empty ON/OFF 15 6 0 8 -262144 -1 -262144
0 1;
#X obj 508 51 loadbang;
#X obj 482 75 f \$1;
#X obj 379 0 bng 15 250 50 0 empty empty > 5 8 0 8 -1 -262144 -262144
;
#X obj 0 0 cnv 15 379 15 empty \$0hider input/piano_ 3 9 0 8 -1 -262144
0;
#X obj 661 20 s \$0hider;
#X msg 457 -41 label <;
#X obj 377 -91 loadbang;
#X obj 543 -21 tgl 15 0 empty empty empty 0 -6 0 8 -262144 -1 -1 0
1;
#X obj 537 8 sel 1 0;
#X msg 377 -44 label >;
#X msg 744 -49 size 1 15 \, vis_size 1 15 \, label;
#X msg 568 -82 vis_size 379 15 \, size 15 15 \, label input/piano_
;
#X connect 1 0 37 0;
#X connect 2 0 30 0;
#X connect 2 0 32 1;
#X connect 2 0 34 1;
#X connect 3 0 5 0;
#X connect 4 0 40 0;
#X connect 4 1 40 1;
#X connect 5 0 6 0;
#X connect 6 1 21 0;
#X connect 6 1 107 0;
#X connect 8 0 5 1;
#X connect 11 0 12 0;
#X connect 12 0 2 0;
#X connect 13 0 14 0;
#X connect 15 0 110 0;
#X connect 17 0 43 0;
#X connect 19 0 20 0;
#X connect 20 0 22 0;
#X connect 21 0 19 0;
#X connect 21 1 20 1;
#X connect 24 0 25 0;
#X connect 24 1 25 1;
#X connect 25 0 26 0;
#X connect 25 1 26 1;
#X connect 26 0 34 0;
#X connect 26 0 107 0;
#X connect 27 0 24 0;
#X connect 28 0 7 0;
#X connect 28 1 0 0;
#X connect 29 0 4 0;
#X connect 30 0 29 1;
#X connect 31 0 2 0;
#X connect 32 0 41 0;
#X connect 33 0 1 1;
#X connect 34 0 33 0;
#X connect 35 0 36 0;
#X connect 37 0 38 0;
#X connect 38 0 116 0;
#X connect 38 1 39 0;
#X connect 38 2 35 0;
#X connect 39 0 116 1;
#X connect 40 0 3 0;
#X connect 40 1 8 0;
#X connect 41 0 1 0;
#X connect 42 0 117 0;
#X connect 43 0 29 0;
#X connect 43 0 32 0;
#X connect 107 0 108 0;
#X connect 107 1 28 0;
#X connect 109 0 15 0;
#X connect 110 0 114 0;
#X connect 111 0 115 0;
#X connect 112 0 113 0;
#X connect 113 0 111 0;
#X connect 114 0 112 0;
#X connect 116 0 107 0;
#X connect 117 0 29 0;
#X connect 118 0 117 1;
#X connect 119 0 120 0;
#X connect 120 0 118 0;
#X connect 121 0 126 0;
#X connect 124 0 121 0;
#X connect 125 0 128 0;
#X connect 125 0 130 0;
#X connect 126 0 127 0;
#X connect 127 0 129 0;
#X connect 127 0 124 0;
#X connect 127 1 130 0;
#X connect 127 1 128 0;
#X connect 128 0 121 0;
#X connect 129 0 123 0;
#X connect 130 0 123 0;
#X coords 0 -1 1 1 394 118 1 0 0;
