#N canvas 314 27 879 737 10;
#X floatatom 465 525 5 0 0 0 - - -;
#X floatatom 595 559 5 0 0 0 - - -;
#X obj 483 645 noteout;
#X text 639 559 velocity (0/127);
#X text 502 523 pitch (48 to 84);
#X text 115 58 When [pianokeyboard] loads \, it automaticaly reads
default.keys and triggers midi values following keypresses on a QWERTY
keyboard.;
#X text 117 107 To change these associations \, click on the LEARN
toggle in the piano window \, select the midi key with the mouse and
press the corresponding key on the keyboard. If it worked \, the toggle
previously checked with the mouse will automatically uncheck. To leave
the LEARN mode \, just uncheck the LEARN button.;
#X text 68 12 Description: Transform your computer keyboard into a
midi piano.;
#X obj 232 291 input/piano_;
#X obj 183 532 unpack;
#X floatatom 164 573 5 0 0 0 - - -;
#X floatatom 234 574 5 0 0 0 - - -;
#X text 97 473 Outlet 1 simply groups the outputs of outlets 2 and
3;
#X connect 0 0 2 0;
#X connect 1 0 2 1;
#X connect 8 0 9 0;
#X connect 8 1 0 0;
#X connect 8 2 1 0;
#X connect 9 0 10 0;
#X connect 9 1 11 0;
