#N canvas 443 185 343 176 10;
#X text 31 44 See;
#X obj 60 45 throw~;
#X text 30 2 Description: Throws 7 signals.;
#X text 33 17 tags: ambisonic;
#X obj 73 101 mtl/ambiThrow7~ bar;
#X obj 75 129 mtl/ambiCatch7~ bar;
