#N canvas 1028 25 1005 686 10;
#X obj 23 -189 inlet speed;
#X msg 381 -13 set \$1;
#X obj 389 -82 symbol;
#X obj 31 544 outlet~;
#X obj 328 545 outlet~;
#X obj 387 541 outlet size;
#X obj 521 533 outlet done;
#X obj 142 -35 sel 0;
#X obj 34 515 *~;
#X msg 130 475 \$1 5;
#X msg 140 445 1;
#X obj 188 527 spigot;
#X obj 262 390 t b b;
#X msg 260 456 1;
#X obj 159 396 t b b;
#X msg 179 448 0;
#X msg 205 475 0;
#X obj 115 -11 s \$0stop;
#X obj 261 365 r \$0stop;
#X msg 13 -6 1 0;
#X msg 186 21 \$1 0;
#X obj 44 102 unpack f f;
#X obj 105 502 cyclone/Line~;
#X obj 444 104 flatspace/arraysize;
#X msg 444 76 set \$1 \, bang;
#X obj 24 -62 route bang list float;
#X obj 580 -21 iemlib/dollarg;
#X obj 581 -62 loadbang;
#X obj 555 207 table \$0t 3;
#X obj 395 -51 t s s;
#X obj 29 418 cyclone/wave~;
#X obj 32 277 tof/phasorshot~;
#X obj 231 228 ./smpToFreq;
#X obj 30 232 *;
#X msg 187 551 0;
#X obj 816 -118 inlet loop;
#X obj 298 266 spigot 1;
#X obj 350 236 == 0;
#X obj 459 405 t b b b;
#X msg 252 316 0 0;
#X obj 146 136 clip 0 1;
#X obj 585 4 tof/listUnfold;
#X obj 589 30 route symbol float;
#X obj 595 121 f;
#X obj 26 139 moses 0;
#X obj 122 188 -;
#X obj 118 213 abs;
#X obj 15 160 t f b;
#X obj 65 162 t f b;
#X msg 107 159 0;
#X msg 67 195 1;
#X obj 24 -156 route set panel;
#X obj 216 -228 openpanel;
#X obj 216 -154 soundfiler;
#X msg 216 -178 read -resize \$1 \$2;
#X obj 216 -202 list append \$0t;
#X obj 224 -68 t b s;
#X obj 42 65 t a b b;
#X obj 216 -125 b;
#X obj 218 -94 symbol \$0t;
#X connect 0 0 51 0;
#X connect 1 0 30 0;
#X connect 2 0 29 0;
#X connect 7 0 17 0;
#X connect 7 1 20 0;
#X connect 8 0 3 0;
#X connect 9 0 22 0;
#X connect 10 0 9 0;
#X connect 11 0 34 0;
#X connect 12 0 15 0;
#X connect 12 1 13 0;
#X connect 13 0 11 1;
#X connect 14 0 10 0;
#X connect 14 1 16 0;
#X connect 15 0 9 0;
#X connect 16 0 11 1;
#X connect 18 0 12 0;
#X connect 19 0 57 0;
#X connect 20 0 57 0;
#X connect 21 0 44 0;
#X connect 21 1 40 0;
#X connect 22 0 8 1;
#X connect 22 1 11 0;
#X connect 23 0 5 0;
#X connect 23 0 32 0;
#X connect 24 0 23 0;
#X connect 25 0 19 0;
#X connect 25 1 57 0;
#X connect 25 2 7 0;
#X connect 26 0 41 0;
#X connect 27 0 26 0;
#X connect 29 0 1 0;
#X connect 29 1 24 0;
#X connect 30 0 8 0;
#X connect 31 0 30 0;
#X connect 31 0 4 0;
#X connect 31 1 36 0;
#X connect 31 2 36 0;
#X connect 32 0 33 1;
#X connect 33 0 31 0;
#X connect 34 0 31 0;
#X connect 35 0 43 0;
#X connect 36 0 38 0;
#X connect 37 0 36 1;
#X connect 38 0 6 0;
#X connect 38 2 39 0;
#X connect 39 0 31 0;
#X connect 40 0 45 1;
#X connect 41 0 42 0;
#X connect 42 0 2 0;
#X connect 42 1 43 0;
#X connect 43 0 37 0;
#X connect 43 0 31 2;
#X connect 44 0 47 0;
#X connect 44 1 48 0;
#X connect 45 0 46 0;
#X connect 46 0 31 1;
#X connect 47 0 33 0;
#X connect 47 1 50 0;
#X connect 48 0 33 0;
#X connect 48 1 49 0;
#X connect 49 0 45 0;
#X connect 50 0 45 0;
#X connect 51 0 2 0;
#X connect 51 1 52 0;
#X connect 51 2 25 0;
#X connect 52 0 55 0;
#X connect 53 0 58 0;
#X connect 54 0 53 0;
#X connect 55 0 54 0;
#X connect 56 0 25 0;
#X connect 56 1 2 0;
#X connect 57 0 21 0;
#X connect 57 1 14 0;
#X connect 58 0 59 0;
#X connect 59 0 56 0;
