#N canvas 396 47 546 392 10;
#X text 282 77 samples to milliseconds conversion;
#X obj 31 25 inlet;
#X obj 151 194 samplerate~;
#X obj 49 213 /;
#X obj 44 337 outlet;
#X obj 56 278 /;
#X msg 47 242 1 \$1;
#X obj 64 90 t f b;
#X obj 55 55 route float;
#X obj 121 85 unpack f f;
#X connect 1 0 8 0;
#X connect 2 0 3 1;
#X connect 3 0 6 0;
#X connect 5 0 4 0;
#X connect 6 0 5 0;
#X connect 7 0 3 0;
#X connect 7 1 2 0;
#X connect 8 0 7 0;
#X connect 8 1 9 0;
#X connect 9 0 3 0;
#X connect 9 1 3 1;
