#N canvas 0 0 450 300 10;
#X obj 244 140 symbol \$1;
#X obj 78 242 outlet~;
#X obj 304 180 pack s s;
#X obj 316 84 t b s;
#X obj 315 57 r MIX/QUERY;
#X msg 309 209 \; \$2 \$1;
#X obj 160 174 catch~ \$1_1;
#X obj 56 172 catch~ \$1_0;
#X obj 198 243 outlet~;
#X connect 0 0 2 0;
#X connect 2 0 5 0;
#X connect 3 0 0 0;
#X connect 3 1 2 1;
#X connect 4 0 3 0;
#X connect 6 0 8 0;
#X connect 7 0 1 0;
