#N canvas 0 0 450 300 10;
#X obj 60 48 inlet~;
#X obj 227 62 inlet~;
#X obj 141 332 outlet~;
#X obj 141 297 +~;
#X obj 396 257 -;
#X msg 396 233 1 \$1;
#X obj 365 67 loadbang;
#X obj 246 341 outlet;
#X obj 377 325 outlet;
#X obj 370 200 t f f;
#N canvas 0 0 458 308 pow 0;
#X obj 125 174 pow 2;
#X msg 127 216 1 \$1;
#X obj 135 243 -;
#X obj 121 141 inlet;
#X obj 201 140 inlet;
#X obj 135 270 outlet;
#X connect 0 0 1 0;
#X connect 1 0 2 0;
#X connect 2 0 5 0;
#X connect 3 0 0 0;
#X connect 4 0 0 1;
#X restore 400 281 pd pow;
#N canvas 0 0 454 304 pow 0;
#X obj 125 174 pow 2;
#X msg 127 216 1 \$1;
#X obj 135 243 -;
#X obj 121 141 inlet;
#X obj 201 140 inlet;
#X obj 135 270 outlet;
#X connect 0 0 1 0;
#X connect 1 0 2 0;
#X connect 2 0 5 0;
#X connect 3 0 0 0;
#X connect 4 0 0 1;
#X restore 175 161 pd pow;
#X obj 175 185 t f f;
#X obj 380 301 t f f;
#X obj 364 96 f \$2;
#X obj 539 58 loadbang;
#X obj 538 87 f \$1;
#X obj 364 132 clip -1 1;
#X obj 411 165 + 1;
#X obj 465 155 / 2;
#X floatatom 445 234 5 0 0 0 - - -;
#X obj 637 144 sel 0;
#X obj 593 120 moses 0;
#X msg 593 171 1;
#X obj 613 215 f;
#X obj 119 114 line~;
#X msg 119 89 \$1 5;
#X obj 60 148 *~;
#X obj 245 164 *~;
#X obj 281 144 line~;
#X msg 281 119 \$1 5;
#X obj 510 28 inlet curve;
#X obj 326 39 inlet mix(-1_to_1);
#X connect 0 0 27 0;
#X connect 1 0 28 0;
#X connect 3 0 2 0;
#X connect 4 0 10 0;
#X connect 5 0 4 0;
#X connect 6 0 14 0;
#X connect 9 0 11 0;
#X connect 9 1 5 0;
#X connect 10 0 13 0;
#X connect 11 0 12 0;
#X connect 12 0 7 0;
#X connect 12 1 26 0;
#X connect 13 0 8 0;
#X connect 13 1 30 0;
#X connect 14 0 17 0;
#X connect 15 0 16 0;
#X connect 16 0 22 0;
#X connect 17 0 18 0;
#X connect 18 0 19 0;
#X connect 19 0 9 0;
#X connect 19 0 20 0;
#X connect 21 0 23 0;
#X connect 21 1 24 0;
#X connect 22 0 23 0;
#X connect 22 1 21 0;
#X connect 23 0 24 0;
#X connect 24 0 10 1;
#X connect 24 0 11 1;
#X connect 25 0 27 1;
#X connect 26 0 25 0;
#X connect 27 0 3 0;
#X connect 28 0 3 1;
#X connect 29 0 28 1;
#X connect 30 0 29 0;
#X connect 31 0 16 0;
#X connect 32 0 14 0;
