#N canvas 442 371 908 492 10;
#N canvas 0 0 450 300 graph2 0;
#X array \$0cf1 4410 float 2;
#X coords 0 1 4410 0 200 140 1;
#X restore 602 316 graph;
#X obj 36 106 osc~ 440;
#X obj 58 352 dac~;
#X obj 116 140 hsl 128 15 0 1 0 0 empty empty empty -2 -6 0 8 -262144
-1 -1 0 1;
#X text 259 45 Creation arguments.;
#X text 256 60 Arg 1: curve (defaults to 1). 1 == linear.;
#X text 430 156 Check out the curves:;
#X msg 432 178 0.25;
#X msg 519 176 1;
#X msg 562 178 3;
#X msg 608 176 10;
#X msg 649 183 40;
#X text 43 18 Description: Fades an input along different curves.;
#X text 122 122 0(none) to 1(all);
#X obj 76 251 mix/fade~;
#X obj 166 188 hsl 128 15 0.01 10 1 0 empty empty empty -2 -6 0 8 -262144
-1 -1 0 1;
#X floatatom 163 210 5 0 0 0 - - -;
#X text 180 163 Curve (0 to infiniti);
#X msg 390 176 0.1;
#X msg 473 178 0.5;
#X obj 366 358 mix/fade~ 2 1;
#X obj 138 293 gui/snap~;
#X text 178 276 Volume.;
#X obj 104 166 sig~;
#X obj 416 319 line~;
#X obj 476 390 tabwrite~ \$0cf1;
#X obj 467 268 t b f b;
#X msg 418 297 0 \, 1 100;
#X obj 131 334 anal/scope_~ 1;
#X connect 1 0 14 0;
#X connect 3 0 23 0;
#X connect 7 0 26 0;
#X connect 8 0 26 0;
#X connect 9 0 26 0;
#X connect 10 0 26 0;
#X connect 11 0 26 0;
#X connect 14 0 2 0;
#X connect 14 0 2 1;
#X connect 14 0 28 0;
#X connect 14 1 21 0;
#X connect 15 0 16 0;
#X connect 16 0 14 2;
#X connect 18 0 26 0;
#X connect 19 0 26 0;
#X connect 20 1 25 0;
#X connect 23 0 14 1;
#X connect 24 0 20 1;
#X connect 26 0 27 0;
#X connect 26 1 20 2;
#X connect 26 2 25 0;
#X connect 27 0 24 0;
