#N canvas 0 0 996 671 10;
#X obj 60 48 inlet~;
#X obj 120 339 outlet~;
#X obj 120 304 +~;
#N canvas 0 0 454 304 pow 0;
#X obj 135 270 outlet~;
#X obj 121 141 inlet~;
#X obj 125 174 pow~;
#X obj 201 140 inlet~;
#X connect 1 0 2 0;
#X connect 2 0 0 0;
#X connect 3 0 2 1;
#X restore 229 169 pd pow;
#X obj 539 58 loadbang;
#X obj 538 87 f \$1;
#X obj 637 144 sel 0;
#X obj 593 120 moses 0;
#X msg 593 171 1;
#X obj 613 215 f;
#X obj 60 148 *~;
#X obj 510 28 inlet curve;
#X obj 597 348 curve~;
#X obj 313 92 clip~ 0 1;
#X obj 327 39 inlet~ mix~;
#X obj 246 341 outlet~;
#X obj 411 111 gui/snap~;
#X obj 294 235 gui/snap~;
#X connect 0 0 10 0;
#X connect 2 0 1 0;
#X connect 3 0 15 0;
#X connect 3 0 10 1;
#X connect 3 0 17 0;
#X connect 4 0 5 0;
#X connect 5 0 7 0;
#X connect 6 0 8 0;
#X connect 6 1 9 0;
#X connect 7 0 8 0;
#X connect 7 1 6 0;
#X connect 8 0 9 0;
#X connect 9 0 3 0;
#X connect 10 0 2 0;
#X connect 11 0 5 0;
#X connect 13 0 3 1;
#X connect 14 0 13 0;
#X connect 14 0 16 0;
