#N canvas 0 0 477 227 10;
#X obj 193 152 switch~;
#X obj 50 150 dac~;
#X obj 51 103 osc~ 444;
#X text 204 129 argument 0= when off \, 1= when on;
#X obj 193 106 tgl 15 0 empty empty :off/on: 20 7 0 8 -33289 -262144
-1 0 1;
#X obj 20 73 cnv 1 430 1 empty empty empty 0 -10 0 16 -66577 -66577
0;
#X obj 20 2 cnv 15 430 22 empty empty empty 20 12 0 14 -241404 -66577
0;
#X text 226 50 Flags: internal;
#X obj 20 23 cnv 6 430 1 empty empty ::mix/switchwhen~:: 0 -10 0 12
-66577 -1 0;
#X text 376 6 Version: 1;
#X obj 20 2 cnv 1 430 1 empty empty empty 0 -10 0 16 -66577 -66577
0;
#X text 33 48 Author: ClaudiusMaximus;
#X text 33 33 Description: switch~ without glitches;
#X obj 51 126 mix/switchnice~ 1;
#X connect 2 0 13 0;
#X connect 4 0 13 1;
#X connect 13 0 1 0;
#X connect 13 0 1 1;
#X connect 13 1 0 0;
