#N canvas 174 304 450 300 10;
#X obj 135 231 outlet~;
#X obj 151 35 inlet~;
#X obj 208 35 inlet;
#X msg 207 204 1;
#X msg 237 204 0;
#X obj 134 204 *~;
#X obj 290 145 vline~;
#X msg 276 114 1 5;
#X msg 306 112 0 5;
#X obj 259 85 t b b;
#X obj 207 83 t b b;
#X obj 259 179 delay 7;
#X msg 225 153 stop;
#X obj 207 231 outlet;
#X obj 208 63 select \$1;
#X connect 1 0 5 1;
#X connect 2 0 14 0;
#X connect 3 0 13 0;
#X connect 4 0 13 0;
#X connect 5 0 0 0;
#X connect 6 0 5 0;
#X connect 7 0 6 0;
#X connect 8 0 6 0;
#X connect 9 0 11 0;
#X connect 9 1 8 0;
#X connect 10 0 3 0;
#X connect 10 1 7 0;
#X connect 10 1 12 0;
#X connect 11 0 4 0;
#X connect 12 0 11 0;
#X connect 14 0 10 0;
#X connect 14 1 9 0;
