#N canvas 197 247 932 544 10;
#X obj 22 8 inlet~;
#X obj 90 511 outlet~;
#N canvas 0 0 591 560 1168throws 0;
#X restore 781 402 pd \$0throws;
#N canvas 0 0 1125 631 build_throws 0;
#X obj 765 280 makesymbol pd-%sthrows;
#X obj 662 215 f \$0;
#X obj 508 208 f \$2;
#X obj 411 276 - 1;
#X obj 414 341 makesymbol %s_%s;
#X obj 421 309 pack f \$0;
#X obj 742 370 symbol \$1;
#X obj 469 12 inlet;
#X obj 908 132 inlet;
#X msg 907 159 bang;
#X obj 448 239 ../flow/gun;
#X obj 754 307 t s b s;
#X obj 499 310 * 30;
#X msg 857 358 \; \$1 clear \;;
#X obj 643 411 pack \$0 s;
#X obj 451 137 t b b b;
#X msg 709 447 \; \$2 obj 0 0 r \$1add \; \$2 obj 100 0 r \$1del;
#X obj 454 267 t f f;
#X obj 130 365 ../flow/gun;
#X obj 128 299 f \$2;
#X obj 121 420 + 1;
#X obj 129 459 pack f f s;
#X obj 130 392 t f f;
#X obj 166 417 + 2;
#X msg 143 491 \; \$3 connect \$1 0 \$2 0 \; \$3 connect \$1 1 \$2
1;
#X obj 124 320 - 1;
#X obj 263 309 pack \$0 s;
#X msg 232 354 \; \$2 connect 0 0 2 0 \; \$2 connect 1 0 2 1 \; \$2
obj 0 500 s \$1addr \; \$2 obj 300 500 s \$1delr;
#X obj 170 204 t b b b b;
#X obj 25 288 f \$2;
#X obj 36 348 + 2;
#X obj 66 349 + 3;
#X obj 22 314 t f f f;
#X obj 7 351 + 1;
#X obj 3 387 pack f f f s;
#X msg -41 431 \; \$4 connect \$1 0 \$2 0 \; \$4 connect \$1 1 \$3
0;
#X obj 423 428 pack s s \$0 s f \$3;
#X obj 548 85 unpack s f;
#X obj 467 40 t b l;
#X msg 427 484 \; \$2 obj 10 \$5 throws/thrower~ \$1 \$3 \$4 \$6;
#X connect 0 0 11 0;
#X connect 1 0 0 0;
#X connect 2 0 10 0;
#X connect 3 0 5 0;
#X connect 4 0 36 0;
#X connect 5 0 4 0;
#X connect 6 0 36 3;
#X connect 7 0 38 0;
#X connect 8 0 9 0;
#X connect 9 0 1 0;
#X connect 10 0 17 0;
#X connect 11 0 14 1;
#X connect 11 0 21 2;
#X connect 11 0 26 1;
#X connect 11 0 34 3;
#X connect 11 0 36 1;
#X connect 11 1 6 0;
#X connect 11 2 13 0;
#X connect 12 0 36 4;
#X connect 14 0 16 0;
#X connect 15 0 28 0;
#X connect 15 1 14 0;
#X connect 15 2 1 0;
#X connect 17 0 3 0;
#X connect 17 1 12 0;
#X connect 18 0 22 0;
#X connect 19 0 25 0;
#X connect 20 0 21 0;
#X connect 21 0 24 0;
#X connect 22 0 20 0;
#X connect 22 1 23 0;
#X connect 23 0 21 1;
#X connect 25 0 18 0;
#X connect 26 0 27 0;
#X connect 28 0 29 0;
#X connect 28 1 19 0;
#X connect 28 2 26 0;
#X connect 28 3 2 0;
#X connect 29 0 32 0;
#X connect 30 0 34 1;
#X connect 31 0 34 2;
#X connect 32 0 33 0;
#X connect 32 1 30 0;
#X connect 32 2 31 0;
#X connect 33 0 34 0;
#X connect 34 0 35 0;
#X connect 36 0 39 0;
#X connect 37 0 6 1;
#X connect 37 1 29 1;
#X connect 37 1 19 1;
#X connect 37 1 2 1;
#X connect 38 0 15 0;
#X connect 38 1 37 0;
#X restore 780 345 pd build_throws;
#X obj 612 126 loadbang;
#X obj 874 319 bng 15 250 50 0 empty empty empty 0 -6 0 8 -262144 -1
-1;
#X obj 350 249 r \$0addr;
#X obj 569 265 r \$0delr;
#X obj 251 126 s \$0add;
#X obj 329 126 s \$0del;
#X obj 240 -3 inlet;
#X msg 313 297 No more channels available for \$1.;
#X msg 569 299 Could not find \$1.;
#X obj 516 177 dollarg;
#X obj 451 117 drip;
#X msg 437 161 add \$1;
#X obj 441 139 symbol;
#X obj 519 202 niagara 3;
#X obj 786 226 ../init/df \$2 3;
#X obj 724 272 ../init/isasymbol \$1;
#X obj 779 309 pack s f;
#X obj 600 154 t b b b;
#X obj 211 40 route bang;
#X obj 18 292 symbol \$1;
#X obj 78 332 pack s s;
#X obj 90 236 t b s;
#X obj 89 209 r MIX/QUERY;
#X msg 80 361 \; \$2 \$1;
#X obj 383 486 outlet available_targets;
#X obj 232 379 t b b;
#N canvas 0 0 754 522 available_targets 0;
#X obj 106 82 inlet;
#X obj 307 470 outlet;
#X obj 158 190 s MIX/QUERY;
#X obj 337 211 r \$0MIX/QUERY;
#X obj 161 161 makesymbol %sMIX/QUERY;
#X obj 115 110 t b b b;
#X obj 138 131 f \$0;
#X obj 232 320 ../list/build;
#X connect 0 0 5 0;
#X connect 3 0 7 1;
#X connect 4 0 2 0;
#X connect 5 0 7 0;
#X connect 5 1 6 0;
#X connect 6 0 4 0;
#X connect 7 0 1 0;
#X restore 231 421 pd available_targets;
#N canvas 0 0 754 522 current_targets 0;
#X obj 106 82 inlet;
#X obj 307 470 outlet;
#X obj 232 320 ../list/build;
#X obj 120 140 t b b;
#X obj 163 169 s \$0q;
#X obj 256 199 r \$0r;
#X connect 0 0 3 0;
#X connect 2 0 1 0;
#X connect 3 0 2 0;
#X connect 3 1 4 0;
#X connect 5 0 2 1;
#X restore 586 431 pd current_targets;
#X obj 594 485 outlet current_targets;
#X obj 455 363 print mix/throws~;
#X obj 421 64 s \$0q;
#X obj 253 83 route add delete;
#X obj 420 38 relay fade;
#X obj 88 483 catch~ \$1_0;
#X obj 95 3 inlet~;
#X obj 178 511 outlet~;
#X obj 176 483 catch~ \$1_1;
#X obj 22 32 s~ \$0s0;
#X obj 95 27 s~ \$0s1;
#X connect 0 0 41 0;
#X connect 4 0 21 0;
#X connect 5 0 3 1;
#X connect 6 0 11 0;
#X connect 7 0 12 0;
#X connect 10 0 22 0;
#X connect 11 0 33 0;
#X connect 12 0 33 0;
#X connect 13 0 17 0;
#X connect 14 0 16 0;
#X connect 15 0 35 0;
#X connect 16 0 15 0;
#X connect 17 1 14 0;
#X connect 18 0 20 1;
#X connect 19 0 20 0;
#X connect 20 0 3 0;
#X connect 21 0 13 0;
#X connect 21 1 19 0;
#X connect 21 2 18 0;
#X connect 22 0 29 0;
#X connect 22 1 35 0;
#X connect 23 0 24 0;
#X connect 24 0 27 0;
#X connect 25 0 23 0;
#X connect 25 1 24 1;
#X connect 26 0 25 0;
#X connect 29 0 30 0;
#X connect 29 1 31 0;
#X connect 30 0 28 0;
#X connect 31 0 32 0;
#X connect 35 0 8 0;
#X connect 35 1 9 0;
#X connect 35 2 36 0;
#X connect 36 0 34 0;
#X connect 37 0 1 0;
#X connect 38 0 42 0;
#X connect 40 0 39 0;
