#N canvas 114 38 996 901 10;
#X obj 26 86 osc~ 440;
#X msg 199 15 add a;
#X msg 308 13 add b;
#X msg 388 48 delete c;
#X msg 389 25 add c;
#X msg 558 33 add e;
#X msg 219 52 delete a;
#X msg 310 54 delete b;
#X msg 562 59 delete e;
#X msg 456 29 add f;
#X msg 456 54 delete f;
#X obj 421 148 bng 15 250 50 0 empty empty empty 0 -6 0 8 -262144 -1
-1;
#X obj 360 279 popup 124 25 #ffffff ADD e c b f a;
#X obj 495 278 popup 124 25 #ffffff DELETE;
#N canvas 0 0 559 378 available_targets 0;
#X obj 84 115 t l l b;
#X obj 246 160 list prepend append;
#X obj 260 182 list trim;
#X obj 54 206 print available_targets;
#X obj 309 278 outlet;
#X obj 72 41 inlet;
#X obj 136 153 route bang;
#X msg 422 123 options \, name ADD;
#X connect 0 1 6 0;
#X connect 0 2 7 0;
#X connect 1 0 2 0;
#X connect 2 0 4 0;
#X connect 5 0 0 0;
#X connect 6 1 1 0;
#X connect 7 0 4 0;
#X restore 337 233 pd available_targets;
#N canvas 0 0 559 378 current_targets 0;
#X obj 84 115 t l l b;
#X obj 246 160 list prepend append;
#X obj 260 182 list trim;
#X obj 309 278 outlet;
#X obj 72 41 inlet;
#X obj 136 153 route bang;
#X obj 53 206 print current_targets;
#X msg 422 123 options \, name DELETE;
#X connect 0 1 5 0;
#X connect 0 2 7 0;
#X connect 1 0 2 0;
#X connect 2 0 3 0;
#X connect 4 0 0 0;
#X connect 5 1 1 0;
#X connect 7 0 3 0;
#X restore 502 233 pd current_targets;
#X text 360 247 ADD;
#X text 503 256 DELETE;
#X obj 474 343 s \$0top;
#X msg 474 317 add \$1 \, bang;
#X msg 587 313 delete \$1 \, bang;
#X obj 160 122 r \$0top;
#X obj 16 572 mix/catch~ a;
#X msg 555 115 fade \$1;
#X floatatom 560 92 5 0 2000 0 - - -;
#X text 440 148 Bang to output targets (and the popup gui below).;
#X text 306 187 arguments: name channels fade_time default_throws;
#X msg 103 -52 \; pd dsp 1;
#X obj 100 -79 loadbang;
#X obj 91 122 osc~ 1;
#X text 182 380 <- this outlets are also controlled with the add/delete
messages.;
#X obj 178 302 gui/snap~;
#X obj 62 185 mix/throws~ f 3 1000 f a;
#X obj 317 566 mix/catch~ b;
#X obj 639 579 mix/catch~ c;
#X obj 658 401 mix/catch~ e;
#X obj 61 412 anal/scope_~ 1;
#X obj 15 602 anal/scope_~ 1;
#X obj 198 605 anal/scope_~ 1;
#X obj 395 606 anal/scope_~ 1;
#X obj 639 606 anal/scope_~ 1;
#X obj 658 427 anal/scope_~ 1;
#X text 331 212 <- The gui outlets (outlets 3 & 4) might change...
;
#X connect 0 0 32 0;
#X connect 1 0 32 2;
#X connect 2 0 32 2;
#X connect 3 0 32 2;
#X connect 4 0 32 2;
#X connect 5 0 32 2;
#X connect 6 0 32 2;
#X connect 7 0 32 2;
#X connect 8 0 32 2;
#X connect 9 0 32 2;
#X connect 10 0 32 2;
#X connect 12 1 19 0;
#X connect 13 1 20 0;
#X connect 14 0 12 0;
#X connect 15 0 13 0;
#X connect 19 0 18 0;
#X connect 20 0 18 0;
#X connect 21 0 32 2;
#X connect 22 0 37 0;
#X connect 22 1 38 0;
#X connect 23 0 32 2;
#X connect 24 0 23 0;
#X connect 28 0 27 0;
#X connect 29 0 32 1;
#X connect 32 0 36 0;
#X connect 32 1 31 0;
#X connect 32 2 14 0;
#X connect 32 3 15 0;
#X connect 33 1 39 0;
#X connect 34 0 40 0;
#X connect 35 0 41 0;
