#N canvas 334 272 645 321 10;
#X obj 174 269 mix/wet~;
#X obj 173 106 osc~ 222;
#X obj 174 296 dac~;
#X msg 225 201 curve \$1;
#X obj 251 241 hsl 128 15 0 127 0 0 empty empty empty -2 -8 0 10 -262144
-1 -1 0 1;
#X text 537 10 Version: 1;
#X obj 8 25 cnv 15 600 56 empty empty mix/wet~ 0 -10 0 16 -33289 -66577
0;
#X obj 9 29 cnv 15 598 50 empty empty empty 20 12 0 14 -241404 -66577
0;
#X text 13 61 Author: Thomas Ouellet Fredericks;
#X text 14 31 Description: Controls the wetness of an effect.;
#X text 13 46 Flags: Internal;
#X text 247 224 dry;
#X text 360 225 wet;
#X obj 225 184 nbx 5 14 -1e+37 1e+37 0 1 empty empty empty 0 -8 0 10
-262144 -1 -1 1 256;
#X text 171 88 bypass;
#X text 198 125 fx;
#N canvas 0 0 450 300 fx 0;
#X obj 237 107 metro 555;
#X obj 237 124 random 555;
#X obj 237 140 + 20;
#X obj 237 90 init/lf 1;
#X obj 237 162 outlet;
#X connect 0 0 1 0;
#X connect 1 0 2 0;
#X connect 2 0 4 0;
#X connect 3 0 0 0;
#X restore 200 141 pd fx;
#X obj 200 161 osc~ 222;
#X text 283 184 1= linear (default) \, 3= logarithm;
#X connect 0 0 2 0;
#X connect 0 0 2 1;
#X connect 1 0 0 0;
#X connect 3 0 0 2;
#X connect 4 0 0 2;
#X connect 13 0 3 0;
#X connect 16 0 17 0;
#X connect 17 0 0 1;
