#N canvas 0 0 450 300 10;
#X obj 77 5 inlet;
#X obj 189 6 inlet;
#X obj 171 256 outlet;
#X obj 133 6 inlet;
#X obj 245 7 inlet;
#X connect 0 0 2 0;
#X connect 1 0 2 0;
#X connect 3 0 2 0;
#X connect 4 0 2 0;
#X coords 0 0 1 1 0 0 0;
