#N canvas 385 550 450 300 10;
#X obj 151 212 dac~;
#X obj 132 139 *~ 0.02;
#X msg 231 120 0;
#X obj 252 95 bng 15 250 50 0 empty empty empty 0 -6 0 8 -262144 -1
-1;
#X msg 235 154 0.2;
#X obj 274 140 bng 15 250 50 0 empty empty empty 0 -6 0 8 -262144 -1
-1;
#X obj 45 105 delread~ down;
#X obj 21 26 delread~ up;
#X obj 15 132 *~ 0.8;
#X obj 126 41 osc~ 500;
#X obj 133 11 osc~ 40;
#X obj 225 19 +~ 1;
#X obj 219 46 *~ 500;
#X floatatom 337 69 5 0 0 0 - - -;
#X obj 46 78 delwrite~ down 20;
#X obj 15 156 delwrite~ up 20;
#X text 323 50 tweak me;
#X connect 1 0 0 0;
#X connect 1 0 0 1;
#X connect 2 0 1 1;
#X connect 3 0 2 0;
#X connect 4 0 1 1;
#X connect 5 0 4 0;
#X connect 6 0 8 0;
#X connect 6 0 1 0;
#X connect 7 0 14 0;
#X connect 8 0 15 0;
#X connect 9 0 14 0;
#X connect 10 0 11 0;
#X connect 11 0 12 0;
#X connect 12 0 9 0;
#X connect 13 0 6 0;
#X connect 13 0 7 0;
