#N canvas 0 0 450 300 10;
#X obj 23 20 +;
#X obj 53 20 +;
#X obj 23 50 +;
#X obj 53 50 +;
#X obj 83 20 +;
#X obj 113 20 +;
#X obj 83 50 +;
#X obj 113 50 +;
#X obj 23 80 +;
#X obj 53 80 +;
#X obj 23 110 +;
#X obj 53 110 +;
#X obj 83 80 +;
#X obj 113 80 +;
#X obj 83 110 +;
#X obj 113 110 +;
#X obj 143 20 +;
#X obj 173 20 +;
#X obj 143 50 +;
#X obj 173 50 +;
#X obj 203 20 +;
#X obj 233 20 +;
#X obj 203 50 +;
#X obj 233 50 +;
#X obj 143 80 +;
#X obj 173 80 +;
#X obj 143 110 +;
#X obj 173 110 +;
#X obj 203 80 +;
#X obj 233 80 +;
#X obj 203 110 +;
#X obj 233 110 +;
#X obj 23 140 +;
#X obj 53 140 +;
#X obj 23 170 +;
#X obj 53 170 +;
#X obj 83 140 +;
#X obj 113 140 +;
#X obj 83 170 +;
#X obj 113 170 +;
#X obj 23 200 +;
#X obj 53 200 +;
#X obj 23 230 +;
#X obj 53 230 +;
#X obj 83 200 +;
#X obj 113 200 +;
#X obj 83 230 +;
#X obj 113 230 +;
#X obj 143 140 +;
#X obj 173 140 +;
#X obj 143 170 +;
#X obj 173 170 +;
#X obj 203 140 +;
#X obj 233 140 +;
#X obj 203 170 +;
#X obj 233 170 +;
#X obj 143 200 +;
#X obj 173 200 +;
#X obj 143 230 +;
#X obj 173 230 +;
#X obj 203 200 +;
#X obj 233 200 +;
#X obj 203 230 +;
#X obj 233 230 +;
#X connect 0 0 1 0;
#X connect 0 0 2 0;
#X connect 1 0 4 0;
#X connect 2 0 3 0;
#X connect 2 0 8 0;
#X connect 4 0 5 0;
#X connect 4 0 6 0;
#X connect 5 0 16 0;
#X connect 6 0 7 0;
#X connect 8 0 9 0;
#X connect 8 0 10 0;
#X connect 9 0 12 0;
#X connect 10 0 11 0;
#X connect 10 0 32 0;
#X connect 12 0 13 0;
#X connect 12 0 14 0;
#X connect 14 0 15 0;
#X connect 16 0 17 0;
#X connect 16 0 18 0;
#X connect 17 0 20 0;
#X connect 18 0 19 0;
#X connect 18 0 24 0;
#X connect 20 0 21 0;
#X connect 20 0 22 0;
#X connect 22 0 23 0;
#X connect 24 0 25 0;
#X connect 24 0 26 0;
#X connect 25 0 28 0;
#X connect 26 0 27 0;
#X connect 28 0 29 0;
#X connect 28 0 30 0;
#X connect 30 0 31 0;
#X connect 32 0 33 0;
#X connect 32 0 34 0;
#X connect 33 0 36 0;
#X connect 34 0 35 0;
#X connect 34 0 40 0;
#X connect 36 0 37 0;
#X connect 36 0 38 0;
#X connect 37 0 48 0;
#X connect 38 0 39 0;
#X connect 40 0 41 0;
#X connect 40 0 42 0;
#X connect 41 0 44 0;
#X connect 42 0 43 0;
#X connect 44 0 45 0;
#X connect 44 0 46 0;
#X connect 46 0 47 0;
#X connect 48 0 49 0;
#X connect 48 0 50 0;
#X connect 49 0 52 0;
#X connect 50 0 51 0;
#X connect 50 0 56 0;
#X connect 52 0 53 0;
#X connect 52 0 54 0;
#X connect 54 0 55 0;
#X connect 56 0 57 0;
#X connect 56 0 58 0;
#X connect 57 0 60 0;
#X connect 58 0 59 0;
#X connect 60 0 61 0;
#X connect 60 0 62 0;
#X connect 62 0 63 0;
