#N canvas 373 135 592 432 10;
#X obj 80 20 gop-one;
#X obj 9 44 vsl 10 50 0 127 0 0 empty empty empty 0 -6 0 8 -262144
-1 -1 0 1;
#X obj 25 40 bng 15 250 50 0 empty empty empty 0 -6 0 8 -262144 -1
-1;
#X obj 50 40 tgl 15 0 empty empty empty 0 -6 0 8 -262144 -1 -1 0 1
;
#X floatatom 29 82 5 0 0 0 - - -;
#X obj 81 162 outlet;
#X obj 168 11 inlet;
#X obj 237 12 inlet;
#X connect 0 0 5 0;
#X connect 1 0 4 0;
#X connect 2 0 0 1;
#X connect 4 0 0 0;
#X connect 6 0 1 0;
#X connect 7 0 2 0;
#X coords 0 0 1 1 150 120 1 0 0;
