#N canvas 238 407 695 410 10;
#N canvas 0 0 450 300 three 0;
#X obj 89 21 gop-two;
#X obj 22 65 vsl 10 50 0 127 0 0 empty empty empty 0 -6 0 8 -262144
-1 -1 0 1;
#X obj 41 61 bng 15 250 50 0 empty empty empty 0 -6 0 8 -262144 -1
-1;
#X obj 63 61 tgl 15 0 empty empty empty 0 -6 0 8 -262144 -1 -1 0 1
;
#X floatatom 41 101 5 0 0 0 - - -;
#X obj 259 3 inlet;
#X obj 339 4 inlet;
#X obj 51 237 outlet;
#X connect 0 0 7 0;
#X connect 1 0 4 0;
#X connect 2 0 0 1;
#X connect 4 0 0 0;
#X connect 5 0 1 0;
#X connect 6 0 2 0;
#X coords 0 0 1 1 250 150 1 0 0;
#X restore 182 100 pd three;
#X obj 100 165 vsl 10 50 0 127 0 0 empty empty empty 0 -6 0 8 -262144
-1 -1 0 1;
#X floatatom 121 202 5 0 0 0 - - -;
#X obj 121 262 print A;
#X obj 182 262 print B;
#X obj 100 43 random 127;
#X obj 100 21 bng 15 250 50 0 empty empty empty 0 -6 0 8 -262144 -1
-1;
#X obj 100 68 t f f;
#X obj 425 62 bng 15 250 50 0 empty empty empty 0 -6 0 8 -262144 -1
-1;
#X obj 460 120 gop-two;
#X connect 0 0 4 0;
#X connect 1 0 2 0;
#X connect 2 0 3 0;
#X connect 5 0 7 0;
#X connect 6 0 5 0;
#X connect 7 0 1 0;
#X connect 7 1 0 0;
#X connect 8 0 0 1;
