#N canvas 256 212 896 662 10;
#N canvas 21 177 1193 761 2preview 0;
#X text 85 45 samples;
#X obj 438 611 outlet;
#X text 346 628 data;
#X text 218 50 samples;
#X obj 431 501 * -1;
#X obj 106 68 inlet;
#X obj 239 73 inlet;
#X obj 259 110 abs;
#X obj 126 105 abs;
#X obj 792 205 t f b b b b;
#X obj 467 373 spigot;
#X obj 226 376 spigot;
#X msg 873 236 0;
#X msg 820 239 1;
#X obj 390 467 t f b;
#X obj 359 614 outlet;
#X text 458 634 data;
#X obj 811 105 inlet reset;
#X obj 198 330 repack 16;
#X obj 469 306 repack 16;
#X obj 249 435 list/avg;
#X obj 366 436 list/avg;
#X connect 4 0 1 0;
#X connect 5 0 8 0;
#X connect 6 0 7 0;
#X connect 7 0 19 0;
#X connect 8 0 18 0;
#X connect 9 2 13 0;
#X connect 9 3 18 0;
#X connect 9 3 19 0;
#X connect 9 4 12 0;
#X connect 10 0 21 0;
#X connect 11 0 20 0;
#X connect 12 0 10 1;
#X connect 12 0 11 1;
#X connect 13 0 10 1;
#X connect 13 0 11 1;
#X connect 14 0 4 0;
#X connect 17 0 9 0;
#X connect 18 0 11 0;
#X connect 19 0 10 0;
#X connect 20 0 15 0;
#X connect 21 0 14 0;
#X restore 371 500 pd 2preview;
#X obj 617 189 inlet channels;
#X obj 36 8 inlet frames;
#X obj 609 229 >= 2;
#X obj 495 425 multiplex 0 1;
#X obj 468 269 spigot;
#X obj 395 409 t f f;
#X obj 379 363 tabread \$1s0;
#X obj 472 297 tabread \$1s1;
#X obj 359 317 t f f f;
#X obj 361 547 tabwrite \$1p0;
#X obj 485 547 tabwrite \$1p1;
#X obj 60 307 - 1;
#X obj 41 273 flow/gun;
#X msg 29 231 300;
#X obj 141 260 / 300;
#X obj 141 283 int;
#X obj 96 361 *;
#X obj 170 499 +;
#X obj 81 440 flow/gun;
#X obj 87 464 - 1;
#X msg 71 415 32;
#X obj 141 315 t f f;
#X obj 89 493 *;
#X msg 104 105 1000;
#X obj 102 389 t b f b;
#X obj 77 158 t b f b;
#X obj 140 468 / 16;
#X obj 94 322 t f f;
#X connect 0 0 10 0;
#X connect 0 1 11 0;
#X connect 1 0 3 0;
#X connect 2 0 26 0;
#X connect 3 0 5 1;
#X connect 3 0 4 2;
#X connect 4 0 0 1;
#X connect 5 0 8 0;
#X connect 6 0 0 0;
#X connect 6 1 4 0;
#X connect 7 0 6 0;
#X connect 8 0 4 1;
#X connect 9 0 7 0;
#X connect 9 1 5 0;
#X connect 12 0 28 0;
#X connect 13 0 12 0;
#X connect 14 0 13 0;
#X connect 15 0 16 0;
#X connect 16 0 22 0;
#X connect 17 0 25 0;
#X connect 18 0 9 0;
#X connect 19 0 20 0;
#X connect 20 0 23 0;
#X connect 21 0 19 0;
#X connect 22 0 17 1;
#X connect 22 1 27 0;
#X connect 23 0 18 0;
#X connect 24 0 26 0;
#X connect 25 0 21 0;
#X connect 25 1 18 1;
#X connect 26 0 14 0;
#X connect 26 1 15 0;
#X connect 26 2 0 2;
#X connect 27 0 23 1;
#X connect 28 0 17 0;
#X connect 28 1 10 1;
#X connect 28 1 11 1;
