#N canvas 614 454 593 443 10;
#X obj 25 92 soundfiler;
#X obj 266 97 table \$0s0;
#X obj 269 164 table \$0p0 300;
#X obj 272 124 table \$0s1;
#X obj 271 192 table \$0p1 300;
#X text 350 96 <- the soundfile data (left);
#X text 357 123 <- the soundfile data (right);
#X text 377 160 <- the preview data (left);
#X text 378 188 <- the preview data (right);
#X floatatom 25 120 5 0 0 0 - - -;
#X obj 25 29 pack s \$0;
#X msg 51 -99 symbol /home/tom/wavs/Flute1.wav;
#X obj 141 2 sf/info;
#X obj 50 -71 t s b s;
#X msg 80 -23 channels;
#X obj 141 27 route channels;
#X obj 36 184 table/preview \$0;
#X msg 24 52 read -resize -maxsize 1.058e+07 \$1 \$2s0 \$2s1;
#X connect 0 0 9 0;
#X connect 9 0 16 0;
#X connect 10 0 17 0;
#X connect 11 0 13 0;
#X connect 12 0 15 0;
#X connect 13 0 10 0;
#X connect 13 1 14 0;
#X connect 13 2 12 1;
#X connect 14 0 12 0;
#X connect 15 0 16 1;
#X connect 17 0 0 0;
