#N struct 3703preview float x float y float p float h;
#N canvas 25 294 634 558 10;
#X obj -939 29 adc~;
#X obj -843 69 tgl 15 0 empty empty empty 0 -6 0 8 -262144 -1 -1 0
1;
#X obj -936 495 dac~;
#X obj -904 338 loadbang;
#X msg -904 364 autoplay 1;
#X msg -782 64 autogain 0;
#X msg -766 88 autogain 1;
#X msg -820 389 0;
#X floatatom -861 430 5 0 0 0 - - -;
#X msg -815 422 1;
#X obj -938 100 sample/record~ 1;
#X obj -938 270 sample/region!;
#X obj -938 187 sample/display!;
#X text -917 142 If you change the start property (with sample/region!
below) \, sample/record~ will start recording at that new point.;
#X obj -938 454 sample/groove~;
#X text -624 232 <-this is sample/display!;
#X text -619 289 <-this is sample/region!;
#X connect 0 0 10 0;
#X connect 1 0 10 2;
#X connect 3 0 4 0;
#X connect 4 0 14 1;
#X connect 5 0 10 2;
#X connect 6 0 10 2;
#X connect 7 0 14 1;
#X connect 8 0 14 1;
#X connect 9 0 14 1;
#X connect 10 0 12 0;
#X connect 11 0 14 0;
#X connect 12 0 11 0;
#X connect 14 0 2 0;
#X connect 14 1 2 1;
