#N struct 3792preview float x float y float p float h;
#N struct 3797preview float x float y float p float h;
#N canvas 411 259 816 668 10;
#X obj 48 53 adc~;
#X obj 144 93 tgl 15 0 empty empty empty 0 -6 0 8 -262144 -1 -1 0 1
;
#X obj 49 124 sample/record~ 1;
#X obj 57 444 sample/looper~;
#X obj 58 485 dac~;
#X obj 436 67 adc~;
#X obj 532 107 tgl 15 0 empty empty empty 0 -6 0 8 -262144 -1 -1 0
1;
#X obj 437 138 sample/record~ 1;
#X obj 421 493 dac~;
#X obj 420 452 sample/looper~;
#X obj 80 352 loadbang;
#X obj 447 356 loadbang;
#X obj 202 -60 tgl 15 0 empty empty empty 0 -6 0 8 -262144 -1 -1 1
1;
#X floatatom 269 -65 5 0 0 0 - - -;
#X obj 269 -88 init/lf 120;
#X obj 202 -88 loadbang;
#X obj 202 19 s~ \$0master_speed;
#X obj 333 18 s~ \$0master_sync;
#X obj 157 404 r~ \$0master_speed;
#X obj 288 403 r~ \$0master_sync;
#X obj 509 412 r~ \$0master_speed;
#X obj 640 411 r~ \$0master_sync;
#X obj 351 -17 hradio 15 1 0 4 empty empty empty 0 -6 0 8 -262144 -1
-1 2;
#X msg 99 407 0;
#X msg 465 409 0;
#X msg 79 378 autoplay 1 \, sync 1;
#X msg 447 382 autoplay 1 \, sync 1;
#X msg 205 88 autogain 0;
#X msg 221 112 autogain 1;
#X msg 565 102 autogain 0;
#X msg 581 126 autogain 1;
#X obj 50 222 sample/display!;
#X obj 424 249 sample/display!;
#X obj 202 -34 flow/master~ 120 4;
#X connect 0 0 2 0;
#X connect 1 0 2 2;
#X connect 2 0 31 0;
#X connect 3 0 4 0;
#X connect 3 1 4 1;
#X connect 5 0 7 0;
#X connect 6 0 7 2;
#X connect 7 0 32 0;
#X connect 9 0 8 0;
#X connect 9 1 8 1;
#X connect 10 0 25 0;
#X connect 11 0 26 0;
#X connect 12 0 33 0;
#X connect 13 0 33 1;
#X connect 14 0 13 0;
#X connect 15 0 12 0;
#X connect 18 0 3 2;
#X connect 19 0 3 3;
#X connect 20 0 9 2;
#X connect 21 0 9 3;
#X connect 23 0 3 1;
#X connect 24 0 9 1;
#X connect 25 0 3 1;
#X connect 26 0 9 1;
#X connect 27 0 2 2;
#X connect 28 0 2 2;
#X connect 29 0 7 2;
#X connect 30 0 7 2;
#X connect 31 0 3 0;
#X connect 32 0 9 0;
#X connect 33 0 16 0;
#X connect 33 1 17 0;
#X connect 33 2 22 0;
