#N canvas 0 0 1247 912 10;
#X obj 197 282 scrolllist 128 200 100 {Courrier 10 normal} black white
red;
#X msg 1 234 ~/wavs/loops;
#X obj 80 327 sf/folder;
#X text 94 235 Set to a folder containning wavs.;
#X obj 617 281 scrolllist 128 200 100 {Courrier 10 normal} black white
red;
#X msg 444 238 ~/wavs/loops;
#X obj 500 326 sf/folder;
#X obj 80 465 sample/table 4 882000;
#X obj 458 544 tgl 15 0 empty empty empty 0 -6 0 8 -262144 -1 -1 0
1;
#X obj 177 599 multiplex 0 1;
#X obj 310 823 sample/looper~;
#X obj 304 846 dac~ 1 2;
#X text 495 539 Select the sample to be played here (when you switch
sample \, sample/looper~ will retrigger);
#X text 38 15 With this example \, you can play a sample while you
load another then switch!;
#X obj 500 463 sample/table 4 882000;
#X obj 222 491 bng 15 250 50 0 empty empty empty 0 -6 0 8 -262144 -1
-1;
#X text 240 490 Done loading;
#X text 665 490 Done loading;
#X obj 641 489 bng 15 250 50 0 empty empty empty 0 -6 0 8 -262144 -1
-1;
#X msg 356 793 autoplay 1;
#X obj 356 768 loadbang;
#X obj 178 625 sample/display!;
#X text 568 657 In a performance context \, you should use two sample/looper~
and crossfade between them for better results.;
#X connect 0 0 2 2;
#X connect 1 0 2 1;
#X connect 2 0 7 0;
#X connect 2 2 0 0;
#X connect 4 0 6 2;
#X connect 5 0 6 1;
#X connect 6 0 14 0;
#X connect 6 2 4 0;
#X connect 7 0 9 0;
#X connect 7 1 15 0;
#X connect 8 0 9 2;
#X connect 9 0 21 0;
#X connect 10 0 11 0;
#X connect 10 1 11 1;
#X connect 14 0 9 1;
#X connect 14 1 18 0;
#X connect 19 0 10 1;
#X connect 20 0 19 0;
#X connect 21 0 10 0;
