#N struct 1156preview float x float y float p float h;
#N canvas 677 475 764 475 10;
#X obj -362 857 dac~;
#X obj -436 59 tgl 15 0 empty empty empty 0 -6 0 8 -262144 -1 -1 1
1;
#X floatatom -369 54 5 0 0 0 - - -;
#X obj -369 31 init/lf 120;
#X obj -436 31 loadbang;
#X obj -210 102 hradio 15 1 0 4 empty empty empty 0 -6 0 8 -262144
-1 -1 1;
#X obj -429 117 gui/snap~;
#X obj -305 118 gui/snap~;
#X text -207 83 Step;
#X obj -357 623 tgl 15 0 empty empty empty 0 -6 0 8 -262144 -1 -1 1
1;
#X obj -436 138 s~ \$0master_speed;
#X obj -305 137 s~ \$0master_sync;
#X obj -61 651 r~ \$0master_speed;
#X obj 11 672 r~ \$0master_sync;
#X obj -418 691 r~ \$0master_speed;
#X obj -411 719 r~ \$0master_sync;
#X msg -357 643 sync \$1;
#X obj -76 603 tgl 15 0 empty empty empty 0 -6 0 8 -262144 -1 -1 1
1;
#X msg -81 625 sync \$1;
#X obj -397 829 *~ 0.5;
#X obj -328 828 *~ 0.5;
#X obj -506 246 scrolllist 128 200 100 {Courrier 10 normal} black white
red;
#X msg -605 191 ~/wavs/loops;
#X msg -256 217 ~/wavs/loops;
#X obj -99 211 scrolllist 128 200 100 {Courrier 10 normal} black white
red;
#X obj -594 362 print DONE_LOADING_FOLDER;
#X obj -623 291 sf/folder;
#X obj -285 303 sf/folder;
#X obj -356 598 loadbang;
#X obj -77 579 loadbang;
#X text -512 192 Set to a folder containning wavs.;
#X obj -622 418 sample/table 4 882000;
#X msg -555 673 0;
#X msg -493 674 1;
#X obj -431 770 gui/snap~;
#X obj -284 367 sample/table 4;
#X obj -579 452 sample/display!;
#X msg -159 623 1;
#X msg -149 647 0;
#X obj -579 534 sample/region!;
#X msg -525 672 2;
#X obj -579 741 sample/looper~;
#X text -268 533 <-Changes to the the start and end regions only take
effect once you retrigger sample/looper~;
#X obj -374 1056 writesf~ 2;
#X msg -306 979 open /home/tom/Desktop/export.wav;
#X msg -376 957 start;
#X msg -372 981 stop;
#X obj -436 85 flow/master~ 120 4;
#X obj -199 740 sample/looper~;
#X connect 1 0 47 0;
#X connect 2 0 47 1;
#X connect 3 0 2 0;
#X connect 4 0 1 0;
#X connect 9 0 16 0;
#X connect 12 0 48 2;
#X connect 13 0 48 3;
#X connect 14 0 41 2;
#X connect 15 0 41 3;
#X connect 16 0 41 1;
#X connect 17 0 18 0;
#X connect 18 0 48 1;
#X connect 19 0 0 0;
#X connect 19 0 43 0;
#X connect 20 0 0 1;
#X connect 20 0 43 1;
#X connect 21 0 26 2;
#X connect 22 0 26 1;
#X connect 23 0 27 1;
#X connect 24 0 27 2;
#X connect 26 0 31 0;
#X connect 26 1 25 0;
#X connect 26 2 21 0;
#X connect 27 0 35 0;
#X connect 27 2 24 0;
#X connect 28 0 9 0;
#X connect 29 0 17 0;
#X connect 31 0 36 0;
#X connect 32 0 41 1;
#X connect 33 0 41 1;
#X connect 35 0 48 0;
#X connect 36 0 39 0;
#X connect 37 0 48 1;
#X connect 38 0 48 1;
#X connect 39 0 41 0;
#X connect 40 0 41 1;
#X connect 41 0 19 0;
#X connect 41 1 20 0;
#X connect 41 2 34 0;
#X connect 44 0 43 0;
#X connect 45 0 43 0;
#X connect 46 0 43 0;
#X connect 47 0 6 0;
#X connect 47 0 10 0;
#X connect 47 1 7 0;
#X connect 47 1 11 0;
#X connect 47 2 5 0;
#X connect 48 0 19 0;
#X connect 48 1 20 0;
