#N canvas 531 196 264 211 10;
#X obj 1 3 cnv 12 198 12 empty \$0-pddp_print empty 2 6 1 14 -262144
-33289 0;
#X obj 11 37 inlet;
#X obj 11 160 send \$0-pddp_print;
#X obj 11 94 cyclone/prepend label;
#X obj 11 67 zexy/list2symbol;
#X obj 23 116 loadbang;
#X msg 23 136 label;
#X text 96 130 reset to blank;
#X connect 1 0 4 0;
#X connect 3 0 2 0;
#X connect 4 0 3 0;
#X connect 5 0 6 0;
#X connect 6 0 2 0;
#X coords 0 -1 1 1 200 18 1 0 0;
