#N canvas 531 196 237 190 10;
#X obj 1 1 cnv 15 198 16 empty \$0-pddp_print empty 2 8 1 14 -262144 -33289
0;
#X obj 62 47 inlet;
#X obj 62 130 send \$0-pddp_print;
#X obj 62 104 cyclone/prepend label;
#X obj 62 77 zexy/list2symbol;
#X connect 1 0 4 0;
#X connect 3 0 2 0;
#X connect 4 0 3 0;
#X coords 0 -1 1 1 200 18 1 0 0;
