#N canvas 183 209 367 341 10;
#X obj 59 48 inlet;
#X obj 117 246 send \$0-pddp_print;
#X obj 116 138 zexy/list2symbol;
#X obj 1 3 cnv 15 98 15 empty \$0-pddp_print empty 2 7 0 14 -262144
-1 0;
#X text 128 203 reset to blank;
#X obj 116 170 flatspace/prepend label;
#X obj 59 90 route bang;
#N canvas 673 22 458 308 reset 0;
#X obj 72 21 inlet;
#X obj 69 264 outlet;
#X msg 233 127 label;
#X obj 250 101 loadbang;
#X msg 36 130 color 0 22;
#X obj 55 57 trigger bang bang bang;
#X obj 35 99 delay 50;
#X msg 116 130 color 26 22;
#X connect 0 0 5 0;
#X connect 2 0 1 0;
#X connect 3 0 2 0;
#X connect 4 0 1 0;
#X connect 5 0 6 0;
#X connect 5 1 7 0;
#X connect 5 2 2 0;
#X connect 6 0 4 0;
#X connect 7 0 1 0;
#X restore 59 202 pd reset;
#X msg 19 169 bang;
#X obj 85 0 cnv 15 15 20 empty empty empty 2 7 0 14 -262144 -262144
0;
#X connect 0 0 6 0;
#X connect 2 0 5 0;
#X connect 5 0 1 0;
#X connect 6 0 7 0;
#X connect 6 1 2 0;
#X connect 7 0 1 0;
#X connect 8 0 7 0;
#X coords 0 -1 1 1 100 20 1 0 0;
