#N canvas 531 196 260 207 10;
#X obj 1 3 cnv 12 198 12 empty \$0-pddp_print empty 2 6 1 14 -262144
-33289 0;
#X obj 62 47 inlet;
#X obj 62 130 send \$0-pddp_print;
#X obj 62 104 cyclone/prepend label;
#X obj 62 77 zexy/list2symbol;
#X connect 1 0 4 0;
#X connect 3 0 2 0;
#X connect 4 0 3 0;
#X coords 0 -1 1 1 200 18 1 0 0;
