#N canvas 183 209 343 317 10;
#X obj 9 48 inlet;
#X obj 10 186 send \$0-pddp_print;
#X obj 9 78 zexy/list2symbol;
#X obj 9 110 cyclone/prepend label;
#X obj 85 1 cnv 15 15 18 empty empty empty 20 12 0 14 -262144 -66577
0;
#X obj 1 3 cnv 15 98 15 empty \$0-pddp_print empty 2 7 0 14 -262144
-33289 0;
#X obj 31 134 loadbang;
#X msg 31 155 label;
#X text 102 143 reset to blank;
#X connect 0 0 2 0;
#X connect 2 0 3 0;
#X connect 3 0 1 0;
#X connect 6 0 7 0;
#X connect 7 0 1 0;
#X coords 0 -1 1 1 100 20 1 0 0;
