#N canvas 466 291 910 595 10;
#X text 511 -10 -- GEM EXAMPLE --;
#X floatatom 504 298 5 0 0 0 - - -;
#X obj 412 243 gemhead;
#X obj 467 431 curve 2;
#X msg 479 395 0 0 0;
#X obj 444 322 rotateXYZ;
#X obj 532 326 loadbang;
#X floatatom 707 279 5 0 0 0 - - -;
#X obj 615 252 gemhead;
#X obj 673 430 curve 2;
#X msg 662 348 0 0 0;
#X msg 731 347 1 0 0;
#X obj 631 312 rotateXYZ;
#X obj 719 316 loadbang;
#X obj 430 364 colorRGB 1 0 0;
#X text 412 225 RED;
#X text 607 232 GREEN;
#X text 455 84 COMPARE THE EXAMPLE THAT USES ANGLECLOSE (RED) TO THE
ONE THAT DOES NOT (GREEN).;
#X obj 705 258 line;
#X msg 707 235 \$1 1000;
#X text 452 145 CLICK:;
#X msg 503 145 300;
#X msg 549 141 10;
#X obj 638 389 colorRGB 0 1 0;
#X msg 548 394 1.3 0 0;
#X text 36 6 Description: A ramp between two angles that takes the
quickest route.;
#X msg 595 146 -300;
#X msg 645 143 -10;
#X text 458 114 Notice how the green line does not always take the
quickest route.;
#X text 38 133 Inlet_1: The target angle.;
#X text 37 176 Inlet_3: Set the current angle.;
#X text 37 156 Inlet_2: Set the ramp time.;
#X text 46 208 Argument_1: The ramp time.;
#X text 49 229 Argument_2: The initial angle.;
#X obj 527 30 gems.win;
#X msg 529 7 1;
#X obj 148 100 2d.angle.line 5;
#X obj 491 269 2d.angle.line 1000;
#X connect 1 0 5 3;
#X connect 2 0 5 0;
#X connect 4 0 3 1;
#X connect 5 0 14 0;
#X connect 6 0 4 0;
#X connect 6 0 24 0;
#X connect 7 0 12 3;
#X connect 8 0 12 0;
#X connect 10 0 9 1;
#X connect 11 0 9 2;
#X connect 12 0 23 0;
#X connect 13 0 10 0;
#X connect 13 0 11 0;
#X connect 14 0 3 0;
#X connect 18 0 7 0;
#X connect 19 0 18 0;
#X connect 21 0 19 0;
#X connect 21 0 37 0;
#X connect 22 0 19 0;
#X connect 22 0 37 0;
#X connect 23 0 9 0;
#X connect 24 0 3 2;
#X connect 26 0 19 0;
#X connect 26 0 37 0;
#X connect 27 0 19 0;
#X connect 27 0 37 0;
#X connect 35 0 34 0;
#X connect 37 0 1 0;
