#N canvas 82 283 666 601 10;
#X obj 1 19 cnv 15 254 128 empty empty empty 20 12 0 14 -233017 -66577
0;
#N canvas 0 0 450 300 (subpatch) 0;
#X array \$0-tabvue 128 float 0;
#X coords 0 500 128 0 256 130 1;
#X restore 0 18 graph;
#X obj 1 1 cnv 15 255 17 empty empty anal.spectrum_~ 3 9 0 8 -1 -262144
0;
#X obj 25 267 switch~;
#X obj 240 1 tgl 15 0 \$0dummy \$0dummy empty 0 -6 0 8 -262144 -1 -1
1 1;
#X obj 175 172 loadbang;
#X obj 178 197 f \$1;
#X msg 120 188 set \$1;
#N canvas 402 150 419 318 fft 0;
#X obj 46 64 inlet~;
#X obj 46 94 rfft~;
#X obj 46 127 *~;
#X obj 77 127 *~;
#X obj 46 157 sqrt~;
#X obj 216 60 inlet;
#X obj 144 265 tabwrite~ \$0-tabvue;
#X obj 278 96 block~ 1024 1;
#X obj 53 204 clip~ 0 500;
#X connect 0 0 1 0;
#X connect 1 0 2 0;
#X connect 1 0 2 1;
#X connect 1 1 3 0;
#X connect 1 1 3 1;
#X connect 2 0 4 0;
#X connect 3 0 4 0;
#X connect 4 0 8 0;
#X connect 5 0 6 0;
#X connect 8 0 6 0;
#X restore 402 355 pd fft;
#X obj 397 25 inlet~;
#X obj 441 283 metro 20;
#X msg 441 263 1;
#X obj 441 243 loadbang;
#X obj 302 291 hip~ 50;
#X obj 302 311 *~ 1;
#X obj 476 464 s \$0-tabvue;
#X obj 504 385 loadbang;
#X msg 470 425 xticks 0 12 2;
#X connect 4 0 3 0;
#X connect 4 0 10 0;
#X connect 5 0 6 0;
#X connect 6 0 7 0;
#X connect 6 0 3 0;
#X connect 7 0 4 0;
#X connect 9 0 13 0;
#X connect 10 0 8 1;
#X connect 11 0 10 0;
#X connect 12 0 11 0;
#X connect 13 0 14 0;
#X connect 14 0 8 0;
#X connect 16 0 17 0;
#X connect 17 0 15 0;
#X coords 0 0 1 1 256 148 1 0 0;
