#N canvas 1656 381 719 520 10;
#X obj 102 67 inlet~;
#X obj 183 102 tgl 15 0 \$0dummy \$0dummy empty 0 -6 0 8 -262144 -1
-1 0 1;
#X obj 39 202 switch~;
#X obj 101 113 cnv 1 1 5 empty \$0left empty 20 12 0 14 -24198 -262144
0;
#N canvas 634 341 730 549 size&color 0;
#X obj 90 14 inlet;
#X obj 26 371 s \$0left;
#X msg 45 158 vis_size \$1 5;
#X obj 113 58 t f f;
#X msg 157 213 0;
#X msg 213 230 1;
#X msg 193 315 color 14;
#X msg 260 318 color 13;
#X msg 120 312 color 16;
#X obj 195 285 sel 0 1 2;
#X obj 193 257 change -1;
#X msg 264 235 2;
#X obj 98 34 clip 0 1;
#X obj 84 99 + 1;
#X obj 93 77 * 80;
#X obj 162 187 moses 0.5;
#X obj 213 208 moses 0.9;
#X connect 0 0 12 0;
#X connect 2 0 1 0;
#X connect 3 0 14 0;
#X connect 3 1 15 0;
#X connect 4 0 10 0;
#X connect 5 0 10 0;
#X connect 6 0 1 0;
#X connect 7 0 1 0;
#X connect 8 0 1 0;
#X connect 9 0 8 0;
#X connect 9 1 6 0;
#X connect 9 2 7 0;
#X connect 10 0 9 0;
#X connect 11 0 10 0;
#X connect 12 0 3 0;
#X connect 13 0 2 0;
#X connect 14 0 13 0;
#X connect 15 0 4 0;
#X connect 15 1 16 0;
#X connect 16 0 5 0;
#X connect 16 1 11 0;
#X restore 264 247 pd size&color;
#X obj 265 218 snapshot~;
#X obj 522 145 loadbang;
#X obj 519 179 metro 100;
#X obj 614 145 bng 15 250 50 0 empty empty empty 17 7 0 10 -262144
-1 -1;
#X obj 266 174 peakenv~ 1000;
#X obj 280 102 sel 0;
#X msg 282 131 0;
#X obj 216 122 t f f f;
#X connect 0 0 9 0;
#X connect 1 0 12 0;
#X connect 5 0 4 0;
#X connect 6 0 7 0;
#X connect 7 0 5 0;
#X connect 8 0 7 0;
#X connect 9 0 5 0;
#X connect 10 0 11 0;
#X connect 11 0 4 0;
#X connect 12 0 10 0;
#X connect 12 1 2 0;
#X connect 12 2 7 0;
#X coords 0 -1 1 1 100 19 1 100 100;
