#N canvas 1339 17 1080 800 10;
#X obj 94 57 inlet;
#X obj 93 756 outlet;
#X obj 514 78 inlet;
#X obj 717 157 loadbang;
#X obj 717 206 dollarg;
#X obj 717 235 list trim;
#X obj 606 317 route bang none space;
#X obj 94 220 any2string;
#X obj 94 177 list.trim;
#X obj 135 306 list.unfold;
#X obj 114 442 sel 32;
#X obj 507 551 unpack f f;
#X obj 93 642 string2any;
#X obj 93 569 list.build;
#X obj 76 276 t b a;
#X obj 93 705 list;
#X obj 848 423 spell;
#X obj 116 500 f 32;
#X obj 124 379 demultiplex 0 1;
#X msg 585 425 0 32;
#X msg 835 482 0 \$1;
#X msg 505 433 1;
#X obj 752 354 route symbol;
#X obj 720 390 t a b;
#X obj 705 432 sel symbol;
#X msg 765 399 symbol;
#X obj 264 538 spigot;
#X obj 265 147 t a b;
#X msg 309 180 0;
#X msg 266 562 32;
#X msg 216 536 1;
#X obj 219 486 t b a b;
#X obj 93 247 list.split -1;
#X connect 0 0 27 0;
#X connect 2 0 6 0;
#X connect 3 0 4 0;
#X connect 4 0 5 0;
#X connect 5 0 6 0;
#X connect 6 0 21 0;
#X connect 6 1 21 0;
#X connect 6 2 19 0;
#X connect 6 3 22 0;
#X connect 7 0 32 0;
#X connect 8 0 7 0;
#X connect 9 0 18 0;
#X connect 10 0 17 0;
#X connect 10 1 13 1;
#X connect 11 0 18 1;
#X connect 11 1 10 1;
#X connect 12 0 15 0;
#X connect 13 0 12 0;
#X connect 14 0 13 0;
#X connect 14 1 9 0;
#X connect 15 0 1 0;
#X connect 16 0 20 0;
#X connect 17 0 13 1;
#X connect 18 0 10 0;
#X connect 18 1 31 0;
#X connect 19 0 11 0;
#X connect 20 0 11 0;
#X connect 21 0 11 0;
#X connect 22 0 23 0;
#X connect 22 1 16 0;
#X connect 23 0 24 0;
#X connect 23 1 25 0;
#X connect 24 0 21 0;
#X connect 24 1 16 0;
#X connect 25 0 24 1;
#X connect 26 0 29 0;
#X connect 27 0 8 0;
#X connect 27 1 28 0;
#X connect 28 0 26 1;
#X connect 29 0 13 1;
#X connect 30 0 26 1;
#X connect 31 0 30 0;
#X connect 31 1 13 1;
#X connect 31 2 26 0;
#X connect 32 0 14 0;
