#N canvas 163 183 671 498 10;
#X obj 356 425 outlet;
#X obj 121 36 inlet;
#X obj 419 116 any2string;
#X obj 419 86 list trim;
#X obj 419 144 list.split 2;
#X obj 419 169 list.split 1;
#X obj 488 195 sel 58;
#X obj 419 195 sel 47;
#X obj 127 171 demultiplex 0 1;
#X obj 129 95 t a a b;
#X msg 261 128 0;
#X msg 422 223 1;
#X msg 489 225 1;
#X obj 86 414 outlet;
#X obj 142 63 convert.list2symbol;
#X connect 1 0 14 0;
#X connect 2 0 4 0;
#X connect 3 0 2 0;
#X connect 4 0 5 0;
#X connect 5 0 7 0;
#X connect 5 1 6 0;
#X connect 6 0 12 0;
#X connect 7 0 11 0;
#X connect 8 0 13 0;
#X connect 8 1 0 0;
#X connect 9 0 8 0;
#X connect 9 1 3 0;
#X connect 9 2 10 0;
#X connect 10 0 8 1;
#X connect 11 0 8 1;
#X connect 12 0 8 1;
#X connect 14 0 9 0;
