#N canvas 708 331 512 537 10;
#X obj 121 124 convert.symbol2list;
#X obj 124 55 t a b;
#X msg 205 79 symbol .;
#X obj 55 -11 inlet;
#X obj 318 208 list.length;
#X obj 215 191 t a a;
#X obj 223 285 demultiplex 0 1;
#X obj 334 253 < 2;
#X obj 332 455 outlet;
#X obj 111 474 outlet;
#X obj 133 356 list.split;
#X obj 373 252 - 1;
#X obj 345 340 t a b;
#X obj 51 24 route bang;
#X obj 73 393 t b b;
#X connect 0 0 5 0;
#X connect 1 0 0 0;
#X connect 1 1 2 0;
#X connect 2 0 0 1;
#X connect 3 0 13 0;
#X connect 4 0 7 0;
#X connect 4 0 11 0;
#X connect 5 0 6 0;
#X connect 5 1 4 0;
#X connect 6 0 10 0;
#X connect 6 1 12 0;
#X connect 7 0 6 1;
#X connect 10 0 9 0;
#X connect 10 1 8 0;
#X connect 11 0 10 1;
#X connect 12 0 9 0;
#X connect 12 1 8 0;
#X connect 13 0 14 0;
#X connect 13 1 1 0;
#X connect 14 0 9 0;
#X connect 14 1 8 0;
