#N canvas 134 201 743 650 10;
#X obj 136 24 inlet;
#X obj 650 824 outlet;
#X obj 123 767 outlet;
#X obj 136 99 route bang;
#X obj 271 511 list.build append;
#X obj 312 351 any2string;
#X obj 312 329 list.trim;
#X obj 252 546 route bang;
#X obj 317 574 string2any;
#X obj 312 374 drip;
#X obj 312 408 sel 64 0;
#X obj 216 169 t b b a;
#X obj 158 165 t b b;
#X connect 0 0 3 0;
#X connect 3 0 12 0;
#X connect 3 1 11 0;
#X connect 4 0 7 0;
#X connect 5 0 9 0;
#X connect 6 0 5 0;
#X connect 7 1 8 0;
#X connect 8 0 2 0;
#X connect 9 0 10 0;
#X connect 10 0 4 0;
#X connect 10 2 4 1;
#X connect 11 0 1 0;
#X connect 11 1 4 0;
#X connect 11 2 6 0;
#X connect 12 0 1 0;
#X connect 12 1 2 0;
