#N canvas 0 0 450 300 10;
#X obj 165 136 !=;
#X obj 142 96 t f f b;
#X obj 128 158 spigot;
#X obj 165 195 t f f;
#X obj 164 41 inlet;
#X obj 180 237 outlet;
#X obj 71 64 route bang;
#X obj 45 127 value \$1_vc;
#X obj 207 127 value \$1_vc;
#X connect 0 0 2 1;
#X connect 1 0 2 0;
#X connect 1 1 0 0;
#X connect 1 2 8 0;
#X connect 2 0 3 0;
#X connect 3 0 5 0;
#X connect 3 1 8 0;
#X connect 4 0 6 0;
#X connect 6 0 7 0;
#X connect 6 1 1 0;
#X connect 7 0 5 0;
#X connect 8 0 0 1;
