#N canvas 0 0 958 519 10;
#X obj 11 81 inlet~;
#X obj 11 266 outlet~;
#X obj 70 79 inlet~;
#X obj 95 266 outlet~;
#X obj 647 108 init.lf 0;
#N canvas 0 0 732 530 hml_shelf 0;
#X floatatom 288 116 5 2 9999 0 - - -;
#X text 330 116 ms;
#X obj 74 140 hml_shelf~ 6 100 0 4000 -6 200;
#X obj 355 25 vsl 15 49 27.5 440 1 1 empty empty low_freq. -8 -8 0
8 -262144 -1 -1 1200 1;
#X obj 108 28 vsl 15 81 -40 40 0 1 empty empty low_level -18 -8 0 8
-262144 -1 -1 3000 1;
#X obj 176 27 vsl 15 81 -40 40 0 1 empty empty mid_level -10 -8 0 8
-262144 -1 -1 4000 1;
#X obj 244 26 vsl 15 81 -40 40 0 1 empty empty high_level 0 -8 0 8
-262144 -1 -1 3000 1;
#X text 372 19 -440Hz;
#X text 372 67 -27.5Hz;
#X text 372 43 -110Hz;
#X obj 426 25 vsl 15 49 880 14080 1 1 empty empty high_freq. -8 -8
0 8 -262144 -1 -1 3800 1;
#X text 443 19 -14080Hz;
#X text 443 67 -880Hz;
#X text 443 43 -3520Hz;
#X floatatom 108 117 4 0 0 0 - - -;
#X floatatom 175 113 4 0 0 0 - - -;
#X floatatom 244 115 4 0 0 0 - - -;
#X floatatom 355 96 8 0 0 0 - - -;
#X floatatom 426 96 8 0 0 0 - - -;
#X text 124 23 +40;
#X text 126 62 0;
#X text 124 102 -40;
#X text 194 61 0;
#X text 192 101 -40;
#X text 192 22 +40;
#X text 260 21 +40;
#X text 262 60 0;
#X text 260 100 -40;
#X text 107 0 dB;
#X text 174 -2 dB;
#X text 243 -2 dB;
#X obj 75 -68 inlet~;
#X obj 175 341 outlet~;
#X obj 116 -41 inlet;
#X obj 165 -41 inlet;
#X obj 217 -41 inlet;
#X obj 358 -40 inlet;
#X obj 263 -41 inlet;
#X obj 309 -41 inlet;
#X obj 578 -3 inlet;
#X obj 577 53 switch~;
#X connect 0 0 2 6;
#X connect 2 0 32 0;
#X connect 3 0 17 0;
#X connect 4 0 14 0;
#X connect 5 0 15 0;
#X connect 6 0 16 0;
#X connect 10 0 18 0;
#X connect 14 0 2 1;
#X connect 15 0 2 3;
#X connect 16 0 2 5;
#X connect 17 0 2 2;
#X connect 18 0 2 4;
#X connect 31 0 2 0;
#X connect 33 0 2 1;
#X connect 34 0 2 3;
#X connect 35 0 2 5;
#X connect 36 0 2 6;
#X connect 37 0 2 2;
#X connect 38 0 2 4;
#X connect 39 0 40 0;
#X restore 170 186 pd hml_shelf;
#N canvas 253 189 748 546 hml_shelf 0;
#X floatatom 288 116 5 2 9999 0 - - -;
#X text 330 116 ms;
#X obj 74 140 hml_shelf~ 6 100 0 4000 -6 200;
#X obj 355 25 vsl 15 49 27.5 440 1 1 empty empty low_freq. -8 -8 0
8 -262144 -1 -1 1200 1;
#X obj 108 28 vsl 15 81 -40 40 0 1 empty empty low_level -18 -8 0 8
-262144 -1 -1 3000 1;
#X obj 176 27 vsl 15 81 -40 40 0 1 empty empty mid_level -10 -8 0 8
-262144 -1 -1 4000 1;
#X obj 244 26 vsl 15 81 -40 40 0 1 empty empty high_level 0 -8 0 8
-262144 -1 -1 3500 1;
#X text 372 19 -440Hz;
#X text 372 67 -27.5Hz;
#X text 372 43 -110Hz;
#X obj 426 25 vsl 15 49 880 14080 1 1 empty empty high_freq. -8 -8
0 8 -262144 -1 -1 3800 1;
#X text 443 19 -14080Hz;
#X text 443 67 -880Hz;
#X text 443 43 -3520Hz;
#X floatatom 108 117 4 0 0 0 - - -;
#X floatatom 175 113 4 0 0 0 - - -;
#X floatatom 244 115 4 0 0 0 - - -;
#X floatatom 355 96 8 0 0 0 - - -;
#X floatatom 426 96 8 0 0 0 - - -;
#X text 124 23 +40;
#X text 126 62 0;
#X text 124 102 -40;
#X text 194 61 0;
#X text 192 101 -40;
#X text 192 22 +40;
#X text 260 21 +40;
#X text 262 60 0;
#X text 260 100 -40;
#X text 107 0 dB;
#X text 174 -2 dB;
#X text 243 -2 dB;
#X obj 75 -68 inlet~;
#X obj 178 327 outlet~;
#X obj 116 -41 inlet;
#X obj 165 -41 inlet;
#X obj 217 -41 inlet;
#X obj 358 -40 inlet;
#X obj 263 -41 inlet;
#X obj 309 -41 inlet;
#X obj 569 -28 inlet;
#X obj 589 37 switch~;
#X connect 0 0 2 6;
#X connect 2 0 32 0;
#X connect 3 0 17 0;
#X connect 4 0 14 0;
#X connect 5 0 15 0;
#X connect 6 0 16 0;
#X connect 10 0 18 0;
#X connect 14 0 2 1;
#X connect 15 0 2 3;
#X connect 16 0 2 5;
#X connect 17 0 2 2;
#X connect 18 0 2 4;
#X connect 31 0 2 0;
#X connect 33 0 2 1;
#X connect 34 0 2 3;
#X connect 35 0 2 5;
#X connect 36 0 2 6;
#X connect 37 0 2 2;
#X connect 38 0 2 4;
#X connect 39 0 40 0;
#X restore 68 186 pd hml_shelf;
#X msg 610 -118 0;
#X msg 720 -115 55;
#X msg 653 -117 7901.13;
#X msg 760 -116 50;
#X obj 647 139 * 1.27;
#X obj 12 229 mix.wet.stereo~ 1;
#X obj 724 107 inlet dry/wet;
#X obj 94 -103 inlet high;
#X obj 174 -103 inlet mid;
#X obj 245 -103 inlet low;
#X obj 617 -146 inlet reset;
#X obj 333 -144 inlet hfreq;
#X obj 420 -144 inlet lfreq;
#X obj 510 -144 inlet release;
#X connect 0 0 6 0;
#X connect 0 0 12 0;
#X connect 2 0 5 0;
#X connect 2 0 12 1;
#X connect 4 0 11 0;
#X connect 5 0 12 3;
#X connect 6 0 12 2;
#X connect 7 0 6 3;
#X connect 7 0 5 3;
#X connect 7 0 5 2;
#X connect 7 0 6 2;
#X connect 7 0 5 1;
#X connect 7 0 6 1;
#X connect 8 0 5 4;
#X connect 8 0 6 4;
#X connect 9 0 5 5;
#X connect 9 0 6 5;
#X connect 10 0 5 6;
#X connect 10 0 6 6;
#X connect 11 0 12 4;
#X connect 12 0 1 0;
#X connect 12 1 3 0;
#X connect 12 2 6 7;
#X connect 12 2 5 7;
#X connect 13 0 11 0;
#X connect 14 0 6 3;
#X connect 14 0 5 3;
#X connect 15 0 6 2;
#X connect 15 0 5 2;
#X connect 16 0 6 1;
#X connect 16 0 5 1;
#X connect 17 0 7 0;
#X connect 17 0 9 0;
#X connect 17 0 10 0;
#X connect 17 0 8 0;
#X connect 18 0 5 5;
#X connect 18 0 6 5;
#X connect 19 0 5 4;
#X connect 19 0 6 4;
#X connect 20 0 6 6;
#X connect 20 0 5 6;
