#N canvas 281 28 860 730 10;
#X msg 30 138 print;
#X obj 72 572 glsl_program;
#X obj 148 382 pack 0 0;
#X msg 32 263 print;
#X obj 169 360 t b f;
#X obj 169 317 change;
#X obj 147 179 change;
#X msg 148 422 link \$1 \$2;
#X msg 30 510 print;
#X floatatom 192 342 2 0 0 0 ID - -;
#X floatatom 169 209 2 0 0 0 ID - -;
#X obj 75 297 glsl_fragment;
#X obj 75 160 glsl_vertex;
#X obj 152 602 b;
#N canvas 0 0 478 323 once 0;
#X obj 58 65 inlet;
#X obj 58 251 outlet;
#X obj 262 73 bang;
#X msg 262 92 1;
#X obj 58 176 spigot;
#X msg 230 93 0;
#X text 13 289 (c) 2006 IOhannes m zmoelnig \, licensed under GnuGPL
v2.0;
#X obj 262 53 inlet reset;
#X text 48 12 [once]: better than [oneshot];
#X obj 200 133 int 1;
#X obj 58 94 trigger anything bang;
#X obj 58 202 trigger anything bang;
#X connect 0 0 10 0;
#X connect 2 0 3 0;
#X connect 3 0 9 1;
#X connect 4 0 11 0;
#X connect 5 0 9 1;
#X connect 7 0 2 0;
#X connect 9 0 4 1;
#X connect 10 0 4 0;
#X connect 10 1 9 0;
#X connect 11 0 1 0;
#X connect 11 1 5 0;
#X restore 154 623 pd once;
#X obj 758 31 inlet;
#X obj 243 24 inlet;
#X obj 7 87 t b;
#X obj 293 223 flow.prepend open;
#X obj 447 222 flow.prepend open;
#X obj 186 656 outlet;
#X obj 71 651 outlet;
#X obj 75 22 inlet;
#X obj 476 75 sel 0;
#X obj 474 55 init.ls \$1;
#X obj 446 148 file.path.top;
#X obj 446 201 makefilename %s.frag;
#X obj 294 202 makefilename %s.vert;
#X obj 226 497 print gems.glsl.shader:linking;
#X obj 414 391 print gems.glsl.shader;
#X obj 242 51 route print open;
#X connect 0 0 12 0;
#X connect 1 0 21 0;
#X connect 1 1 13 0;
#X connect 2 0 7 0;
#X connect 3 0 11 0;
#X connect 4 0 2 0;
#X connect 4 1 2 1;
#X connect 5 0 9 0;
#X connect 5 0 4 0;
#X connect 6 0 10 0;
#X connect 6 0 2 0;
#X connect 7 0 1 0;
#X connect 7 0 14 1;
#X connect 7 0 28 0;
#X connect 8 0 1 0;
#X connect 11 0 1 0;
#X connect 11 1 5 0;
#X connect 12 0 11 0;
#X connect 12 1 6 0;
#X connect 13 0 14 0;
#X connect 14 0 20 0;
#X connect 15 0 1 0;
#X connect 16 0 30 0;
#X connect 17 0 0 0;
#X connect 17 0 3 0;
#X connect 17 0 8 0;
#X connect 18 0 12 0;
#X connect 18 0 29 0;
#X connect 19 0 11 0;
#X connect 19 0 29 0;
#X connect 22 0 12 0;
#X connect 23 1 25 0;
#X connect 24 0 23 0;
#X connect 25 0 26 0;
#X connect 25 0 27 0;
#X connect 26 0 19 0;
#X connect 27 0 18 0;
#X connect 30 0 17 0;
#X connect 30 1 25 0;
