#N canvas 193 14 759 666 10;
#X obj 71 -25 gemhead;
#X obj 431 -36 tgl 15 0 empty empty empty 0 -6 0 8 -262144 -1 -1 0
1;
#X obj 287 458 hradio 15 1 0 4 empty empty empty 0 -6 0 8 -262144 -1
-1 0;
#X obj 99 312 translateXYZ;
#X obj 133 457 pix_texture;
#X obj 220 129 file.path.top;
#X obj 178 369 rotateXYZ;
#X floatatom 466 320 5 0 0 0 - - -;
#X floatatom 424 320 5 0 0 0 - - -;
#X floatatom 383 320 5 0 0 0 - - -;
#X obj 220 62 bng 15 250 50 0 empty empty empty 0 -6 0 8 -262144 -1
-1;
#X floatatom 235 217 5 0 0 0 - - -;
#X floatatom 189 189 5 0 0 0 - - -;
#X obj 110 406 scaleXYZ;
#X obj 263 592 cube;
#X obj 351 558 sphere;
#X obj 168 566 square;
#X obj 448 558 circle;
#X text 243 61 Choose movie;
#X obj 76 214 scaleXYZ;
#X obj 139 434 scaleXYZ;
#X floatatom 306 397 5 0 0 0 - - -;
#X text 440 368 <- CHange the size of the individual elements here
;
#X obj 64 94 gems.movies;
#X obj 304 370 hsl 128 15 0 1 0 0 empty empty empty -2 -6 0 8 -262144
-1 -1 0 1;
#X obj 383 295 line;
#X obj 383 230 tgl 15 0 empty empty empty 0 -6 0 8 -262144 -1 -1 1
1;
#X obj 382 253 metro 5000;
#X msg 382 274 0 \, 360 5000;
#X text 401 230 <- Rotation animation;
#X text 233 189 X elements;
#X text 278 214 Y elements;
#X obj 159 484 demultiplex 0 1 2 3;
#X obj 108 249 gems.multi.crop 8 6;
#X obj 384 202 loadbang;
#X obj 232 84 loadbang;
#X msg 220 106 medias/movies/mov0.mov;
#X msg 393 102 medias/movies/mov1.mov;
#X obj 57 116 gems.fit fill;
#X obj 432 -9 gems.win 320 240;
#X connect 0 0 23 0;
#X connect 1 0 39 0;
#X connect 2 0 32 1;
#X connect 3 0 6 0;
#X connect 4 0 32 0;
#X connect 5 0 23 1;
#X connect 6 0 13 0;
#X connect 7 0 6 3;
#X connect 8 0 6 2;
#X connect 9 0 6 1;
#X connect 10 0 23 1;
#X connect 11 0 33 2;
#X connect 12 0 33 1;
#X connect 13 0 20 0;
#X connect 19 0 33 0;
#X connect 20 0 4 0;
#X connect 21 0 20 1;
#X connect 21 0 20 2;
#X connect 21 0 20 3;
#X connect 23 0 38 0;
#X connect 24 0 21 0;
#X connect 25 0 9 0;
#X connect 25 0 8 0;
#X connect 26 0 27 0;
#X connect 27 0 28 0;
#X connect 28 0 25 0;
#X connect 32 0 16 0;
#X connect 32 1 14 0;
#X connect 32 2 15 0;
#X connect 32 3 17 0;
#X connect 33 0 3 0;
#X connect 33 1 3 1;
#X connect 33 2 3 2;
#X connect 33 3 13 1;
#X connect 33 4 13 2;
#X connect 33 5 13 3;
#X connect 34 0 26 0;
#X connect 35 0 36 0;
#X connect 36 0 5 0;
#X connect 37 0 5 0;
#X connect 38 0 19 0;
#X connect 38 1 19 1;
#X connect 38 2 19 2;
