#N canvas 1301 238 898 658 10;
#X obj 332 312 2d.distance;
#X obj 630 171 loadbang;
#X obj 601 219 init.df \$3 0.5;
#X obj 64 -16 inlet pos;
#X obj 599 314 abs;
#X obj 155 603 outlet position;
#X obj 64 147 gems.mouse;
#X obj 351 355 moses 0.5;
#X obj 545 249 t f f;
#X obj 575 39 inlet size;
#X obj 282 601 outlet size;
#X obj 338 100 t b l l l l;
#X obj 252 140 list append 0 0;
#X obj 646 601 outlet clicked_details;
#X obj 76 17 route bang draggable;
#X obj 254 274 t l l;
#X obj 474 521 t l l;
#X obj 432 127 s \$0current_pos;
#X obj 244 51 spigot 1;
#X obj 153 47 sel 0;
#X msg 150 95 1;
#X msg 116 96 0;
#X obj 212 500 t a b;
#X obj 297 545 f;
#X obj 397 599 outlet dragged;
#X obj 396 567 r \$0dragged;
#X obj -22 79 s \$0draggable;
#N canvas 0 0 750 527 dragging 0;
#X obj 150 309 unpack;
#X obj 69 206 spigot;
#X obj 7 371 unpack;
#X obj 41 451 pack;
#X obj 23 412 -;
#X obj 76 412 -;
#X obj 50 34 inlet mouse_coords;
#X obj 41 495 outlet;
#X obj 150 280 r \$0click_offset;
#X obj 157 117 inlet dragged;
#X connect 0 0 4 1;
#X connect 0 1 5 1;
#X connect 1 0 2 0;
#X connect 2 0 4 0;
#X connect 2 1 5 0;
#X connect 3 0 7 0;
#X connect 4 0 3 0;
#X connect 5 0 3 1;
#X connect 6 0 1 0;
#X connect 8 0 0 0;
#X connect 9 0 1 1;
#X restore -32 271 pd dragging;
#X text 284 -6 Use a gemhead to output this stuff;
#X obj 384 268 r \$0current_pos;
#X obj 407 41 r \$0set_pos;
#X obj -32 298 s \$0set_pos;
#X obj 13 237 r \$0dragged;
#X obj 715 539 s \$0click_offset;
#X obj 221 233 route 0 1;
#X msg 338 385 1;
#X msg 391 380 0;
#X obj 293 435 spigot;
#N canvas 0 0 801 458 lock_gems.i.lock 0;
#X obj 368 182 value gems.i.lock;
#X obj 111 59 inlet;
#X obj 178 248 spigot;
#X obj 113 100 t a b;
#X obj 237 420 outlet;
#X obj 289 367 f \$0;
#X obj 368 215 == 0;
#X obj 181 285 t a b;
#X obj 513 62 inlet \$0draggable;
#X obj 277 336 spigot;
#X connect 0 0 6 0;
#X connect 1 0 3 0;
#X connect 2 0 7 0;
#X connect 3 0 2 0;
#X connect 3 1 0 0;
#X connect 5 0 0 0;
#X connect 6 0 2 1;
#X connect 7 0 4 0;
#X connect 7 1 9 0;
#X connect 8 0 9 1;
#X connect 9 0 5 0;
#X restore 431 471 pd lock_gems.i.lock;
#X obj 696 508 list.op2;
#X obj 773 508 -;
#X obj 729 480 r \$0current_pos;
#N canvas 0 0 801 458 unlock_gems.i.lock 0;
#X obj 220 234 value gems.i.lock;
#X obj 145 37 inlet;
#X obj 553 22 inlet dragged;
#X obj 169 139 spigot;
#X obj 189 389 outlet;
#X msg 168 161 0;
#X obj 168 185 t f f;
#X connect 1 0 3 0;
#X connect 2 0 3 1;
#X connect 3 0 5 0;
#X connect 5 0 6 0;
#X connect 6 0 4 0;
#X connect 6 1 0 0;
#X restore 94 329 pd unlock_gems.i.lock;
#X obj 664 424 r \$0draggable;
#X obj 617 454 spigot;
#X obj 587 531 s \$0dragged;
#X obj 617 483 t b l;
#X msg 598 510 1;
#X obj 96 380 s \$0dragged;
#X msg 94 359 0;
#X obj 187 296 r \$0dragged;
#X obj 524 411 r \$0draggable;
#X obj -160 -19 inlet gemlist;
#X obj -153 181 translateXYZ;
#X obj -127 150 unpack;
#X obj -140 479 scaleXYZ;
#X obj -145 564 outlet;
#X connect 0 0 7 0;
#X connect 1 0 2 0;
#X connect 2 0 8 0;
#X connect 3 0 14 0;
#X connect 4 0 7 1;
#X connect 6 0 27 0;
#X connect 6 1 34 0;
#X connect 7 0 35 0;
#X connect 7 1 36 0;
#X connect 8 0 23 0;
#X connect 8 1 4 0;
#X connect 9 0 8 0;
#X connect 11 0 12 0;
#X connect 11 1 12 1;
#X connect 11 4 17 0;
#X connect 12 0 22 0;
#X connect 14 0 12 0;
#X connect 14 1 19 0;
#X connect 14 1 26 0;
#X connect 14 2 18 0;
#X connect 15 0 37 0;
#X connect 15 1 0 0;
#X connect 16 0 13 0;
#X connect 16 1 44 0;
#X connect 18 0 11 0;
#X connect 19 0 20 0;
#X connect 19 0 21 0;
#X connect 20 0 18 1;
#X connect 22 0 5 0;
#X connect 22 0 54 0;
#X connect 22 1 23 0;
#X connect 23 0 10 0;
#X connect 23 0 55 1;
#X connect 23 0 55 2;
#X connect 23 0 55 3;
#X connect 25 0 24 0;
#X connect 27 0 31 0;
#X connect 29 0 0 1;
#X connect 30 0 11 0;
#X connect 32 0 27 1;
#X connect 34 0 42 0;
#X connect 34 1 15 0;
#X connect 35 0 37 1;
#X connect 36 0 37 1;
#X connect 37 0 38 0;
#X connect 38 0 16 0;
#X connect 39 0 33 0;
#X connect 39 1 40 0;
#X connect 39 2 40 1;
#X connect 40 0 39 2;
#X connect 41 0 39 1;
#X connect 42 0 49 0;
#X connect 43 0 44 1;
#X connect 44 0 46 0;
#X connect 46 0 47 0;
#X connect 46 1 39 0;
#X connect 47 0 45 0;
#X connect 49 0 48 0;
#X connect 50 0 42 1;
#X connect 51 0 38 1;
#X connect 52 0 53 0;
#X connect 53 0 55 0;
#X connect 54 0 53 1;
#X connect 54 1 53 2;
#X connect 55 0 56 0;
