#N canvas 791 761 361 63 10;
#X obj 92 21 s \$0cats;
#X obj 105 14 s \$0abss;
#X obj 102 4 r \$0cat;
#X obj 181 4 r \$0abs;
#X obj 0 0 cnv 15 358 60 empty empty pdmtl 4 6 0 10 -1 -262144 0;
#X obj 2 20 popup 150 20 grey90 categories 2d 3d anal convert count
data file flow fx gems generate gui init input list midi mix musical
number random sample scale seq sf synth table timing transform;
#X obj 155 20 popup 200 20 grey90 abstractions /crossfade~ /fade~ /switchwhen~
/throws~ /wet~;
#N canvas 47 46 771 631 patch 0;
#N canvas 46 72 623 664 get-categories 0;
#X obj 56 133 file/parentfolder;
#X obj 50 58 inlet;
#X obj 59 213 folder_list;
#X obj 58 184 makesymbol %s/*;
#X obj 58 597 outlet;
#X obj 222 387 symbol2list .;
#X msg 262 347 symbol .;
#X obj 291 437 length;
#X obj 111 310 strippath;
#X obj 59 253 t a a;
#X obj 291 462 == 1;
#X obj 65 492 spigot;
#X obj 177 349 t s s b;
#X obj 113 99 t b b;
#X obj 72 540 t a a;
#X obj 170 584 outlet;
#X msg 199 307 0;
#X obj 28 567 strippath;
#X obj 79 156 t s s;
#X obj 199 279 sel patches examples todo;
#X connect 0 0 18 0;
#X connect 1 0 13 0;
#X connect 2 0 9 0;
#X connect 3 0 2 0;
#X connect 5 0 7 0;
#X connect 6 0 5 1;
#X connect 7 0 10 0;
#X connect 8 0 19 0;
#X connect 9 0 11 0;
#X connect 9 1 8 0;
#X connect 10 0 11 1;
#X connect 11 0 14 0;
#X connect 12 1 5 0;
#X connect 12 2 6 0;
#X connect 13 0 0 0;
#X connect 14 0 17 0;
#X connect 14 1 15 0;
#X connect 16 0 11 1;
#X connect 17 0 4 0;
#X connect 18 0 3 0;
#X connect 19 0 16 0;
#X connect 19 1 16 0;
#X connect 19 2 16 0;
#X connect 19 3 12 0;
#X restore 33 120 pd get-categories;
#X msg 260 127 options \, name categories;
#X obj 213 91 t b b;
#X msg 185 148 append \$1;
#X obj 230 278 coll;
#C restore;
#X obj 140 189 pack s s;
#N canvas 0 0 709 570 get-abstractions 0;
#X obj 56 256 folder_list;
#X obj 72 116 inlet;
#X obj 154 513 outlet;
#X obj 66 278 t s s s;
#X obj 57 232 makesymbol %s/*-help.pd;
#X obj 403 498 outlet;
#X obj 60 455 file/splitpath;
#X obj 114 188 file/splitpath;
#X obj 82 147 t a a;
#X obj 272 515 outlet;
#X connect 0 0 3 0;
#X connect 1 0 8 0;
#X connect 3 0 6 0;
#X connect 3 2 5 0;
#X connect 4 0 0 0;
#X connect 6 1 2 0;
#X connect 7 1 9 0;
#X connect 8 0 4 0;
#X connect 8 1 7 0;
#X restore 405 285 pd get-abstractions;
#X msg 420 354 append \$1;
#X msg 569 300 options \, name abstractions;
#X msg 158 232 store \$1 \$2;
#X obj 366 424 pack s s;
#X msg 384 467 store \$1 \$2;
#X obj 539 471 coll;
#C restore;
#X msg 622 635 \; pd open \$2 \$1;
#X obj 646 589 pack s s;
#X obj 23 66 loadbang;
#X obj 554 175 s \$0abs;
#X obj 274 159 s \$0cat;
#X obj 245 252 r \$0cats;
#X obj 635 344 r \$0abss;
#X obj 404 248 t s b b;
#X msg 545 355 clear;
#X obj 634 372 spigot 1;
#X msg 680 398 0;
#X msg 632 459 1;
#X obj 617 428 delay 100;
#X obj 609 398 t s b b;
#N canvas 0 0 450 300 remove 0;
#X obj 149 41 inlet;
#X obj 207 272 outlet;
#X obj 280 145 scale/symbol -8;
#X obj 333 44 inlet;
#X obj 123 186 makesymbol %s/%s;
#X obj 181 67 t b s;
#X obj 159 105 symbol;
#X obj 160 147 pack s s;
#X connect 0 0 5 0;
#X connect 2 0 7 1;
#X connect 3 0 6 1;
#X connect 4 0 1 0;
#X connect 5 0 6 0;
#X connect 5 1 2 0;
#X connect 6 0 7 0;
#X connect 7 0 4 0;
#X restore 338 320 pd remove -help;
#X obj 627 526 file/splitpath;
#X connect 0 0 5 0;
#X connect 0 0 3 0;
#X connect 0 1 5 1;
#X connect 1 0 17 0;
#X connect 2 0 0 0;
#X connect 2 1 1 0;
#X connect 3 0 17 0;
#X connect 4 0 20 0;
#X connect 5 0 9 0;
#X connect 6 0 27 0;
#X connect 6 1 27 1;
#X connect 6 2 10 1;
#X connect 7 0 16 0;
#X connect 8 0 16 0;
#X connect 9 0 4 0;
#X connect 10 0 11 0;
#X connect 11 0 12 0;
#X connect 12 0 28 0;
#X connect 14 0 13 0;
#X connect 15 0 2 0;
#X connect 18 0 4 0;
#X connect 19 0 22 0;
#X connect 20 0 6 0;
#X connect 20 1 8 0;
#X connect 20 2 21 0;
#X connect 21 0 12 0;
#X connect 22 0 26 0;
#X connect 23 0 22 1;
#X connect 24 0 22 1;
#X connect 25 0 24 0;
#X connect 26 0 12 0;
#X connect 26 1 25 0;
#X connect 26 2 23 0;
#X connect 27 0 7 0;
#X connect 27 0 10 0;
#X connect 28 0 14 0;
#X connect 28 1 14 1;
#X restore 3 41 pd patch;
#X connect 2 0 5 0;
#X connect 3 0 6 0;
#X connect 5 1 0 0;
#X connect 6 1 1 0;
#X coords 0 0 1 1 352 37 0;
