#N canvas 0 0 454 304 10;
#X obj 100 137 flow.@parse;
#X obj 83 52 inlet;
#X obj 207 51 inlet;
#X obj 248 136 sel 0;
#X obj 286 253 outlet done;
#X obj 96 256 outlet args;
#X obj 64 191 list.trim;
#X obj 251 165 t b b;
#X connect 0 0 6 0;
#X connect 0 1 4 0;
#X connect 1 0 0 0;
#X connect 2 0 3 0;
#X connect 3 0 7 0;
#X connect 6 0 5 0;
#X connect 7 0 4 0;
#X connect 7 1 5 0;
