#N canvas 194 212 971 560 10;
#X obj 467 306 gemhead;
#X obj 466 327 color 1 0 0;
#X obj 704 338 gems.win;
#X obj 704 316 tgl 15 0 empty empty empty 0 -6 0 8 -262144 -1 -1 0
1;
#X msg 621 434 font \$1;
#X obj 621 409 file.path.top;
#X obj 544 456 text2d pdmtl;
#X obj 621 360 loadbang;
#X text 152 165 -- MODE 0 --;
#X text 151 251 -- MODE 1 --;
#X text 20 14 The focus must be given to a patcher window. They are
two input modes.;
#X text 35 313 The resulting symbols are sent as you type them.;
#X text 33 333 Enter key clears the ouput.;
#X text 31 354 Backspace removes a character.;
#X obj 831 29 tgl 15 0 empty empty empty 0 -6 0 8 -262144 -1 -1 1 1
;
#X obj 461 140 entry 124 100 grey70 black;
#X obj 713 195 list prepend text;
#X obj 714 223 list trim;
#X obj 461 82 list prepend set;
#X obj 461 112 list trim;
#X msg 621 129 ;
#X text 22 -24 Description: Builds up symbols while you type.;
#X obj 681 33 tgl 15 0 empty empty empty 0 -6 0 8 -262144 -1 -1 1 1
;
#X obj 679 -20 loadbang;
#X msg 681 5 1;
#X text 697 29 on/off;
#X text 847 27 Mode;
#X text 44 88 Argument_2: Selects the mode (0/1).;
#X text 44 104 Inlet_2: Selects the mode (0/1).;
#X text 42 52 Argument_1: on/off (1/0).;
#X text 42 68 Inlet_1: on/off (1/0).;
#X msg 621 386 ../_medias/fonts/gutcruncher.ttf;
#X text 571 289 -- GEM example --;
#X text 26 199 The resulting symbols are flushed when you type the
ENTER key. The BACKSPACE key reases the internal memory.;
#X text 31 140 WARNING: Has only been tested on Linux!;
#X obj 693 65 input.key.text 1 1;
#X obj 826 -26 loadbang;
#X msg 828 1 1;
#X connect 0 0 1 0;
#X connect 1 0 6 0;
#X connect 3 0 2 0;
#X connect 4 0 6 0;
#X connect 5 0 4 0;
#X connect 7 0 31 0;
#X connect 14 0 35 1;
#X connect 16 0 17 0;
#X connect 17 0 6 0;
#X connect 18 0 19 0;
#X connect 19 0 15 0;
#X connect 19 0 20 0;
#X connect 22 0 35 0;
#X connect 23 0 24 0;
#X connect 24 0 22 0;
#X connect 31 0 5 0;
#X connect 35 0 16 0;
#X connect 35 0 18 0;
#X connect 36 0 37 0;
#X connect 37 0 14 0;
