#N canvas 406 134 634 600 10;
#X obj 30 100 inlet~;
#X obj 17 344 outlet~;
#X obj 348 201 line~;
#X msg 348 180 \$1 1;
#X obj 141 210 line~;
#X msg 151 183 \$1 1;
#X obj 51 266 *~;
#X obj 345 26 inlet panning;
#X obj 261 259 *~;
#X msg 151 132 1 \$1;
#X obj 151 157 -;
#X obj 347 90 / 127;
#X obj 344 64 clip 0 127;
#X obj 289 352 outlet~;
#X connect 0 0 6 0;
#X connect 0 0 8 0;
#X connect 2 0 8 1;
#X connect 3 0 2 0;
#X connect 4 0 6 1;
#X connect 5 0 4 0;
#X connect 6 0 1 0;
#X connect 7 0 12 0;
#X connect 8 0 13 0;
#X connect 9 0 10 0;
#X connect 10 0 5 0;
#X connect 11 0 3 0;
#X connect 11 0 9 0;
#X connect 12 0 11 0;
