#N canvas 378 258 650 514 10;
#X obj -25 290 outlet;
#X obj -50 -15 inlet;
#X obj 220 293 flow.send;
#X obj 21 53 route none;
#X obj -25 247 flow.receive;
#X obj 76 158 convert.list2symbol _;
#X obj 324 228 convert.list2symbol _;
#X msg 220 188 turnon;
#X msg 156 209 turnoff;
#X obj 279 80 flow.receive;
#X obj 279 54 convert.list2symbol _;
#X obj -25 150 t b b b b;
#X obj 76 79 t b a a a;
#X obj 278 25 list append q;
#X obj 326 200 list append r;
#X obj 82 118 list append s;
#X obj -46 26 route float;
#X obj -119 82 init.dollar.zero.top;
#X obj -120 52 t b f;
#X obj -115 117 pack s f;
#X obj 121 -51 loadbang;
#X obj 122 -26 dollarg;
#X connect 1 0 16 0;
#X connect 3 0 11 0;
#X connect 3 1 12 0;
#X connect 4 0 0 0;
#X connect 5 0 4 0;
#X connect 6 0 2 1;
#X connect 7 0 2 0;
#X connect 8 0 2 0;
#X connect 9 0 7 0;
#X connect 10 0 9 0;
#X connect 11 0 4 0;
#X connect 11 1 2 1;
#X connect 11 2 8 0;
#X connect 11 3 9 0;
#X connect 12 0 7 0;
#X connect 12 1 15 0;
#X connect 12 2 14 0;
#X connect 12 3 13 0;
#X connect 13 0 10 0;
#X connect 14 0 6 0;
#X connect 15 0 5 0;
#X connect 16 0 18 0;
#X connect 16 1 3 0;
#X connect 17 0 19 0;
#X connect 18 0 17 0;
#X connect 18 1 19 1;
#X connect 19 0 12 0;
#X connect 20 0 21 0;
#X connect 21 0 16 0;
