#N struct 1114preview float x float y float p float h;
#N canvas 346 158 585 508 10;
#X text 33 16 Description: Displays a "sample".;
#X text 36 66 Version: 2006-01-11;
#X text 36 39 Flags: gui sample_id;
#X text 328 37 Inlet_1: sample_id signal;
#X text 329 57 Outlet_1: sample_id signal;
#X msg 43 125 medias/sounds/loop0.wav;
#X text 43 102 Click below;
#X msg 216 125 medias/sounds/loop1.wav;
#X msg 391 123 medias/sounds/loop2.wav;
#X msg 242 172 medias/sounds/drum00.wav;
#X msg 278 212 medias/sounds/drum01.wav;
#X obj 44 279 sample.display_;
#X obj 44 223 sample.print 1;
#X obj 43 168 sample.filer;
#X connect 5 0 13 0;
#X connect 7 0 13 0;
#X connect 8 0 13 0;
#X connect 9 0 13 0;
#X connect 10 0 13 0;
#X connect 12 0 11 0;
#X connect 13 0 12 0;
