#N canvas 271 101 944 826 10;
#X obj 188 724 change;
#X obj 21 365 b;
#X obj 20 403 count.modulo 6;
#X obj 21 429 sel 0;
#X obj 263 558 count.iter 0 1;
#X obj 426 632 moses 16;
#X obj 257 504 t b b;
#X msg 307 520 0;
#X obj 18 -82 inlet commands;
#X obj 186 760 outlet;
#X obj 836 -135 loadbang;
#X obj 858 0 dollarg;
#X obj 826 285 s \$0events;
#X obj 569 -102 inlet length;
#X obj 825 236 expr 24/$f1;
#X obj 833 262 int;
#X msg 70 -12 0;
#X msg 587 198 1;
#X obj 850 146 unpack;
#X obj 113 365 r \$0events;
#X obj 37 686 r \$0change;
#N canvas 1580 378 577 388 initial_sync 0;
#X obj 64 10 inlet;
#X obj 360 16 inlet;
#X obj 93 105 spigot 1;
#X msg 176 114 0;
#X obj 110 132 t b b;
#X obj 124 205 s \$0trig;
#X msg 119 167 5;
#X connect 0 0 2 0;
#X connect 1 0 2 1;
#X connect 2 0 4 0;
#X connect 3 0 2 1;
#X connect 4 0 6 0;
#X connect 4 1 3 0;
#X connect 6 0 5 0;
#X restore 487 223 pd initial_sync;
#X obj 541 19 s \$0length;
#X obj 825 211 clip 1 24;
#X obj 916 31 sel 0;
#X obj 267 598 demultiplex 0 1;
#X obj 552 524 r \$0length;
#X obj 461 562 > 0;
#X obj 552 -22 max 0;
#X msg 918 58 4 0;
#X obj 338 140 t b f f b;
#X obj 668 755 outlet loop;
#X obj 478 666 t b b;
#X obj 349 522 r \$0event;
#X obj 66 338 r \$0step;
#X obj 18 -54 route play stop trigger;
#X obj 70 22 s \$0state;
#X obj 31 44 s \$0trig;
#X obj 18 -3 b;
#X msg 149 23 1;
#X msg 202 26 2;
#X msg 251 26 3;
#X obj 150 -3 route onbeat onevent onloop follow;
#X msg 289 53 4;
#X obj 18 152 s \$0trig;
#X obj 18 123 f 1;
#X obj 584 175 delay 250;
#X obj 607 252 r \$0events;
#X obj 38 297 spigot;
#X obj 121 280 r \$0state;
#N canvas 191 195 926 668 triggers 0;
#X obj 50 20 inlet;
#X obj 42 307 sel 0;
#X obj 140 256 r \$0events;
#X obj 110 307 sel 0;
#X obj 253 222 r \$0events;
#X obj 223 249 div 6;
#X obj 223 293 mod 16;
#X obj 270 262 r \$0length;
#X obj 110 283 mod 6;
#X obj 223 316 sel 0;
#X obj 405 575 s \$0state;
#X obj 149 572 s \$0step;
#X obj 220 571 s \$0event;
#X obj 169 507 unpack f f f f;
#X obj 291 573 s \$0trig;
#X obj 285 99 r \$0trig;
#X obj 439 385 pack f f;
#X obj 42 273 mod 24;
#X obj 403 257 mod 16;
#X obj 439 228 r \$0length;
#X obj 355 208 t f f;
#X obj 383 231 div 6;
#X obj 355 260 mod 6;
#X obj 355 288 sel 0;
#X obj 466 310 +;
#X msg 337 316 0;
#X obj 338 339 t f f;
#X obj 377 314 t f b;
#X msg 420 298 1;
#X msg 42 340 0 0 0 1;
#X msg 110 337 0 0 0 1;
#X msg 222 341 0 0 0 1;
#X obj 118 153 demultiplex 0 1 2 3 4 5;
#X msg 440 411 \$1 \$2 0 1;
#X obj 652 397 pack f f;
#X obj 616 269 mod 16;
#X obj 652 240 r \$0length;
#X obj 568 220 t f f;
#X obj 596 243 div 6;
#X obj 568 272 mod 6;
#X obj 568 300 sel 0;
#X obj 679 322 +;
#X obj 551 351 t f f;
#X obj 590 326 t f b;
#X msg 633 310 1;
#X msg 653 423 \$1 \$2 0;
#X obj 538 535 t f b;
#X obj 567 577 s \$0play_triggered;
#X connect 0 0 32 0;
#X connect 1 0 29 0;
#X connect 2 0 8 1;
#X connect 3 0 30 0;
#X connect 4 0 5 1;
#X connect 5 0 6 0;
#X connect 6 0 9 0;
#X connect 7 0 6 1;
#X connect 8 0 3 0;
#X connect 9 0 31 0;
#X connect 13 0 11 0;
#X connect 13 1 12 0;
#X connect 13 2 14 0;
#X connect 13 3 46 0;
#X connect 15 0 32 1;
#X connect 16 0 33 0;
#X connect 17 0 1 0;
#X connect 18 0 24 1;
#X connect 19 0 18 1;
#X connect 20 0 22 0;
#X connect 20 1 21 0;
#X connect 21 0 18 0;
#X connect 22 0 23 0;
#X connect 23 0 25 0;
#X connect 23 1 27 0;
#X connect 24 0 16 1;
#X connect 25 0 26 0;
#X connect 26 0 16 0;
#X connect 26 1 24 0;
#X connect 27 0 16 0;
#X connect 27 1 28 0;
#X connect 28 0 24 0;
#X connect 29 0 13 0;
#X connect 30 0 13 0;
#X connect 31 0 13 0;
#X connect 32 1 17 0;
#X connect 32 2 8 0;
#X connect 32 3 5 0;
#X connect 32 4 20 0;
#X connect 32 5 37 0;
#X connect 33 0 13 0;
#X connect 34 0 45 0;
#X connect 35 0 41 1;
#X connect 36 0 35 1;
#X connect 37 0 39 0;
#X connect 37 1 38 0;
#X connect 38 0 35 0;
#X connect 39 0 40 0;
#X connect 40 1 43 0;
#X connect 41 0 34 1;
#X connect 42 0 34 0;
#X connect 42 1 41 0;
#X connect 43 0 34 0;
#X connect 43 1 44 0;
#X connect 44 0 41 0;
#X connect 45 0 13 0;
#X connect 46 0 10 0;
#X connect 46 1 47 0;
#X restore 344 259 pd triggers;
#X obj 670 -48 init.dollar.zero.top;
#X msg 670 -22 \$1timing;
#X obj 669 5 flow.receive;
#X obj 835 -106 t b b;
#X obj 411 755 outlet bpm;
#X obj 540 760 outlet state;
#X obj 540 713 r \$0state;
#X obj 371 -56 inlet events;
#X obj 556 -56 int;
#X obj 663 32 unpack f f;
#X obj 802 694 r \$0play_triggered;
#X obj 816 747 outlet play_triggered;
#X connect 0 0 9 0;
#X connect 1 0 2 0;
#X connect 2 0 3 0;
#X connect 3 0 4 0;
#X connect 4 0 25 0;
#X connect 5 0 0 0;
#X connect 5 1 32 0;
#X connect 6 0 4 0;
#X connect 6 1 7 0;
#X connect 7 0 4 1;
#X connect 8 0 35 0;
#X connect 10 0 54 0;
#X connect 11 0 18 0;
#X connect 11 1 24 0;
#X connect 13 0 59 0;
#X connect 14 0 15 0;
#X connect 15 0 12 0;
#X connect 16 0 37 0;
#X connect 16 0 36 0;
#X connect 17 0 21 1;
#X connect 18 0 23 0;
#X connect 18 1 28 0;
#X connect 19 0 2 2;
#X connect 20 0 0 0;
#X connect 23 0 14 0;
#X connect 24 0 29 0;
#X connect 25 0 0 0;
#X connect 25 1 5 0;
#X connect 26 0 27 0;
#X connect 26 0 5 1;
#X connect 27 0 25 1;
#X connect 28 0 22 0;
#X connect 29 0 18 0;
#X connect 30 0 48 0;
#X connect 30 1 50 0;
#X connect 30 2 21 0;
#X connect 30 3 46 0;
#X connect 32 0 6 0;
#X connect 32 1 31 0;
#X connect 33 0 4 1;
#X connect 34 0 2 1;
#X connect 35 0 38 0;
#X connect 35 1 16 0;
#X connect 35 2 42 0;
#X connect 38 0 45 0;
#X connect 39 0 45 1;
#X connect 40 0 45 1;
#X connect 41 0 45 1;
#X connect 42 0 39 0;
#X connect 42 1 40 0;
#X connect 42 2 41 0;
#X connect 42 3 43 0;
#X connect 43 0 45 1;
#X connect 45 0 44 0;
#X connect 46 0 17 0;
#X connect 48 0 1 0;
#X connect 49 0 48 1;
#X connect 51 0 52 0;
#X connect 52 0 53 0;
#X connect 53 0 60 0;
#X connect 54 0 51 0;
#X connect 54 1 11 0;
#X connect 57 0 56 0;
#X connect 58 0 23 0;
#X connect 59 0 28 0;
#X connect 60 0 30 0;
#X connect 60 1 55 0;
#X connect 61 0 62 0;
