#N canvas 0 0 1247 659 10;
#X msg 343 121 60000;
#X obj 342 155 /;
#X obj 509 115 * 24;
#X obj 212 201 metro 20;
#N canvas 0 0 470 320 step.counter 0;
#X obj 156 66 t f f;
#X obj 157 40 r \$0step;
#X obj 262 38 r \$0iter;
#X obj 46 103 count.iter;
#X obj 237 114 f;
#X obj 250 75 t b f;
#X obj 249 142 +;
#X obj 241 183 max 0;
#X obj 44 -7 inlet;
#X obj 55 249 outlet;
#X obj 68 189 t f f;
#X obj 139 185 t f f;
#X obj 239 257 outlet;
#X msg 186 220 seek \$1;
#X connect 0 0 11 0;
#X connect 0 1 3 1;
#X connect 1 0 0 0;
#X connect 2 0 5 0;
#X connect 3 0 10 0;
#X connect 4 0 6 0;
#X connect 5 0 4 0;
#X connect 5 1 6 1;
#X connect 6 0 7 0;
#X connect 7 0 0 0;
#X connect 8 0 3 0;
#X connect 10 0 9 0;
#X connect 10 1 4 1;
#X connect 11 0 13 0;
#X connect 11 1 4 1;
#X connect 13 0 12 0;
#X restore 212 250 pd step.counter;
#X obj 185 72 t f b f;
#X obj 431 326 f 120;
#X obj 58 -102 inlet bpm;
#X obj 439 -102 loadbang;
#X obj 442 470 flow.send;
#X obj 541 263 init.dollar.zero.top;
#X msg 541 289 \$1timing;
#X obj 53 -46 demultiplex 0 1;
#X obj 691 170 sel 0;
#X text 668 -46 Check for other seq.timing.masters;
#X obj 424 -74 t b b;
#X obj 305 -20 spigot;
#X msg 724 196 1;
#X obj 739 12 init.dollar.zero.top;
#X obj 165 46 max 30;
#X obj 281 17 t b f b;
#X obj 318 -50 init.df \$1 120;
#X obj 285 400 pack f f;
#X obj 221 312 t a a b;
#X obj 142 502 outlet heart_beat;
#X obj 189 383 mod 24;
#X obj 178 420 sel 0;
#X obj 758 87 init.check.unique;
#X msg 747 41 symbol \$1seq.timing.master;
#X obj -181 178 print !!!!!:seq.timing.master;
#X msg -181 133 You have more than one seq.timing.master linked to
your top patch...this latest seq.timing.master is disabled and will
remain so!;
#X connect 0 0 1 0;
#X connect 1 0 3 1;
#X connect 2 0 1 1;
#X connect 3 0 4 0;
#X connect 4 0 23 0;
#X connect 5 0 6 0;
#X connect 5 1 0 0;
#X connect 5 2 2 0;
#X connect 6 0 22 1;
#X connect 7 0 12 0;
#X connect 8 0 15 0;
#X connect 10 0 11 0;
#X connect 11 0 9 1;
#X connect 12 0 30 0;
#X connect 12 1 19 0;
#X connect 13 0 30 0;
#X connect 13 1 17 0;
#X connect 15 0 21 0;
#X connect 15 1 18 0;
#X connect 16 0 20 0;
#X connect 17 0 16 1;
#X connect 17 0 12 1;
#X connect 18 0 28 0;
#X connect 19 0 5 0;
#X connect 20 0 3 0;
#X connect 20 1 19 0;
#X connect 20 2 10 0;
#X connect 21 0 16 0;
#X connect 22 0 9 0;
#X connect 23 0 25 0;
#X connect 23 1 22 0;
#X connect 23 2 6 0;
#X connect 25 0 26 0;
#X connect 26 0 24 0;
#X connect 27 0 13 0;
#X connect 28 0 27 0;
#X connect 30 0 29 0;
