#N canvas 246 30 643 637 10;
#N canvas 875 307 208 203 counter 0;
#X obj 10 16 inlet;
#X obj 10 145 outlet;
#X obj 10 119 f;
#X obj 44 120 + 1;
#X obj 10 96 until;
#X obj 10 44 t b b;
#X obj 54 73 0;
#X obj 10 75 200;
#X connect 0 0 5 0;
#X connect 2 0 3 0;
#X connect 2 0 1 0;
#X connect 3 0 2 1;
#X connect 4 0 2 0;
#X connect 5 0 7 0;
#X connect 5 1 6 0;
#X connect 6 0 2 1;
#X connect 7 0 4 0;
#X restore 462 283 pd counter;
#X obj 462 261 t b f;
#X obj 163 342 line~;
#X msg 163 319 0 \, 192 5;
#X obj 164 405 *~;
#X obj 22 456 *~;
#X obj 39 359 line~;
#X obj 39 381 dbtorms~;
#X obj 254 362 osc~ 50;
#X obj 65 330 pack 0 1000;
#N canvas 1066 562 275 328 curve 0;
#N canvas 750 295 229 226 gleichung 0;
#X obj 123 85 + 1;
#X obj 78 85 * -1;
#X obj 123 12 inlet;
#X obj 16 5 inlet;
#X obj 16 68 *;
#X obj 16 47 t f f;
#X obj 16 111 *;
#X obj 16 90 t f f;
#X obj 16 137 *;
#X obj 16 166 +;
#X obj 76 135 *;
#X obj 16 24 t f f;
#X obj 16 191 outlet;
#X connect 0 0 10 1;
#X connect 1 0 8 1;
#X connect 2 0 1 0;
#X connect 2 0 0 0;
#X connect 3 0 11 0;
#X connect 4 0 7 0;
#X connect 5 0 4 0;
#X connect 5 1 4 1;
#X connect 6 0 8 0;
#X connect 7 0 6 0;
#X connect 7 1 6 1;
#X connect 8 0 9 0;
#X connect 9 0 12 0;
#X connect 10 0 9 1;
#X connect 11 0 5 0;
#X connect 11 1 10 0;
#X restore 31 52 pd gleichung;
#X obj 31 17 inlet;
#X obj 31 230 outlet;
#X obj 136 12 inlet;
#N canvas 750 295 229 226 gleichung 0;
#X obj 123 85 + 1;
#X obj 78 85 * -1;
#X obj 123 12 inlet;
#X obj 16 5 inlet;
#X obj 16 68 *;
#X obj 16 47 t f f;
#X obj 16 111 *;
#X obj 16 90 t f f;
#X obj 16 137 *;
#X obj 16 166 +;
#X obj 76 135 *;
#X obj 16 24 t f f;
#X obj 16 191 outlet;
#X connect 0 0 10 1;
#X connect 1 0 8 1;
#X connect 2 0 1 0;
#X connect 2 0 0 0;
#X connect 3 0 11 0;
#X connect 4 0 7 0;
#X connect 5 0 4 0;
#X connect 5 1 4 1;
#X connect 6 0 8 0;
#X connect 7 0 6 0;
#X connect 7 1 6 1;
#X connect 8 0 9 0;
#X connect 9 0 12 0;
#X connect 10 0 9 1;
#X connect 11 0 5 0;
#X connect 11 1 10 0;
#X restore 31 72 pd gleichung;
#N canvas 750 295 229 226 gleichung 0;
#X obj 123 85 + 1;
#X obj 78 85 * -1;
#X obj 123 12 inlet;
#X obj 16 5 inlet;
#X obj 16 68 *;
#X obj 16 47 t f f;
#X obj 16 111 *;
#X obj 16 90 t f f;
#X obj 16 137 *;
#X obj 16 166 +;
#X obj 76 135 *;
#X obj 16 24 t f f;
#X obj 16 191 outlet;
#X connect 0 0 10 1;
#X connect 1 0 8 1;
#X connect 2 0 1 0;
#X connect 2 0 0 0;
#X connect 3 0 11 0;
#X connect 4 0 7 0;
#X connect 5 0 4 0;
#X connect 5 1 4 1;
#X connect 6 0 8 0;
#X connect 7 0 6 0;
#X connect 7 1 6 1;
#X connect 8 0 9 0;
#X connect 9 0 12 0;
#X connect 10 0 9 1;
#X connect 11 0 5 0;
#X connect 11 1 10 0;
#X restore 31 92 pd gleichung;
#N canvas 750 295 229 226 gleichung 0;
#X obj 123 85 + 1;
#X obj 78 85 * -1;
#X obj 123 12 inlet;
#X obj 16 5 inlet;
#X obj 16 68 *;
#X obj 16 47 t f f;
#X obj 16 111 *;
#X obj 16 90 t f f;
#X obj 16 137 *;
#X obj 16 166 +;
#X obj 76 135 *;
#X obj 16 24 t f f;
#X obj 16 191 outlet;
#X connect 0 0 10 1;
#X connect 1 0 8 1;
#X connect 2 0 1 0;
#X connect 2 0 0 0;
#X connect 3 0 11 0;
#X connect 4 0 7 0;
#X connect 5 0 4 0;
#X connect 5 1 4 1;
#X connect 6 0 8 0;
#X connect 7 0 6 0;
#X connect 7 1 6 1;
#X connect 8 0 9 0;
#X connect 9 0 12 0;
#X connect 10 0 9 1;
#X connect 11 0 5 0;
#X connect 11 1 10 0;
#X restore 31 112 pd gleichung;
#N canvas 750 295 229 226 gleichung 0;
#X obj 123 85 + 1;
#X obj 78 85 * -1;
#X obj 123 12 inlet;
#X obj 16 5 inlet;
#X obj 16 68 *;
#X obj 16 47 t f f;
#X obj 16 111 *;
#X obj 16 90 t f f;
#X obj 16 137 *;
#X obj 16 166 +;
#X obj 76 135 *;
#X obj 16 24 t f f;
#X obj 16 191 outlet;
#X connect 0 0 10 1;
#X connect 1 0 8 1;
#X connect 2 0 1 0;
#X connect 2 0 0 0;
#X connect 3 0 11 0;
#X connect 4 0 7 0;
#X connect 5 0 4 0;
#X connect 5 1 4 1;
#X connect 6 0 8 0;
#X connect 7 0 6 0;
#X connect 7 1 6 1;
#X connect 8 0 9 0;
#X connect 9 0 12 0;
#X connect 10 0 9 1;
#X connect 11 0 5 0;
#X connect 11 1 10 0;
#X restore 31 132 pd gleichung;
#N canvas 750 295 229 226 gleichung 0;
#X obj 123 85 + 1;
#X obj 78 85 * -1;
#X obj 123 12 inlet;
#X obj 16 5 inlet;
#X obj 16 68 *;
#X obj 16 47 t f f;
#X obj 16 111 *;
#X obj 16 90 t f f;
#X obj 16 137 *;
#X obj 16 166 +;
#X obj 76 135 *;
#X obj 16 24 t f f;
#X obj 16 191 outlet;
#X connect 0 0 10 1;
#X connect 1 0 8 1;
#X connect 2 0 1 0;
#X connect 2 0 0 0;
#X connect 3 0 11 0;
#X connect 4 0 7 0;
#X connect 5 0 4 0;
#X connect 5 1 4 1;
#X connect 6 0 8 0;
#X connect 7 0 6 0;
#X connect 7 1 6 1;
#X connect 8 0 9 0;
#X connect 9 0 12 0;
#X connect 10 0 9 1;
#X connect 11 0 5 0;
#X connect 11 1 10 0;
#X restore 31 152 pd gleichung;
#N canvas 750 295 229 226 gleichung 0;
#X obj 123 85 + 1;
#X obj 78 85 * -1;
#X obj 123 12 inlet;
#X obj 16 5 inlet;
#X obj 16 68 *;
#X obj 16 47 t f f;
#X obj 16 111 *;
#X obj 16 90 t f f;
#X obj 16 137 *;
#X obj 16 166 +;
#X obj 76 135 *;
#X obj 16 24 t f f;
#X obj 16 191 outlet;
#X connect 0 0 10 1;
#X connect 1 0 8 1;
#X connect 2 0 1 0;
#X connect 2 0 0 0;
#X connect 3 0 11 0;
#X connect 4 0 7 0;
#X connect 5 0 4 0;
#X connect 5 1 4 1;
#X connect 6 0 8 0;
#X connect 7 0 6 0;
#X connect 7 1 6 1;
#X connect 8 0 9 0;
#X connect 9 0 12 0;
#X connect 10 0 9 1;
#X connect 11 0 5 0;
#X connect 11 1 10 0;
#X restore 31 172 pd gleichung;
#N canvas 750 295 229 226 gleichung 0;
#X obj 123 85 + 1;
#X obj 78 85 * -1;
#X obj 123 12 inlet;
#X obj 16 5 inlet;
#X obj 16 68 *;
#X obj 16 47 t f f;
#X obj 16 111 *;
#X obj 16 90 t f f;
#X obj 16 137 *;
#X obj 16 166 +;
#X obj 76 135 *;
#X obj 16 24 t f f;
#X obj 16 191 outlet;
#X connect 0 0 10 1;
#X connect 1 0 8 1;
#X connect 2 0 1 0;
#X connect 2 0 0 0;
#X connect 3 0 11 0;
#X connect 4 0 7 0;
#X connect 5 0 4 0;
#X connect 5 1 4 1;
#X connect 6 0 8 0;
#X connect 7 0 6 0;
#X connect 7 1 6 1;
#X connect 8 0 9 0;
#X connect 9 0 12 0;
#X connect 10 0 9 1;
#X connect 11 0 5 0;
#X connect 11 1 10 0;
#X restore 31 192 pd gleichung;
#X obj 136 35 + 0.1;
#X obj 136 58 * 0.6;
#X connect 0 0 4 0;
#X connect 1 0 0 0;
#X connect 3 0 11 0;
#X connect 4 0 5 0;
#X connect 5 0 6 0;
#X connect 6 0 7 0;
#X connect 7 0 8 0;
#X connect 8 0 9 0;
#X connect 9 0 10 0;
#X connect 10 0 2 0;
#X connect 11 0 12 0;
#X connect 12 0 0 1;
#X connect 12 0 4 1;
#X connect 12 0 5 1;
#X connect 12 0 6 1;
#X connect 12 0 7 1;
#X connect 12 0 8 1;
#X connect 12 0 9 1;
#X connect 12 0 10 1;
#X restore 462 379 pd curve;
#X obj 462 356 / 39;
#X obj 461 218 t f f;
#X obj 461 239 *;
#X obj 254 340 line~;
#X obj 65 309 del 3;
#X obj 462 334 moses 40;
#X obj 164 362 >~ 38;
#X obj 462 307 t f f;
#X obj 462 422 table \$0-attack 39;
#X obj 462 402 tabwrite \$0-attack;
#X obj 21 238 tabplay~ \$0-attack;
#X obj 298 341 f 0.58;
#X msg 254 318 500 \, 50 5;
#X obj 21 188 t b;
#X obj 164 215 *;
#X obj 164 237 rmstodb;
#X obj 252 259 exp;
#X obj 252 238 + 5.1;
#X obj 252 216 * 3.2;
#X obj 35 315 f;
#X obj 21 9 inlet;
#X obj 328 8 loadbang;
#X obj 353 457 del;
#X obj 323 436 t b b;
#X obj 353 497 0;
#X obj 323 498 1;
#X obj 323 526 t a;
#X obj 364 565 switch~;
#X obj 323 591 outlet;
#X obj 369 435 + 3;
#X obj 22 565 outlet~;
#X text 451 509 Author: Roman Haefeli;
#X obj 164 194 t f f;
#X text 372 592 switch~;
#X obj 21 39 route bang trigger gain decay click;
#X obj 461 196 / 127;
#X obj 252 194 / 127;
#X obj 164 171 / 127;
#X obj 297 80 sel 0;
#X obj 297 101 100;
#X obj 297 59 \$1;
#X obj 297 123 f;
#X obj 353 77 sel 0;
#X obj 353 120 f;
#X obj 404 81 sel 0;
#X obj 404 124 f;
#X obj 353 98 50;
#X obj 404 102 50;
#X obj 353 56 \$2;
#X obj 404 60 \$3;
#X text 450 527 Version: 2007-09-13;
#X connect 0 0 18 0;
#X connect 1 0 0 0;
#X connect 1 1 10 1;
#X connect 2 0 17 0;
#X connect 3 0 2 0;
#X connect 4 0 5 0;
#X connect 5 0 41 0;
#X connect 6 0 7 0;
#X connect 7 0 5 1;
#X connect 8 0 4 1;
#X connect 9 0 6 0;
#X connect 10 0 20 0;
#X connect 11 0 10 0;
#X connect 12 0 13 0;
#X connect 12 1 13 1;
#X connect 13 0 1 0;
#X connect 14 0 8 0;
#X connect 15 0 9 0;
#X connect 16 0 11 0;
#X connect 17 0 4 0;
#X connect 18 0 16 0;
#X connect 18 1 20 1;
#X connect 21 0 5 0;
#X connect 22 0 8 1;
#X connect 23 0 14 0;
#X connect 24 0 21 0;
#X connect 24 0 15 0;
#X connect 24 0 3 0;
#X connect 24 0 23 0;
#X connect 24 0 22 0;
#X connect 24 0 30 0;
#X connect 24 0 34 0;
#X connect 25 0 26 0;
#X connect 26 0 30 1;
#X connect 27 0 9 1;
#X connect 27 0 40 0;
#X connect 28 0 27 0;
#X connect 29 0 28 0;
#X connect 30 0 6 0;
#X connect 31 0 45 0;
#X connect 32 0 51 0;
#X connect 32 0 59 0;
#X connect 32 0 60 0;
#X connect 33 0 35 0;
#X connect 34 0 36 0;
#X connect 34 1 33 0;
#X connect 35 0 37 0;
#X connect 36 0 37 0;
#X connect 37 0 38 0;
#X connect 37 0 39 0;
#X connect 40 0 33 1;
#X connect 43 0 25 0;
#X connect 43 1 25 1;
#X connect 45 0 24 0;
#X connect 45 1 24 0;
#X connect 45 2 48 0;
#X connect 45 3 47 0;
#X connect 45 4 46 0;
#X connect 46 0 12 0;
#X connect 47 0 29 0;
#X connect 48 0 43 0;
#X connect 49 0 50 0;
#X connect 49 1 52 0;
#X connect 50 0 52 0;
#X connect 51 0 49 0;
#X connect 52 0 48 0;
#X connect 53 0 57 0;
#X connect 53 1 54 0;
#X connect 54 0 47 0;
#X connect 55 0 58 0;
#X connect 55 1 56 0;
#X connect 56 0 46 0;
#X connect 57 0 54 0;
#X connect 58 0 56 0;
#X connect 59 0 53 0;
#X connect 60 0 55 0;
