#N canvas 99 8 819 450 10;
#X obj 145 325 tgl 15 0 empty empty empty 17 7 0 10 -262144 -1 -1 0
1;
#X msg 10 67 trigger;
#X obj 10 45 bng 15 250 50 0 empty empty empty 17 7 0 10 -262144 -1
-1;
#X msg 159 244 click \$1;
#X msg 163 91 gain \$1;
#X msg 160 169 decay \$1;
#X obj 162 206 hsl 128 15 0 127 0 1 empty \$0-click empty -2 -8 0 10
-262144 -1 -1 5000 1;
#X floatatom 170 226 5 0 0 0 - - -;
#X obj 166 53 hsl 128 15 0 127 0 0 empty \$0-gain empty -2 -8 0 10
-262144 -1 -1 10000 1;
#X floatatom 174 73 5 0 0 0 - - -;
#X obj 163 132 hsl 128 15 0 127 0 0 empty \$0-decay empty -2 -8 0 10
-262144 -1 -1 5000 1;
#X floatatom 171 152 5 0 0 0 - - -;
#N canvas 602 327 196 257 INIT 0;
#X obj 7 16 loadbang;
#X obj 57 75 s \$0-gain;
#X obj 56 124 s \$0-decay;
#X obj 57 175 s \$0-click;
#X text 16 210 loading default values;
#X msg 57 52 100;
#X msg 56 102 50;
#X msg 57 153 50;
#X connect 0 0 5 0;
#X connect 0 0 6 0;
#X connect 0 0 7 0;
#X connect 5 0 1 0;
#X connect 6 0 2 0;
#X connect 7 0 3 0;
#X restore 11 399 pd INIT;
#X text 35 46 <- play it;
#X text 377 389 Author: Roman Haefeli;
#X text 179 325 <- can be used to switch~ dsp off;
#X obj 10 282 synth.drum.808.kick~;
#X obj 9 325 mix.out_~;
#X text 377 410 Version: 2007-09-13;
#X text 218 259;
#X text 10 7 Description: an emulation of the kickdrum from the fancy
tr808 beatmachine;
#X obj 367 44 cnv 15 430 180 empty empty empty 20 12 0 14 -24198 -66577
0;
#X text 378 54 SYNOPSIS;
#X text 377 114 outlet0: signal;
#X text 377 130 outlet1: float (0/1) \, switch~ outlet;
#X text 376 162 arg1: gain (0-127) / default = 100;
#X text 375 180 arg2: decay (0-127) / default = 50;
#X text 375 198 arg3: click (0-127) / default = 50;
#X text 378 83 inlet0: accepts methods 'trigger' \, 'bang' \, 'gain'
\, 'decay' and 'click';
#X connect 1 0 16 0;
#X connect 2 0 1 0;
#X connect 3 0 16 0;
#X connect 4 0 16 0;
#X connect 5 0 16 0;
#X connect 6 0 7 0;
#X connect 6 0 3 0;
#X connect 8 0 9 0;
#X connect 8 0 4 0;
#X connect 10 0 11 0;
#X connect 10 0 5 0;
#X connect 16 0 17 0;
#X connect 16 0 17 1;
#X connect 16 1 0 0;
