#N canvas 439 357 1066 540 10;
#X obj 179 27 notein;
#X obj 179 53 pack f f;
#X obj 229 385 *~ 0.2;
#X obj 596 328 vsl 15 50 0 1 0 0 empty empty empty 0 -8 0 8 -258699
-1 -1 0 1;
#X obj 184 450 mix.out_~;
#X obj 179 99 pack f f f;
#X obj 179 122 route 1 2 3 4;
#X obj 179 76 poly 4 1;
#X text 272 22 Description: Midi instrument using a simple osc~;
#X obj 478 163 synth.simple.osc~;
#X obj 630 29 input.piano_ 1;
#X obj 342 156 synth.simple.osc~;
#X obj 49 156 synth.simple.osc~;
#X obj 195 156 synth.simple.osc~;
#X floatatom 635 270 5 0 127 0 - - -;
#X floatatom 446 272 5 0 127 0 - - -;
#X floatatom 446 234 5 0 127 0 - - -;
#X text 485 232 Distort positive and negative;
#X text 480 271 Distort positive;
#X text 672 270 Distort negative;
#X obj 226 408 fx.dist~ 64 64;
#X obj 348 424 anal.scope_~ 1;
#X obj 391 106 t a;
#X msg 382 75 5 10 0.966 50;
#X connect 0 0 1 0;
#X connect 0 1 1 1;
#X connect 1 0 7 0;
#X connect 2 0 20 0;
#X connect 3 0 2 1;
#X connect 5 0 6 0;
#X connect 6 0 12 0;
#X connect 6 1 13 0;
#X connect 6 2 11 0;
#X connect 6 3 9 0;
#X connect 7 0 5 0;
#X connect 7 1 5 1;
#X connect 7 2 5 2;
#X connect 9 0 2 0;
#X connect 10 0 1 0;
#X connect 11 0 2 0;
#X connect 12 0 2 0;
#X connect 13 0 2 0;
#X connect 14 0 20 2;
#X connect 15 0 20 1;
#X connect 16 0 14 0;
#X connect 16 0 15 0;
#X connect 20 0 21 0;
#X connect 20 0 4 1;
#X connect 20 0 4 0;
#X connect 22 0 11 1;
#X connect 22 0 9 1;
#X connect 22 0 13 1;
#X connect 22 0 12 1;
#X connect 23 0 22 0;
