#N canvas 0 0 637 504 12;
#X obj 164 323 t l l;
#X obj 137 380 list;
#X obj 109 159 route bang;
#X obj 145 420 outlet;
#X obj 123 98 inlet;
#X obj 372 263 f;
#X obj 373 323 t f f;
#X obj 374 291 + 1;
#X obj 358 359 f;
#X msg 435 211 0;
#X obj 274 174 t a b;
#X obj 388 417 outlet;
#X msg 472 243 0;
#X obj 100 193 t b b b b b;
#X obj 438 59 inlet clear;
#X obj 463 138 t b b b b;
#X obj 160 301 list append;
#X obj 424 99 route bang;
#X connect 0 0 1 1;
#X connect 0 1 16 1;
#X connect 1 0 3 0;
#X connect 2 0 13 0;
#X connect 2 1 10 0;
#X connect 4 0 2 0;
#X connect 5 0 7 0;
#X connect 6 0 8 1;
#X connect 6 1 5 1;
#X connect 7 0 6 0;
#X connect 8 0 11 0;
#X connect 9 0 5 1;
#X connect 10 0 16 0;
#X connect 10 1 5 0;
#X connect 12 0 8 1;
#X connect 13 0 1 1;
#X connect 13 1 1 0;
#X connect 13 2 16 1;
#X connect 13 3 12 0;
#X connect 13 3 9 0;
#X connect 13 4 8 0;
#X connect 14 0 17 0;
#X connect 15 0 1 1;
#X connect 15 1 16 1;
#X connect 15 2 9 0;
#X connect 15 3 12 0;
#X connect 16 0 0 0;
#X connect 17 0 15 0;
#X connect 17 1 10 0;
