#N canvas 0 0 565 601 10;
#X obj 143 10 inlet;
#X obj 153 193 drip;
#X obj 226 293 f;
#X obj 300 317 + 1;
#X obj 224 320 t f f;
#X msg 431 310 0;
#X obj 164 358 *;
#X obj 169 397 +;
#X obj 172 422 t f f;
#X obj 123 456 f;
#X obj 118 559 outlet;
#X obj 109 501 /;
#X obj 307 437 +;
#X obj 310 462 t f f;
#X obj 139 256 t f b f;
#X obj 296 67 minmax;
#X obj 136 164 t b l b;
#X obj 173 38 t l l;
#X obj 138 116 demultiplex 0 1;
#X obj 297 108 -;
#X obj 301 137 == 0;
#X obj 504 249 length;
#X obj 514 276 - 1;
#X obj 520 465 / 2;
#X obj 159 228 -;
#X connect 0 0 17 0;
#X connect 1 0 24 0;
#X connect 2 0 4 0;
#X connect 3 0 2 1;
#X connect 4 0 6 1;
#X connect 4 1 3 0;
#X connect 5 0 2 1;
#X connect 5 0 7 1;
#X connect 5 0 12 1;
#X connect 6 0 7 0;
#X connect 7 0 8 0;
#X connect 8 0 9 1;
#X connect 8 1 7 1;
#X connect 9 0 11 0;
#X connect 11 0 10 0;
#X connect 12 0 13 0;
#X connect 13 0 11 1;
#X connect 13 1 12 1;
#X connect 14 0 6 0;
#X connect 14 1 2 0;
#X connect 14 2 12 0;
#X connect 15 0 19 0;
#X connect 15 0 24 1;
#X connect 15 1 19 1;
#X connect 16 0 9 0;
#X connect 16 1 1 0;
#X connect 16 2 5 0;
#X connect 17 0 18 0;
#X connect 17 1 15 0;
#X connect 18 0 16 0;
#X connect 18 1 21 0;
#X connect 19 0 20 0;
#X connect 20 0 18 1;
#X connect 21 0 22 0;
#X connect 22 0 23 0;
#X connect 23 0 10 0;
#X connect 24 0 14 0;
