#N canvas 237 79 885 712 12;
#X obj 111 95 inlet;
#X text 158 94 float;
#X obj 326 86 inlet;
#X text 373 85 list length;
#X obj 483 88 inlet;
#X text 529 87 reset;
#X obj 245 472 outlet;
#X obj 205 301 repack \$1;
#X obj 204 339 spigot 1;
#X obj 404 191 t b b b;
#X msg 474 242 0;
#X msg 386 247 1;
#X connect 0 0 7 0;
#X connect 2 0 7 1;
#X connect 4 0 9 0;
#X connect 7 0 8 0;
#X connect 8 0 6 0;
#X connect 9 0 11 0;
#X connect 9 1 7 0;
#X connect 9 2 10 0;
#X connect 10 0 8 1;
#X connect 11 0 8 1;
