#N canvas 187 254 739 514 10;
#X msg 303 287 list;
#X obj 110 42 inlet;
#X obj 468 457 outlet;
#X obj 492 80 inlet;
#X obj 82 455 outlet;
#X obj 208 317 list prepend;
#X obj 475 219 drip;
#X obj 104 414 demultiplex 0 1;
#X msg 177 250 1;
#X obj 90 123 t b b l b b;
#X msg 117 278 0;
#X connect 0 0 5 1;
#X connect 1 0 9 0;
#X connect 3 0 5 0;
#X connect 5 0 7 0;
#X connect 6 0 2 0;
#X connect 7 0 4 0;
#X connect 7 1 5 1;
#X connect 8 0 7 1;
#X connect 9 0 5 0;
#X connect 9 1 10 0;
#X connect 9 2 6 0;
#X connect 9 3 0 0;
#X connect 9 4 8 0;
#X connect 10 0 7 1;
