#N canvas 0 0 750 647 10;
#X obj 296 528 msgfile;
#X msg 489 399 clear;
#X obj 296 407 list prepend add;
#X obj 296 439 list trim;
#X msg 187 542 goto \$1 \, this;
#X obj 187 519 drip;
#X obj 381 97 t b b b;
#X obj 419 503 demultiplex;
#X obj 400 533 t a b;
#X msg 480 470 1;
#X msg 536 437 0;
#X obj 292 33 inlet;
#X obj 162 95 t l l;
#X obj 90 35 inlet;
#X obj 375 591 outlet;
#X obj 483 592 outlet;
#X obj 534 46 inlet;
#X obj 598 592 outlet;
#X obj 168 490 t b l;
#X obj 144 392 ../list/build;
#X obj 439 40 inlet;
#X obj 60 174 route symbol;
#X obj 36 254 symbol2list;
#X msg 84 219 symbol;
#X obj 38 198 t s b;
#X obj 36 293 packel 1;
#X obj 36 321 spell;
#X obj 252 151 + 1;
#X obj 53 141 packel 1;
#X obj 252 124 ../init/lf \$1;
#X obj 559 148 ../init/ds \$2 >;
#X obj 559 117 loadbang;
#X obj 546 217 sel > <;
#X msg 463 246 -1;
#X msg 505 250 1;
#X obj 144 452 sort;
#X obj 550 82 symbol;
#X connect 0 0 7 0;
#X connect 1 0 0 0;
#X connect 2 0 3 0;
#X connect 3 0 0 0;
#X connect 4 0 0 0;
#X connect 5 0 4 0;
#X connect 6 0 1 0;
#X connect 6 1 19 0;
#X connect 6 2 10 0;
#X connect 7 0 8 0;
#X connect 7 1 15 0;
#X connect 8 0 14 0;
#X connect 8 1 9 0;
#X connect 9 0 7 1;
#X connect 10 0 7 1;
#X connect 11 0 12 0;
#X connect 12 0 28 0;
#X connect 12 1 2 0;
#X connect 13 0 6 0;
#X connect 16 0 36 0;
#X connect 18 0 17 0;
#X connect 18 1 5 0;
#X connect 19 0 35 0;
#X connect 20 0 29 0;
#X connect 21 0 24 0;
#X connect 21 1 19 1;
#X connect 22 0 25 0;
#X connect 23 0 22 1;
#X connect 24 0 22 0;
#X connect 24 1 23 0;
#X connect 25 0 26 0;
#X connect 26 0 19 1;
#X connect 27 0 28 1;
#X connect 28 0 21 0;
#X connect 29 0 27 0;
#X connect 30 0 32 0;
#X connect 31 0 30 0;
#X connect 32 0 33 0;
#X connect 32 1 34 0;
#X connect 33 0 35 1;
#X connect 34 0 35 1;
#X connect 35 1 18 0;
#X connect 36 0 32 0;
