#N canvas 12 50 1012 718 12;
#X obj 130 289 list;
#X obj 124 178 demultiplex 0 1;
#X obj 130 317 route bang;
#X msg 252 135 0;
#X msg 370 202 1;
#X obj 127 235 t l b;
#X obj 125 85 inlet;
#X obj 211 450 outlet;
#X obj 332 59 inlet;
#X obj 337 142 t b b b;
#X obj 387 454 outlet;
#X text 450 454 waiting list;
#X obj 237 230 t l l;
#X obj 340 112 sel 0 1;
#X connect 0 0 2 0;
#X connect 1 0 5 0;
#X connect 1 1 12 0;
#X connect 2 1 7 0;
#X connect 3 0 1 1;
#X connect 4 0 1 1;
#X connect 5 0 0 0;
#X connect 5 1 0 1;
#X connect 6 0 1 0;
#X connect 8 0 13 0;
#X connect 9 0 0 1;
#X connect 9 1 0 0;
#X connect 9 2 3 0;
#X connect 12 0 10 0;
#X connect 12 1 0 1;
#X connect 13 0 9 0;
#X connect 13 1 4 0;
