#N canvas 629 135 651 576 10;
#X obj 279 139 loadbang;
#X msg 279 173 0;
#X obj 292 433 coll;
#C restore;
#X obj 224 276 relay store remove;
#X msg 225 368 length;
#X obj 225 321 t b a;
#X obj 278 334 t b a;
#X obj 132 184 receive \$1;
#X obj 106 519 send \$2;
#X obj 291 464 > 0;
#X obj 50 187 r \$3;
#X obj 22 249 route load preview;
#X obj 42 360 sample/filer;
#X connect 0 0 1 0;
#X connect 1 0 12 0;
#X connect 2 0 9 0;
#X connect 3 0 5 0;
#X connect 3 1 6 0;
#X connect 4 0 2 0;
#X connect 5 0 4 0;
#X connect 5 1 2 0;
#X connect 6 0 4 0;
#X connect 6 1 2 0;
#X connect 7 0 11 0;
#X connect 9 0 12 0;
#X connect 10 0 11 0;
#X connect 11 0 12 0;
#X connect 11 1 12 1;
#X connect 11 2 3 0;
#X connect 12 0 8 0;
