#N canvas 55 0 373 335 10;
#X floatatom 163 156;
#X floatatom 220 175;
#X floatatom 98 154;
#X floatatom 118 221;
#X floatatom 151 33;
#X floatatom 134 266;
#X floatatom 234 99;
#X floatatom 235 75;
#X obj 81 127 qsample ---------------;
#X msg 111 93 record;
#X msg 156 93 play;
#X text 279 49 transpose;
#X floatatom 234 51;
#X text 279 73 start;
#X text 280 97 length;
#X obj 92 292 dac~;
#X obj 94 264 qgain;
#X text 163 269 loudnesss;
#X obj 81 93 adc~;
#X obj 153 60 metro 50;
#X floatatom 194 29;
#X obj 93 243 qring;
#X obj 77 212 vcf~;
#X obj 282 23 random 2000;
#X msg 257 135 read;
#X obj 98 174 qring;
#X floatatom 130 155;
#X obj 163 175 sig~;
#X obj 252 241 env~ 16384;
#X floatatom 258 270;
#X connect 0 0 27 0;
#X connect 1 0 22 2;
#X connect 2 0 25 0;
#X connect 3 0 21 1;
#X connect 4 0 19 0;
#X connect 5 0 16 1;
#X connect 6 0 8 5;
#X connect 7 0 8 4;
#X connect 8 0 22 0;
#X connect 9 0 8 1;
#X connect 10 0 8 2;
#X connect 12 0 8 3;
#X connect 16 0 15 0;
#X connect 16 0 15 1;
#X connect 18 0 8 0;
#X connect 19 0 10 0;
#X connect 20 0 19 1;
#X connect 21 0 16 0;
#X connect 22 0 21 0;
#X connect 24 0 8 6;
#X connect 25 0 22 1;
#X connect 26 0 25 1;
#X connect 27 0 22 1;
#X connect 28 0 29 0;
