#N canvas 236 128 179 191 10;
#X obj 89 112 line~;
#X obj 89 93 pack 0 100;
#X obj 89 55 inlet;
#X obj 89 74 dbtorms;
#X obj 30 67 inlet~;
#X obj 30 118 outlet~;
#X obj 30 86 *~;
#X connect 0 0 6 1;
#X connect 1 0 0 0;
#X connect 2 0 3 0;
#X connect 3 0 1 0;
#X connect 4 0 6 0;
#X connect 6 0 5 0;
