#N canvas 78 104 411 254 10;
#X obj 246 47 inlet;
#X floatatom 246 66;
#X obj 245 162 line~;
#X obj 245 143 pack 0 100;
#X obj 232 180 *~;
#X obj 104 66 inlet~;
#X obj 22 175 outlet~;
#X text 19 60 audio in;
#X text 18 193 audio out;
#X text 213 7 recirculation;
#X text 92 25 delay time;
#X obj 246 125 * 0.01;
#X text 212 23 (0-100);
#X text 100 37 (msec);
#X obj 105 94 vd~ qdel2;
#X obj 120 210 delwrite~ qdel2 2000;
#X obj 20 75 inlet~;
#X obj 246 84 max 0;
#X obj 246 104 min 100;
#X connect 0 0 1 0;
#X connect 1 0 17 0;
#X connect 2 0 4 1;
#X connect 3 0 2 0;
#X connect 4 0 15 0;
#X connect 5 0 14 0;
#X connect 11 0 3 0;
#X connect 14 0 4 0;
#X connect 14 0 6 0;
#X connect 16 0 15 0;
#X connect 17 0 18 0;
#X connect 18 0 11 0;
