#N canvas 38 28 454 261 10;
#X text 13 6 [datei-l] - Sends the message "open ../../";
#X text 310 50 Inlets;
#X text 310 100 Outlets;
#X text 310 150 GUI;
#X text 310 170 - Click on it;
#X text 310 70 - Bang / File name;
#X text 310 120 - Message;
#X obj 22 120 datei-l;
#X msg 22 50 bang;
#X obj 22 160 print Datei_L;
#X text 120 80 Takes the file string;
#X text 12 207 (C) 2006 Joao Miguel Pais - jmmmpais@googlemail.com
;
#X text 12 227 Released under the BSD License;
#X msg 32 80 filename.ext;
#X text 60 50 Opens up dialog;
#X text 92 120 <- Or click on it;
#X text 111 160 Message;
#X connect 7 0 9 0;
#X connect 8 0 7 0;
#X connect 13 0 7 0;
#X coords 0 0 1 1 62 17 0;
