#N canvas 481 291 616 293 10;
#X msg 110 96 4;
#X msg 183 77 symbol display_me;
#X msg 181 114 anything;
#X msg 264 129 1 2 34;
#X obj 112 182 gui/da;
#X text 28 18 Description: Displays anything (spaces are converted
to underscores).;
#X msg 286 154 really long message that will be cut;
#X connect 0 0 4 0;
#X connect 1 0 4 0;
#X connect 2 0 4 0;
#X connect 3 0 4 0;
#X connect 6 0 4 0;
