#N canvas 0 0 853 647 10;
#X obj 56 140 inlet;
#X obj 24 214 makesymbol %s;
#X obj 17 170 route float bang;
#X obj 100 100 cnv 14 220 18 empty empty empty 3 9 0 8 -258699 -262144
0;
#X obj 101 101 cnv 14 218 16 empty empty empty 3 9 0 8 -262144 -262144
0;
#X msg 18 342 symbol bang;
#X symbolatom 102 102 30 0 0 0 - - -;
#X obj 141 200 convert/list2symbol;
#X connect 0 0 2 0;
#X connect 1 0 6 0;
#X connect 2 0 1 0;
#X connect 2 1 5 0;
#X connect 2 2 7 0;
#X connect 5 0 6 0;
#X connect 7 0 6 0;
#X coords 0 -1 1 1 220 18 1 100 100;
