#N canvas 291 155 736 442 10;
#X msg 268 336 label \$1;
#X obj 269 222 t b f;
#X obj 268 289 pack s s;
#X obj 268 312 l2s;
#X obj 269 179 int;
#X obj 269 160 * 1;
#X obj 269 202 / 1;
#X obj 306 98 del 5;
#X obj 306 77 t b;
#X obj 269 139 spigot;
#X msg 306 118 1;
#X obj 306 56 init/lf \$1;
#X obj 268 245 symbol \$2;
#X obj 276 266 makesymbol %s\$3;
#X obj 268 362 outlet;
#X obj 185 38 inlet;
#X connect 0 0 14 0;
#X connect 1 0 12 0;
#X connect 1 1 13 0;
#X connect 2 0 3 0;
#X connect 3 0 0 0;
#X connect 4 0 6 0;
#X connect 5 0 4 0;
#X connect 6 0 1 0;
#X connect 7 0 10 0;
#X connect 8 0 7 0;
#X connect 9 0 5 0;
#X connect 10 0 9 1;
#X connect 11 0 8 0;
#X connect 11 0 14 0;
#X connect 12 0 2 0;
#X connect 13 0 2 1;
#X connect 15 0 9 0;
