#N canvas 790 25 460 323 10;
#X obj 244 201 pack s f;
#X obj 36 16 inlet;
#X msg 242 244 \; \$1 vis \$2;
#X obj 201 157 makesymbol pd-%s;
#X obj 210 103 symbol \$1;
#X obj 216 34 r \$1-state;
#X obj 37 125 s \$1-state;
#X obj 215 64 t b f;
#X obj 31 196 r \$1-state;
#X obj 39 297 outlet;
#X obj 37 68 spigot;
#X obj 94 33 init/lf 1;
#X obj 28 223 t b f b;
#X msg 69 245 0;
#X msg 17 247 1;
#X obj 87 7 r \$1-tgl;
#X obj 88 303 s \$1-tgl;
#X connect 0 0 2 0;
#X connect 1 0 10 0;
#X connect 3 0 0 0;
#X connect 4 0 3 0;
#X connect 5 0 7 0;
#X connect 7 0 4 0;
#X connect 7 1 0 1;
#X connect 8 0 12 0;
#X connect 10 0 6 0;
#X connect 11 0 10 1;
#X connect 12 0 14 0;
#X connect 12 1 9 0;
#X connect 12 1 16 0;
#X connect 12 2 13 0;
#X connect 13 0 10 1;
#X connect 14 0 10 1;
#X connect 15 0 10 0;
