#N canvas 10 10 200 200 10;
#N canvas 20 20 420 300 META 0;
#X text 10 10 VERSION 0.1;
#X text 10 30 NAME nusmuk;
#X text 10 50 AUTHOR Cyrille Henry;
#X text 10 70 DESCRIPTION a collection of objects for physical modelling;
#X restore 10 10 pd META;
