#N canvas 346 400 145 78 10;
#N canvas 0 0 454 304 graph57 0;
#X array \$0-osc 400 float 0;
#X coords 0 1 399 -1 100 80 1;
#X restore 46 0 graph;
#X obj 11 1 loadbang;
#X obj 62 41 metro 100;
#X obj 9 41 inlet~;
#X msg 10 19 1;
#X obj 7 61 tgl 20 0 empty empty Stop 0 -6 0 8 -258699 -1 -1 1 1;
#X obj 47 1 cnv 15 100 80 empty empty empty 20 12 0 14 -233017 -66577
0;
#X obj 103 2 inlet;
#X obj 8 59 tabwrite~ \$0-osc;
#X connect 1 0 4 0;
#X connect 2 0 8 0;
#X connect 3 0 8 0;
#X connect 4 0 5 0;
#X connect 5 0 2 0;
#X connect 7 0 2 1;
#X coords 0 0 1 1 150 80 1;
