#N canvas 71 272 450 300 10;
#X obj 45 26 inlet;
#X obj 49 123 spigot;
#X obj 135 129 spigot;
#X obj 42 204 \$1 \$2 \$3 \$4 \$5 \$6 \$7 \$8 \$9;
#X obj 181 253 outlet;
#X obj 288 15 inlet;
#X obj 99 63 0;
#X obj 128 63 1;
#X obj 201 58 1;
#X obj 234 58 0;
#X text 12 5 nqpwrap (v4) - pix.test.at;
#X text 252 126 this object is used by nqpoly;
#X obj 42 67 t a a;
#X obj 47 157 t a b;
#X connect 0 0 12 0;
#X connect 1 0 13 0;
#X connect 2 0 4 0;
#X connect 3 0 8 0;
#X connect 3 0 9 0;
#X connect 5 0 8 0;
#X connect 5 0 9 0;
#X connect 5 0 3 1;
#X connect 6 0 1 1;
#X connect 7 0 2 1;
#X connect 8 0 1 1;
#X connect 9 0 2 1;
#X connect 12 0 1 0;
#X connect 12 1 2 0;
#X connect 13 0 3 0;
#X connect 13 1 6 0;
#X connect 13 1 7 0;
