#N canvas 344 212 438 446 10;
#X obj 23 280 outlet;
#X obj 23 94 inlet;
#X obj 84 236 outlet;
#X obj 84 141 inlet;
#N canvas 0 0 458 308 gun.guts 0;
#X obj 66 157 until;
#X obj 68 353 outlet;
#X obj 66 32 inlet;
#X obj 66 103 t f f;
#X obj 66 136 t f b;
#X obj 68 218 + 1;
#X obj 66 193 f;
#X msg 117 158 0;
#X obj 110 295 sel;
#X obj 158 350 outlet;
#X obj 68 246 t f f f;
#X obj 66 61 f \$1;
#X obj 225 33 inlet;
#X connect 0 0 6 0;
#X connect 2 0 11 0;
#X connect 3 0 4 0;
#X connect 3 1 8 1;
#X connect 4 0 0 0;
#X connect 4 1 7 0;
#X connect 5 0 10 0;
#X connect 6 0 5 0;
#X connect 7 0 6 1;
#X connect 8 0 9 0;
#X connect 10 0 8 0;
#X connect 10 1 1 0;
#X connect 10 2 6 1;
#X connect 11 0 3 0;
#X connect 12 0 11 1;
#X restore 23 178 pd gun.guts;
#X obj 12 10 cnv 15 400 60 empty empty gun 12 12 1 14 -261681 -1 0
;
#X obj 12 48 cnv 15 200 22 empty empty Made_by:mr.tof(tom@danslchamp.org)
12 12 1 7 -1 -262144 0;
#X obj 257 48 cnv 15 155 22 empty empty Version:01(2004-11-22) 45 12
1 7 -1 -262144 0;
#X text 25 30 Sends out n serialized floats.;
#X text 127 238 Bangs when done;
#X text 67 281 Current index.;
#X text 61 93 Bang: start sending float.;
#X text 61 105 Float: start sending n floats.;
#X text 121 142 Number of floats to send;
#X text 108 178 arg1 : number of floats to send.;
#X connect 1 0 4 0;
#X connect 3 0 4 1;
#X connect 4 0 0 0;
#X connect 4 1 2 0;
