#N canvas 0 0 450 300 10;
#X obj 291 45 inlet;
#X msg 283 104 set \$1;
#X obj 306 79 symbol;
#X obj 126 239 outlet;
#X obj 121 202 receive13 \$1;
#X connect 0 0 2 0;
#X connect 1 0 4 0;
#X connect 2 0 1 0;
#X connect 4 0 3 0;
