#N canvas 0 0 1247 912 10;
#N canvas 0 0 450 300 transform/fit 0;
#X obj 16 39 inlet;
#X obj 144 588 outlet;
#X obj 349 36 inlet;
#X obj 221 214 /;
#X obj 193 365 *;
#X obj 274 156 t f f;
#X obj 346 403 /;
#X obj 325 588 outlet;
#X obj 412 581 outlet;
#X obj 167 241 t b f;
#N canvas 289 98 991 658 closestmult2 0;
#X msg 403 194 2;
#X obj 407 228 float;
#X obj 465 262 moses;
#X obj 521 193 * 2;
#X obj 506 374 -;
#X obj 406 145 t b f f;
#X obj 517 417 moses;
#X obj 529 339 t f f;
#X obj 564 361 * 0.25;
#X obj 492 480 float;
#X msg 490 448 bang;
#X msg 575 445 bang;
#X obj 581 476 float;
#X obj 606 501 / 2;
#X obj 513 286 t f f f;
#X obj 149 40 inlet;
#X obj 255 610 outlet;
#X obj 190 75 moses 1;
#X obj 66 81 /;
#X msg 75 53 1.125 \$1;
#X obj 327 534 demultiplex 0 1;
#X obj 301 82 t f b;
#X msg 403 354 1;
#X obj 226 124 t f b;
#X msg 365 355 0;
#X msg 408 578 1 \$1;
#X obj 412 605 /;
#X connect 0 0 1 0;
#X connect 1 0 2 0;
#X connect 2 0 3 0;
#X connect 2 1 14 0;
#X connect 3 0 1 0;
#X connect 4 0 6 0;
#X connect 5 0 0 0;
#X connect 5 1 2 1;
#X connect 5 2 4 1;
#X connect 6 0 10 0;
#X connect 6 1 11 0;
#X connect 7 0 4 0;
#X connect 7 1 8 0;
#X connect 8 0 6 1;
#X connect 9 0 20 0;
#X connect 10 0 9 0;
#X connect 11 0 12 0;
#X connect 12 0 13 0;
#X connect 13 0 20 0;
#X connect 14 0 7 0;
#X connect 14 1 9 1;
#X connect 14 2 12 1;
#X connect 15 0 17 0;
#X connect 17 0 19 0;
#X connect 17 1 21 0;
#X connect 18 0 23 0;
#X connect 19 0 18 0;
#X connect 20 0 25 0;
#X connect 20 1 16 0;
#X connect 21 0 5 0;
#X connect 21 1 22 0;
#X connect 22 0 20 1;
#X connect 23 0 5 0;
#X connect 23 1 24 0;
#X connect 24 0 20 1;
#X connect 25 0 26 0;
#X connect 26 0 16 0;
#X restore 257 279 pd closestmult2;
#X obj 252 305 t f f;
#X obj 131 290 f;
#X obj 377 451 t f f;
#X obj 494 584 outlet;
#X obj 472 516 /;
#X msg 446 485 1 \$1;
#X obj 216 82 t f b f f;
#X connect 0 0 5 0;
#X connect 2 0 17 0;
#X connect 3 0 9 0;
#X connect 4 0 6 0;
#X connect 4 0 1 0;
#X connect 5 0 3 0;
#X connect 5 1 6 1;
#X connect 6 0 7 0;
#X connect 9 0 12 0;
#X connect 9 1 10 0;
#X connect 10 0 11 0;
#X connect 11 0 13 0;
#X connect 11 1 4 1;
#X connect 12 0 4 0;
#X connect 13 0 8 0;
#X connect 13 1 16 0;
#X connect 15 0 14 0;
#X connect 16 0 15 0;
#X connect 17 0 12 1;
#X connect 17 2 3 1;
#X restore 251 317 pd transform/fit;
#X obj 186 8 inlet frames;
#X obj 380 13 inlet~;
#X obj 539 14 inlet~;
#X obj 346 204 samplerate~;
#X obj 484 228 snapshot~;
#X obj 234 459 *~;
#X obj 206 643 outlet~;
#X obj 78 10 inlet speed;
#X obj 187 178 *;
#X floatatom 381 359 5 0 0 0 - - -;
#X floatatom 333 387 5 0 0 0 - - -;
#X floatatom 310 430 5 0 0 0 - - -;
#X floatatom 201 377 5 0 0 0 - - -;
#X obj 466 317 gui/snap~;
#X floatatom 143 248 10 0 0 0 - - -;
#X floatatom 112 42 5 0 0 0 - - -;
#X floatatom 500 273 5 0 0 0 - - -;
#X floatatom 380 272 5 0 0 0 - - -;
#X floatatom 149 288 10 0 0 0 - - -;
#X obj 357 415 /;
#X floatatom 398 446 5 0 0 0 - - -;
#X obj 299 492 gui/snap~;
#X obj 717 238 snapshot~;
#X obj 251 144 t f b b b;
#X obj 656 379 *;
#X obj 606 657 outlet;
#X floatatom 704 420 5 0 0 0 - - -;
#X floatatom 712 310 5 0 0 0 - - -;
#X text 229 -77 DO NOT USE YET!!!!;
#X connect 0 0 13 0;
#X connect 0 1 12 0;
#X connect 0 2 11 0;
#X connect 0 3 10 0;
#X connect 0 3 20 0;
#X connect 1 0 24 0;
#X connect 2 0 5 0;
#X connect 2 0 6 0;
#X connect 2 0 14 0;
#X connect 3 0 23 0;
#X connect 4 0 18 0;
#X connect 4 0 0 1;
#X connect 5 0 17 0;
#X connect 5 0 20 1;
#X connect 6 0 7 0;
#X connect 6 0 22 0;
#X connect 8 0 9 0;
#X connect 8 0 16 0;
#X connect 9 0 15 0;
#X connect 9 0 0 0;
#X connect 20 0 21 0;
#X connect 20 0 6 1;
#X connect 20 0 25 0;
#X connect 23 0 25 1;
#X connect 23 0 28 0;
#X connect 24 0 9 1;
#X connect 24 1 4 0;
#X connect 24 2 5 0;
#X connect 24 3 23 0;
#X connect 25 0 26 0;
#X connect 25 0 27 0;
