#N canvas 724 66 744 695 10;
#X text 34 -119 Description: Eliminates redundancy in a shared number
stream.;
#X obj 152 97 bng 15 250 50 0 empty empty empty 0 -6 0 8 -262144 -1
-1;
#X obj 130 99 tgl 15 0 empty empty empty 0 -6 0 8 -262144 -1 -1 0 1
;
#X obj 133 11 tgl 15 0 empty empty empty 0 -6 0 8 -262144 -1 -1 0 1
;
#X obj 362 20 tgl 15 0 empty empty empty 0 -6 0 8 -262144 -1 -1 0 1
;
#X obj 370 96 bng 15 250 50 0 empty empty empty 0 -6 0 8 -262144 -1
-1;
#X obj 348 98 tgl 15 0 empty empty empty 0 -6 0 8 -262144 -1 -1 0 1
;
#X obj 439 231 tgl 15 0 empty empty empty 0 -6 0 8 -262144 -1 -1 0
1;
#X obj 438 155 bng 15 250 50 0 empty empty empty 0 -6 0 8 -262144 -1
-1;
#X text 457 156 Get the current shared number.;
#X text 153 -16 To test: turn one toggle on \, then try the other.
Notice how there was no output because the shared number did not change.
;
#X obj 222 255 flow/valuechange \$0local2;
#X floatatom 173 151 5 0 0 0 - - -;
#X obj 52 302 print a;
#X obj 218 301 print b;
#X text 103 321 In this example \, only one of the flow/valuechange
will output the value. Break the connection between the number box
and the flow/valuechange that is outputing and voila \, the other flow/valuechange
will print.;
#X obj 197 217 spigot 1;
#X obj 267 219 tgl 15 0 empty empty empty 0 -6 0 8 -262144 -1 -1 1
1;
#X obj 267 198 init/lf 1;
#X obj 174 177 t f f;
#X text 113 449 Internally \, the actual value name is created by appending
"_vc" to argument_1.;
#X text 246 418 -- Notes --;
#X text 39 -76 Argument_1: The name of the shared value (float).;
#X obj 133 54 flow/valuechange \$0local;
#X obj 359 55 flow/valuechange \$0local;
#X obj 439 190 flow/valuechange \$0local;
#X obj 37 255 flow/valuechange \$0local2;
#X connect 3 0 23 0;
#X connect 4 0 24 0;
#X connect 8 0 25 0;
#X connect 11 0 14 0;
#X connect 12 0 19 0;
#X connect 16 0 11 0;
#X connect 17 0 16 1;
#X connect 18 0 17 0;
#X connect 19 0 26 0;
#X connect 19 1 16 0;
#X connect 23 0 2 0;
#X connect 23 0 1 0;
#X connect 24 0 6 0;
#X connect 24 0 5 0;
#X connect 25 0 7 0;
#X connect 26 0 13 0;
