#N canvas 176 287 548 368 12;
#X obj 51 82 vradio 15 1 0 8 empty empty empty 0 -6 0 8 -262144 -1
-1 0;
#X obj 150 82 vdl 15 1 0 8 empty empty empty 0 -6 0 8 -262144 -1 -1
0;
#X obj 78 240 vradio 15 1 0 8 empty empty empty 0 -6 0 8 -262144 -1
-1 0;
#X floatatom 149 52 5 0 0 0 - - -;
#X floatatom 244 182 5 0 0 0 - - -;
#X obj 361 97 vradio 15 1 0 8 empty empty empty 0 -6 0 8 -262144 -1
-1 0;
#X floatatom 374 257 5 0 0 0 - - -;
#X obj 256 285 nbx 5 14 -1e+37 1e+37 0 0 empty empty empty 0 -6 0 10
-262144 -1 -1 0 256;
#X floatatom 478 73 5 0 0 0 receive asd -;
#X floatatom 245 246 5 0 0 0 - - -;
#X floatatom 475 156 5 0 0 0 send weghg -;
#X floatatom 466 220 5 0 0 0 both - rty;
#X connect 3 0 1 0;
#X connect 3 0 0 0;
#X connect 3 0 5 0;
#X connect 4 0 2 0;
#X connect 5 0 6 0;
#X connect 9 0 7 0;
#X coords 0 0 1 1 300 200 1;
