#N canvas 415 689 650 422 10;
#X obj 162 159 moses 0;
#X obj 243 205 moses 180;
#X obj 136 196 moses -180;
#X obj 371 32 inlet current_angle;
#X obj 85 19 inlet target_angle;
#X obj 162 109 -;
#X obj 102 68 t f f;
#X obj 104 285 +;
#X msg 136 220 360;
#X msg 194 231 0;
#X msg 238 229 0;
#X msg 300 235 -360;
#X obj 111 353 line;
#X obj 190 321 pack f \$1;
#X obj 126 382 t f f;
#X obj 131 403 outlet;
#X obj 411 166 moses 0;
#X obj 470 190 mod 360;
#X obj 403 196 * -1;
#X obj 390 232 mod 360;
#X obj 393 263 * -1;
#X obj 247 20 inlet time;
#X obj 390 79 t b f b;
#X msg 447 109 0;
#X obj 268 129 f \$1;
#X obj 481 62 loadbang;
#X obj 496 87 f \$2;
#X connect 0 0 2 0;
#X connect 0 1 1 0;
#X connect 1 0 10 0;
#X connect 1 1 11 0;
#X connect 2 0 8 0;
#X connect 2 1 9 0;
#X connect 3 0 22 0;
#X connect 4 0 6 0;
#X connect 5 0 0 0;
#X connect 6 0 7 0;
#X connect 6 1 5 0;
#X connect 7 0 16 0;
#X connect 8 0 7 1;
#X connect 9 0 7 1;
#X connect 10 0 7 1;
#X connect 11 0 7 1;
#X connect 12 0 14 0;
#X connect 13 0 12 0;
#X connect 14 0 15 0;
#X connect 14 1 5 1;
#X connect 16 0 18 0;
#X connect 16 1 17 0;
#X connect 17 0 13 0;
#X connect 18 0 19 0;
#X connect 19 0 20 0;
#X connect 20 0 13 0;
#X connect 21 0 24 0;
#X connect 22 0 24 0;
#X connect 22 1 16 0;
#X connect 22 2 23 0;
#X connect 23 0 13 1;
#X connect 24 0 13 1;
#X connect 25 0 26 0;
#X connect 26 0 22 0;
