#N canvas 138 364 916 555 10;
#X obj 186 115 unpack;
#X obj 145 149 * 4;
#X obj 223 150 * 4;
#X obj 154 234 pack;
#X obj 81 436 dac~ 1 2;
#X obj 70 187 noise~;
#X obj 67 223 *~ 0.5;
#X obj 96 365 *~ 0;
#X text 264 350 Arguments:;
#X floatatom 150 186 5 0 0 0 - - -;
#X floatatom 223 185 5 0 0 0 - - -;
#X text 284 419 4) curve (1=none \, curve>1=slower \, 0<curve<1=faster)
;
#X obj 154 296 2d/speaker 2 0 1 0.7;
#X floatatom 356 169 5 0 0 0 - - -;
#X text 191 233 x y position;
#X obj 356 199 t b f;
#X text 398 171 curve;
#X text 413 240 Inlets;
#X text 432 258 1) x y sound position;
#X text 285 374 1) x speaker position;
#X text 285 389 2) y speaker position;
#X text 284 404 3) maximum sound distance;
#X text 432 274 2) x y speaker position;
#X text 432 290 3) maximum sound distance;
#X text 429 310 4) curve (1=none \, curve>1=slower \, 0<curve<1=faster)
;
#X floatatom 163 321 5 0 0 0 - - -;
#X text 207 323 Sound volume;
#X text 39 -33 Description: Helps position a sound in 2d space.;
#X obj 186 -10 input/grid_;
#X connect 0 0 1 0;
#X connect 0 1 2 0;
#X connect 1 0 9 0;
#X connect 2 0 10 0;
#X connect 3 0 12 0;
#X connect 5 0 6 0;
#X connect 6 0 7 0;
#X connect 7 0 4 0;
#X connect 7 0 4 1;
#X connect 9 0 3 0;
#X connect 10 0 3 1;
#X connect 12 0 7 1;
#X connect 12 0 25 0;
#X connect 13 0 15 0;
#X connect 15 0 3 0;
#X connect 15 1 12 3;
#X connect 28 0 0 0;
