#N canvas 294 163 730 605 10;
#X obj 92 49 inlet;
#X obj 134 145 ../2d/distance \$1 \$2;
#X obj 164 580 outlet;
#X obj 327 52 inlet;
#N canvas 0 0 764 597 curve 0;
#N canvas 0 0 454 304 pow 0;
#X obj 125 174 pow 2;
#X msg 127 216 1 \$1;
#X obj 135 243 -;
#X obj 121 141 inlet;
#X obj 201 140 inlet;
#X obj 135 270 outlet;
#X connect 0 0 1 0;
#X connect 1 0 2 0;
#X connect 2 0 5 0;
#X connect 3 0 0 0;
#X connect 4 0 0 1;
#X restore 325 354 pd pow;
#X obj 526 45 loadbang;
#X obj 637 144 sel 0;
#X obj 593 120 moses 0;
#X msg 593 171 1;
#X obj 613 215 f;
#X obj 538 87 f \$4;
#X obj 300 249 inlet;
#X obj 335 453 outlet;
#X obj 623 43 inlet;
#X connect 0 0 8 0;
#X connect 1 0 6 0;
#X connect 2 0 4 0;
#X connect 2 1 5 0;
#X connect 3 0 4 0;
#X connect 3 1 2 0;
#X connect 4 0 5 0;
#X connect 5 0 0 1;
#X connect 6 0 3 0;
#X connect 7 0 0 0;
#X connect 9 0 6 0;
#X restore 164 550 pd curve;
#X text 85 25 x y sound position;
#X text 321 27 x y speaker position;
#X obj 192 197 min \$3;
#X obj 192 263 / \$3;
#X obj 515 54 inlet;
#X text 519 29 max distance;
#X obj 650 76 inlet;
#X text 652 55 curve;
#X obj 668 195 max 0;
#X connect 0 0 1 0;
#X connect 1 0 7 0;
#X connect 3 0 1 1;
#X connect 4 0 2 0;
#X connect 7 0 8 0;
#X connect 8 0 4 0;
#X connect 9 0 7 1;
#X connect 9 0 8 1;
#X connect 11 0 13 0;
#X connect 13 0 4 1;
