#N canvas 69 22 726 501 10;
#X text 78 136 Abelian Groups:;
#X text 80 229 Abelian Monoids:;
#X text 79 349 Rings (incl Fields):;
#X obj 134 87 r \$0-b;
#X obj 309 87 r \$0-b;
#X obj 460 87 r \$0-b;
#X obj 26 69 s \$0-b;
#X obj 26 50 inlet bang;
#X obj 14 464 r \$0-r;
#X obj 14 483 outlet reports;
#X obj 134 456 s \$0-r;
#X obj 309 456 s \$0-r;
#X obj 460 456 s \$0-r;
#X obj 134 157 commutative-test \$1 +;
#X obj 134 367 distributive-test \$1 + *;
#X obj 309 177 associative-test \$1 *;
#X obj 460 177 invertible-test \$1 * /;
#X obj 134 177 commutative-test \$1 *;
#X obj 134 197 commutative-test \$1 ^;
#X obj 134 247 commutative-test \$1 &;
#X obj 134 267 commutative-test \$1 |;
#X obj 309 247 associative-test \$1 &;
#X obj 309 267 associative-test \$1 |;
#X obj 309 157 associative-test \$1 +;
#X obj 309 197 associative-test \$1 ^;
#X obj 460 197 invertible-test \$1 ^ ^;
#X obj 460 157 invertible-test \$1 + -;
#X obj 134 387 distributive-test \$1 ^ &;
#X text 17 11 This is the testclass for + \, - \, * \, / \, div \,
pow \, % \, mod;
#X obj 134 296 commutative-test \$1 min;
#X obj 134 317 commutative-test \$1 max;
#X obj 309 296 associative-test \$1 min;
#X obj 309 316 associative-test \$1 max;
#X text 18 25 And also for & \, | \, ^ \, min \, max;
#X connect 3 0 13 0;
#X connect 3 0 14 0;
#X connect 3 0 17 0;
#X connect 3 0 18 0;
#X connect 3 0 19 0;
#X connect 3 0 20 0;
#X connect 3 0 27 0;
#X connect 3 0 29 0;
#X connect 3 0 30 0;
#X connect 4 0 15 0;
#X connect 4 0 21 0;
#X connect 4 0 22 0;
#X connect 4 0 23 0;
#X connect 4 0 24 0;
#X connect 4 0 31 0;
#X connect 4 0 32 0;
#X connect 5 0 16 0;
#X connect 5 0 25 0;
#X connect 5 0 26 0;
#X connect 7 0 6 0;
#X connect 8 0 9 0;
#X connect 13 0 10 0;
#X connect 14 0 10 0;
#X connect 15 0 11 0;
#X connect 16 0 12 0;
#X connect 17 0 10 0;
#X connect 18 0 10 0;
#X connect 19 0 10 0;
#X connect 20 0 10 0;
#X connect 21 0 11 0;
#X connect 22 0 11 0;
#X connect 23 0 11 0;
#X connect 24 0 11 0;
#X connect 25 0 12 0;
#X connect 26 0 12 0;
#X connect 27 0 10 0;
#X connect 29 0 10 0;
#X connect 30 0 10 0;
#X connect 31 0 11 0;
#X connect 32 0 11 0;
