#N canvas 375 37 484 454 12;
#X floatatom 129 403 0 0 0 0 - - -;
#N canvas 159 26 495 266 output 0;
#X obj 338 160 t b;
#X obj 338 110 f;
#X obj 338 60 inlet;
#X text 344 29 mute;
#X obj 338 185 f;
#X msg 425 178 0;
#X msg 338 85 bang;
#X obj 338 135 moses 1;
#X obj 425 153 t b f;
#X obj 397 117 moses 1;
#X obj 83 148 dbtorms;
#X obj 397 92 r master-lvl;
#X obj 83 42 r master-lvl;
#X obj 338 210 s master-lvl;
#X obj 22 182 inlet~;
#X obj 199 41 inlet;
#X text 199 18 level;
#X obj 199 100 s master-lvl;
#X msg 96 65 set \$1;
#X obj 96 89 outlet;
#X msg 214 64 \; pd dsp 1;
#X obj 83 194 line~;
#X obj 22 212 *~;
#X obj 22 241 dac~;
#X obj 83 171 pack 0 50;
#X text 20 159 audio;
#X text 93 110 show level;
#X connect 0 0 4 0;
#X connect 1 0 7 0;
#X connect 2 0 6 0;
#X connect 4 0 13 0;
#X connect 5 0 13 0;
#X connect 6 0 1 0;
#X connect 7 0 0 0;
#X connect 7 1 8 0;
#X connect 8 0 5 0;
#X connect 9 1 4 1;
#X connect 10 0 24 0;
#X connect 11 0 1 1;
#X connect 11 0 9 0;
#X connect 12 0 10 0;
#X connect 12 0 18 0;
#X connect 14 0 22 0;
#X connect 15 0 17 0;
#X connect 15 0 20 0;
#X connect 18 0 19 0;
#X connect 21 0 22 1;
#X connect 22 0 23 0;
#X connect 22 0 23 1;
#X connect 24 0 21 0;
#X restore 105 428 pd output;
#X msg 154 403 MUTE;
#X text 195 402 <-- output amplitude;
#X obj 97 167 sinevoice 1 0.56 0 1;
#X obj 243 42 unpack 0 0 0;
#X floatatom 242 84 0 0 0 0 - - -;
#X obj 217 62 t b f;
#X floatatom 276 84 0 0 0 0 - - -;
#X floatatom 310 84 0 0 0 0 - - -;
#X obj 217 105 f;
#X msg 170 84 bang;
#X obj 217 127 pack 0 0 0;
#X msg 243 20 80 72 5000;
#X obj 97 189 sinevoice 0.67 0.56 1 0.9;
#X obj 97 211 sinevoice 1 0.92 0 0.65;
#X obj 97 233 sinevoice 1.8 0.92 1.7 0.55;
#X obj 97 255 sinevoice 2.67 1.19 0 0.325;
#X obj 97 277 sinevoice 1.67 1.7 0 0.35;
#X obj 97 299 sinevoice 1.46 2 0 0.25;
#X obj 97 321 sinevoice 1.33 2.74 0 0.2;
#X obj 97 343 sinevoice 1 3 0 0.15;
#X obj 97 365 sinevoice 1.33 4.07 0 0.075;
#X connect 0 0 1 1;
#X connect 1 0 0 0;
#X connect 2 0 1 2;
#X connect 4 0 14 0;
#X connect 4 1 14 1;
#X connect 5 0 7 0;
#X connect 5 1 8 0;
#X connect 5 2 9 0;
#X connect 6 0 10 1;
#X connect 7 0 10 0;
#X connect 7 1 6 0;
#X connect 8 0 12 1;
#X connect 9 0 12 2;
#X connect 10 0 12 0;
#X connect 11 0 10 0;
#X connect 12 0 4 1;
#X connect 13 0 5 0;
#X connect 14 0 15 0;
#X connect 14 1 15 1;
#X connect 15 0 16 0;
#X connect 15 1 16 1;
#X connect 16 0 17 0;
#X connect 16 1 17 1;
#X connect 17 0 18 0;
#X connect 17 1 18 1;
#X connect 18 0 19 0;
#X connect 18 1 19 1;
#X connect 19 0 20 0;
#X connect 19 1 20 1;
#X connect 20 0 21 0;
#X connect 20 1 21 1;
#X connect 21 0 22 0;
#X connect 21 1 22 1;
#X connect 22 0 1 0;
