#N canvas 19 0 594 599 12;
#X floatatom 107 202 0 0 0 0 - - -;
#X floatatom 11 202 0 0 0 0 - - -;
#X text 140 17 STOP;
#X text 20 3 START;
#X floatatom 78 358 0 0 0 0 - - -;
#X obj 78 337 r incr;
#X obj 65 310 metro 50;
#X floatatom 64 426 0 0 0 0 - - -;
#X obj 62 494 s phase;
#X obj 62 474 + 10000;
#X obj 64 406 +;
#X obj 11 222 s dropoff+;
#X obj 186 221 s interval+;
#X floatatom 186 201 0 0 0 0 - - -;
#X obj 107 222 s pitch+;
#X obj 11 182 r dropoff;
#X obj 107 182 r pitch;
#X obj 186 181 r interval;
#X floatatom 65 289 0 0 0 0 - - -;
#X obj 65 269 r metro;
#X obj 124 406 f;
#X obj 295 467 *~;
#X obj 295 15 shepvoice 0;
#X obj 315 441 line~;
#X obj 471 408 pack 0 100;
#X floatatom 471 367 0 0 0 0 - - -;
#X obj 471 347 r amp;
#X obj 295 519 dac~;
#X obj 471 387 dbtorms;
#X floatatom 372 464 0 0 0 0 - - -;
#X obj 372 444 r rev;
#X obj 420 440 r revtime;
#X floatatom 420 461 0 0 0 0 - - -;
#X obj 313 497 rev4~;
#X obj 124 426 mod 10000;
#X obj 295 36 shepvoice 500;
#X obj 295 56 shepvoice 1000;
#X obj 295 77 shepvoice 1500;
#X obj 295 97 shepvoice 2000;
#X obj 295 117 shepvoice 2500;
#X obj 295 138 shepvoice 3000;
#X obj 295 158 shepvoice 3500;
#X obj 295 179 shepvoice 4000;
#X obj 295 199 shepvoice 4500;
#X obj 295 219 shepvoice 5000;
#X obj 295 240 shepvoice 5500;
#X obj 295 260 shepvoice 6000;
#X obj 295 281 shepvoice 6500;
#X obj 295 301 shepvoice 7000;
#X obj 295 321 shepvoice 7500;
#X obj 295 342 shepvoice 8000;
#X obj 295 362 shepvoice 8500;
#X obj 295 385 shepvoice 9000;
#X obj 295 405 shepvoice 9500;
#X obj 65 380 f;
#X msg 140 35 \; amp 0 \;;
#X msg 6 18 \; dropoff 10 \; pitch 60 \; interval 120 \; metro 1 \;
rev 74 \; revtime 87 \; incr -2 \; pd dsp 1;
#X connect 0 0 14 0;
#X connect 1 0 11 0;
#X connect 4 0 54 1;
#X connect 5 0 4 0;
#X connect 6 0 54 0;
#X connect 7 0 9 0;
#X connect 9 0 8 0;
#X connect 10 0 20 0;
#X connect 10 0 7 0;
#X connect 13 0 12 0;
#X connect 15 0 1 0;
#X connect 16 0 0 0;
#X connect 17 0 13 0;
#X connect 18 0 6 0;
#X connect 19 0 18 0;
#X connect 20 0 34 0;
#X connect 21 0 27 0;
#X connect 21 0 33 0;
#X connect 22 0 35 0;
#X connect 23 0 21 1;
#X connect 24 0 23 0;
#X connect 25 0 28 0;
#X connect 26 0 25 0;
#X connect 28 0 24 0;
#X connect 29 0 33 1;
#X connect 30 0 29 0;
#X connect 31 0 32 0;
#X connect 32 0 33 2;
#X connect 33 0 27 0;
#X connect 33 1 27 1;
#X connect 34 0 10 1;
#X connect 35 0 36 0;
#X connect 36 0 37 0;
#X connect 37 0 38 0;
#X connect 38 0 39 0;
#X connect 39 0 40 0;
#X connect 40 0 41 0;
#X connect 41 0 42 0;
#X connect 42 0 43 0;
#X connect 43 0 44 0;
#X connect 44 0 45 0;
#X connect 45 0 46 0;
#X connect 46 0 47 0;
#X connect 47 0 48 0;
#X connect 48 0 49 0;
#X connect 49 0 50 0;
#X connect 50 0 51 0;
#X connect 51 0 52 0;
#X connect 52 0 53 0;
#X connect 53 0 21 0;
#X connect 54 0 10 0;
