#N canvas 63 20 638 403 12;
#X obj 300 253 pack 0 50;
#X obj 243 203 pack 0 50;
#X obj 151 216 inlet~;
#X obj 243 232 line~;
#X obj 300 278 line~;
#X obj 243 297 *~;
#X obj 151 316 +~;
#X obj 151 342 outlet~;
#X obj 399 121 r pitch+;
#X obj 326 108 r interval+;
#X obj 297 144 expr $f1 * $f2 + $f3;
#X obj 537 90 r dropoff+;
#X obj 297 75 expr ($i1% 10000) * 0.0002 - 1;
#X obj 296 20 r phase;
#X obj 296 47 + \$1;
#X obj 457 114 expr exp(-$f1*$f1*$f2);
#X obj 243 179 mtof;
#X obj 243 258 osc~;
#X connect 0 0 4 0;
#X connect 1 0 3 0;
#X connect 2 0 6 0;
#X connect 3 0 17 0;
#X connect 4 0 5 1;
#X connect 5 0 6 1;
#X connect 6 0 7 0;
#X connect 8 0 10 2;
#X connect 9 0 10 1;
#X connect 10 0 16 0;
#X connect 11 0 15 1;
#X connect 12 0 10 0;
#X connect 12 0 15 0;
#X connect 13 0 14 0;
#X connect 14 0 12 0;
#X connect 15 0 0 0;
#X connect 16 0 1 0;
#X connect 17 0 5 0;
