#N canvas 339 313 1051 667 10;
#X obj 358 266 select;
#X obj 385 327 f;
#X obj 358 389 pack;
#X obj 358 297 t b b;
#X obj 102 293 nbx 2 14 1 128 0 0 \$0-padNumber \$0-padNumberR Pad
32 7 0 11 -154432 -1 -1 1 256;
#X obj 102 276 nbx 2 14 0 127 0 0 \$0-noteNumber \$0-noteNumberLearn
Note 32 7 0 11 -260624 -1 -1 0 256;
#X obj 442 406 outlet;
#X obj 137 263 bng 13 250 50 0 \$0-learnOn empty empty 0 -6 0 8 -259541
-1 -1;
#X obj 103 265 bng 8 250 50 0 empty empty empty 0 -6 0 8 -1 -262085
-1;
#X obj 114 265 bng 8 250 50 0 empty empty empty 0 -6 0 8 -1 -262085
-1;
#X obj 125 265 bng 8 250 50 0 empty empty empty 0 -6 0 8 -1 -262085
-1;
#X obj 412 249 r \$0-noteNumber;
#X obj 267 327 r \$0-padNumber;
#X obj 358 229 spigot;
#X obj 152 263 nbx 2 13 1 64 0 0 \$0devNo \$1/devNo empty 0 -6 0 10
-110565 -1 -1 1 256;
#X msg 733 461 1;
#X obj 733 493 pack;
#X msg 792 444 set \$1;
#X obj 801 336 r \$0-noteNumber;
#X obj 792 420 r \$0-padNumber;
#X obj 755 314 spigot;
#X obj 724 62 polytouchin;
#X obj 722 383 spigot;
#X obj 733 435 t b f;
#X obj 41 411 instance lnote;
#X obj 41 436 s \$0-padNumberR;
#X obj 722 284 / 127;
#X obj 400 297 / 127;
#N canvas 73 463 470 331 midiLearn 0;
#X text 288 89 Route Number;
#X obj 24 18 r \$0-learnOn;
#X obj 230 119 spigot;
#X obj 267 95 tgl 15 0 empty empty empty 0 -6 0 8 -262144 -1 -1 0 1
;
#X obj 24 170 metro 250;
#X obj 24 198 count 3;
#X obj 24 227 route 0 1 2;
#X obj 73 80 t b b;
#X obj 24 145 tgl 15 0 empty empty empty 0 -6 0 8 -262144 -1 -1 0 1
;
#X msg 73 141 reset;
#X text 337 62 Learn Time-Window;
#X obj 230 141 s \$0-noteNumberLearn;
#X obj 267 62 pipe 1000;
#X obj 24 300 outlet;
#X obj 48 280 outlet;
#X obj 72 260 outlet;
#X obj 230 14 inlet;
#X connect 1 0 3 0;
#X connect 1 0 8 0;
#X connect 1 0 12 0;
#X connect 2 0 11 0;
#X connect 3 0 2 1;
#X connect 4 0 5 0;
#X connect 5 0 6 0;
#X connect 6 0 13 0;
#X connect 6 1 14 0;
#X connect 6 2 15 0;
#X connect 7 0 9 0;
#X connect 7 1 8 0;
#X connect 8 0 4 0;
#X connect 9 0 5 0;
#X connect 12 0 3 0;
#X connect 12 0 7 0;
#X connect 16 0 2 0;
#X restore 80 164 pd midiLearn;
#X obj 336 104 t a;
#X obj 365 104 t a;
#X obj 395 104 t a;
#X obj 349 53 notein;
#X text 351 17 Intercepts for looping back MIDI (e.g. from sft.schoen)
;
#X obj 755 353 ==;
#X obj 722 610 s;
#X obj 391 138 div 16;
#X obj 391 198 ==;
#X obj 406 176 r \$0devNo;
#X obj 483 151 mod 16;
#X obj 456 121 t f f;
#X obj 483 171 s \$0channel;
#X obj 576 132 loadbang;
#X msg 576 154 1;
#X obj 391 157 + 1;
#X obj 788 224 div 16;
#X obj 788 284 ==;
#X obj 804 262 r \$0devNo;
#X obj 880 238 mod 16;
#X obj 853 207 t f f;
#X obj 880 258 s \$0channel;
#X obj 788 243 + 1;
#X obj 358 549 s \$1\$2/note;
#X obj 733 522 s \$1\$2/tch;
#X obj 722 166 t a;
#X obj 755 166 t a;
#X obj 791 166 t a;
#X obj 722 408 t a;
#X obj 415 327 sel 0;
#X text 532 345 Relay initial velocity;
#X text 532 361 to polytouch to remove;
#X text 532 377 delay;
#X obj 241 53 nr sft.notein 3;
#X obj 814 62 nr sft.polytouchin 3;
#X obj 388 438 prepent set;
#X obj 388 460 s \$1\$2/GUIR;
#X obj 388 487 r \$1\$2/GUI;
#X obj 358 327 f;
#N canvas 0 22 447 370 padSelect 0;
#X obj 80 39 inlet;
#X obj 99 141 spigot 1;
#X obj 235 99 r padSelect;
#X obj 99 277 outlet;
#X obj 126 234 s lastPad;
#X obj 126 207 spigot;
#X obj 159 183 r lastPadTgl;
#X obj 235 124 == 0;
#X obj 80 112 s padSelect;
#X msg 80 91 0;
#X obj 80 68 t a a a;
#X obj 168 68 spigot;
#X obj 168 89 s lastPad;
#X connect 0 0 10 0;
#X connect 1 0 5 0;
#X connect 1 0 3 0;
#X connect 2 0 7 0;
#X connect 2 0 11 1;
#X connect 5 0 4 0;
#X connect 6 0 5 1;
#X connect 7 0 1 1;
#X connect 9 0 8 0;
#X connect 10 0 9 0;
#X connect 10 1 1 0;
#X connect 10 2 11 0;
#X connect 11 0 12 0;
#X restore 358 349 pd padSelect;
#X obj 191 627 s;
#X obj 206 562 r \$0-padNumber;
#X obj 206 583 list prepend \$3;
#X msg 206 604 symbol \$1\$2/velocity/in;
#X obj 456 327 s \$0velocity;
#X obj 625 391 r \$0velocity;
#X obj 191 542 r \$0velocity;
#X msg 737 588 symbol \$1\$2/polytouch/in;
#X obj 737 567 list prepend \$3;
#X obj 737 547 r \$0-padNumber;
#X obj 268 354 s \$0note;
#X obj 385 369 s \$0trigger;
#X obj 51 627 s;
#X obj 66 562 r \$0-padNumber;
#X obj 66 583 list prepend \$3;
#X msg 66 604 symbol \$1\$2/note/in;
#X obj 51 542 r \$0note;
#X obj 507 516 r \$0trigger;
#X obj 507 627 s;
#X obj 522 562 r \$0-padNumber;
#X obj 522 583 list prepend \$3;
#X msg 522 604 symbol \$1\$2/trigger/in;
#X obj 507 538 != 0;
#X obj 942 505 r \$1/solo;
#X obj 942 527 sel 0;
#X obj 969 551 sel \$2;
#X msg 942 585 1;
#X obj 942 615 s \$0.solo?;
#X msg 1002 585 0;
#X obj 229 162 ifspigot \$0.solo? t 1;
#X obj 43 354 sssadie/sssad-lg \$1 \$2/pad;
#X obj 43 335 sssadie/sssad-lg \$1 \$2/note;
#X obj 43 316 sssadie/sssad-lg \$1 \$2/channel;
#X floatatom 352 192 5 0 0 0 - - -;
#X obj 1002 524 print;
#X connect 0 0 3 0;
#X connect 1 0 2 1;
#X connect 1 0 58 0;
#X connect 1 0 80 0;
#X connect 2 0 6 0;
#X connect 2 0 64 0;
#X connect 2 0 52 0;
#X connect 3 0 67 0;
#X connect 3 1 1 0;
#X connect 4 0 99 1;
#X connect 5 0 100 1;
#X connect 11 0 0 1;
#X connect 12 0 67 1;
#X connect 13 0 0 0;
#X connect 14 0 101 1;
#X connect 15 0 16 0;
#X connect 16 0 53 0;
#X connect 17 0 15 0;
#X connect 18 0 34 1;
#X connect 19 0 17 0;
#X connect 20 0 34 0;
#X connect 21 0 54 0;
#X connect 21 1 55 0;
#X connect 21 2 56 0;
#X connect 22 0 57 0;
#X connect 23 0 15 0;
#X connect 23 1 16 1;
#X connect 24 0 25 0;
#X connect 26 0 22 0;
#X connect 27 0 1 1;
#X connect 28 0 8 0;
#X connect 28 1 9 0;
#X connect 28 2 10 0;
#X connect 29 0 28 0;
#X connect 29 0 98 0;
#X connect 30 0 27 0;
#X connect 31 0 40 0;
#X connect 32 0 29 0;
#X connect 32 1 30 0;
#X connect 32 2 31 0;
#X connect 34 0 22 1;
#X connect 36 0 44 0;
#X connect 37 0 13 1;
#X connect 38 0 37 1;
#X connect 39 0 41 0;
#X connect 40 0 36 0;
#X connect 40 1 39 0;
#X connect 42 0 43 0;
#X connect 43 0 41 0;
#X connect 44 0 37 0;
#X connect 45 0 51 0;
#X connect 46 0 20 1;
#X connect 47 0 46 1;
#X connect 48 0 50 0;
#X connect 49 0 45 0;
#X connect 49 1 48 0;
#X connect 51 0 46 0;
#X connect 54 0 26 0;
#X connect 55 0 20 0;
#X connect 56 0 49 0;
#X connect 57 0 23 0;
#X connect 57 0 35 0;
#X connect 58 1 73 0;
#X connect 62 0 29 0;
#X connect 62 1 30 0;
#X connect 62 2 31 0;
#X connect 63 0 54 0;
#X connect 63 1 55 0;
#X connect 63 2 56 0;
#X connect 64 0 65 0;
#X connect 66 0 52 0;
#X connect 67 0 68 0;
#X connect 67 0 79 0;
#X connect 68 0 2 0;
#X connect 70 0 71 0;
#X connect 71 0 72 0;
#X connect 72 0 69 1;
#X connect 74 0 57 0;
#X connect 75 0 69 0;
#X connect 76 0 35 1;
#X connect 77 0 76 0;
#X connect 78 0 77 0;
#X connect 82 0 83 0;
#X connect 83 0 84 0;
#X connect 84 0 81 1;
#X connect 85 0 81 0;
#X connect 86 0 91 0;
#X connect 88 0 89 0;
#X connect 89 0 90 0;
#X connect 90 0 87 1;
#X connect 91 0 87 0;
#X connect 92 0 93 0;
#X connect 92 0 103 0;
#X connect 93 0 95 0;
#X connect 93 1 94 0;
#X connect 94 0 95 0;
#X connect 94 1 97 0;
#X connect 95 0 96 0;
#X connect 97 0 96 0;
#X connect 98 0 13 0;
#X connect 98 1 102 0;
#X connect 99 0 4 0;
#X connect 100 0 5 0;
#X connect 101 0 14 0;
#X coords 0 -1 1 1 81 60 1 100 250;
